/* XPM */
static char *result[] = {
/* columns rows colors chars-per-pixel */
"64 64 222 2 ",
"   c #333A1A",
".  c #3C5828",
"X  c #3C6326",
"o  c #3E6528",
"O  c #4C5E1F",
"+  c #425727",
"@  c #4C5D25",
"#  c #4A6428",
"$  c #456C2C",
"%  c #4C6C2B",
"&  c #556829",
"*  c #536D2B",
"=  c #46722E",
"-  c #4B732E",
";  c #48792F",
":  c #5F7526",
">  c #53732D",
",  c #5B742D",
"<  c #567A2F",
"1  c #5B7A2E",
"2  c #486734",
"3  c #586A3A",
"4  c #4D7631",
"5  c #4A7D31",
"6  c #557C32",
"7  c #5A7D32",
"8  c #567538",
"9  c #667C2B",
"0  c #647C2E",
"q  c #647A37",
"w  c #6A7E33",
"e  c #5A6547",
"r  c #597345",
"t  c #626F49",
"y  c #647344",
"u  c #6B7A43",
"i  c #69764A",
"p  c #717E4F",
"a  c #6A7655",
"s  c #737D56",
"d  c #797E6A",
"f  c #5D842F",
"g  c #4E8433",
"h  c #538434",
"j  c #5D8333",
"k  c #558A34",
"l  c #5D8B35",
"z  c #5A8539",
"x  c #5F9135",
"c  c #6B832D",
"v  c #6D872F",
"b  c #708A2E",
"n  c #76942A",
"m  c #78962E",
"M  c #7B992E",
"N  c #628533",
"B  c #6C8332",
"V  c #6C8737",
"C  c #638C35",
"Z  c #658B3A",
"A  c #738A36",
"S  c #738C34",
"D  c #748D3A",
"F  c #669236",
"G  c #699537",
"H  c #6C9A37",
"J  c #659438",
"K  c #6A9639",
"L  c #6D9A38",
"P  c #769134",
"I  c #7A9434",
"U  c #729D37",
"Y  c #7D9835",
"T  c #7C9539",
"R  c #729D38",
"E  c #7E9B39",
"W  c #76A139",
"Q  c #7CA33A",
"!  c #6C8143",
"~  c #6A8944",
"^  c #748848",
"/  c #7B9743",
"(  c #7D9542",
")  c #748E58",
"_  c #7A895A",
"`  c #7C8568",
"'  c #7E9768",
"]  c #819C36",
"[  c #829D3A",
"{  c #85A335",
"}  c #85A33B",
"|  c #89A63B",
" . c #84AA3C",
".. c #8DAC3B",
"X. c #90AF3D",
"o. c #8FB03A",
"O. c #91B236",
"+. c #94B43E",
"@. c #97B93E",
"#. c #98BA3E",
"$. c #839B44",
"%. c #82974C",
"&. c #818E5C",
"*. c #829453",
"=. c #879959",
"-. c #85A142",
";. c #8AA543",
":. c #8DAC43",
">. c #8BA74E",
",. c #8FA94C",
"<. c #92AF46",
"1. c #90AC4C",
"2. c #8EB042",
"3. c #94B441",
"4. c #97B840",
"5. c #99BA40",
"6. c #94B14A",
"7. c #8EA658",
"8. c #93AC55",
"9. c #96AB5D",
"0. c #92B152",
"q. c #838D63",
"w. c #848A6B",
"e. c #8B9866",
"r. c #92996D",
"t. c #828974",
"y. c #879777",
"u. c #8C9173",
"i. c #939C72",
"p. c #959978",
"a. c #8BA263",
"s. c #93A363",
"d. c #93A36A",
"f. c #99A969",
"g. c #9AA777",
"h. c #9EB477",
"j. c #A3AF79",
"k. c #A5B27C",
"l. c #8E978D",
"z. c #9A9D84",
"x. c #989C87",
"c. c #99A684",
"v. c #9DA48A",
"b. c #9BA998",
"n. c #9EB298",
"m. c #A2A584",
"M. c #A3AA84",
"N. c #A2AB8B",
"B. c #AAAC8B",
"V. c #A6B286",
"C. c #ABB38A",
"Z. c #B4B58D",
"A. c #B1B98A",
"S. c #A7AB90",
"D. c #ABAD94",
"F. c #AAB29B",
"G. c #B6BB93",
"H. c #B9BB92",
"J. c #B3B59D",
"K. c #B5B898",
"L. c #BABC9A",
"P. c #A7B4A5",
"I. c #B8BAA4",
"U. c #BDC19C",
"Y. c #BAC3AD",
"T. c #BCC3B8",
"R. c #C3C59D",
"E. c #C3C5A2",
"W. c #CACCA3",
"Q. c #C6C8AB",
"!. c #CDCDAC",
"~. c #CFD0AA",
"^. c #D1D2AC",
"/. c #DAD7AE",
"(. c #DCDAAF",
"). c #CBCDB1",
"_. c #C4C8BD",
"`. c #D1CFB3",
"'. c #CFD1B8",
"]. c #D3D3B3",
"[. c #DCDBB3",
"{. c #D4D4BB",
"}. c #DBDBBB",
"|. c #DFE0BD",
" X c #E3E2B6",
".X c #E2E2BC",
"XX c #EDEBBD",
"oX c #B8C1C3",
"OX c #C7CBC9",
"+X c #CCD0CF",
"@X c #D6D8C0",
"#X c #DDDDC3",
"$X c #D3D5D5",
"%X c #D9DAD9",
"&X c #E0DEC4",
"*X c #E3E4C3",
"=X c #EBECC4",
"-X c #E2E2CA",
";X c #E8E8C8",
":X c #EDECCA",
">X c #F1EEC7",
",X c #F6F5C5",
"<X c #F9F6C5",
"1X c #F5F4CC",
"2X c #F9F6CB",
"3X c #F7F8CC",
"4X c #FDFDCE",
"5X c #ECEBD3",
"6X c #EEEFD9",
"7X c #F0F0D2",
"8X c #F5F4D3",
"9X c #FAF7D1",
"0X c #FDFDD3",
"qX c #F5F4DB",
"wX c #F7F8D9",
"eX c #FEFEDB",
"rX c #DEE1E1",
"tX c #E5E8EA",
"yX c #FFFFE3",
"uX c #FFFFE8",
"iX c #F5F5F6",
"pX c #FEFEFE",
/* pixels */
"yXyXyXwX<X<XwX2X2X9XeXeXyX0X0X0X0X4X0XeX8X].Q.I.a s Q.2X9XqX{.{.;X3X3XqXwXyXyXeXeXyXyXyXyXeXeXeXyXyXyXyXyXuXyXeXeXeX0X0XeXyXyXyX",
"yXyXyX9X<X<X9X<X<X9X0XeXeX0X4X4X0X0X0X1XK.^ $.( -.E g./.}.S.^ ( _ ` i.x.v.'.qXeX0XeXqXqXwXeXeXyXyXyXyXyXyXyXeXeXeXeX4X4X0XyXyXyX",
"yXyXyX9X<X<X2X<X<X9XeXeXeX0X3X<X1X1X,X).^  .Q Q W P V t 3 D  . .:.:.:.2.2._ Q.8X=X{.v.w.v.#X0XeXyXyXuXyXyXyXeXeXeXeX4X4XeXyXyXyX",
"yXyXyXyXyXyXuXyXyXyXyXyXyX=XK._ ^ ` ` ^ Q L C C L G B , V Q H L R R H W W T ^ a i ! -.2.-.i.}.>XeXeXyXyXeXyXeX0X0XyXeXeXeXuXyXuX",
"yXyXyXyXyXyXuXyXyXuXyXyX5XS.( ....2.2. .U H J F K 6 f H H H H H L L C C H W  .} 0 P R L W q p u.{.:X1X8X1X8X0X4X4XeXeX0XeXyXyXyX",
"yXyXyXyXyXyXyXyXyXuXyX-XJ.^ Q L H H L L H H H H C 6 F H H H H H H J j h F H L H C > N C H  .} A y u p u.w.p.].,X4XeX0XeXyXyXyXyX",
"eXeXeXeXeXeXwXeX7X5X#Xw.$./ F C F 7 6 H H H H H F 1 N H H H H H H H C F H H H H G > 7 C F G < N  .....2.2.2.) ].>XeX0XeXyXyXyXyX",
"0X0X0X2X<X<X9XXXC.a 3 + * * % > 1 C F H H H H H H C > f H H H H H H H H H L H H C < C H N > 1 G K G L L L W P ! p.;X4X0X0X0XeXeX",
"4X0X0X2X<X<X2X^.8 K L G H H H C # 6 C j 4 6 Z H H H F F H H H H H H F J L H H L j 7 F H - C H H N 6 F H H H W  .$.K.<X4X0XeX0XeX",
"eXeXeXeX9X9XwXR.q K K K H H H G K N < j g h C L H J G H H H H H H F 6 j J H H F j G F C * C H H j 4 C H H H H U E _ }.9X0XeX9XeX",
"yXyXyXeXeXeX8Xm.z F 7 6 H H H H H G C C 4 j F H F 6 < F H H H H H G C F L L L L H H F j C F H H G C G H H G K L L / M.XX2X<X3X3X",
"yXyXyXyX0X=XQ.8 R G 4 6 F H H H H L L H K K L H F 6 h l H H H H G H H H L L C C H H H L H H H H H H H H C - G L H R V H.,X<X<X<X",
"yXyXyXyX*Xu.8 C L L C C H H H H H H H H F j G H H F C H H L H F j F H H H C 6 4 C L G G H H H G G H H G K C G U H H Q p ;X2X2X9X",
"0X0X4X5Xx.Z H L L L C Z H H H H H H H H C < C H G F G H L H L l 6 l C G H K j j G C 6 C H H H G C G F C J L L H H L H ! |.4X0XeX",
"0X4X.XS.r L H L F F 6 7 H H H H H H H H H H H H C 6 C H H L H H L C N F H H L H H K G H H H G C l L 6 4 j L H H H H H y =X4X4X0X",
"0X0X` Z K H H C 4 j H K H H H H H H H H H H H H H G H H H L H H H H H L H H H H H H H H H F C G L L j 6 C H H H H H H t *X0X0X0X",
"yXyXe F H H H C 6 j H H G H H H H H H H F F H H H H H H H H H H H H H H H H H H H H H H L 6 % C L L H L C G G H H H G 3 I.qXyXyX",
"yXyXl.Z G H H H F H L j l H H H H H G l < 1 H H H H H H H H L H H H H H G G H H H H H H L C j G L H H L C l G L G G 6 * r {.yXyX",
"yXyXD.~ H H H H H L H 7 j L L H H H C # - J H H H H G C F J C f C G G L j j G G F J L L C J H H H H H F J H H H G 6 6 G ~ x.yXyX",
"eXeXY.^ F H H H H H H H L L H G F C f # < x G G F J l < < 1 , & % j G H < & 7 0 0 f N C < 6 G H H L G 6 N G H H C < G U K e eXeX",
"0X0X:Xd C H H H H H H G G G H F * @ B [ S % h k g g k $ 0 S Y S o l J x > A 0 B [ 0 . 6 4 & N L H H H C C L H H H H L K Z ` 0X0X",
"0X0X=X` K K C H H H J l N j C f & w [ 5.X.v $ 5 g g g = D :.| P o g g = B } [ 2.X., = $ 0 B > C H H H H L H H H G F K J t ~.4X0X",
"eXeXI.t L F 6 G H H H J j % # 0 T :.I ..5...c $ g g g $ A +.@.S X g ; * [ | 2.4.S $ $ 0 | X., , C H H H L K H L C 7 K z t.wXeXeX",
"eXeXa h x l 7 F x J G G G f # b @.@...[ 3.4...c $ g g = S 4.#.P $ g $ P +.+.@.} * # 0 | +.} D b * j C f N C J F J j x 8 I.0XeXeX",
"0XeX` 4 h k k k g g k k g g 5 - Y @.@...| 4.4.X.B % 5 ; S @.@.I $ $ B X.#.#.+.9 + 0 X.3.[ | 3.4.0 # % - ; j C h k k g a 6XeXeXeX",
"yXeX'.s 5 g g g g k g g g g = X @ [ 4.@.X.3.4.4.X.B % % I | B & # c [ X.+.#.[ & w X.+.| X.5.4.} , 4 5 k k l h 4 g g 8 x.yXqXwXeX",
"eXeXwXK.r ; 5 = r = g 5 4 r u.m.m.&.| @.@.@.@.@.5.X.P B T A @   0 | P , ] +.[ ] X.@.2.+.#.#.| 0 4 g g g g g g g 5 ; r ).eX<X<X3X",
"eX0XeX:XZ.i.y.b.I.x.a 2 & a m.E.[.~.e.| @.@.@.@.@.@.X.[ [ ] T w ] } : @ w X.+.X.@.@.@.@.@.X.0 # = 4 6 = 6 4 4 4 ` y.I.qXyX<X<X1X",
"eXeXeX0X1X.X#X6X6XF.q.q [ *.$.T Z.=X!.=.X.4.@.@.@.+.} Y } { Q Y | | P T [ [ +.#.@.@.@.@.+.%.u.` q P I 0 I w , , K.#XyXuXuX3X9XwX",
"0X0X0X0X4X0XeXyX'.E [ T +.} [ X.f..X1XU.%.3.@.@.@...b U n n m I T Y T Y [ ] [ +.@.@.@.@.( G.}.!.a...| E X.[ ] $.U.8XyXyXuXyXyXyX",
"0X0X4X0X4X4XeXwXQ.,.3.T 4.| A [ =.E.2X>XC.[ @.@.@.7.y.' b n M n B w I m n b T ;.@.@.@.[ N.XX2X].=.[ I } #.] X.<.Z.8XyXyXyXyXyXyX",
"0X0X0X0X0X0XyXyX&X/ | V [ T 0 [ -.f.[.eX.Xi...@.#.k.I.+XP.y./ n 9 c m S ' F.b.9.@.@.+.e.#X0X}.j.;.} w D [ B | $.~.wXyXuXyXyXyXyX",
"yXyXyXwX2X<XyXyXqXI.D [ [ w I ..@.1.K.eX3XU.I @.@.h.$XpXtX$Xb._ i ! ! b.+XrX+Xh.@.@.Y I.qX0XQ.9.@.| T B E [ T C.>X0X3X2X9X0X0X0X",
"yXyXyX9X<X,XeXyXyX;X=.3.+.[ 3.+.| j.[.0X4X~.v @.@.8._.pXpXpXtXOXl.l.oXrXpXpXOXs.@.@.U !.eX4XXXk.} +.3.$.3.@.&. X0X0X<X<X3X4X4X0X",
"yXyXyX9X<X2XeXuXyXwX~.f.| 3.+.=.A./.,XeX0X~.b @.@.O.N.tXpXpXpX%Xc.v.rXpXpXiXF.o.@.@.P ).wX0X0X|.U.=.3.+.| s.E.3X4X0X<X<X3X0X0X0X",
"yXyXyXyXeXeXyXyXyXyX9X].*.#.X.i.6XyXeXeX3XW.b 6.a.7.1.N.OX$XOXN.:.>.F.+X$XP.9.>.a.0.I W.eX0X0X0X8Xc.6.@.( ).0X0X0XeX0X0XeXeXeXeX",
"yXyXyXeXeXeXyXyXyXyXeX>Xg.@.X.d.qXyXyX9X<XW.9 c.T.P. .:.7.g.a...@.+.:.d.g.>.{ n.oXc.S W.9X4X4X0XeXg.2.@.e.6XeX0X0X0X0X4X0XeXeXeX",
"yXyXyXyXeXeXeXyXyXyXeXwXE.| +.9.'.yXyX9X<XE., F.rX+Xe.+.@.+.@.@.@.@.4.@.O.@./ OXtXP.~ W.9X4X4X0X#Xf.+...K.qXeX4X4X0X4X4X0XeXeXeX",
"eXeX9XyXeXeXuXyXyXyXeXeX-Xe.+.<.j.;XyXeX0X~.i T.iX$X' I +.@.@.@.@.@.@.#.+.{ ` +XiXoX) W.eX0X0X;XN.1.@.=.*XeXeX0X0XeX9X9XeXeXeXeX",
"1X<X<XeXeXeXyXyXyXeX4X4X2XR.$.@.>.j.Q.:X8X].q V.T.C.7.Q [ | 4.4.@.@.@.| E Q 7.C.Y.V.^ W.8X=X~.k.1.@.$.R.1X4X0X0X0X0X<X<X3X4X4X0X",
"2X<X<XeXeXeXyXyXyXeX4X0X0XXXH.$.+.:.9.j.C.p.v 3.X.O.@.+.| | [ [ } E } } ..+.@.O.:.2.P r.V.k.9.X.@.$.Z.>X4X4X0X0X0X0X<X<X2X0X4X0X",
"eX9X9XeXeXeXyXeXyXeX4X9X0X0X>XE.r.[ ....| P b @.#.@.@.@.@.@.X.........3.5.@.@.@.@.@.I P | ..X.] e.E.;XeXeXeXeX0X0XeX2X3X0X0X0XeX",
"eX0XeX0X4X4X0X0X4X0X<X<X9X0XeXwX.X!.G.k.j.&.b @.@.@.@.@.@.@.@.@.@.@.@.@.@.@.@.@.@.@.I &.g.M.K.).-XwXyXeX0XeXeX4X4X0X<X<X2XeXeXeX",
"eXeXeX0X4X4XeX4X4X4X<X<X9XeX0XeXeXeX1X;X XL.B @.@.@.@.@.@.@.@.@.@.5.@.@.@.@.@.@.@.@.m H.*X5X5XyXyXyXyXeXeX0X0X0X0X0X<X<X2XeXeXeX",
"yXyXeXyX0X0XeXeXeXeX2X9X9XeXeXeXeXeXyXeX0X^.b @.@.@.@.@.@.@.@.@.@.@.@.@.@.@.@.@.@.@.Y W.eXyXyXyXyXyXyXyXeXeXyX0X0XeX9X9XeXeXyXyX",
"yXyXyXeXeX0X0X0X4X0X0X4X0X1X2X<XeXeXeX0X0X~.b @.@.@.@.@.@.@.@.@.@.@.@.@.@.@.@.@.@.@.Y R.9X<X<X1XeXeXeXeXeX0XeXeXeXeX4X4XeXyXyXyX",
"yXyXyXeXeX0XeX4X0X0X4X4X0X3X2X2XeXeXeX0X4X~.b @.@.@.@.@.@.@.@.@.@.@.@.5.@.@.@.5.@.@.I W.9X<X<X2XeX0XeXeX0XeXeXeXeXeX4X4XeXyXyXyX",
"yXyXyXyXeXeXeX0X0X0X0X0XeX2X2X2XeXeXeXeX4X^.c @.@.@.@.@.@.@.@.@.@.@.@.@.@.@.@.@.@.@.b W.wX3X2X2XeXeXeXyXeXeXyXeXeXeX0X0XeXyXyXyX",
"yXyXyXyXeXeXyXyXeXuXyXyXyXeXeXeXuXyXyXyXyX@Xu o.+.@.@.@.@.@.@.@.@.@.@.@.@.@.@.@.+.o.0 {.eX4X0X0X3X3X2X0X0X0X0X0X4XeXeXeXeX3X2X2X",
"yXyXyXeXeXeXyXyXyXuXyXyXyXeXeXeXyXyXyXuXyX5Xc.Y ....o.O.+.O.+.@.+.@.+.O.+.O.o.o...{ u.*XeX4X4X0X3X<X<X0X4X0X0X4X4XeX0X0XeX<X2X2X",
"yXyXyXeXeX0XyXyXyXuXyXyXyXeXeXeXyXyXyXuXyXeX{.q.I | .. .............o.......| | Y _ ].0XyX0X0X0X2X2X2X0X0X4X0X0X0XeX0XeXeX<X<X2X",
"yXyXyXyXyXyXeX9X9XeXeXyXyX0XeXeXuXyXyXuXyXyXwX|.B.p c I [ { } } | { } } E I V ! c.}.wXyXyX3X2X9X9X2X3XyXeXeXeX0X0XeX9X9XwXyXyXyX",
"yXyXyXeXeXeX9X<X<X0XeX0XeX0X4X0XyXyXyXuXyXyXeX4X,X.XW.Z.p.t @ i i O 3 u.N.L.)..X,XeXyXyXyX<X<X2X2X<X2XeXeXeXeX4X0X0X<X<X9XyXyXyX",
"yXyXyXeX0XeXwX<X<X9XeXeXeX0X4X0XyXyXyXyXyXyXeX0X4X0X<XXX!.q.9 D.D.9 q.`.1X9X0X4X4XeXyXyXyX<X2X2X<X<X<XeXeX0XeX4X4X0X<X<X2XyXyXyX",
"eXwX9XyXyXyXeX2X3X0X9X0XeXyXeXyXeXeXeXuXyXyXyX0X0XeX0XeX}.d.P L.H.P d.}.0XeXeX0X0XyXeXyXyX0X0X0X0X0X0XyXeXeXeX0X0XeX0XeXeXuXuXuX",
"3X,X2XyXyXyXeX<X2X2X<X,X9XyXyXyX0X0X4XyXyXyXeX4X4XeXeX0X}.r.Y H.H.Y r.[.4X0XeX4X4X0XeX0XeX4X0X0X0X4X4XeXeX0XeX0X4XeXeX0XyXyXyXyX",
"2X<X<XyXyXyXeX<X<X3X<X<X9XyXyXyX0X4X0XyXeXyXeX9X3XeX0XeX}.9.Y H.H.Y s.[.4X9X0X4X2X9X9XeXeX0X0X0X0X0X4XyXeXeXeX4X4XeXeXeXeXyXyXyX",
"wX9X2XyXeXeXeX9XwX0X0X9XeXyXyXyXeX2X0XqX{.J.v.p.v.I.].>X{.r.Y L.L.I d.{.>X'.J.m.z.v.I.@XqX9X9XeX0X9X0XeX0XeXeXeXeXeXeXeXyXuXuXuX",
"2X<X<X2X1X<X0X4X4X0X4X4XeXyXyXyX2X<X[.p.%.>.<.6.<.1.=.q.w.*.Y U.H.T %.t.e.=.1.6.<.6.,.=.v.(.<X<X2X<X<X2X<X<X0XeXeXeXeX0XeXyXyXyX",
"2X<X<X2X<X<X9X0X4X0X4X4X0XyXyXyX2X Xi.;.+.@.@.@.@.@.+.2.[ [ T L.U.Y [ $.X.+.@.@.@.@.@.3.;.r. X<X<X<X<X2X<X<X0XeXeXeXeXeXeXyXyXyX",
"2X2X2X9X2X9XeX0X0XeX0X0XeXyXyXyX1XE.S ..o.o.o.......X.......n N.N.P ......+.....O.X.X.X.| A E.>X9X2X3X9X2X3XeXeXeXyXeXeXyXyXyXyX",
"0X4X0XuXyXyXwX<X<X2X<X<X9X4X4X0X9X~.t u u u u u u u q u u u y B.D.i u u u u u u u u u q u i W.,XeXeXeX9X<X<X9XeXeXyXyXyXyX2X<X1X",
"0X4X4XyXyXyXeX<X<X3X<X<X9X4X4X0X0X4X=X[.[.[..X.X.X&X[.(.[.[. X>X9X;X*X-X-X-X#X(.(.[.(.(.[..X,X1XeXeXeX9X,X<XeX0X0XyXyXyXyX<X<X<X",
"0X0X0XyXyXyXeX<X3X9X3X3X9X0X0X0X0X0X0X9X2X2XeXeXeXeX2X2X2X2X2X3XeXeXeXyXyXyXeX3X2X9X2X2X9X2X2X3XeXeXeXeX2X2XeXeXeXyXyXyXyX2X2X2X"
};
