/* XPM */
static char *result[] = {
/* columns rows colors chars-per-pixel */
"64 64 232 2 ",
"   c #364118",
".  c #3B5D27",
"X  c #3F6829",
"o  c #4B5C1F",
"O  c #425924",
"+  c #456629",
"@  c #446E2C",
"#  c #4C6C2B",
"$  c #556729",
"%  c #536E2B",
"&  c #44752D",
"*  c #4C712D",
"=  c #47792F",
"-  c #4A792E",
";  c #53732D",
":  c #5D742C",
">  c #54792F",
",  c #5A7C2F",
"<  c #4A6737",
"1  c #536232",
"2  c #4D7531",
"3  c #477930",
"4  c #4C7C31",
"5  c #547631",
"6  c #547C32",
"7  c #5A7D31",
"8  c #587438",
"9  c #657A2B",
"0  c #637B2E",
"q  c #657933",
"w  c #58664B",
"e  c #5A7546",
"r  c #687A47",
"t  c #687955",
"y  c #747D5B",
"u  c #4D802F",
"i  c #4E8432",
"p  c #538333",
"a  c #5C8433",
"s  c #548934",
"d  c #5D8B34",
"f  c #51823B",
"g  c #6B842C",
"h  c #77952D",
"j  c #7B9A2D",
"k  c #648533",
"l  c #6C8332",
"z  c #638C35",
"x  c #6F8932",
"c  c #65893D",
"v  c #718635",
"b  c #748C35",
"n  c #768C3B",
"m  c #669236",
"M  c #699536",
"N  c #6C9A37",
"B  c #679438",
"V  c #6A9638",
"C  c #6C9A38",
"Z  c #759134",
"A  c #7A9436",
"S  c #729C37",
"D  c #7D9A33",
"F  c #77943A",
"G  c #7B953A",
"H  c #729D38",
"J  c #7D9B3A",
"K  c #75A139",
"L  c #7CA43A",
"P  c #698A45",
"I  c #768A45",
"U  c #738949",
"Y  c #7C9445",
"T  c #7A9843",
"R  c #7B934A",
"E  c #6D865B",
"W  c #7C8B54",
"Q  c #768858",
"!  c #7A8C5C",
"~  c #7E9353",
"^  c #7E8B6A",
"/  c #7E8472",
"(  c #829D36",
")  c #829D3A",
"_  c #86A537",
"`  c #89A935",
"'  c #85A33A",
"]  c #89A63B",
"[  c #84A93C",
"{  c #8DAC3C",
"}  c #90AF3E",
"|  c #8FB03B",
" . c #92B336",
".. c #94B43E",
"X. c #97B93E",
"o. c #98BA3F",
"O. c #849D43",
"+. c #82994C",
"@. c #808C5C",
"#. c #829454",
"$. c #819C50",
"%. c #84935C",
"&. c #859A5D",
"*. c #8B9C5C",
"=. c #8AA644",
"-. c #8DAA43",
";. c #8AA64A",
":. c #8BA34C",
">. c #91AE45",
",. c #91AC4C",
"<. c #94B441",
"1. c #98B747",
"2. c #8DA452",
"3. c #8EA45B",
"4. c #92AC53",
"5. c #95AC5D",
"6. c #97B258",
"7. c #828A63",
"8. c #828A6C",
"9. c #899663",
"0. c #899668",
"q. c #919F66",
"w. c #929D6C",
"e. c #828E76",
"r. c #8C9678",
"t. c #949D75",
"y. c #93977D",
"u. c #979B7A",
"i. c #8EA466",
"p. c #92A462",
"a. c #94A26A",
"s. c #98A86D",
"d. c #9AB064",
"f. c #8DA37A",
"g. c #9AA676",
"h. c #9DA47D",
"j. c #9CAA7C",
"k. c #97B07A",
"l. c #A4AE7C",
"z. c #A7B37C",
"x. c #899785",
"c. c #979D84",
"v. c #9CA286",
"b. c #9DA89B",
"n. c #A2A583",
"m. c #A5AB83",
"M. c #A9AC85",
"N. c #A2A68A",
"B. c #A5AA8B",
"V. c #A9AD8C",
"C. c #AAB581",
"Z. c #A6B488",
"A. c #ABB28C",
"S. c #B1B68E",
"D. c #A7AB96",
"F. c #AAAD93",
"G. c #ADB192",
"H. c #A7B699",
"J. c #AAB29A",
"K. c #B1B493",
"L. c #BABD94",
"P. c #B6B899",
"I. c #BBBD9B",
"U. c #A8B4AA",
"Y. c #B7BBA6",
"T. c #BCBDA3",
"R. c #B1BAB3",
"E. c #B5BFBC",
"W. c #B8C18F",
"Q. c #BCC295",
"!. c #BEC19C",
"~. c #BEC0A4",
"^. c #BFC0A9",
"/. c #BDC4B3",
"(. c #C5C79F",
"). c #C2C2A4",
"_. c #C9C7A4",
"`. c #C6C9A4",
"'. c #CBCCA6",
"]. c #C4C4AB",
"[. c #CCCCAC",
"{. c #D6D6AB",
"}. c #D5D4AC",
"|. c #C5C8B6",
" X c #CDCFB3",
".X c #CFD0B4",
"XX c #D3D4B2",
"oX c #DBDBB4",
"OX c #D4D5BC",
"+X c #D7D9BB",
"@X c #DBDCBD",
"#X c #E0DFBE",
"$X c #DFE1B8",
"%X c #E2E3BA",
"&X c #E5E4B8",
"*X c #ECE9BC",
"=X c #F1EEBF",
"-X c #BCC6C9",
";X c #C4C7C3",
":X c #C4CECC",
">X c #D9DAC5",
",X c #D3D6D5",
"<X c #E1DFC3",
"1X c #DFE2DD",
"2X c #E4E4C4",
"3X c #E9E7C5",
"4X c #EBEBC3",
"5X c #E5E5CE",
"6X c #ECECCB",
"7X c #F1EFCE",
"8X c #F6F5C4",
"9X c #F9F6C5",
"0X c #F5F4CC",
"qX c #F9F7CB",
"wX c #F7F8CA",
"eX c #FDFDCE",
"rX c #ECECD3",
"tX c #E3E4D8",
"yX c #F3F3D4",
"uX c #FAF7D2",
"iX c #FDFDD3",
"pX c #F4F5DA",
"aX c #F7F8DF",
"sX c #FEFEDB",
"dX c #E3E5E4",
"fX c #E7EAEA",
"gX c #FFFFE3",
"hX c #FFFFE8",
"jX c #EFF1F3",
"kX c #F4F5F5",
"lX c #F6F9F9",
"zX c #FDFEFE",
/* pixels */
"gXgXgXuX9X9XuXqXqXuXsXsXsXsXeXiXiXiXiXsXsXsXgXgXgXgX0XqXuXgXgXrX+X'.oXyXrX5XOXV.w.F _ Z $.Y C. XrXgXgXgXgXhXgXsXsXsXiXiXsXgXgXgX",
"gXgXgXuX9X9XuX9X9XuXsXsXsXiXeXiXiXeXeXsXsXsXgXgXgXsX8X8XuXhXgXD.3.$.! y.0.^ 9.J [ L K C L H x i.Y.OXpXhXgXgXsXsXsXsXeXeXiXgXgXgX",
"gXgXgXuX9X9XqX9X9XuXsXsXsXiXeXeXsXeXiXsXsXsXgXgXgXyX*X=XuXrXT.U { L J T F 0 [ K H N N C N N C S T g.D.rXgXgXsXsXsXsXeXiXsXgXgXgX",
"hXgXgXhXgXgXhXgXgXhXgXgXgXiXiXsXsXsXsXsXwXwXsX0X2XF.l.n.).B.q J H z C H > z H d a N N C B N C N C L ! OXsXsXsXsXsXsXsXsXgXgXgXhX",
"gXgXgXgXgXgXhXgXgXgXgXgXgXeXeXiXsXsXsXwX*XoX[.u.q.G [ T F T k k ; 7 m a a M M 7 * z C m 6 z S N N N z N.4XsXsXeXeXsXsXsXsXgXgXgX",
"gXgXgXgXgXgXgXgXgXhXgXgXgXiXeXiXsXsXiX3XK.3.#.H [ [ H K K L N m ; z M a a N C z z C C V z m C N N N m ^ `.2XuXiXeXsXiXiXsXgXgXgX",
"sXsXsXsXsXsXaXsXsXaXsXsXsXeXiX4X5XyXaX).p._ [ L H B k B C N N M ; z N k ; m C N N C C V V M C N N N N a e v..X0XiXiXsXsXsXgXgXgX",
"iXeXiXeX8X9XqX9X9XuXeXiXiX8XoXh.l.P.I.t.G S N N N d 6 m C C N M , z z a z N N N N N M a a z C C N N V p 7 k t.oX9XiXiXeXsXsXsXsX",
"iXiXiXqX8X8XqX8X9XeXiXeX0X{.0.$._ ~ P 8 H H N N N M z M N N N M z M N z M N N N M a M a p a C V N N B % m N , m.=XuXeXeXsXsXsXsX",
"sXsXsXsXiXuXsXeXwXsXsXuXY.p.J ] N S 0 k C S N N N N N V M N N N C N N N N N N N z z V m z M a z N V B k m N P D.7XsXiXuXiXiXiXsX",
"gXgXgXsXsXsXsXeXiXsXgXrXB.-.H m N k > N C C C N N N N a z M N N z m N z a N N N M M N C N N m N N N M m N N 5 D.gXsX9X9XwX9X9XqX",
"gXgXgXsXsXsXsXiXeXsXgX5X! H z z M z > M V C N N N N C d a N N z 6 6 B z z N N B 6 a C C N N a m N N N N z m p r.pXsX9X9XqX9X9X8X",
"gXgXgXgXsXsXsXiXuXsXrXD.R L N N N N , * a N N C N N N N N N N M a a N N N N N m 7 p N N N M 7 a N N N m 7 z p c.yXsXqXeXiXqXeXuX",
"sXeXeXgXgXgXsXuX$XG.t.F { H N N N N N z z N N N N N N N C C N N V V N C N N N N m M N N N N M N N N N N B d i ^ 3XsXiXeXsXeXeXsX",
"iXeXeXgXgXgXsXoXC.F [ L C V N N N N N N M m N N C C M 7 m 7 M N V N N C N N N M z k M N N N N N M B z k p i i t &XsXeXeXiXeXeXiX",
"iXiXeXgXgXgXsX`.:.K K z a V V d z B N M 7 6 z N C C d a m a N N N N N N N N N m 5 # 7 z N M N N 7 a a a 4 i i 0.oXiXeXeXsXiXeXsX",
"gXgXgXuXwXqXuXB.T B m m z M d 2 6 m N m 7 6 B N N N N N N N N N N N N S k 7 7 * - 0 b 0 > 7 , 6 @ d s s i = E K.4XsXsXsXsXgXgXgX",
"gXgXgXuXwX9XXX8.G ; * ; 7 a d 6 6 d N N m m M N N N N N N N N N M 7 , 7 % n : @ > b { q A A : X i p i i 4 < P.&XqXuXsXsXgXgXgXgX",
"gXgXgXuX9X4XB.U k a B , k 7 a z z N B N N m m N N N N N N N N N C a O v b ..Z @ + ] ] ) 1.} % & i i 2 7 . 9 h.&X9XuXsXsXsXgXgXgX",
"sXsXsXgXaXY.8.: V N N N C C M N V a d M N a a N N N N N N M m z N z l ) ) ..9 . l ..' ..o.( ; 4 2 ; k _ ( ] ) L.0XsXhXgXhXsXsXsX",
"iXeXiXgX].Q m V C N N N N N N N N z a N N N N N C V N M k % # d m 6 , ] } ..l # A ..{ <.o.) * X Z J ) ..] ' { C.4XuXgXgXgXeXeXsX",
"iXeXeXpXJ.c S z d N N N N N N N N N N N N N N N C V m a 0 g + u i - l ..<...: $ ] ..{ o...9 w r J | b -.] A :.M.=XsXgXgXgXeXeXiX",
"sXsXsXgX XP m 7 2 z N N N N N N N N N m M N N N V z O : l { k - i & l X.....9 9 ....<.o.{ w.).XXa.' l v A ) O.L.iXgXgXgXgXsXsXsX",
"sXsXsXsX+Xt V z a m N N N N N N N N M p m N N B d s 2 G ] ..D + = * ) X.....b } o.o.o.o.>.M.*XXXw.] J v v } 6.).uXgXgXgXgXsXsXsX",
"sXsXsXsXOX! N N B z V N N N N N N N a # B N B d i i = ; ' <...b 2 ; ) ] ( } <...o.X.X.X.G L.8X}.5.......} ..9.$XsXsXgXgXgXsXsXsX",
"sXsXsXrXG.7 N N B 7 z N N N N N N M % % , p s i i i i & A ..1.Z 1 9 ] o 9 ( } ..o.o.X.X.3.[.qX#Xl.6.:.,.....l.7XsXgXgXgXgXsXsXsX",
"sXiXsXXXq B N m z m N N M N N N V V , 9 A % @ 6 = u i - : { ( $   A ] $ v A ( G | o.o.X.Y '.iXeX$X'.(.v.,.<.*.oX8XsXgXgXgXqX8X0X",
"sXsXsXP.c N N a 4 d N z z N N N z 7 : { ..} A l , + - & # ( ( q q b } ) J D D I Q =.X.o.-.Q.eXiXqX9XqX>X5.<.2.{.8XuXgXgXgX9X9X9X",
"sXsX6XG.a N N z a z C d a M N N z . v ] } o.1. .{ A v k % b ) G ) A ' ( Z h G x.:XZ.<.o.} %.oXsXuXqXuX5Xs.o.5.oXqXaXhXgXgXuXuXuX",
"iXiX$XQ B N N M V C C N M N N N , 9 ) ] ) ] ..o.o.1.....] ( ] D D h x 9 h A c.:XkX/.,.1.X.;.Q.wXeXeXeX3X*...a.oX9XsXgXgXgXgXgXgX",
"iXeX}.r m N N N C N N N V z a > % ( ..o...{ } <.X.X.X.X. .( A h h h h 9 , Q b.kXzX;X4.6.i.J @.oXeXeXwX).5.{ l.4X9XiXgXgXhXgXgXgX",
"iXiXwXI.P B N N C C N N z a 7 , O 0 ) ] o.o...o.X.X.X.X.{ b G Z F Y g P r U.dXzXkX/.4.f.:XU.+.L.iXiX+XC.} 4.XX8X0XsXgXhXgXgXgXgX",
"gXgXgX2Xr.c N N N N C C C C V d 4 X 5 q v >.....X.X.X.X.-.~ b.U.R.R.R.E.x.c.1XfX,Xj.` D.fX,Xb.! XXoXj.1.{ W.3XsXeXsXwXqXuXiXiXsX",
"gXgXsXuX}.8.7 B m m N C V B d i i @ 8.D.!.n.s.D | X.X.X.<.Z.1XkXlXlXkXdXD.3.&.j.p.` { e.,X1XY.L g.*.=.=.C.&XuXeXeXeX9X9XqXeXeXiX",
"gXgXgXuX8XoX^ B d a m s s s i i 3 ^ P.T.$X4XoXL.~ ;.<.X.X.>./.kXzXzXzXdXg. .....o...( Y Z.s.,.| x l d.G.4XeXsXeXeXiX9X9XwXiXeXiX",
"hXgXgXsXsX6X^ d B s s s i i i & + / 9.:.#.`.pXaX5XJ.9.<.X.<.:.H.tXdX,XD.j X.X.X...} ] { ....X.X._ Q >XpXgXgXsXiXiXsXsXeXsXsXsXsX",
"gXgXgXsXsX3X^ u s s i i 2 8 e < q +.b { =.u.).rXgXgX/.R ..o.<.{ 3.g.3.-.X.X.X.X...' ] ..X.X.X.X.} *.OXgXgXgXsXeXeXiXeXeXsXsXiXsX",
"gXgXgXgXsXuXY.E = i i f t T.y.^ L ..] b ) ( 2.N.yXgXyXF.-.<.f.k.-...X.<.X.X.....J { ..o.X.X.X.X...=.P.gXgXgXsXeXeXsXeXeXsXsXsXsX",
"aXsXuXgXsXsX5X/.v.e e 8.[.3Xh.=.A { } v G } ..C.6XgXaXXX~ i.U.-Xb.2.] | { <._ _ _ ..X.X.X.X.X.X.o.} *.@XsXsXsXiXsXsXeXeXsXsXsXsX",
"qX9X8XsXsXsXgXaXrX+X'.$XqX4Xl.{ { G ) q A ..4.V.*XiXsX6XB.R R.jX-X0.J ' ) ] _ | X.X.X.X.X.X.X.X.o.o.) S.0XeXsXeXeXiXwX8XqXeXeXiX",
"qX9X8XsXsXsXsXgXgXsXeXeXiX0X{.*.) G ' ( ..<.a.oX0XiXsXsXXXW J.fXR.6.1.X.X.X.X.X.X.X.X.X.X.X.X.X.X.X.{ w.&XeXsXeXiXsXwX8XeXeXeXeX",
"uXiXiXsXsXsXgXsXgXsXeXiXiXuX0X%XV.I } { ..{ w.$XwXsXsXsXyXm.~ j.6.X.X.X.X.X.X.X.X.X.X.X.X.X.X.X.X...{ ! 3XsXsXiXeXsXqXqXeXsXsXsX",
"sXsXsXsXeXeXsXeXeXeX9X9XuXsXsXsXuX[.m.l.>.o.,.A.oXiXeXiXuXT.Y { X.X.X.X.X.X.X.X.X.X.X.X.X.X.X.X...{ _ t.%XsXsXeXeXiX9X9XeXsXsXsX",
"sXsXsXiXeXeXsXeXeXeX9X9XwXsXsXsXsXsX0X+Xz.1.X.6.z.L.XX`.!.g.q ' X.X.X.X.X.X.X.X.o.X.X.X.X.X.X.X.| ` Y G.iXsXsXeXeXiX9X9XqXsXsXsX",
"gXsXgXsXiXiXsXsXsXsXeXeXiXsXsXsXsXsXsXsX+Xl.4.<...>.;.:.>.-.I I ..X.X.X.X.X.X.X.X.X.X.X.X.X.} { _ :.y.rXsXsXsXsXsXsXuXeXiXsXgXgX",
"gXgXgXsXsXsXsXeXeXiXeXeXsXqX9X0XsXsXsXsXeX&XP.z.2.=.>.,.p.S.T.c._ X.X.X.X.X.X.X.X.X.X.X...{ { ( Y B.$XsXsXsXsXsXsXsXeXeXsXgXgXgX",
"gXgXgXgXiXsXiXeXeXsXeXeXiX9X9XqXsXsXsXiXeXeXqX&XoXQ.~.`.@XpXgX>X*...X.X.X.X.X.X.X.X...| ` _ ) W !.2XsXsXsXsXsXsXsXsXiXeXsXgXgXgX",
"gXgXgXsXsXsXsXiXiXsXeXiXsX0XqXqXsXsXsXsXiXeXsXiXiXiXsXsXgXgXgXpXu.' X.X.X.X.X.....| ` _ ( g ! P.pXsXsXgXsXsXsXpX0X0XwXiXsXgXgXgX",
"gXgXgXgXsXsXgXgXsXhXgXgXgXsXsXsXgXgXgXgXgXgXsXsXiXsX9XqXuXgXgXgX>Xq.| ........{ ] ' ' q r 1 W oXqXwXwXsXqX3X`.S.t.A.K.<XsX0XqXqX",
"gXgXgXsXsXsXgXgXgXhXgXgXgXsXsXsXgXgXgXhXgXgXsXeXeXeX8XwXuXgXgXgXyXG.R ] _ ` _ ] G v q y ^.9.A M.*X9X8X0X(.l.O.] } { :.y.<X9X9XqX",
"gXgXgXgXsXsXhXgXgXhXgXgXgXsXsXsXhXgXgXhXgXgXsXeXiXiX9X9XuXgXgXgXsX0XK.8.&.I W q.M.D.q q F.B.O.*.}.qXoXL.Y } X.X...] O.0.<X9X9XqX",
"gXgXgXgXsXgXsXuXuXsXsXgXsXsXsXsXgXgXgXhXgXgXgXsXsXsXqXeXsXgXgXgXgXsXsX<X@XOX>X8XqXyXV.:.h._.q.O.M.}.v.4...X...{ J Q K.XXaXgXgXgX",
"gXgXgXsXsXsXuXqX8XiXsXsXsXiXeXiXgXgXgXhXgXgXsXeXeXeX9X9XqXgXgXgXsXsXsXsXsXsXiXeXiXiX|.I n n.n.A +.7.2.o. .{ G W K.XX8X8XqXgXgXgX",
"gXgXgXsXsXsXiX8X8XiXsXsXsXiXeXiXgXgXgXhXgXgXsXeXeXiX9X8XuXgXgXgXsXsXsXsXiXsXsXeXeXsXpXK.>.s._.s.) b ..} A @.K.{.qXuX9X9XqXgXgXgX",
"sXuXsXgXgXgXsXqXqXuXuXuXsXgXsXgXsXsXsXgXgXgXgXsXiXsXsXsXsXuXsXsXiXiXwXsXsXsXsXsXuXsXpX~.I b N.N.G ] A %.G.OXpXiXiXsXiXiXsXhXhXhX",
"0X8X8XgXsXgXsX9XqXqX9X8XuXgXgXgXiXeXiXgXgXgXsXeXeXsXsXiXsX8X8XqX9X9XwXiXeXeXsX4X$X`.V.h.I { s.K.0.%.M.+XuXiXsXeXeXsXsXsXgXgXgXgX",
"qX9X9XgXgXgXiX9X8XwX8X8XeXgXgXgXsXeXeXgXgXgXsXiXeXsXsXsXsX9X9XqXqX9X9XiXeX4X}.g.*.) { } ] ] 9 F.'.oX8XsXsXsXsXeXeXsXsXsXsXgXgXgX",
"uXqXuXgXaXgXsXiXiXsXiXeXaXgXgXgXiXiXiXgXgXsXsXsXsXsXsXsXgXuXiXsXsXuXiXaX7XN.p._ X.X...} A *.n.3XuXsXuXsXsXsXsXsXsXsXsXsXgXgXhXhX",
"qX9X9X9X9X9XiXeXeXsXeXeXiXgXgXgXqX9XqXqX8X8XiXsXsXsXiXsXsXsXsXsXiXeXeXpXA.A <.1.X.| A 9.c.}.*X9X0XwX9XeX=X9XiXsXsXsXsXsXsXgXgXgX",
"qX9X9XqX9X9XiXeXeXiXeXeXsXgXgXgXqX9X9XqX9X8XiXiXsXsXsXsXsXsXsXsXiXeXiX[.Z X.X.| D %.c.@XyX9X9X9X9X8X9XeX9X=XsXsXsXsXsXsXsXgXgXgX",
"uXqXqXiXuXqXsXiXiXsXsXiXsXgXgXgXwXeXwXuXqXqXsXsXsXsXsXsXsXsXsXsXsXsX0Xy.] | D #.u.@XrXgXgXqXwXwXeXqXwXiXqXqXsXsXsXgXsXsXgXgXgXgX",
"sXeXeXgXgXgXpXqX9XqX8X9XqXiXeXeXsXeXeXiXqXqXiXsXsXsX9X8XqXqX9XqXsXsX6Xc.Z %.u.}.&XqX9X9XqX9XqXwXsXsXsXuXqX9XuXsXsXgXgXgXgXqX8X0X",
"eXeXeXgXgXgXiXwX8XqX9X9XeXeXeXiXeXeXeXuX9X9XiXsXsXsX9X9XwXqX9XqXsXsXsXOXN.OX6X9X9XqX9X9XuX9X9XqXsXsXsXiX8X9XsXsXsXsXgXgXgX9X8X9X",
"sXsXiXgXgXgXsXqXqXwXqXqXuXiXiXiXiXsXiXuXqXqXiXsXsXsXqXqXwXqXqXwXsXsXsXgXgXgXsX0XqXqXeXqXuXqXqXuXsXsXsXuXqXqXiXsXsXgXgXgXgXqXqXqX"
};
