/* XPM */
static char *c0cda78650224579cdb38ecad9149e83TBaTCvsgoLho6vIr[] = {
/* columns rows colors chars-per-pixel */
"56 64 170 2 ",
"   c None",
".  c #542623",
"X  c #5A2C27",
"o  c #572B29",
"O  c #592B29",
"+  c #562A27",
"@  c #5E312C",
"#  c #5D3836",
"$  c #672D2C",
"%  c #62322C",
"&  c #6A382E",
"*  c #643631",
"=  c #693732",
"-  c #6D3C36",
";  c #6E3D38",
":  c #663832",
">  c #723E36",
",  c #713E39",
"<  c #7A3534",
"1  c #6D403A",
"2  c #744136",
"3  c #7C4436",
"4  c #754239",
"5  c #7D4539",
"6  c #7F4A3F",
"7  c #6B4D4B",
"8  c #754845",
"9  c #6F5150",
"0  c #7E6261",
"q  c #8B2C36",
"w  c #8F3A3D",
"e  c #9C333F",
"r  c #A42E3D",
"t  c #BE273F",
"y  c #814639",
"u  c #844A3D",
"i  c #8B4E3D",
"p  c #8B503E",
"a  c #91533F",
"s  c #B52E43",
"d  c #BD2D43",
"f  c #A63643",
"g  c #B43447",
"h  c #C02D45",
"j  c #C6314A",
"k  c #CB334C",
"l  c #C53850",
"z  c #DC3B58",
"x  c #E33E5C",
"c  c #884E42",
"v  c #864E41",
"b  c #8D5242",
"n  c #835149",
"m  c #935543",
"M  c #965845",
"N  c #9B5B46",
"B  c #965848",
"V  c #9C5C4A",
"C  c #885E57",
"Z  c #805B57",
"A  c #915E50",
"S  c #B5494A",
"D  c #A35E46",
"F  c #A25F4B",
"G  c #B35E5C",
"H  c #9F6049",
"J  c #8C625B",
"K  c #94625B",
"L  c #A7634C",
"P  c #A9644C",
"I  c #AC694F",
"U  c #B1674E",
"Y  c #AB6651",
"T  c #A76A53",
"R  c #AC6A53",
"E  c #B46B53",
"W  c #B96D55",
"Q  c #B76F59",
"!  c #AC715C",
"~  c #BC775C",
"^  c #886260",
"/  c #876D6B",
"(  c #866562",
")  c #9A746C",
"_  c #9B7872",
"`  c #AF7462",
"'  c #B17663",
"]  c #B17C6D",
"[  c #B77679",
"{  c #D84258",
"}  c #C7765C",
"|  c #CB765C",
" . c #C47C5B",
".. c #CD7A5D",
"X. c #D17D5F",
"o. c #E64361",
"O. c #E8586E",
"+. c #E95F74",
"@. c #CC7C62",
"#. c #D07D61",
"$. c #CE787F",
"%. c #E96B79",
"&. c #B7816E",
"*. c #A8837F",
"=. c #B38577",
"-. c #BC907F",
";. c #D6835F",
":. c #DC835E",
">. c #D38363",
",. c #DC8662",
"<. c #DD8B65",
"1. c #D38768",
"2. c #D58B6A",
"3. c #DB8D6B",
"4. c #D38867",
"5. c #DA916E",
"6. c #C2897A",
"7. c #DD9471",
"8. c #DE947B",
"9. c #E18E68",
"0. c #E08F65",
"q. c #E4936B",
"w. c #E8966D",
"e. c #E6996D",
"r. c #E59B73",
"t. c #EA9C74",
"y. c #E49A78",
"u. c #EAA276",
"i. c #E5A078",
"p. c #EDA57B",
"a. c #EFAA7B",
"s. c #F1AC7E",
"d. c #F2A67D",
"f. c #E77886",
"g. c #A8918D",
"h. c #B29389",
"j. c #B8A5A5",
"k. c #C58689",
"l. c #D6878E",
"z. c #CA998B",
"x. c #DF9F85",
"c. c #C28F90",
"v. c #D09B96",
"b. c #E19C81",
"n. c #DDA690",
"m. c #E7A686",
"M. c #F3AD82",
"N. c #EFB089",
"B. c #F6B385",
"V. c #F9B487",
"C. c #F5B58A",
"Z. c #F9B689",
"A. c #F9B88B",
"S. c #E3AA93",
"D. c #E4AD99",
"F. c #EAB49A",
"G. c #E9B197",
"H. c #F6BF9F",
"J. c #F8BD97",
"K. c #F295A3",
"L. c #D1B7B1",
"P. c #E8BFAD",
"I. c #F5BAA2",
"U. c #FBC29D",
"Y. c #FAC5A4",
"T. c #F7C7A6",
"R. c #F7CDB8",
"E. c #F9D5BE",
"W. c #F4DCDA",
"Q. c #FDE0CA",
/* pixels */
"                                              v.                                                                ",
"                                                S                                                               ",
"                                                  k.                                                            ",
"                                                  k.                                                            ",
"                                                    G                                                           ",
"                                                    c.  K.                                                      ",
"                                              l.f.f.{ x O.%.o.                                                  ",
"                                          7 [ t s z z o.O.W.f.$.                                                ",
"                                    / 9 . X g d h z x x x f.+.f 1 ( g.                                          ",
"                                  7 . O O O j d d k x x x x z w ; - ; ^                                         ",
"                              / # O + O O + g j h d h k k k s > - ; ; - Z                                       ",
"                            0 + + X X X O O $ l j h h d d d < ; ; ; ; ; - 8                                     ",
"                          j.b - O O O + O = O O e s s f q % - ; ; ; ; - v M C                                   ",
"                          P Y 2 O - , X ; ; , - : * @ * - , ; - ; ; - , L W U K                                 ",
"                        ' L m + a P I 2 ; ; ; ; ; ; ; ; , - ; , ; - ; , P W W E L.                              ",
"                        T N X - P L P - ; ; ; ; ; ; ; ; ; ; ; , ; , 5 - c Q W W 6.                              ",
"                      =.P & + m L P i % 1 1 - - 4 4 - - ; ; ; - ; F E F 4 L W W W                               ",
"                      ' D % > P P N X > L 6 4 N L L M , ; ; - , - F W W V 5 W W W z.                            ",
"                      D P D L L L N X L W 4 a W W W P b , ; ; ; ; E Q W U 4 B W W W                             ",
"                    z.D P P L L P L P I B - L W W W E L - ; ; - v E Q W Y 5 5 W W ~                             ",
"                    ' P L P L L P P P M - - L W E W W N - - ; ; b W W W L ; - P W E                             ",
"                    R P L L L L P P M O = ; V W W W E b ; v 4 ; v E W E N - ; B W Y                             ",
"                    Q F L L L P L L = O O - L W Q W P ; b W u ; = B W W Y c ; m E Y                             ",
"                    h.D L P L L L L % o o = E W W W b ; V W y , ; , E W W E P E I T                             ",
"                      D L L L L L L M 3 3 V R W W E 2 - N E 4 - ; ; V W W W Q U L T                             ",
"                      ! P L P L L L P L P P P U W R 5 , P Y 4 ; ; ; B W W E Y P P &.                            ",
"                      ] L L L L L L L L P L L P P E R E W P 4 - ; ; F W U P P P P                               ",
"                      A P P L L L L L L L L L L L P P I W I p - - , Y P L L L L L )                             ",
"                    ) 3 D L L L P L L L P L L L P L L P L P L 5 5 D P L L P L L m n                             ",
"                    3 y u L L L L L L L L L L P L L L L P L L P P F L L L L L D 5 5 *.                          ",
"                    3 5 5 m P P L L L P L L L L P L L L L L L L L L L P L L L y 5 5 3                           ",
"                    5 5 5 5 M P L L L L L P L L L L P L L L L L P L L L P P c 5 5 5 5                           ",
"                    3 5 5 5 3 M L L P L P L L L L L P L L L L L L L L P L i 5 5 5 3 _                           ",
"                    n 5 5 y 5 5 p L L L L L L L L L L L L L L L L L P N y 5 5 5 3 _                             ",
"                      J 3 5 5 y 3 y M L L L L L P P L L P L L L P L i 5 5 5 5 m h.                              ",
"                        =.L p 5 5 5 y y a N L L L P P P P L L N p 5 5 5 y 5 N 0.                                ",
"                          w.5.M 5 5 5 5 5 5 y i i a a a p u y 5 5 5 5 5 3 m 2.m.                                ",
"                          s.q.>.5 5 y 5 3 5 y 5 5 5 5 5 5 5 5 y 5 3 E 3.q.q.q.F.                                ",
"                          A.p.w.E 3 5 5 5 5 5 5 5 5 5 5 5 5 5 5 5 5 <.e.d.s.B.U.                                ",
"                          T.Z.t.q. .N p p M T I N a L I u 5 5 5 5 I e.V.Z.V.B.Q.                                ",
"                          Y.V.B.q.q.e.0.w.w.w.w.w.d.t.w.<. .P L ~ q.s.Z.Z.Z.A.                                  ",
"                            Z.Z.q.q.q.q.q.q.q.q.q.B.A.M.t.e.w.w.u.B.Z.V.Z.Z.Y.                                  ",
"                            J.Z.e.q.q.q.q.q.q.q.q.B.C.Z.Z.Z.B.B.Z.Z.Z.A.V.Z.J.                                  ",
"                              I.B.a.e.w.q.q.q.q.w.B.Z.Z.C.A.Z.Z.Z.Z.Z.Z.M.Y.                                    ",
"                              7.9.t.M.B.d.p.u.e.q.B.Z.A.Z.Z.A.A.Z.Z.a.q.<.                                      ",
"                              P.:.,.,.9.<.u.p.s.M.B.M.M.M.a.u.r.>.,.,.,.q.                                      ",
"                                p.w.,.,...,.,.,.,.:.| ,.,.,.,.,...3.t.d.M.                                      ",
"                                C.p.,.,...,.,.,.,.<...9.9.9.r.u.2.s.s.a.F.                                      ",
"                                n.2.>.:.@.,.,.,.,.9.4.s.M.s.a.B.2.u.7.4.                                        ",
"                                C.a.>.#.} | ..X.>.<.1.p.u.i.7.5.@.7.u.M.                                        ",
"                                E.d.q.,.;.;.,.;.X.>.@.7.7.i.p.a.5.M.s.B.                                        ",
"                                  s.w.,.>.X.,.,.0.3.2.s.M.a.a.p.5.M.s.s.                                        ",
"                                  N.r.,.,.| :.,.:.9.1.s.s.s.a.i.7.s.p.S.                                        ",
"                                  x.1.| @.} ,.,.;.9.2.M.a.a.p.7.4.2.5.G.                                        ",
"                                  J.d.,.:.} @.X.X.X.@.2.2.5.7.5.i.s.s.                                          ",
"                                  R.a.<.,...,.,.,.9.1.M.s.s.s.7.p.a.B.                                          ",
"                                    M.3.,.#.:.,.:.3.2.M.a.a.s.7.a.M.d.                                          ",
"                                    C.p.q.>.X.,.<.3.2.M.s.s.s.3.a.a.Y.                                          ",
"                                      r.t.u.5.t.e.r.2.a.s.s.s.3.i.D.                                            ",
"                                      ,.,.:.<.q.e.t.<.r.e.q.<.:.,.7.                                            ",
"                                      b.,.,.,.,.,.,.,.,.,.,.,.,.:.D.                                            ",
"                                        3.,.:.,.,.,.,.,.:.:.:.5.D.                                              ",
"                                            m.;.b.b.y.m.8.D.D.W.                                                ",
"                                                                                                                "
};
