/* XPM */
static char *result[] = {
/* columns rows colors chars-per-pixel */
"64 64 224 2 ",
"   c #070100",
".  c #0C0100",
"X  c #140001",
"o  c #1B0101",
"O  c #240101",
"+  c #2B0202",
"@  c #2E0802",
"#  c #330402",
"$  c #3A0502",
"%  c #340902",
"&  c #3C0A02",
"*  c #3D1103",
"=  c #410301",
"-  c #430C02",
";  c #4B0D02",
":  c #441203",
">  c #4C1302",
",  c #4C1803",
"<  c #481A0A",
"1  c #531402",
"2  c #5B1602",
"3  c #541B02",
"4  c #5C1B02",
"5  c #511E0B",
"6  c #611701",
"7  c #631C02",
"8  c #6A1C02",
"9  c #711F01",
"0  c #5E2102",
"q  c #572509",
"w  c #562915",
"e  c #542C1B",
"r  c #632302",
"t  c #6B2402",
"y  c #672801",
"u  c #6C2A02",
"i  c #732301",
"p  c #792501",
"a  c #732D02",
"s  c #7C2B01",
"d  c #6C380F",
"f  c #743101",
"g  c #7B3402",
"h  c #7F3903",
"j  c #643717",
"k  c #4D2D22",
"l  c #583426",
"z  c #643B24",
"x  c #76461C",
"c  c #7B461A",
"v  c #784C26",
"b  c #694434",
"n  c #754A34",
"m  c #7D5639",
"M  c #8D1D01",
"N  c #991C01",
"B  c #852402",
"V  c #812F02",
"C  c #972A02",
"Z  c #843402",
"A  c #8A3402",
"S  c #833A03",
"D  c #8C3C02",
"F  c #973202",
"G  c #923C02",
"H  c #9A3D01",
"J  c #A82902",
"K  c #B12A03",
"L  c #AC3C02",
"P  c #B33502",
"I  c #B93B01",
"U  c #C53E03",
"Y  c #8F4301",
"T  c #944201",
"R  c #9C4401",
"E  c #9E4903",
"W  c #A04602",
"Q  c #A34C02",
"!  c #AA4D02",
"~  c #BB4603",
"^  c #AD5202",
"/  c #AA530B",
"(  c #B35504",
")  c #B55B03",
"_  c #BB5D02",
"`  c #BA5806",
"'  c #A85919",
"]  c #BD6103",
"[  c #BC650B",
"{  c #B5631B",
"}  c #84562C",
"|  c #94532F",
" . c #845C35",
".. c #A94B30",
"X. c #96653C",
"o. c #B96A3A",
"O. c #BB783C",
"+. c #C44302",
"@. c #C54C03",
"#. c #CB4D03",
"$. c #CB5302",
"%. c #C25D02",
"&. c #CB5C04",
"*. c #C55B08",
"=. c #D55806",
"-. c #DD5B02",
";. c #C26303",
":. c #C86702",
">. c #C66905",
",. c #CC6B04",
"<. c #C76709",
"1. c #CA6C09",
"2. c #D86806",
"3. c #CE7205",
"4. c #CE720A",
"5. c #D47405",
"6. c #D57B04",
"7. c #DB7D04",
"8. c #D4750A",
"9. c #D87708",
"0. c #D67A0A",
"q. c #DC7D09",
"w. c #CC7919",
"e. c #E26402",
"r. c #E36C02",
"t. c #E47304",
"y. c #E97404",
"u. c #ED7C03",
"i. c #E8780A",
"p. c #D17D39",
"a. c #8B6445",
"s. c #976F4A",
"d. c #987249",
"f. c #997A57",
"g. c #A87C44",
"h. c #DC8203",
"j. c #DE8109",
"k. c #D88719",
"l. c #E28404",
"z. c #E68A06",
"x. c #E18409",
"c. c #E58C0A",
"v. c #E88C09",
"b. c #F38707",
"n. c #EA9305",
"m. c #EB930C",
"M. c #F49607",
"N. c #F48713",
"B. c #EE9611",
"V. c #F8921A",
"C. c #C9803A",
"Z. c #D88832",
"A. c #DF9737",
"S. c #E58A2B",
"D. c #E59436",
"F. c #FAAD34",
"G. c #A78359",
"H. c #B38959",
"J. c #BA9058",
"K. c #9B8367",
"L. c #AB8F6C",
"P. c #BD9D6C",
"I. c #BAA07B",
"U. c #D0904B",
"Y. c #C69B58",
"T. c #E68E42",
"R. c #F5A74D",
"E. c #F1B14F",
"W. c #CE8A68",
"Q. c #C69D68",
"!. c #E09E6A",
"~. c #CAA778",
"^. c #D6A476",
"/. c #D0AD71",
"(. c #EDAF6F",
"). c #EAB46A",
"_. c #E6B47E",
"`. c #FBC666",
"'. c #FAC17C",
"]. c #B09A80",
"[. c #BEA781",
"{. c #C2A881",
"}. c #CAB489",
"|. c #D6BC89",
" X c #C9BA9D",
".X c #D9BD96",
"XX c #E6BA83",
"oX c #F1BD86",
"OX c #DDC18A",
"+X c #DAC699",
"@X c #DFD09F",
"#X c #EECD93",
"$X c #E7CA98",
"%X c #F4D79D",
"&X c #D8C6A5",
"*X c #E4CDA6",
"=X c #E8D7AB",
"-X c #F5D8AC",
";X c #E8DAB9",
":X c #F6E4AC",
">X c #EEE3B5",
",X c #EDE4BB",
"<X c #F3E5B5",
"1X c #F4EAB6",
"2X c #FAEBB4",
"3X c #F2E6BC",
"4X c #F4EBBD",
"5X c #FBEEBA",
"6X c #F8F1BE",
"7X c #E7DEC3",
"8X c #EEE4C3",
"9X c #F7EBC3",
"0X c #F4ECCB",
"qX c #F7F6C5",
"wX c #F9F5C5",
"eX c #F7F5CA",
"rX c #F9F6CB",
"tX c #FDFDCE",
"yX c #F6F2D2",
"uX c #FAF6D3",
"iX c #FDFDD3",
"pX c #FEFEDB",
"aX c #FFFFE3",
"sX c #FFFFE8",
/* pixels */
"aXaXaXuXeXwXuXeXrXiXpXpXaXiXiXiXiXiXiXpXpXpXaXpXpXyX=X@X|.*X<X5XwX2X:XuXpXsXaXpXpXaXaXaXaXpXpXpXaXaXaXaXaXaXaXpXpXpXiXiXpXaXaXaX",
"aXaXaXuXwXwXuXwXwXuXpXiXpXtXtXiXiXiXtXpXpXwX;X*X.XH.c 3 1 j } X.J.Y.Y.}.*X*X=X3X3X8X8X0XyX5XrXpXaXaXaXsXaXaXaXiXpXpXtXtXiXaXaXaX",
"aXaXaXuXwXwXyXqXwXuXpXpXpXiXtXiXuXtXuX0X+XK.} v j q : & $ # $ - ; 0 d d } } X.d.d.f.G.Q.=X0XrXwXaXaXaXsXaXaXpXpXpXpXiXiXpXaXaXaX",
"sXaXaXaXaXaXaXaXaXaXaXaXaXiXiXiXrX<X~.a.z : $ & & & # # # # # & & - : , 3 , , , ; , w j  .H..X<XpXaXpXaXaXpXpXiXiXpXpXpXpXsXaXsX",
"aXaXaXaXaXaXaXaXaXsXaXaXaXiXtXrX*Xs.1 - # + % + # @ @ @ % % % % # % & : : : : & @ # % - > 3 } Q.<XpXpXaXiXpXpXiXiXpXiXpXpXaXaXaX",
"aXaXaXaXaXaXaXaXaXaXsXaXaXiXrXOX .5 $ # + + + + + @ % % @ @ @ O + + O @ # # @ + O O O # - ; 1 z Q.<XpXpXpXpXiXiXtXiXpXiXaXaXaXaX",
"pXpXpXpXpXpXpXpXpXpXpXpXiX%XQ.m < # + O + + O O + + + O O o O O o o o O O + + @ % @ O O + & * < x OXtXaXpXaXpXuXuXpXpXpXaXaXaXaX",
"iXtXiXtXqXwXyXwXqXuXtXwX%XY.c ; # O + + + O O O o O O o o o o o o X X X o o o + % % + O o + # % $ s.<XpXaXaXpXqXwXiXtXiXiXiXpXpX",
"iXiXiXrXwXqXrXwXqXuXiX5X/.} = $ + + O O o O o o X o o o o o o X X X X X X X o + @ @ @ O o O + + # - P.uXaXaXpXeXwXuXtXtXiXpXiXpX",
"pXpXpXpXiXuXpXtXuXiXwX|.} - # + + O O o o o o X X o o o X o X o X X X X X o O O O o + o o o O + # & z *XpXpXpXuXuXpXiXuXpXiXpXpX",
"aXaXaXpXpXpXpXtXiXpX8Xg., # O O O o o o o o X . o o o X X X . o X X X X X o o o X o o O o o o O + & < G.,XqXpXaXaXpXwXwXrXwXwXeX",
"aXaXaXpXpXpXpXtXtXiXOXx $ O O O o o o X X X . X o X o o X X X o . . X X X X o X X X o o o X o o O + & v +XwXpXaXaXpXqXwXrXqXwXwX",
"aXaXaXaXpXpXpXiXiXeXg.= + O O o o o X o X X . X o X X X X X X . . . X . X . X X X X o o X X o o O + + 5 I.eXaXaXaXaXrXtXiXrXrXiX",
"iXiXiXaXaXaXaXiXiX*Xd # + O O o o o X X o X . X X X X . X X X   . X X . . . . X X X X X X X X X o O + # m ,XiXiXtXiXiXtXpXiXiXiX",
"tXtXtXaXaXaXpXtXtX~.> + + O o o o o X o X . X X o X . . X . . . . . . . . . X X . X X X X o X X X O O O : }.tXtXtXiXtXiXiXtXtXiX",
"iXiXtXaXaXaXpXiXwXG.$ + O o o o o o . X X X X X X X . . . . . . . .           . . X X X X X o o o o O O +  .eXtXiXpXiXiXiXiXiXiX",
"aXaXaXuXrXrXpXpX=X .@ O O o o o o X X X X . X X . . . . . . .   . . . . .       . X X X X X o o o o O O # q *XrXrXpXpXpXpXaXaXsX",
"aXaXaXuXqXrXpXiXOXj + O O o X o X o o X X X X . X X . . . .   . . . . . . .   . . . . X X o X o X O O + + - I.eXeXuXpXpXpXaXaXaX",
"aXaXaXuXqXeXiXpX{.w + + O o O o o o o X X X X . X X X X X . . . . . . . . . . . . . X X X X X o o O O + + $ s.6XwXuXpXpXaXaXaXaX",
"pXpXpXaXaXaXpXuX~.w + O O O o O o O o o X X X . X X X o X X X . X X X . . . . X . . X X X o o o O O O + + & m 4XrXaXaXaXaXpXpXpX",
"iXtXiXaXaXaXuXqX[.k + + O o O O o O o o o X X X X o o o X X X . X X X X X X . X X X X X X o o O + + + + # $ n =XwXuXaXaXaXtXtXiX",
"iXtXtXaXaXaXpXwXI.< O O O O O O @ O O o X o o o X o o X X X X X X X X X X X X X X X X o o O O + @ % # # # $ z *XwXpXaXaXaXtXiXiX",
"pXpXpXaXaXaXpX8Xf.% O O O O O O o O o o O o O O O o o X X X o o o o o o o o X o o o o o o O O @ # % % $ $ $ l +XuXaXaXaXaXpXpXpX",
"pXpXpXpXiXiXuX>Xs.# O O O O + O o + O O O O + + + O o o o o o o O @ @ @ O O o O O o O O + + + @ % % % & $ $ e |.iXaXaXaXaXpXpXpX",
"pXpXpXpXiXpXiX<Xf.% + O O + O O O O o O O O O + + + O o o o O o + @ @ % @ + O + @ + O O # # # # % # # # $ $ e }.pXaXaXaXaXpXpXpX",
"pXpXaXpXpXiXaX0XK.% O + + + + O @ O o O O O O O O O O O O + + O + + @ * @ @ % @ % % + + + # % # % # % $ $ $ w {.iXaXaXaXaXpXpXpX",
"pXpXpXrXqXqXpXaX].- + + + + + O O O O @ O o O O + O O O O O O O O + % % % % # + # # # # # # % # # # $ $ $ = w ~.qXuXaXaXpXeXqXeX",
"pXiXpXuXwXqXaXaX Xk + # # # # + + @ o O + o O + @ + @ @ + O + O O + # @ + * % % % % # # # # # $ $ # & - ; ; z |.qXpXaXaXaXwXqXeX",
"pXpXpXiXuXrXaXaX&Xl # $ # # # # @ @ O O + O O + + O + + + O + + O + + + % & % * % # $ # # $ $ & & - : , 3 1 z +XeXpXsXaXaXuXuXiX",
"iXiXiXiXiXiXaXaX&Xl $ $ - $ $ # @ @ @ + O O O O O + O O + O O O + + + + + % % * % & & & - : - > , > > 1 1 3 n -XqXpXaXaXaXaXaXaX",
"iXiXtXiXtXtXpXaX;Xz * - = $ $ # # @ @ + + + O O O O o O + + + + + + + + # # $ * & - : > , , > , 3 3 3 4 4 3 n <XqXpXaXaXaXaXaXsX",
"iXiXiXiXtXiXaXaX7Xb ; ; < - * $ # # + + + O O O O o O O + + O + + # # # & $ $ - - ; , 3 3 4 4 3 0 0 r 7 7 7 a.9XeXuXsXaXsXaXaXaX",
"aXaXaXuXrXrXaXsX;Xn 1 ; ; - - & $ # + + + + + + O + O O O O O + # % # # - $ & : , 1 3 3 r r 0 r r r y t y t L.iXiXpXrXrXuXiXiXiX",
"aXaXaXuXwX9XpXaX7Xm 1 ; ; - - & # # # + # + + + + + O O + O + # # # & & : - : > 3 , 3 r r r r y y a a g p i [.rXiXiXwXwXtXtXtXiX",
"aXaXaXuXeXeXaXyX8XX.2 1 1 > : & & $ $ # $ # # + + + O O O + + + + % & & : ; > , 5 1 0 0 y r u f f f g S g a &XtXtXiXwXwXrXiXiXiX",
"aXaXaXaXpXiX-X^.W.| 7 4 1 1 > - : & $ & $ $ # # # + + + O + + + # $ & < , > , 0 0 0 y y u u f f g g h Z Z X.rXiXiXpXiXiXpXpXpXpX",
"aXaXaXpXpX<XT.&.K N 9 8 4 3 1 ; , ; : : & $ # + # # + + O + + # # $ & > 1 , 4 r y 0 y a f f g f h D D D Z [.pXiXiXiXtXtXiXpXiXpX",
"aXaXaXaXrX).z.$.K J B t t 4 4 3 3 1 1 > > - $ $ $ + # + + + + # $ ; - > > 1 0 y y u u f f g S S D Y H W ' *X9XwXtXiXtXtXpXpXpXpX",
"pXpXuXaX0XR.n.=.K J F 9 t 4 4 4 0 4 4 3 4 > - & = $ $ + # # $ = $ ; > > 1 3 0 y y a f g g h S Y T T R ( p.!.S.R.2XiXiXuXiXpXpXpX",
"eXwXwXpXyXE.M.5.K P L B 7 7 4 r r 0 7 4 4 4 1 1 , ; ; $ $ = = ; ; ; 1 3 4 4 r y u a g h h S D Y T R ^ $.&.=.-.B.`.wXqXrXrXtXiXiX",
"rXwXwXpXpX#XB.i.I +.~ F 7 6 7 4 r 0 0 r 0 0 4 4 3 3 ; ; ; ; ; ; 1 1 1 4 0 r y u a g g h S S A T R ! *.r.r.-.-.M.E.wXqXqXtXtXtXiX",
"pXuXiXpXpX3XD.l.@.@.$.L p 7 2 2 0 r 7 r r r r 4 4 2 2 2 1 ; 1 ; 3 2 2 4 t y u u f f g h S Z S G R ` 2.i.y.e.e.M.F.6XtXtXrXpXpXpX",
"pXiXpXiXtXtX_.z.2.@.@.P F i 6 2 4 4 4 4 r u t r t t 6 2 2 2 ; 2 2 4 7 7 t a a a f g g s V V V G ! &.i.N.u.-.u.M.`.wXwX6XtXpXiXpX",
"pXpXpXiXtXtX3XD.t.$.+.~ L A 9 2 4 2 4 6 7 u t t t y 7 7 2 6 6 2 7 t u i a a u i p s s s V V Z R ` &.i.N.u.r.b.F.:XtXwXwXrXpXpXpX",
"aXaXpXpXiXpXuXXXi.2.@.~ L H D p 7 2 2 6 7 t t i i t t 7 6 8 8 8 t t a a g V s p s s s s V A R ( 2.2.r.b.u.u.V.'.tXpXuXuXpXpXaXaX",
"aXaXaXaXpXiXpX:XT.t.$.I J F E D p 8 6 7 8 t i V s p p i 9 9 i p s s V Z Z A g g s s p s D W ` *.2.i.r.y.y.b.(.wXiXpXtXtXpXaXaXaX",
"aXaXaXpXiXpXiXrX$XZ.*.P C M Q W G s 9 p s s Z D Z Z B s p s V Z A A D T T Y T A A A A G Q ` <.*.2.i.t.r.u.R.9XpXpXpXtXtXpXaXaXaX",
"aXaXaXaXpXpXpXiXuX*X*.P N M Q / Q G A A D H E E T G A A A A G G R E Q Q Q Q E H H R Q ( [ 1.<.~ #.r.e.y.N.%XpXpXpXpXiXiXpXaXaXaX",
"aXaXaXaXpXpXaXpXaXaX^.g.....~ ( ^ ! H H R Q ( ( ^ / R R H H H W Q ) ) [ ) ] ) ^ ^ ) ] 1.4.1.` N P #.-.y.(.rXiXiXtXpXpXpXpXrXrXrX",
"aXaXaXpXpXpXaXaXaXaXyX;X7X.XO.` ) ) ^ ! ! ) [ ;._ _ ` ^ ! ^ ( ` ] [ [ 1.1.>.] ;.;.>.4.8.4.3.~ N K U =.T.:XtXiXiXtXpXiXiXpXwXrXrX",
"aXaXaXpXpXpXaXaXaXsXaXaXaXpX~.) _ _ ) ) ` ] :.1.1.1.<.] _ _ _ :.,.4.4.0.0.4.4.3.3.8.0.0.0.5._ L U U =.oXtXiXiXiXiXpXiXpXpXqXqXrX",
"aXaXaXaXpXaXpXuXuXpXpXaXaXrX~.] _ _ _ _ ;.<.1.8.9.0.5.,.:.:.:.,.5.0.j.j.j.0.0.0.8.0.0.0.6.6.3.C.XX!.#XuXpXpXpXiXiXpXuXuXpXaXaXaX",
"aXaXaXpXpXpXuXrXwXiXpXpXpXtX+X[ _ ;.;.;.<.,.8.9.q.0.9.9.8.8.5.5.j.j.j.j.j.j.j.j.j.0.0.h.h.h.h.).0XrXwXpXpXpXpXtXiXiXwXwXeXaXaXaX",
"aXaXaXpXpXiXuXwXqXiXiXpXpXiX>XO._ ;._ ;.:.,.8.q.q.i.q.q.q.q.7.j.j.c.c.c.c.j.j.j.j.j.0.h.h.h.k.@XwX9XwXpXpXiXpXtXiXiXwXwXuXaXaXaX",
"pXpXuXaXaXaXpXrXrXuXuXuXuXaXyX~._ _ *.;.:.5.9.q.j.x.q.q.i.j.x.l.c.k.c.c.c.j.x.x.j.j.h.h.h.h.A.wXiXuXiXaXpXpXpXiXiXpXiXpXpXsXaXsX",
"eXqXeXaXaXaXpXqXqXuXqXqXuXaXaX.X_ _ %.:.:.5.9.q.x.j.x.x.j.j.x.l.c.c.c.c.c.c.x.x.j.7.h.7.h.j.).iXiXiXiXpXpXpXpXtXtXpXpXiXaXaXaXaX",
"eXwXqXaXaXaXuXqXqXrXqXqXtXaXaX&X{ _ ;.:.,.5.9.q.x.x.l.x.l.l.z.z.c.v.c.c.c.c.h.h.h.7.h.7.h.A.:XiXiXtXiXpXpXpXpXtXtXpXpXpXpXaXaXaX",
"uXuXrXaXaXpXpXiXuXpXiXuXpXaXaX;Xo._ ;.:.5.5.7.j.x.x.c.c.z.l.z.l.v.v.m.c.c.c.z.h.u.7.6.7.k.'.rXiXiXuXiXaXpXpXpXpXpXpXpXpXaXsXsXsX",
"rXwXeXeXqXqXiXiXtXiXiXtXiXaXaX;XO._ :.,.5.9.q.x.x.c.m.c.z.z.c.c.n.c.c.c.z.z.l.h.l.7.6.0.U.:XqXrXeXwXwXrXqXqXiXpXpXpXpXpXpXaXaXaX",
"rXwXwXrXqXqXiXiXtXiXtXtXpXsXsX7XU.:.,.5.5.7.i.j.c.v.v.m.v.c.c.v.n.m.n.m.m.z.z.l.l.7.6.w.#X6XqXqXrXwXwXwXqXqXiXpXpXpXpXiXpXaXaXaX",
"uXrXrXiXuXrXpXiXiXiXiXiXpXaXaX;Xp.3.3.5.7.7.x.x.v.v.m.v.m.m.n.n.m.B.m.m.n.c.z.z.l.h.0.XXuXrXtXrXtXtXuXuXrXrXpXpXpXaXaXpXaXaXaXaX",
"iXtXiXaXaXsXuXrXwXrXwXeXrXiX4X/.w.5.6.6.q.x.l.c.z.v.m.m.m.m.m.m.B.B.B.m.m.m.m.z.l.l.).5XuXwXwXrXpXiXpXuXwXwXiXpXiXaXaXaXaXwXqXeX",
"iXtX1X0X0X8X8X>X,X4X4X,X,X,XQ.w.7.7.7.x.x.x.l.c.c.m.B.m.B.B.B.B.m.m.m.m.B.m.m.n.z.S.%X2X5X2X2X2XwXwXwXwX5X5XwXwXwXrXuXrXrX5XwXeX",
"iXiXiXaXsXaXpXqXeXuXrXrXuXiXiXiXiXiXiXuXeXeXpXpXpXpXrXrXrXrXrXrXpXpXpXsXaXaXpXqXeXtXwXeXuXeXeXuXpXpXpXuXeXrXpXpXpXaXaXaXaXrXrXrX"
};
