/* XPM */
static char *result[] = {
/* columns rows colors chars-per-pixel */
"64 64 243 2 ",
"   c #110001",
".  c #240101",
"X  c #2D0201",
"o  c #340302",
"O  c #3C0402",
"+  c #370803",
"@  c #3C0B02",
"#  c #3D1103",
"$  c #440402",
"%  c #4B0402",
"&  c #420C02",
"*  c #4B0B02",
"=  c #550702",
"-  c #441203",
";  c #4C1403",
":  c #471903",
">  c #4C1B03",
",  c #531402",
"<  c #5C1703",
"1  c #541C03",
"2  c #680502",
"3  c #720902",
"4  c #631D03",
"5  c #691903",
"6  c #761803",
"7  c #5D2303",
"8  c #582504",
"9  c #532A0F",
"0  c #632402",
"q  c #6B2503",
"w  c #652B02",
"e  c #6B2A03",
"r  c #6B2D0A",
"t  c #782703",
"y  c #6C3403",
"u  c #68370B",
"i  c #753506",
"p  c #7B3402",
"a  c #6A3918",
"s  c #7B4A16",
"d  c #75451B",
"f  c #7C5124",
"g  c #7B522D",
"h  c #881902",
"j  c #872903",
"k  c #932B03",
"l  c #863303",
"z  c #843C03",
"x  c #8C3D04",
"c  c #983804",
"v  c #893F17",
"b  c #A43704",
"n  c #B03905",
"m  c #CD3F04",
"M  c #8A4405",
"N  c #924605",
"B  c #964903",
"V  c #9B4B04",
"C  c #9C5304",
"Z  c #9E5906",
"A  c #8C4E15",
"S  c #A74804",
"D  c #B54804",
"F  c #A55304",
"G  c #AB5404",
"H  c #AC5B04",
"J  c #A55908",
"K  c #AB5B08",
"L  c #B25C04",
"P  c #B85906",
"I  c #A96305",
"U  c #B56304",
"Y  c #B56706",
"T  c #BC6A06",
"R  c #BD6C09",
"E  c #BD7409",
"W  c #AD6918",
"Q  c #835425",
"!  c #855C33",
"~  c #A15D20",
"^  c #8F622D",
"/  c #966736",
"(  c #B1722E",
")  c #CE4702",
"_  c #D24A03",
"`  c #C55704",
"'  c #CD5C04",
"]  c #D75605",
"[  c #DD5B05",
"{  c #E25D05",
"}  c #C56404",
"|  c #C36C05",
" . c #C96C05",
".. c #C86708",
"X. c #D26305",
"o. c #D86906",
"O. c #DB6C0B",
"+. c #C47306",
"@. c #CC7405",
"#. c #CC7B06",
"$. c #C4730A",
"%. c #CA740A",
"&. c #C67C0A",
"*. c #CC7B0B",
"=. c #D87407",
"-. c #D37C05",
";. c #D4750C",
":. c #D37D0B",
">. c #DA7B0B",
",. c #C16C12",
"<. c #C67712",
"1. c #DB7712",
"2. c #E26508",
"3. c #E47208",
"4. c #E27B0B",
"5. c #E27813",
"6. c #C47925",
"7. c #866746",
"8. c #996D48",
"9. c #9D7C52",
"0. c #CC830A",
"q. c #D58205",
"w. c #DB8405",
"e. c #DD8B05",
"r. c #D4830C",
"t. c #DA850B",
"y. c #D48A09",
"u. c #DD8B0B",
"i. c #DB9409",
"p. c #DE930D",
"a. c #D68914",
"s. c #DE9315",
"d. c #E68607",
"f. c #E18E05",
"g. c #E18C0B",
"h. c #EA8D0C",
"j. c #E49306",
"k. c #EA9C06",
"l. c #E5940C",
"z. c #E99508",
"x. c #E49A0D",
"c. c #EB9C0C",
"v. c #E38A15",
"b. c #E39311",
"n. c #E79716",
"m. c #E69C11",
"M. c #EB9C11",
"N. c #F19711",
"B. c #EBA30A",
"V. c #EDA20D",
"C. c #F4AA07",
"Z. c #F1A50D",
"A. c #F4AB0D",
"S. c #F6B30B",
"D. c #F8B80B",
"F. c #E6A113",
"G. c #EDA212",
"H. c #EFAA13",
"J. c #F2A512",
"K. c #F4AC13",
"L. c #F8AC13",
"P. c #F5AE1A",
"I. c #F6B214",
"U. c #F9B413",
"Y. c #FABB14",
"T. c #F5B41A",
"R. c #F9B41C",
"E. c #FABC19",
"W. c #DA8B2B",
"Q. c #D08A32",
"!. c #E89525",
"~. c #E6902F",
"^. c #ECA62A",
"/. c #F8B621",
"(. c #F2B133",
"). c #FBC40F",
"_. c #FBC216",
"`. c #FAC31C",
"'. c #F9C720",
"]. c #F9C923",
"[. c #FAC834",
"{. c #9F835C",
"}. c #A78559",
"|. c #B48C58",
" X c #9C8466",
".X c #AA8B66",
"XX c #B89966",
"oX c #B0946F",
"OX c #BFA26C",
"+X c #BEA678",
"@X c #D29047",
"#X c #DDA756",
"$X c #E8AA49",
"%X c #EBB14F",
"&X c #C99B6A",
"*X c #C8A368",
"=X c #D7A96B",
"-X c #C5A979",
";X c #E8B770",
":X c #FAC84A",
">X c #F3C668",
",X c #F1C579",
"<X c #F2CD7E",
"1X c #B9A684",
"2X c #C8AC85",
"3X c #C6B286",
"4X c #D4B988",
"5X c #CEB391",
"6X c #D5BD98",
"7X c #DCCB94",
"8X c #D7C69B",
"9X c #E9C38A",
"0X c #F9DB8A",
"qX c #ECD298",
"wX c #D5C9A6",
"eX c #DCD0AF",
"rX c #DCD2B2",
"tX c #E6CFA9",
"yX c #E5D8A9",
"uX c #F9DDA3",
"iX c #E5DAB5",
"pX c #F7E6AB",
"aX c #EFE4B2",
"sX c #ECE4BD",
"dX c #F7E7B6",
"fX c #F3EAB5",
"gX c #F6ECB7",
"hX c #F3ECBD",
"jX c #EDE7C6",
"kX c #F4EDC5",
"lX c #F2EBCA",
"zX c #F7F5C5",
"xX c #F9F6C5",
"cX c #FBF9C4",
"vX c #F7F5CB",
"bX c #F9F6CB",
"nX c #FDFDCE",
"mX c #F7F4D7",
"MX c #FAF6D2",
"NX c #FDFDD3",
"BX c #FEFEDB",
"VX c #FFFFE3",
"CX c #FFFFE8",
/* pixels */
"VXVXVXMXvXxXMXxXbXBXBXBXBXNXNXNXBXnXNXBXBXMXlXrX1X/ d y e y i A |.7XfXNXVXCXVXMXNXVXVXVXVXBXBXBXCXVXVXVXVXVXVXBXBXBXNXNXBXVXVXVX",
"VXVXVXMXxXxXMXxXxXMXBXBXBXNXnXNXnXNXnXBXkX8X|.! d r y y y y y y s / XXeXlXlXjXlXnXVXCXVXVXBXBXBXVXVXVXCXVXVXBXBXBXBXnXnXNXVXVXVX",
"VXVXVXMXxXxXbXxXxXMXBXBXBXnXnXNXNXNXzXaX+XQ w w 7 7 8 7 8 1 1 7 w y Q 9.oXoX.X+X8XlXBXVXVXBXBXBXVXVXVXCXVXVXBXBXBXBXnXNXBXVXVXVX",
"CXVXVXCXVXVXCXVXVXVXVXVXVXBXNXNXvXyX1X{.d 7 7 1 1 8 8 > ; > , 1 7 7 7 w w w w 8 ! +XsXnXBXvXnXMXBXBXVXVXVXBXBXNXBXBXBXBXBXCXVXCX",
"VXVXVXVXVXVXCXVXVXCXVXVXVXNXnXfX2X8.d 8 1 8 ; - ; - # & - ; ; ; ; , , ; > 1 7 1 1 f 8XhXnXxXbXbXBXBXBXVXBXBXBXnXnXBXBXNXBXVXVXVX",
"VXVXVXVXVXVXVXVXBXCXCXVXVXnXfXOX! w 1 > > @ O # & + + & - ; - > > - - & - - ; , 1 1 9.8XvXxXxXbXBXBXBXBXBXBXBXnXnXBXNXBXVXVXVXVX",
"BXBXBXBXBXBXmXBXmXVXBXBXVXjX+Xg e 7 ; - @ O @ & @ @ @ & : 8 : > > > ; - & & & & & & a {.8XjXNXNXBXBXBXVXBXVXBXMXMXBXBXBXBXVXVXVX",
"NXnXNXnXzXxXMXxXzXnXnXnXvX3Xg 7 1 1 > - - - - - @ + o + # # # # + @ & & @ O + O + X # w 7.3XsXnXBXnXnXBXVXVXBXzXxXNXnXnXBXBXBXBX",
"NXnXNXbXxXzXbXxXzXNXnXvX8X7.9 w 1 1 > : > > : - @ + @ + o o X X o + $ $ $ $ & & - @ + ; 8 ! *XyXbXnXNXVXVXCXBXxXxXMXnXnXNXBXNXBX",
"BXBXBXBXNXMXBXnXMXNXBXrX X9 8 8 > > > > 9 : : - # - : - + o o O * % % * , < 4 0 < 8 ; ; > > f XXyXNXNXBXBXmXBXMXMXBXBXMXNXBXBXBX",
"VXVXVXBXBXBXBXnXNXNXlX1Xa - - @ ; @ @ - # - : - # - : ; & & * < < 5 5 t l x N M i 0 ; ; ; @ 8 f XXaXNXnXvXxXBXVXVXBXxXxXnXxXxXzX",
"VXVXVXBXBXBXBXnXnXNXrX7.@ @ o o O o o o o o @ @ + + & & * , 5 t j x C G F J Y K N 0 * & & O @ 7 ^ 9XbXMXxXxXBXVXVXBXzXxXxXxXxXxX",
"VXVXVXVXBXBXBXBXMXmX1X8 O o o o o O & & o X o o o X o O * q x F U Y T U L G G F x 4 , * @ O O , f -XgXBXnXbXBXVXVXBXbXnXMXbXnXMX",
"BXnXnXVXVXVXVXNXNXjX XO @ o o O ; , 9 & X X o . . . o * i J <.a.t.a.#.$...P G G S x l q , O $ * d OXfXNXNXNXBXNXnXBXNXnXBXNXnXBX",
"NXnXnXVXVXVXBXnXnXrX7.$ $ O ; 0 0 4 * O O O X . . o , M W a.n.G.G.G.m.n.b.t.r.*.$.T K N 0 $ $ ; d OXpXNXnXnXNXnXnXBXnXnXBXnXnXNX",
"BXNXnXVXVXVXBXNXNXrXg % * < i z i t 5 5 , * * % , q B E n.P./.P.P.P.J.J.G.m.l.u.t.r.<.I p ; * , a XXpXBXNXNXNXnXnXBXNXnXNXnXnXBX",
"VXVXVXMXbXbXBXBXBXrXf = 4 l C F F K J V N N N x N Y r.m./././.R.I.P.P.J.G.G.m.m.l.t.r.R M 0 , < a XXfXVXVXVXBXxXbXBXBXBXBXVXVXVX",
"VXBXVXMXbXxXNXBXNXeXd < i V U R %.<.:.:.r.*.*.<.r.u.n.P././.R.R.I.I.P.K.J.G.G.G.n.l.r.T F x 0 1 d XXfXBXVXVXMXvXxXMXBXBXVXVXVXVX",
"VXVXVXMXzXzXNXBXMX8Xd q z J R *.:.r.a.b.n.m.M.M.G.G.J.P.T./.R.R.I.P.P.J.G.x.l.b.p.m.a.%.Y F p 0 a -XgXVXVXVXBXxXvXMXBXBXBXVXVXVX",
"BXBXBXVXVXVXVXmXvX3Xi e x H E &.:.r.g.b.M.M.G.G.G.G.K.L.P.P.R.P.P.J.G.l.t.%.| | $.*.0.y.*.Y M q a .XhXVXVXCXmXbXMXBXCXVXCXBXBXBX",
"NXnXnXVXVXVXBXzXaX+Xr e z H E %.#.r.t.l.b.x.M.M.M.G.G.J.J.J.K.Z.c.c.e.@.} L G L T T R *.0.E F i q 9.yXVXVXVXBXxXxXMXVXVXVXnXnXBX",
"NXNXnXVXVXVXMXxXsX+Xe e z K R &.*.r.a.w.u.t.e.u.j.j.x.k.V.Z.Z.c.j.f.-.-. . .@.-.r.q.+.+.+.&.I M p 8.7XVXVXVXMXxXxXBXVXVXVXnXnXNX",
"BXBXBXVXBXVXBXbXkX+Xr q z F R <.*.$.T U P G L @.-.q.e.j.c.V.V.z.f.e.w.w.t.u.n.m.M.M.e.#.+.+.Y C N / 7XBXVXBXBXNXNXVXVXVXVXBXBXBX",
"BXBXBXBXBXBXBXxXfX+Xe 0 p C Y $.H F V S S G P U  .-.q.g.z.c.c.z.f.f.e.g.g.n.M.G.G.M.l.y.#.&.0.E Z / 8XnXBXBXVXBXBXVXVXVXVXBXBXBX",
"BXBXBXBXBXBXMXzXfX-X0 0 p C Y I F H | %.&.@.@.@.@.-.-.w.j.c.c.c.j.f.e.e.u.g.b.b.v.b.b.m.u.y.s.0.I ~ 2XbXBXBXBXBXBXBXVXVXVXBXBXBX",
"BXBXVXBXBXNXBXBXkX+Xe 4 t B H F H %.r.l.l.v.t.:.-.@.-.w.j.V.J.J.c.j.e.w.q.q.*.<.E $.r.p.M.F.F.i.I ~ -XvXVXVXVXNXMXCXVXVXCXMXBXNX",
"BXBXBXnXxXxXBXVXMX1Xi q p N F F T r.u.n.b.a.r.;.@.@.-.w.x.J.L.U.Z.c.j.:.| ( ~ d 8 u C $.m.H.H.F.E ~ *XlXVXBXMXbXxXBXCXVXVXxXvXvX",
"BXBXBXbXzXzXVXVXBX6XM i z C H U %.r.a.t.r.r.*.$.P T q.e.c.K.U.U.A.Z.c.t.,.( ( u 8 e x I p.H.P.F.E W &XlXVXVXNXxXxXNXVXVXVXxXxXvX",
"BXBXBXNXbXnXVXVXVXrX/ s C U R $.*.:.;.$.Y J M u e K q.l.V.I.U.U.U.I.Z.j.u.a.<.Y Y E #.e.F.T.T.H.0.W OXkXVXVXBXbXvXBXCXVXVXMXmXNX",
"NXNXNXNXNXnXVXVXCXiX}.M I 0.0.0.r.+.K N M A 8 : u Y p.V.A.I.U.U.U.U.U.A.k.j.f.t.e.x.V.A.I.Y.E.T.i.E *XfXNXBXMXxXzXMXVXVXVXVXVXCX",
"NXnXnXNXnXnXBXVXVXlXoXM I 0.y.i.*.L x x J K A Z &.u.G.J.K.U.Y.E.E.U.U.U.K.K.J.Z.H.H.T.E._.E.E.T.F.0.$X<XuXgXMXxXxXNXCXVXCXVXVXVX",
"BXnXNXBXnXNXVXVXCXMX3XM I y.i.s.y.@.| | %.%.:.u.l.c.G.V.U.Y.E.E.E.Y.U.U.U.Y.E.E.`.`.`.`.`.`.Y.Y.H.k.S.H.%XuXMXvXvXVXVXVXVXVXVXVX",
"VXVXVXBXbXbXVXVXCXBXwX/ Z y.p.F.x.l.l.l.l.c.N.Z.J.J.c.J.L.I.U.E.R.U.R.U.K.U.`.`.].].].].`.`.E.Y.I.C.B.z.d.;XxXNXNXNXbXxXMXNXNXBX",
"CXVXVXMXxXxXmXVXVXVXaX}.Z 0.i.V.G.H.K.L.L.L.U.L.J.c.J.J.Z.J.J.J.J.m.m.K.A.A.U.`.].].].].`.`.E.Y.H.B.Z.C.h.$XdXnXnXNXxXxXnXNXnXnX",
"VXVXVXMXxXxXBXVXVXBXzX+XZ &.x.F.H.I.U.E.E.E.E.U.Z.c.c.u.*.t.j.z.r.I T j.B.B.A.Y.`.'.].`.`._._.E.K.j.c.U.Z.P.pXnXnXNXxXxXnXBXnXNX",
"VXVXVXVXBXBXVXVXCXCXMX8X( 0.i.F.A.I.Y.E.`.E.Y.U.Z.f.w.} V U -.e.t.q.t.j.B.A.C.A.Y._.`.`.`._._.E.I.j.d.A.A.R.pXNXNXBXBXnXBXBXBXBX",
"VXVXVXBXBXBXVXVXVXBXkX9XQ.q.l.F.V.I.U.Y.Y.Y.Y.A.k.f.-.-.#.q.w.g.z.J.N.L.L.A.A.C.S.D.Y.)._.E.Y.E.U.H.z.C.C.(.gXNXnXNXnXnXNXBXNXBX",
"VXVXVXBXBXBXVXVXVXlX;XW.w.q.l.c.V.A.I.U.U.U.U.A.k.z.h.z.l.l.z.M.G.L.L.L.L.L.L.Z.C.S.U.Y.Y.).Y.E.U.S.C.C.D.>XgXnXnXBXnXnXBXBXBXBX",
"BXBXBXVXBXBXVXVXVXjX@X[ =.-.y.c.G.A.A.S.L.U.L.Z.k.c.k.c.M.c.G.N.J.L.L.L.L.L.L.C.V.C.I.D.D.D.Y.Y.U.S.D.D._.0XNXNXBXBXnXMXBXBXBXBX",
"vXzXzXBXBXBXVXVXVXuX~.=.d.=.-.l.F.V.A.J.L.L.C.c.c.c.M.M.J.N.J.L.L.P.L.J.J.J.A.V.k.B.A.I.Y.Y.Y.Y.D.D.).).:XpXNXnXnXNXxXxXbXnXnXNX",
"vXzXcXBXBXBXBXVXVXdX!.d.h.' } l.c.B.V.Z.A.J.c.k.c.c.N.N.M.N.N.N.N.h.h.h.h.M.N.M.j.z.V.A.I.S.D.D.D.Y.).[.0XgXBXnXNXBXxXcXbXnXnXNX",
"NXMXMXBXBXBXVXBXVXdX~.h.h.X.X.g.c.c.M.Z.Z.V.k.z.f.z.g.l.v.>.O.X.[ X.' ' X.;.v.h.g.j.c.A.S.S.D.D./.(.[.0XcXBXBXNXNXBXbXbXMXBXBXBX",
"BXBXBXBXnXnXBXnXnXpX$Xh.z.=.o.f.x.c.c.V.V.k.z.f.f.t.t.;.X.` D n b b k j c D ..>.g.d.c.A.S.S.S.T.>XuXpXxXBXNXBXnXnXNXcXxXbXBXBXBX",
"BXBXBXNXnXnXBXnXNXxX,X!.z.d.d.w.l.x.c.k.c.c.z.f.-.:.;.` c t 5 5 * * + . O 6 b ..>.g.h.V.H.S.S.(.qXBXBXBXBXBXNXnXnXNXxXxXnXBXBXBX",
"VXBXVXBXBXNXBXBXBXBXpX>X!.z.z.f.j.j.x.x.c.b.z.g.-.;.` b < .       X o o o $ 6 D ;.t.l.J.Z.S.H.:XkXVXCXVXBXBXVXBXBXBXMXMXNXBXVXVX",
"VXVXVXBXNXBXBXnXnXNXnXgX,X^.c.j.j.j.j.k.z.z.l.t.-...D t o . . . o $ % = = = = c ..t.l.V.B.C.T.>XbXBXBXBXBXNXBXBXBXBXnXnXBXVXVXVX",
"VXVXVXVXNXBXBXnXnXNXnXnXgX9X$Xn.W.b.l.l.z.l.l.g.:...S 5 O $ = = 2 2 3 2 2 2 = t U >.b.M.C.C.^.0XNXBXBXBXBXBXBXBXBXBXnXnXBXVXVXVX",
"VXVXVXBXBXBXBXnXNXBXNXNXBXgXqX9X9X;Xn.j.j.j.h.g.:...b 3 = 2 6 j j c c k h 6 3 6 P >.g.c.B.C.$XpXBXBXBXVXBXBXBXBXBXBXNXNXBXVXVXVX",
"CXVXVXVXBXBXVXBXVXVXVXVXVXBXNXMXmXiX$Xs.j.l.g.g.:...S 3 3 h b G P R ..P S b k j P t.e.k.B.F.;XxXbXbXbXBXNXNXBXnXNXBXBXBXBXzXbXnX",
"VXVXVXBXBXBXVXVXVXCXVXVXVXBXBXBXCXMX9XW.e.i.l.g.r. .S h h n D ..<.1.;.,.' ` n n  .u.u.k.B.^.0XcXxXxXxXNXnXNXnXnXnXBXNXBXBXxXxXxX",
"VXVXVXBXBXBXCXVXVXCXVXVXVXBXBXBXVXVXlX=Xs.i.e.y.q.;.` L G D ' ..;.5.1.O...X.' ..>.h.l.k.B.$XaXNXbXxXxXBXNXnXNXnXNXBXNXBXBXzXvXbX",
"VXVXVXVXBXVXBXMXMXBXVXBXVXBXBXBXVXVXVXtX@Xe.e.u.r.;. .a.:...' o.O.1.1.O.O.O.1.1.d.b.x.B.F.%XaXMXMXbXnXBXBXBXBXNXBXBXnXMXmXVXVXVX",
"VXVXVXBXBXBXMXvXxXNXBXBXBXNXnXNXVXVXVXmX9XQ.q.r.r.:.=.t.a.>.o.O.O.3.O.[ [ O.v.5.d.b.c.V.F.#XaXbXxXxXxXBXBXBXBXnXnXNXcXxXMXVXVXVX",
"VXVXVXBXBXBXNXxXxXMXBXBXBXnXnXNXVXCXVXCXlX*X0.r.r.q.>.>.v.v.5.5.O.[ ] _ ) ` O.4.h.N.k.k.i.#XaXbXbXxXxXBXBXBXBXnXnXNXxXxXnXVXVXVX",
"BXBXMXVXVXVXBXbXnXMXMXMXBXVXBXVXBXBXmXCXVX6X+.q.r.r.t.=.4.h.d.[ _ ) ) m m ] 2.3.h.c.c.k.a.=XhXNXNXNXNXVXBXBXBXNXBXBXMXBXBXCXVXCX",
"vXzXvXVXBXVXBXzXzXvXxXzXMXVXVXVXNXnXNXCXVX5XT #.:.r.r.>.o.3.3.[ _ _ ] ] [ [ 2.4.l.x.j.i.Q.;XzXBXBXnXnXBXBXBXBXnXnXBXBXBXVXVXVXVX",
"bXzXzXVXVXVXBXxXxXbXcXxXMXVXVXVXNXNXNXVXmX5XY +.#.*.:.r.=.o.[ { { { 2.{ { { 2.d.j.j.p.q.@XtXnXMXNXnXNXBXBXBXBXnXnXBXBXBXBXVXVXCX",
"MXbXMXVXBXBXBXMXMXNXMXnXBXVXVXVXNXNXNXCXmX2XU T R %.<.*.;.o.' ] ] [ [ ] ] o.=.w.i.j.q.6.-XkXNXNXBXBXMXBXNXBXBXBXBXBXBXBXBXVXCXCX",
"bXxXxXbXvXzXnXnXNXBXnXnXBXVXVXVXbXxXxXbXsX-XH L U T $.%.*.%...X.] ` ] ' X.-.-.e.j.w.,.&XjXzXzXbXxXxXxXnXxXzXNXBXBXBXBXBXBXVXVXVX",
"bXxXxXbXxXxXNXnXNXNXnXnXBXVXVXVXbXxXxXbXkX6X~ H L H U | $.%.| | } } }  .@.-.e.j.f.( &XiXBXzXzXxXxXxXzXxXxXxXBXBXBXBXBXBXBXVXVXVX",
"MXbXbXBXvXbXBXBXNXNXNXNXBXVXVXVXnXbXbXNXkXiX.XB G G G H T $.%. . .@.@.-.-.e.j.e.@X2XiXmXVXxXvXnXMXbXnXMXnXvXBXBXBXVXVXBXVXVXVXVX",
"BXnXnXVXVXVXmXvXzXnXxXzXnXnXnXnXBXnXnXMXbXlXwX8.V F F F G U $.-.:.q.t.e.f.f.y.@X4XsXzXzXMXxXxXbXBXBXBXMXxXxXMXBXBXVXVXVXVXxXzXvX",
"NXnXnXVXVXVXNXxXxXbXxXxXMXnXnXNXnXnXnXMXbXxXlX6X8.N B V S V G U %.q.q.t.*.Q.&X7XfXvXxXxXbXxXcXvXBXBXBXMXxXxXBXBXBXBXVXVXVXxXxXxX",
"BXNXNXVXCXCXBXbXvXMXbXbXNXNXNXNXBXNXNXMXbXbXBXmXrX.Xv j l l l p M M C ~ |.6XjXkXvXbXnXbXMXbXbXMXBXBXBXMXzXxXBXBXBXVXVXVXVXbXbXbX"
};
