/* XPM */
static char *cf74b69d735c44ccc1a3e01254296827q6xuFDrnT9oWRrPu[] = {
/* columns rows colors chars-per-pixel */
"64 64 220 2 ",
"   c None",
".  c #0C0100",
"X  c #060100",
"o  c #140001",
"O  c #1B0101",
"+  c #240101",
"@  c #2B0202",
"#  c #2F0901",
"$  c #330402",
"%  c #3A0502",
"&  c #340A02",
"*  c #3C0B02",
"=  c #420401",
"-  c #430C02",
";  c #4B0E02",
":  c #4C0700",
">  c #520F01",
",  c #451102",
"<  c #4C1302",
"1  c #4D1902",
"2  c #481908",
"3  c #531402",
"4  c #5B1502",
"5  c #541B02",
"6  c #5C1C02",
"7  c #621C02",
"8  c #6A1C02",
"9  c #601702",
"0  c #721E02",
"q  c #552306",
"w  c #5D2102",
"e  c #5B2609",
"r  c #5D2D0D",
"t  c #56280A",
"y  c #5D2C10",
"u  c #542B10",
"i  c #632302",
"p  c #6A2302",
"a  c #6C2A01",
"s  c #612C0D",
"d  c #672806",
"f  c #742401",
"g  c #7B2602",
"h  c #722B02",
"j  c #7C2B02",
"k  c #6C370E",
"l  c #753102",
"z  c #7B3402",
"x  c #7F3903",
"c  c #663414",
"v  c #653617",
"b  c #703B13",
"n  c #74421C",
"m  c #7C4719",
"M  c #774823",
"N  c #7E5830",
"B  c #754E25",
"V  c #8B1200",
"C  c #951C01",
"Z  c #9A1802",
"A  c #812E01",
"S  c #8D2602",
"D  c #843302",
"F  c #8B3502",
"G  c #833A03",
"H  c #8C3C02",
"J  c #923602",
"K  c #943C02",
"L  c #9D3A04",
"P  c #942F03",
"I  c #A72802",
"U  c #B32A03",
"Y  c #A13201",
"T  c #AA3B03",
"R  c #B53302",
"E  c #B73D02",
"W  c #C43D04",
"Q  c #8E4202",
"!  c #934202",
"~  c #9B4401",
"^  c #9B4901",
"/  c #864C1B",
"(  c #855219",
")  c #865116",
"_  c #A14501",
"`  c #A54C03",
"'  c #AB4C03",
"]  c #B44504",
"[  c #BB4201",
"{  c #B94706",
"}  c #AB5202",
"|  c #A75000",
" . c #B35502",
".. c #B55A04",
"X. c #BB5E02",
"o. c #B75D08",
"O. c #BB5706",
"+. c #AB5817",
"@. c #AF4B16",
"#. c #BC6103",
"$. c #B6650C",
"%. c #BC690F",
"&. c #B76C18",
"*. c #88572A",
"=. c #945926",
"-. c #895B32",
";. c #8D552D",
":. c #A05C21",
">. c #8F6029",
",. c #98662D",
"<. c #8C6337",
"1. c #9C6C36",
"2. c #9B6C3A",
"3. c #966937",
"4. c #9E713C",
"5. c #B16D20",
"6. c #B47227",
"7. c #A06F3B",
"8. c #A67437",
"9. c #BE7F3C",
"0. c #C14602",
"q. c #C44B04",
"w. c #C94803",
"e. c #CC5403",
"r. c #C25C02",
"t. c #CC5C04",
"y. c #C15205",
"u. c #DB5401",
"i. c #DA5C01",
"p. c #D35A08",
"a. c #C36303",
"s. c #CA6404",
"d. c #C66905",
"f. c #CC6C04",
"g. c #C46509",
"h. c #CA6E0A",
"j. c #CB6509",
"k. c #D46304",
"l. c #D06F07",
"z. c #DB6A03",
"x. c #DA6909",
"c. c #CE720B",
"v. c #CF7405",
"b. c #D37305",
"n. c #D67B04",
"m. c #DB7D04",
"M. c #D47509",
"N. c #D97709",
"B. c #D67B0A",
"V. c #DB7D09",
"C. c #DC7606",
"Z. c #C36A1D",
"A. c #D26E10",
"S. c #D0791C",
"D. c #E16601",
"F. c #E46E04",
"G. c #E66F06",
"H. c #E97503",
"J. c #EC7B04",
"K. c #E47309",
"L. c #E77708",
"P. c #E37925",
"I. c #AC7C42",
"U. c #A57A49",
"Y. c #DC8103",
"T. c #DD8109",
"R. c #DD880E",
"E. c #D98517",
"W. c #E18405",
"Q. c #EC8706",
"!. c #E68A06",
"~. c #E28409",
"^. c #E58C0A",
"/. c #E88E0A",
"(. c #E98B07",
"). c #F2840A",
"_. c #F38804",
"`. c #EA9109",
"'. c #E5900E",
"]. c #F49506",
"[. c #E98514",
"{. c #F58711",
"}. c #E99B1B",
"|. c #F89519",
" X c #FBAA0F",
".X c #FBAD15",
"XX c #D88725",
"oX c #DE9526",
"OX c #DA863C",
"+X c #DE9634",
"@X c #F19428",
"#X c #EF9233",
"$X c #EB9C21",
"%X c #F7AB35",
"&X c #FCC23E",
"*X c #AD8144",
"=X c #B38243",
"-X c #B6894A",
";X c #BF8D54",
":X c #BC955B",
">X c #DE9C42",
",X c #C08F52",
"<X c #C79855",
"1X c #E69647",
"2X c #D6A65C",
"3X c #E6AA4D",
"4X c #F6A746",
"5X c #F8B944",
"6X c #E9AE55",
"7X c #DAAE65",
"8X c #D7AB68",
"9X c #DEB46B",
"0X c #D1AD70",
"qX c #C5A265",
"wX c #E0AF67",
"eX c #E1BF79",
"rX c #FBCA52",
"tX c #E9C579",
"yX c #EFC983",
"uX c #F3D289",
/* pixels */
"                                                      eXtXuX                                                                    ",
"                                                2X7.b v M -.U.;X9X9X7X0X                                                        ",
"                                        <X*XU.>.m r < - - - 2 u y b *.=.1.8.;X,XI.I.-X<X8X                                      ",
"                                    U.-.y = - = = * & $ $ $ % * - - < 5 5 5 5 r e 6 M *.2.I.                                    ",
"                                U.-.y % $ & & & $ # # $ $ & $ % * * , 1 1 1 2 - $ % % = ; d -.I.7X                              ",
"                            8X1.v = % $ @ @ @ @ # & & & & & # # @ @ # & * * * $ @ @ @ $ - 2 3 v I.9X                            ",
"                            1.y * & @ @ @ @ @ @ @ # # + + @ + @ @ + + @ # & # @ @ @ O @ $ * 2 2 c *XtX                          ",
"                      yX<X*.5 % @ @ + @ @ + O @ @ @ @ O O + + O O O O O + + + @ & # # + + @ & * % y :X                          ",
"                    yX8X,.e = $ @ + + @ + + + O + O O O O O O O o o o O o O O + & & # + + O # $ $ % N 0X                        ",
"                    8X1.q % @ @ @ @ O O + O O o O O O O O O o o o o o o o o O @ # # # @ O O + @ @ % % U.                        ",
"                  7X8.e $ @ @ + + O O o O O o o O O O O O O o o o o o o o O O + + + O @ O O O + @ $ % u qX                      ",
"                  <Xk % @ @ + + + O o O O o o o O O O O o o o O o . o o o o O O o O O O O O O O O @ & , -.                      ",
"                wX,.; @ + + O O O O O o o . . O o O O o o o o o o . o o o o O o o o O O O O O O O + @ - v :X                    ",
"                -Xr $ @ + + O O O o o o o . o O O o o . o o o . . o o o o . . o o o o O o o o O O + @ $ 2 -.                    ",
"                =., @ + + O O O O o o O . o . O O o . . o o o . . o . . . . . o o o o o o o o O O O + @ # v U.                  ",
"              <Xn $ @ @ + O O O O O o o o o o o o o . . . . . . . . . . . . o o . o o o o o O o o O O + @ 2 <.                  ",
"              =Xv + @ + O O O O o o o o o o o o o o . . . . . . . X X . . X . . . . o o o o O o o O O + + @ M                   ",
"              1.2 @ + O O O O O o o o o . o o o o . . . . . . . . . . . X X X . . . o o o o o O O O O + + @ 2 2.                ",
"            7X>.$ + + O O O O o O O o o . o o . . . . . X . X X . . . . . X X X . . o o o o O O O o + + + @ % <.                ",
"            <XN $ @ @ O O O O O O O o o o o o . o . o o . . . . . . . . . . . . . . . o o o O O O O O + @ @ % N                 ",
"            =XB $ + + + + O O O O O o o o o . o o o o o o . . . o . o . . . . . . . . o o o O o O O + @ + @ $ v                 ",
"            8.c $ @ @ + O + + O + O O o o o . o O o o O O o o o o o o o . . . o . o o o o O o O + @ @ + @ @ % 5 -X              ",
"              t $ @ + + + + + + + O O O o O o o O O O O o o o o o o o o o o o o o o o o o O O + + @ @ # $ $ % ; 2.              ",
"            ) t # + + + + + + + + + O O O O O O o O O o o o o o o O o o o o o o o O o O O O + + @ # & $ $ $ % = 2.              ",
"            ( 1 + + + + + + + + + O O + + + # O + O O o o O o O + + O O + o o O o O O O O + + + # & & & % $ % = 4.              ",
"            ( 2 + + + + + @ + O + + + + + + # + # O O O o O O O + # # # @ + O + @ + O @ @ @ @ @ # & & & % % % = 3.              ",
"            ( 2 @ + + + + + + + + + + + + + + @ # + O O O + O + @ # & # & @ @ @ # # @ + @ $ # # $ $ $ & % $ % = -.              ",
"            m 2 @ + @ @ @ @ + @ + O + + + + + + + + + + + + @ + + # & & # @ # # # $ @ @ @ @ $ $ $ $ $ $ % % % = -.              ",
"            ( t @ + @ @ @ @ + + + + @ + O + + @ # + + + + + @ + + @ @ & & & & & $ $ & $ # $ $ * & $ $ $ % % % = 7.              ",
"              r $ @ $ $ $ $ + @ + + + + O + + @ # + @ + + @ + @ + @ & & @ * & & & & & $ @ $ $ $ $ $ $ * - - : : 4.              ",
"              r $ $ $ % $ $ @ # # + + @ + + @ @ + @ @ @ @ @ @ + + @ & @ & * & & * & $ $ $ $ * % % * * , < 3 3 3 7.              ",
"              k % % % % $ $ $ $ & @ + + + + + @ + + + @ @ + + + @ @ @ @ @ & & * * & % * * - * - , < < < < 3 3 4 =X              ",
"              c = = - - $ $ & $ & @ @ @ @ + + @ + + + @ @ + @ @ @ @ @ @ @ $ % * * * , , ; < , < < 1 1 5 3 4 5 4 -X              ",
"              s ; ; - - * * & $ $ @ @ @ + + + + + O O + @ @ @ @ @ @ $ @ % % * * * * < < 1 5 5 5 5 6 6 w 7 6 9 d -X              ",
"              k 3 > ; - , * * $ @ @ @ @ @ + + + + + + + + + @ @ @ $ & $ * % * 2 - < < 1 5 w i 6 6 i i i d 7 9 M                 ",
"              m 4 ; ; ; - - * $ $ @ @ @ @ @ @ @ @ + + + + + @ @ & % & % - * * - 1 5 3 w i i i w d i a a h f f /                 ",
"              ( 6 3 ; ; , * * * $ @ $ $ $ @ @ @ @ @ + + + @ @ @ $ * * * 2 = , 2 5 5 3 w i i i d a a l l z z f ;.                ",
"              :.d 3 3 < < - * * % % $ % % $ $ @ @ @ + + @ @ @ @ # $ * - 2 ; ; 3 6 5 6 w d i d a l l l z x D j ,.                ",
"        XXA.O.T f 7 4 3 3 ; , , * * - * % $ @ @ $ @ @ @ @ @ @ @ $ & * , 1 < < 6 w w w w a a a l z z x x D G /                   ",
"        [.p.R I 0 p 7 6 5 3 < 3 ; < , - % $ $ $ $ @ @ @ @ @ @ $ % * - < < 1 6 e i i d a l l l x z G Q H H H =.                  ",
"      $X(.e.U I S f i 7 6 6 5 5 3 3 ; < - % $ % $ $ $ @ @ @ $ $ % - - ; < 3 w i d a a a z l x G G H K K ~ @.=X                  ",
"      }.].k.U U Y g 8 7 6 6 6 w 6 5 6 5 3 ; - * - % $ @ @ $ % % % ; < < 3 5 w i a a l l l x x G Q ! ~ ~ ] Z.1XP.@X5X            ",
"      }.].K.R U E P 8 7 6 7 w i 6 w w w 5 3 < < < ; = % % = - ; ; : 3 3 6 6 w d a a l x x G G Q Q ! ~ ' y.s.p.u.J..XrX          ",
"      oX`.~.{ E w.T 0 9 9 6 i i i w i 7 i 6 6 4 3 3 ; ; : ; ; > 4 3 3 6 i i i a a l z x x G G H ! ^ ' O.z.z.D.u.J. XrX          ",
"        '.Q.e.0.e.] S 8 9 6 6 i 6 i 7 i i 7 6 6 6 4 3 3 > 3 3 > 4 6 4 4 i d a a a l z x D G D F ! ^  .x.L.L.D.u.]..X5X          ",
"        oX!.z.w.q.[ P A 7 4 4 7 6 6 6 i d p 7 i 7 6 4 4 > > > 3 4 6 6 7 i a h a l z z j z D A A K ` r.K.{.J.D.D.]..X%X          ",
"          [.H.e.q.[ T J g 9 4 6 6 6 6 i a h d p p p 7 9 9 4 4 4 7 p p p h h h a h z j j j A A D ~  .t.K.{.).F.J.]..X            ",
"          XXW.z.q.0.[ T K g 7 7 4 4 9 7 p p p p p p 8 9 9 7 9 9 7 a h h z j g g f j j j j A D K ' t.k.F.).).H._.@X4X            ",
"            E.K.p.0.T Y ^ ! g i 4 9 7 7 p f g f f g f 8 8 0 0 0 h g j j D G j j g g g g j G ~  .t.x.K.K.H.H.J.|.4X              ",
"            XXN.i.[ I C L ` K z f 8 0 f f j D D A j g f f g A A A D F G H Q G D D D A A F ~  .g.j.x.K.K.H.H._.%X                ",
"              S.s.[ I V K ` ` K D g A D D K K G F D A A A D F F K K ^ ^ ~ ^ ^ K F J K ~ ` o.g.j.y.k.K.G.H.J.@X                  ",
"                Z.{ I C L } } ` L F J K ^ ` ` ^ ~ K K J F K K ~ ^ ` | | } | | _ ~ ` ` o.g.h.h.O.Y w.i.D.H.P.4X                  ",
"                  Z.@.@.+.o...} ' ~ _ _ ` o.o. .} } ` _ T ~ _ }  ...#.#.#.#.....O...#.h.c.c.h.' Z U w.u.G.#X                    ",
"                        6.$.X... . .' } ..#.g.g.g.r. . .}  . .X.g.d.h.c.h.h.d.d.a.d.c.M.M.c.h.] Z U W w.P.                      ",
"                          $.#.#.X.....X.g.g.h.h.h.h.a.a.X.X.a.s.h.c.B.B.B.M.v.b.v.M.B.B.n.n.v.X.{ E w.p.1X                      ",
"                          &.#.X.#.X.X.g.f.f.b.N.B.M.l.l.f.s.f.l.b.B.R.T.T.V.B.B.B.B.B.B.n.n.n.%.XX1X1X1X                        ",
"                          &.#.#.#.a.a.a.f.b.N.B.V.B.C.C.b.b.b.C.T.T.~.^.T.T.Y.V.V.V.B.B.n.m.Y.E.1X                              ",
"                          6.#.a.r.a.a.s.h.b.B.T.V.V.Y.V.V.V.m.Y.R.R.R.^.R.R.~.T.T.T.T.Y.Y.Y.Y.E.                                ",
"                            $.X.X.r.s.f.f.N.V.T.~.L.V.V.T.~.R.W.~.^.^.^.^.^.^.T.T.T.L.Y.Y.Y.Y.+X                                ",
"                            &...r.X.s.f.b.N.V.L.~.R.Y.R.L.~.Y.!.!.^.^.^.^.^.~.~.Y.Y.Y.Y.Y.Y.R.3X                                ",
"                            5...X.a.s.f.b.C.V.W.~.W.~.W.!.Y.!.!.^.^.^.`.^.^.~.Y.m.W.m.m.Y.^.oX                                  ",
"                            6...r.a.s.f.b.C.V.R.~.^.~.!.Y.!.!.!.`.^.`.^.^.^.W.W.W.m.m.m.Y.E.3X                                  ",
"                            8.%.a.s.f.b.b.V.L.~.^.^./.^.!.!.!.!.^.`./././.!.W.Y.Y.W.n.n.T.+X                                    ",
"                              %.a.f.b.b.C.~.~.~.^./././.!.!.!.!.`.`.`.`./.(.W.W.W.Y.m.v.XX6X                                    "
};
