/* XPM */
static char *result[] = {
/* columns rows colors chars-per-pixel */
"64 64 243 2 ",
"   c #0D0100",
".  c #150101",
"X  c #1B0101",
"o  c #240101",
"O  c #2B0102",
"+  c #330102",
"@  c #3B0302",
"#  c #350B03",
"$  c #3D0B03",
"%  c #3B1708",
"&  c #430402",
"*  c #4B0502",
"=  c #440902",
"-  c #4C0B02",
";  c #540402",
":  c #5B0602",
">  c #530C02",
",  c #5B0D03",
"<  c #471706",
"1  c #4B1304",
"2  c #541203",
"3  c #5B1302",
"4  c #591A05",
"5  c #650C03",
"6  c #631502",
"7  c #6C1402",
"8  c #641C02",
"9  c #6A1C03",
"0  c #731502",
"q  c #731B02",
"w  c #7A1C01",
"e  c #542C0B",
"r  c #5B280B",
"t  c #652504",
"y  c #6B2203",
"u  c #732402",
"i  c #7B2202",
"p  c #762A03",
"a  c #7B2C02",
"s  c #702F0A",
"d  c #6A370A",
"f  c #7B3104",
"g  c #783A07",
"h  c #633517",
"j  c #563824",
"k  c #673D21",
"l  c #72441A",
"z  c #72481B",
"x  c #6E4B24",
"c  c #7A492B",
"v  c #795636",
"b  c #765844",
"n  c #7B6248",
"m  c #821D04",
"M  c #862603",
"N  c #832C03",
"B  c #843403",
"V  c #8C3402",
"C  c #833B03",
"Z  c #8C3C04",
"A  c #8E350B",
"S  c #893B0A",
"D  c #963C04",
"F  c #AD3906",
"G  c #C8380C",
"H  c #8D4303",
"J  c #934402",
"K  c #9B4303",
"L  c #954A03",
"P  c #9A4B03",
"I  c #904A09",
"U  c #9E5102",
"Y  c #985209",
"T  c #834C19",
"R  c #8B5717",
"E  c #965B1A",
"W  c #A24503",
"Q  c #A54C02",
"!  c #AC4C02",
"~  c #AB4805",
"^  c #B44B02",
"/  c #B94B06",
"(  c #A35503",
")  c #A95705",
"_  c #AC5B04",
"`  c #B25402",
"'  c #BA5302",
"]  c #B35C02",
"[  c #BC5D02",
"{  c #B45708",
"}  c #AF5E12",
"|  c #9B621D",
" . c #B86706",
".. c #BC6404",
"X. c #B4660E",
"o. c #88502A",
"O. c #86582A",
"+. c #9E743A",
"@. c #A8702F",
"#. c #C44705",
"$. c #C75606",
"%. c #C35D02",
"&. c #D2520B",
"*. c #C46502",
"=. c #C36A02",
"-. c #CB6C03",
";. c #C86909",
":. c #DA6707",
">. c #D36E04",
",. c #CD7205",
"<. c #C87607",
"1. c #CC7905",
"2. c #CC750A",
"3. c #D37505",
"4. c #D97306",
"5. c #D57A05",
"6. c #DA7D05",
"7. c #D47609",
"8. c #D57B09",
"9. c #DA7D0A",
"0. c #DB6D12",
"q. c #E86C09",
"w. c #E87709",
"e. c #F1760C",
"r. c #F27B0D",
"t. c #F3790F",
"y. c #967550",
"u. c #A37A44",
"i. c #D38204",
"p. c #DC8305",
"a. c #DD8C06",
"s. c #D5830C",
"d. c #DC830B",
"f. c #DD8A0B",
"g. c #DD8E0E",
"h. c #E28505",
"j. c #EB8207",
"k. c #E38B05",
"l. c #E88C03",
"z. c #E2850B",
"x. c #E38C0A",
"c. c #EA8C0C",
"v. c #F3830D",
"b. c #F38D0F",
"n. c #E39005",
"m. c #E99607",
"M. c #EC9B04",
"N. c #E5930C",
"B. c #EB940B",
"V. c #EC9B0D",
"C. c #F3950D",
"Z. c #F9910F",
"A. c #F39C0C",
"S. c #E68812",
"D. c #F58411",
"F. c #F48D11",
"G. c #F98811",
"H. c #E69311",
"J. c #EC9B10",
"K. c #F69412",
"L. c #F39D12",
"P. c #F99A12",
"I. c #EBA305",
"U. c #EEA20B",
"Y. c #F6A904",
"T. c #F5A30D",
"R. c #F8A50D",
"E. c #F6AC0B",
"W. c #F9AC0E",
"Q. c #FAB406",
"!. c #F9B807",
"~. c #FAB30D",
"^. c #FBB90B",
"/. c #E6A21B",
"(. c #F3A311",
"). c #F8A412",
"_. c #F7A911",
"`. c #F9AD11",
"'. c #FAB311",
"]. c #FABB13",
"[. c #CE8B24",
"{. c #EA9834",
"}. c #EFB133",
"|. c #FBC20F",
" X c #FBC932",
".X c #A88759",
"XX c #B99151",
"oX c #9E8768",
"OX c #AD956F",
"+X c #B99764",
"@X c #BDA579",
"#X c #D59845",
"$X c #CC925A",
"%X c #EAB053",
"&X c #E18B63",
"*X c #D0AF6A",
"=X c #DBBA77",
"-X c #ECB771",
";X c #F5C252",
":X c #F9D271",
">X c #B5A583",
",X c #C7B48E",
"<X c #CCB88B",
"1X c #D7BA88",
"2X c #D2BD92",
"3X c #DBC08E",
"4X c #DDC694",
"5X c #D7C99A",
"6X c #E5CB87",
"7X c #F2CE83",
"8X c #E7C799",
"9X c #F5CE94",
"0X c #E6D59A",
"qX c #F5DB98",
"wX c #FDE99A",
"eX c #DBCBA2",
"rX c #DDD7B8",
"tX c #E8D8A8",
"yX c #F0D7AB",
"uX c #E5DAB5",
"iX c #F7E6AB",
"pX c #ECE2B7",
"aX c #F6E7B5",
"sX c #F5EDBD",
"dX c #FAEEBB",
"fX c #FAF0B7",
"gX c #F7F2BE",
"hX c #FAF4BE",
"jX c #EFEACA",
"kX c #F6EEC3",
"lX c #F4EDCC",
"zX c #F7F5C4",
"xX c #F9F5C5",
"cX c #FDFBC6",
"vX c #F6F3CA",
"bX c #F9F6CB",
"nX c #FDFCCE",
"mX c #F7F4D6",
"MX c #FAF6D2",
"NX c #FDFDD3",
"BX c #FEFEDB",
"VX c #FFFFE3",
"CX c #FFFFE8",
/* pixels */
"VXVXVXmXbXbXMXbXbXNXBXBXBXNXNXNXNXNXNXBXBXBXVXVXVXBXbXbXMXVXVXVXBXNXBXVXVXVXVXBXBXBXVXVXCXBXBXBXVXVXCXVXVXVXVXBXBXBXNXNXBXVXVXVX",
"VXVXVXMXzXzXMXxXxXMXBXBXBXNXnXNXNXnXnXBXBXBXVXBXVXBXzXzXMXVXVXVXBXnXnXVXBXVXVXBXBXBXVXVXVXBXBXBXVXVXVXVXVXVXBXBXBXBXNXnXNXVXVXVX",
"BXBXBXbXhXhXbXhXhXbXNXNXNXnXcXnXnXnXcXBXnXNXBXBXBXNXxXhXbXMXkXkXfXfXgXbXNXBXBXnXnXBXBXBXBXMXNXMXBXBXBXVXBXBXBXnXNXNXcXcXMXBXBXVX",
"CXVXVXVXVXVXVXVXVXVXVXVXVXBXNXNXBXBXBXmXbXMXBXBXbXjXtX0X2X+Xy.u.u..X+X,X2X5XiXcXnXNXmXNXNXMXnXNXBXVXBXVXBXBXBXNXBXBXBXBXVXVXVXCX",
"VXVXVXVXVXVXCXVXVXVXVXVXVXnXnXNXBXBXBXbXzXzXkX4X.Xn v l r 4 - = = = $ < e l v y.+X6XfXzXnXcXzXbXBXBXBXBXBXBXBXnXnXBXNXBXBXVXVXVX",
"VXVXVXVXVXVXCXVXVXCXVXVXVXnXnXNXBXBXNXsX0X$X+.h & & & = = $ & @ + O @ @ @ @ + @ 4 h +.=XpXgXzXbXBXBXBXBXBXBXBXnXnXNXBXBXBXVXVXVX",
"BXBXBXVXNXBXVXmXmXVXBXBXBXNXNXMXVXMX6X.Xz 1 & @ + @ @ $ @ + @ + + O @ + + @ @ + @ = + 4 O.@X3XeXaXxXBXNXBXVXBXBXMXBXBXBXBXVXVXVX",
"NXnXNXnXzXzXbXzXzXNXNXnXBXxXxXfX6XXXT 4 & $ $ O + @ @ + o o o o o o o X X o O + + + O O O < e k O.+X0XBXBXVXmXbXzXNXnXNXBXBXBXBX",
"NXnXNXbXzXzXMXzXzXnXNXnXNXzXiX*XR t 1 @ + + o X O + + X X X o o o O o o O O o O + + @ @ + O O + @ - k <XMXBXNXzXxXMXnXnXNXBXBXBX",
"BXBXBXBXNXMXBXnXbXBXBXNXBXaX$Xl & @ @ + O o o o + + O X o O O O o o O O o o o X o O + + + O o o + & * 4 OXtXmXBXBXBXMXMXBXNXNXBX",
"VXVXVXVXBXBXBXnXNXBXVXVXsXXXd # @ O + O o X X o O o o o o O O o o o o o X X X X X X X o o O o o o O O + < x +XiXBXBXzXcXbXxXxXzX",
"VXVXVXBXBXNXBXNXnXBXVXtX@.t @ O O O O O o X o o X . X o o O O + @ & # O O o X X X . X o o o o o X . X X o O < +XMXBXzXzXbXzXxXbX",
"VXVXVXVXBXBXBXNXNXVXkXu.1 & + O O o O O o O O o . X X o o O O + & = + o o O o X X o X o o O o o o X . X o + + e 2XdXbXbXNXbXMXNX",
"NXNXNXVXVXVXBXNXNXmX*Xr = + + + O O O O O + @ O X X X O O o O O = + O o o o X X X X X o X X . X X X X X X o O + T *XcXnXBXnXnXBX",
"nXnXNXVXVXVXBXnXzX=Xd & & + @ & @ + O O + * > & O O O O O # + + + O X X X X . X X . . X X . . . . . . . . . X o < @.wXnXBXnXnXNX",
"BXNXnXVXVXVXVXNXqXE & & @ 1 s 5 , * + O @ 3 9 3 & + + $ + + # + + O o X X X X X X . . X o X X o X X X     . X o + l +XiXNXnXnXBX",
"VXVXVXNXvXbXBXBX6Xd + * * , A S A p 3 & & 4 u y > @ $ $ + + # O O O o o o X X X X X X X X X X X X X . .   . . . o + d #XbXVXVXVX",
"VXVXVXMXzXxXBXBXhXo.+ 8 y D Y Q { } P a u 6 9 u 4 = = # O o o O O O o o o X X X X X X . X . . . . . . .       . . O 1 | aXVXVXVX",
"VXVXVXMXzXzXBXNXkXT * C )  ...;.2.2.X.} ( H 9 9 4 2 $ O o o O O + + O o o o X . X X X . .   . . . X . .           X + E iXVXVXCX",
"BXBXBXVXCXVXVXMXaX| B Q <.s.s.d.d.s.9.;.X.} S 9 3 = O X O $ @ @ @ + O O O O o X X . .   . X X X X . X X .   .     . O O.tXbXBXBX",
"BXnXNXVXVXVXNXzXfX[.1.a.H.x.g.N.x.f.s.2. .) S q : @ O O 1 2 - = @ + O O + + O o X X . X o O o . . X X X X . . . . X O c eX0XnXNX",
"NXnXnXVXVXVXmXzXiX/.I.V.J.H.N.N.N.S.s.2. .Q D q ; @ @ * 2 2 2 - @ = @ @ @ + O o X X o O O o X . . . X X X . . . X X O s @.5XcXBX",
"BXBXBXBXVXBXBXdX%XI.I.V.J.N.N.N.g.g.d.2...Q D q 5 > 3 , - * 2 - - 1 & = @ @ O o X o O + O X . X X X . . . .     . . X r | 4XMXBX",
"BXBXBXBXBXBXBXaX#X1.a.m.J.N.J.N.N.x.d.2.[ ^ K a q 6 9 3 * - > - 2 = - > & @ O O O + + O X X X X X X X . X . .       X 1 O.4XnXBX",
"BXBXBXBXBXNXMXiX#XQ ] ,.s.m.J.H.H.f.d.7...` K V w 7 y 6 3 4 > > 2 - 2 > = + + + @ @ + o X X X o X X . . . X X .   . . # c 1XkXBX",
"BXBXBXBXBXBXBXdX%X=.....=.a.J.V.V.N.d.7.*.] Q V 7 7 q 9 8 t 3 , > 3 3 * * @ + $ - + o X o o O X . . . . X X X . . . . O s +XlXBX",
"BXBXBXzXhXxXBXiX}.a.n.a.=.=.N.U.(.N.f.3.*.[ ) V 7 7 q 6 9 6 8 > 2 t 3 > > = & - - + o o O + O X X . . X . X X . o X   o 1 O.pXxX",
"BXBXBXMXxXxXxX;XY.I.m.N.8...i.V.U.N.x.5.-.[ ` K i i q u u y a t y y 6 8 8 3 2 2 & @ + + O + o o X . . . X . . . o X . X @ g tXbX",
"BXBXBXnXbXfX:X'.I.I.N.N.x.1.,.N.J.B.x.a.3.*. ._ K N B B B g C f a p y a u y 3 > * & @ + O O O o o X X X X . . X o X X o + d uXmX",
"NXnXnXnXwX X].^.a.Y <.f.H.f.5.a.V.J.J.J.N.p.8.2._ K K Z J L H C f a a f C p 6 > - * & @ @ + + O o o o o . . . . . . X X O l lXVX",
"nXnXwX;X|.^.^.~.I.X.I ;.x.H.x.n.V.U.T.(.J.B.N.f.<._ P L L L L H Z C g L H f 8 3 * * - & @ + + O O O o X . X X . . X . X O oXmXCX",
"nX:X X|.^.^.].~.U. .N N [ H.V.V.V.T._._._.A.J.J.s. .( U L L Y H I H H Y I f y 3 > * * & @ @ + O O O o o X X       .   X < 2XVXCX",
"fX|.|.!.!.!.^.W.T.n.1.5.d.V.(.(.(._._.`.`.(.J.J.i. ._ ( P P L J H H H H C u y 8 3 > * @ @ & @ + o O o o X X . . . .   o v tXBXBX",
"iX!.!.Q.Q.E.'.`.E.U.U.J.T.T._._._.`.`.`.`.(.(.N.i. . .( U L J J J H Z B f p 9 t t 2 > * * & + O o o o X X . . . . . . 1 +XzXnXNX",
"bX%XE.!.!.Q.'.'.'.`.`.`.E.'.'.`.'.`.`.'.`.(.J.a.i.X._ ( U L J L J C V B B u 9 y 8 3 3 > - & + o o o o o X . . . . . o v sXNXcXnX",
"VXwX{.Y.E.W.'.].].].].'.'.'.'.^.'.'.`.`._.(.J.i.<._ _ _ U P P P J B B B a i y t 3 3 3 3 - & + + O O O X X .     . X $ +XkXBXBXBX",
"VXbX%XT.M.T.^.].].].].].'.'.'.'.'.'._.E.(.A.N.5. . . ._ ( ( U U L H H B a i 9 y 8 6 3 3 > * & + O O o X o X   . . . d 3XbXBXNXBX",
"CXdX}.Q.Y.E.].|.].].].].'.'.'.'.`.`.`._.T.V.a.i.i. . . .( Q ( ( ( L K V N i q q 9 7 3 , > * & + O O X X X .   . . # .XsXBXBXBXBX",
"NX7X^.^.Q.Q.].].].'.'.~.'.~.~.~.W.E.T.T.A.m.k.f.i.1.<. .]  . . ._ P K N i i w q 9 7 6 , > - & + O X X X X .   . o e 1XnXBXBXBXBX",
"xX:XQ.Q.Q.E.^.^.~.'.~.~.'.W.`.R._.T.T.A.V.m.k.p.p.i.1.1.,.;.=.;.;.` D M m w q i q 7 6 3 * & & + o X X X X . X o < +.tXxXbXnXnXNX",
"xX:XY.Y.Q.Q.Q.~.~.~.W.W.`.`.R.W.T.T.T.A.C.m.x.k.p.s.5.3.9.9.9.S.S.S.9.0.D m 0 q 7 7 7 , * & @ O o . X o X X X o z 0XzXzXbXnXNXNX",
"mXiX%XT.Y.M.Q.W.~.W.W.`.'.R.R.R.T.T.A.A.B.B.c.x.h.6.6.d.d.z.H.b.b.c.F.K.F.;.A 0 q 7 6 , * & + O o X X X X X X d XXbXnXbXMXBXBXBX",
"BXBXkX-XA.l.A.Q.W.W.R.R.`.R.T.R.A.A.A.A.V.B.x.k.d.d.9.d.f.z.9.z.:.F #.w.K.F.$.m 0 7 6 , - & @ + O X X X X X + +.0XMXcXhXcXBXBXBX",
"BXBXBXcX:X{.M.W.W.R.R.R.).R.A.P.A.A.C.B.B.c.x.h.h.z.f.S.S.d.4.0.0.z.t.S.D.G.t.A 0 7 6 , * & @ O O X . X X O k 1XcXnXhXxXzXNXBXBX",
"VXBXVXBXmXqX{.T.R.R.T.R.A.A.A.C.C.B.B.B.c.k.h.h.h.z.c.L.P.;.#.>.;.P.Z.P.Z.t.D.{ w 7 : > * & + + o X . X o k XXpXBXBXMXnXBXBXVXVX",
"VXVXVXBXBXBX8XV.Y.R.A.A.A.M.m.B.B.N.c.x.c.w.6.6.h.c.C.L.S.F $.:.q.K.P.P.Z.G.r.{ q 0 : ; & @ + O o X X o x 2XyXbXBXBXnXnXBXVXVXVX",
"VXVXVXBXBXBX8Xh.A.A.A.C.B.B.l.l.k.x.k.h.p.w.6.5.6.c.b.&.#.G #.:.D.F.P.Z.G.G.t.F 0 7 : * @ + O o X . o b eXzXBXBXBXBXnXnXBXVXVXVX",
"CXVXVXBXBXmX&X>.A.V.C.C.B.l.c.k.h.h.p.6.p.4.4.>.>.j.b.:.:.:.q.w.K.K.Z.r.t.t.0.M 0 7 , * @ O o o X % n eXBXNXBXBXBXBXnXBXBXVXVXVX",
"VXVXVXVXBXyXG ;.K.B.B.c.B.k.k.p.w.p.p.5.6.>.>.$.$.P.P.P.P.Z.w.e.Z.G.e.q.t.e./ 0 0 6 ; & # o X O n @XpXnXnXNXBXNXNXBXBXBXBXzXbXbX",
"VXVXVXBXMX&XG w.B.c.B.x.x.h.p.6.6.6.5.3.3.>.$.^ %.P.).).P.G.v.j.v.e.q.q.q.&.m 5 7 5 ; @ + O % oXrXgXzXNXNXnXnXnXnXBXNXBXBXxXzXbX",
"VXVXVXNX-X&.&.l.x.N.x.x.h.d.6.9.5.5.3.3.3.-.%.^ $.c.P.P.Z.v.v.r.q.e.e.q./ M 5 5 ; ; & @ O j ,XbXvXvXvXNXnXNXNXnXnXBXBXBXBXzXzXbX",
"VXCXCX9X&.:.l.k.x.x.x.h.p.p.6.5.7.7.1.>.-.-.%.%.*.4.w.r.r.r.r.e.q.q.&./ A 0 5 ; * & @ + b ,XvXMXMXbXnXVXBXBXBXBXBXBXbXMXBXVXVXVX",
"VXVXVX{.q.w.l.k.f.x.p.p.d.9.6.3.3.1.,.2.>.*.*.>.7.8.>.$.$.$.$.#.#.^ ~ W V 0 : ; & + $ y.uXsXzXvXbXxXzXBXBXBXBXnXnXBXzXbXMXVXVXVX",
"VXVXBX&Xw.j.l.l.x.f.d.w.9.6.8.3.7.3.3.,.,.3.7.8.9.z.7.$.$./ / ^ ^ ! Q Q D w 5 : & % OXmXVXxXvXbXxXxXzXBXBXBXBXnXnXMXcXcXbXVXMXVX",
"mXmXBX9Xh.l.l.k.f.x.h.6.8.7.7.3.7.,.,.7.1.3.7.d.9.d.9.7.*.' ' ^ ^ ^ Q Q K V M 7 4 >XmXVXVXBXNXNXBXNXNXVXBXBXBXNXNXBXNXmXBXVXVXCX",
"bXzXzXMX%Xk.h.k.p.p.6.8.4.3.7.1.,.,.,.,.-.3.3.9.z.9.9.7.-.-.%.` ! ! ! ~ W K S g @XlXBXmXBXnXnXNXNXnXnXBXBXBXNXnXnXBXBXBXBXVXVXVX",
"bXzXzXVXmX%Xh.h.k.p.5.5.3.3.,.-.-.,.;.,.-.3.3.8.9.8.8.5.3.-.*.%.[ ' ` ! Q ! W T 5XNXBXNXBXNXnXBXNXnXBXBXBXBXBXnXnXBXBXBXBXVXNXVX",
"MXMXbXVXBXiXH.p.p.5.3.3.3.*.=.*.*.=.-.=.-.*.>.7.4.8.8.7.>.>.-.;.*.[ ` ~ D W Q a oXjXVXVXCXNXMXBXBXNXNXBXBXNXMXBXBXBXBXnXVXVXCXCX",
"bXbXxXbXzXkX}.k.p.5.-.-.-.*...[ ] [ *.[ %.-.7.8.9.5.4.7.3.-.*.$.' { ' ~ ~ ) ) K r rXBXmXVXzXzXbXzXzXzXbXxXhXMXBXBXBXNXnXBXVXCXVX",
"bXzXxXbXzXxX7Xn.p.3.=. .=.;.X.@.} ] ' [ ,.5.8.5.3.7.>.-.%.*.;.7.7.7.7.;.;.;.] K 3 OXVXmXmXzXzXbXbXxXzXbXzXxXBXBXBXBXBXBXbXVXVXVX",
"MXcXbXNXMXnXzX-X[.s.#X1X2X8XeXuX$X] ..,.7.5.3.5.6.6.p.p.p.a.p.p.p.5.5.3.3.,.=.Q , .XBXmXmXbXbXbXnXbXMXNXbXbXBXBXBXVXBXBXVXVXVXVX",
"nXnXcXBXBXmXMXdXqXqXiXhXxXcXnXkX=Xi.5.5.5.5.p.p.k.k.n.k.a.m.n.n.k.k.p.p.i.5.,.] o.eXgXsXvXzXzXzXMXzXbXbXgXxXbXMXMXBXMXBXBXhXhXvX",
"NXnXNXVXVXCXBXxXhXcXzXxXMXnXMXNXnXnXnXMXxXcXNXBXBXBXzXzXbXbXbXbXBXBXBXVXVXVXNXzXzXbXzXbXbXzXzXbXBXBXBXMXzXxXBXBXBXVXVXVXVXzXzXvX",
"BXNXBXVXVXVXBXxXbXMXbXbXNXNXNXNXBXNXNXNXzXbXBXBXBXBXbXbXbXbXbXbXBXBXBXCXVXVXBXvXbXMXcXcXMXbXbXMXBXBXBXNXzXzXBXBXBXVXVXVXVXbXbXbX"
};
