/* XPM */
static char *result[] = {
/* columns rows colors chars-per-pixel */
"64 64 247 2 ",
"   c #0E0201",
".  c #140102",
"X  c #1C0101",
"o  c #240101",
"O  c #2C0202",
"+  c #2E0705",
"@  c #330303",
"#  c #3B0403",
"$  c #360904",
"%  c #3C0A04",
"&  c #3B060A",
"*  c #3B0C08",
"=  c #3E1003",
"-  c #420402",
";  c #4A0502",
":  c #430C04",
">  c #4B0C04",
",  c #480E09",
"<  c #530503",
"1  c #540D04",
"2  c #5A0D02",
"3  c #441204",
"4  c #4C1304",
"5  c #481607",
"6  c #4C1A04",
"7  c #541404",
"8  c #5B1403",
"9  c #541A05",
"0  c #5C1B05",
"q  c #531209",
"w  c #5A1D0A",
"e  c #4A1E12",
"r  c #651907",
"t  c #621C04",
"y  c #6B1B04",
"u  c #701F03",
"i  c #59250A",
"p  c #4B2411",
"a  c #532614",
"s  c #652205",
"d  c #6C2404",
"f  c #6E2A05",
"g  c #69270A",
"h  c #6C2609",
"j  c #732405",
"k  c #782606",
"l  c #732A04",
"z  c #7B2B03",
"x  c #6B3209",
"c  c #7C3404",
"v  c #7D3A04",
"b  c #773509",
"n  c #7B350A",
"m  c #702E17",
"M  c #6B3717",
"N  c #733817",
"B  c #562E20",
"V  c #5E392D",
"C  c #633B25",
"Z  c #764004",
"A  c #77471A",
"S  c #6E4A31",
"D  c #7A5837",
"F  c #7E6346",
"G  c #822A04",
"H  c #8A2F02",
"J  c #843304",
"K  c #8C3304",
"L  c #833B04",
"P  c #8C3D04",
"I  c #85370A",
"U  c #943C04",
"Y  c #993D06",
"T  c #913B16",
"R  c #B63607",
"E  c #864106",
"W  c #8C4205",
"Q  c #934404",
"!  c #974506",
"~  c #9C4B05",
"^  c #874816",
"/  c #994D10",
"(  c #A44A05",
")  c #A35305",
"_  c #AC5403",
"`  c #AD5B04",
"'  c #A85609",
"]  c #B35B05",
"[  c #B85B06",
"{  c #AC5311",
"}  c #9D671A",
"|  c #B66104",
" . c #BB6303",
".. c #BE6902",
"X. c #BA660C",
"o. c #B96618",
"O. c #885929",
"+. c #815A39",
"@. c #A65C20",
"#. c #976D31",
"$. c #B46C2E",
"%. c #AA7426",
"&. c #A4763A",
"*. c #C54D0C",
"=. c #CC580A",
"-. c #CA5A12",
";. c #C46704",
":. c #C46C02",
">. c #C96C02",
",. c #C26D0A",
"<. c #DB6A09",
"1. c #C67104",
"2. c #CB7404",
"3. c #CD7A04",
"4. c #C6730B",
"5. c #CB750A",
"6. c #CE7A0B",
"7. c #D77806",
"8. c #D27C05",
"9. c #D27D09",
"0. c #CB6A11",
"q. c #C67616",
"w. c #D67818",
"e. c #E36A09",
"r. c #E47305",
"t. c #E97609",
"y. c #EC7C0C",
"u. c #C37826",
"i. c #896948",
"p. c #8F7253",
"a. c #A47C48",
"s. c #B48532",
"d. c #D58203",
"f. c #DA8505",
"g. c #D48806",
"h. c #DD8B05",
"j. c #D5820A",
"k. c #DA850A",
"l. c #DD8A0B",
"z. c #DF9206",
"x. c #DC8712",
"c. c #D8901C",
"v. c #E18D07",
"b. c #E4840B",
"n. c #ED820B",
"m. c #E28E0A",
"M. c #EC8B0D",
"N. c #F2840E",
"B. c #F28B0D",
"V. c #E49305",
"C. c #E59904",
"Z. c #E5920B",
"A. c #E9960A",
"S. c #E79A08",
"D. c #EC9B0C",
"F. c #F29B0D",
"G. c #E88A13",
"H. c #F78912",
"J. c #E99612",
"K. c #F79715",
"L. c #F99C13",
"P. c #ECA205",
"I. c #EEA20C",
"U. c #F3AC05",
"Y. c #F2A40D",
"T. c #F5AB0D",
"R. c #F8AD0F",
"E. c #F9B30E",
"W. c #FAB808",
"Q. c #EFA713",
"!. c #F2A213",
"~. c #FAA114",
"^. c #F6AC12",
"/. c #F9AE12",
"(. c #F0A818",
"). c #FAB412",
"_. c #F7B911",
"`. c #F9BA13",
"'. c #CA8023",
"]. c #D29132",
"[. c #E59B2D",
"{. c #E9A529",
"}. c #F1A92F",
"|. c #E6A63D",
" X c #FAC425",
".X c #9E815F",
"XX c #A4835B",
"oX c #B78B53",
"OX c #9D8466",
"+X c #A18564",
"@X c #B59B6B",
"#X c #A79472",
"$X c #B59E79",
"%X c #BDA670",
"&X c #CB924B",
"*X c #D89A45",
"=X c #CD995A",
"-X c #D2A05F",
";X c #E6AE45",
":X c #D1A864",
">X c #D3AC68",
",X c #C2A776",
"<X c #D5B878",
"1X c #F7C352",
"2X c #F5CE73",
"3X c #F8D579",
"4X c #BDAE89",
"5X c #BDB08C",
"6X c #C4AD87",
"7X c #C9B58B",
"8X c #D7BD8E",
"9X c #CBBA94",
"0X c #CEC29A",
"qX c #D8C79A",
"wX c #EDCC89",
"eX c #E3CB97",
"rX c #F5D996",
"tX c #F5E196",
"yX c #D7CBA8",
"uX c #E2CFA0",
"iX c #E6D8A8",
"pX c #E7DDB4",
"aX c #EDE0AE",
"sX c #F6E4A8",
"dX c #EBE2B4",
"fX c #ECE3B9",
"gX c #F2E9B5",
"hX c #F7E8B5",
"jX c #F4ECBB",
"kX c #FBF1B8",
"lX c #FBF2BB",
"zX c #EEE6C4",
"xX c #F4EBC2",
"cX c #F3ECCA",
"vX c #F7F4C5",
"bX c #F9F6C5",
"nX c #FEFAC4",
"mX c #F6F3CB",
"MX c #F9F6CA",
"NX c #FDFCCE",
"BX c #F4EFD0",
"VX c #F6F3D5",
"CX c #FAF6D2",
"ZX c #FDFDD3",
"AX c #FEFEDB",
"SX c #FFFFE3",
"DX c #FFFFE8",
/* pixels */
"SXSXSXCXmXMXCXMXMXZXAXAXAXZXZXZXZXZXZXAXAXAXSXSXSXAXmXMXAXSXSXSXAXZXNXSXSXDXSXAXAXSXSXSXSXAXAXAXSXSXDXSXSXDXSXAXAXAXZXZXAXSXSXSX",
"SXSXAXCXbXbXCXbXvXCXAXZXAXZXNXZXZXZXNXAXAXAXSXSXSXSXbXbXmXVXVXBXdXiXiXzXiX7X6X5X0XpXcXVXAXZXAXAXSXSXSXSXSXSXAXAXAXAXNXNXZXSXSXSX",
"SXSXZXCXbXbXMXvXbXCXAXAXAXZXZXZXZXZXNXAXZXZXCXBXcXzXuX9X$XOXp.+.A v Z M e # # - - i F #X%X7XiXvXCXSXDXSXSXSXAXAXAXAXNXZXAXSXSXSX",
"SXSXAXDXSXSXDXSXSXSXSXSXSXZXZXZXAXAXAXCXfX6X+Xp.F F S p - - : # $ $ @ @ # # - : : > # @ @ a +.%XiXMXAXSXAXSXAXZXAXAXAXAXAXDXSXDX",
"SXSXAXSXSXSXSXSXSXSXSXSXSXZXNXZXAXZXgX%XD M w : * 3 : : : : # @ @ @ @ O O O @ : $ @ @ # : , , a D <XvXCXAXAXAXNXNXAXAXAXAXSXSXSX",
"SXSXZXSXSXSXSXSXSXDXSXSXSXZXNXZXNXaXa.i : > % % 5 5 3 : : : # # - # $ @ @ O O @ @ O @ # @ @ @ & : S oX7XaXMXZXZXNXAXZXZXSXSXSXSX",
"AXAXZXSXCXAXAXAXVXSXAXAXSXZXZXZXaXi.9 > @ @ : 3 = @ & O @ $ $ % % % % $ O $ % & $ + @ O O X o O : 4 > i &.8XmXCXCXAXZXAXAXSXSXSX",
"ZXNXnXNXbXMXCXvXvXZXZXNXZXbXjXqXF a : % # : = $ + + O O & $ $ O $ @ O O @ $ $ + + o o o o o o + O o O > x &.pXnXbXZXZXZXZXAXAXAX",
"ZXZXnXmXbXvXCXvXbXNXZXNXZXdX$XC > % # # 3 % O + O o O O O o o o o o o O o o o o o o o X X X X o X X O @ % A <XgXkXnXNXNXNXAXAXAX",
"AXAXZXAXCXCXZXNXMXAXAXMX0Xi.5 % % # : % $ @ O O O + + O o o o o o O o O O O o X X o X X X X . X X o X o o 6 #.>X<XpXMXNXZXZXCXAX",
"SXSXAXAXAXAXAXNXZXAXAX5XS - # : $ # $ @ O O O @ $ $ o o o o o o o O o O o X X o + o o X o o X X X . X X o @ A %.'.>XkXnXNXMXbXvX",
"SXSXZXAXAXAXAXNXNXMX9XC # # $ # @ O o o O O $ @ O O o O o o O o o o o o o o o + o o X o X X X X X X o X o @ 6 ^ } s.wXnXvXvXbXMX",
"SXSXZXSXAXAXAXZXZXqXD : % @ @ @ + X X O O $ O O O O O O o o o o o X X o o o o X X X X X X X X X o X X X O O @ i } %.:XvXZXMXCXNX",
"ZXZXnXSXSXSXSXZXgX#.- 4 @ @ O + + X o o O O O O % % @ o O o X X X X o o o . . X X X X o o o o o X X X o O O O @ 9 A s.gXZXNXZXZX",
"ZXZXnXSXSXSXAXvX+Xa 9 * O o O $ o X o o O O O @ 6 % @ o o o X o X o O o X X X X X X o o o O o o X X X X o O o O % m } :XvXZXZXZX",
"ZXZXnXSXSXSXSXiXS 9 4 + X o O o o . X O + @ O $ 6 # @ o O O o o o o O o X o X . X X O o O o o o X X X . X o O O @ : x %.uXNXZXZX",
"SXSXCXZXmXMXmX#X9 9 > O X X o X X . X o + + O # 5 $ @ O $ O O O O o O O o o X X o O o o o O o X X X X X X o O @ O @ , b %XCXSXSX",
"SXSXZXZXMXvXqXM 4 9 @ O X X o X . X X o + & @ @ 3 : : # $ O $ @ @ o + + O X o O @ O X X o o X X X o o X o o O o o @ # , O.zXSXSX",
"SXSXCXCXlXqXi.4 4 3 @ O o X o X . o o O O * 3 : % % = $ @ % = @ O O @ O O o O % O o o o o o X X X o o o o X O O O @ @ - N cXSXSX",
"AXAXNXSXSX@X- : > % @ O o o o X X o + O + % % 3 : * O @ @ $ * % * & @ O @ O @ = O O o o O O o o X o X o o o O @ O @ @ - M pXAXAX",
"ZXNXnXSXSX4X# > > # @ O o O @ @ o O @ @ $ = o + $ & o @ % $ % 5 = % % $ @ @ 5 3 @ O O O $ O o X o o O o O o O O O @ O # M dXZXZX",
"ZXZXnXSXSX#X- > : % @ @ o @ % : : @ @ $ = + . . o O O O @ @ $ = $ = 5 = @ : 6 % $ @ @ % 3 O O o O O O O O @ O O @ @ O @ M gXNXZX",
"AXAXnXSXVXS & # > 4 $ O O @ 3 9 9 9 3 $ + X . . . o @ + o O % O O % $ $ @ 3 3 : @ % @ 5 = @ O O O O O O @ @ O O @ @ @ # +.cXAXAX",
"AXAXNXSX0XB # & , 0 : @ O o % q 0 0 g , o .   . X o @ O o $ : O O @ o @ 3 4 : @ @ $ : 6 % @ O O O @ O O O @ O O @ @ @ # p.vXAXAX",
"AXAXnXCX+X5 + O 4 h s 0 q q - ; 1 7 i 1 o .   . o O O o o & @ + @ O X O 3 9 : @ $ # 3 9 % $ # @ @ @ @ O + @ O @ @ @ @ - a.cXAXAX",
"AXAXNXzXi.= O o 6 / ! ! I k h k l d 1 - o .   X + o o o O + O & & O X o * 6 : * % # 4 4 # % $ @ @ O @ O O O @ $ O @ @ # a.BXAXSX",
"AXAXnXpXs.= o X : Q ` ` ' ) ) ) ~ P d ; @ X X o & o O o O @ @ : @ O X O 4 q q : : # > : : : # @ @ + O o O O O O O @ @ $ oXgXvXmX",
"AXAXnXlX:XA * X & u I X.4.4.X.X.) ! J t # @ o @ $ O @ + @ O @ 3 @ O O + 7 9 i , > # > : > : : @ O @ O o o O O O O @ @ , oXhXbXmX",
"AXAXNXCXsX&.h * s { X.4.6.6.5.,.] ~ P u 1 - & ; - # : % @ @ % 4 $ % 4 7 0 0 w q 4 > 7 : : > # O O O O o O @ O o O @ @ p 6XvXZXVX",
"ZXZXnXZXnXeXoX^ ) 9.6.6.6.6.6.4.,._ Y H j 2 < q q q 4 4 # - : 9 , w t s w 0 w 9 q 4 > > 4 4 # O O @ O O O O O O o O @ C yXSXSXDX",
"ZXZXnXZXNXnXeX%.j.z.j.j.d.j.6.6.4.[ ( U J u 1 < 8 1 7 q 9 9 1 8 q t h n s 0 0 9 1 1 ; > 9 > # O @ @ O @ O O O O O O # p.cXSXSXSX",
"ZXZXnXZXZXZXhX[.z.z.x.j.j.j.j.d.6.,._ ( Y J r < r 2 r 2 s f t 0 s t n ^ b d s 8 9 0 > > 8 > # @ @ @ @ # O O O O O @ * +XBXDXSXSX",
"SXSXCXCXMXMXxX*Xg.h.h.k.x.l.x.x.9.2. .] _ ! l r y r l x f b z l j f E / v g g r g s 7 7 0 q > : % @ # # O O O O O @ * $XMXZXZXZX",
"SXSXZXCXbXbXMX=X~ | 1.6.g.x.z.l.k.7.5...[ _ ~ J k h n v b v v v n v Z / Z l g s g s 0 0 s 7 1 7 > - # @ O O @ @ @ @ p 7XZXZXZXZX",
"SXSXZXCXbXMXAXeX@.! _ ] ,.x.J.Z.z.x.j.5.:.;.X.` U I I I n n E L L v L n n l d h h t 0 s 0 8 0 7 7 - # @ O o O @ @ @ a qXNXZXNXZX",
"DXSXCXAXAXAXSXrXc.2.3.4.] ..x.S.J.Z.Z.l.k.5.6.4.| ~ P P L L L v E L L v c c l h d t t s s 0 0 7 1 1 : # @ O O @ @ @ O.eXAXAXAXAX",
"SXSXZXAXAXZXSXsX{.z.g.j.X.| 1.x.Z.J.S.D.J.x.x.x.6.X.W Q P L E c E E c c c c d d h d d d f t 0 1 1 > ; # @ O O # + , ,XnXZXAXAXAX",
"SXSXZXAXAXAXAXrX(.S.g.j.j.4.1.3.l.Z.D.Q.D.J.J.z.x.4.) ~ Q P W L E E v z c c z l d j j l d d t 8 1 1 ; - # @ @ @ # D iXNXZXAXAXAX",
"AXAXMXSXAXAXbX1XQ.'.@.o.j.4.6.8.g.Z.D.Q.D.Q.S.J.z.4.` ~ Q W P P P P L L L L c l z l c l l l f t 8 1 1 - - # @ @ a 9XMXCXAXAXAXAX",
"mXvXkXAXAXbX3X_.).[.o.I n { ,.j.z.Z.S.D.Q.Q.I.J.l.3.` ~ Q Q Q U W Q W P P J G G z z c z z j j t 8 1 1 - - # @ # i.zXvXvXNXNXNXZX",
"mXbXkXAXlX3X`.W.).T.m.' m r ( 6.Z.S.P.I.!.!.I.J.l.3.| ~ ! Q Q ! Q ! ! Q P K G G k G k G G k j d 8 8 1 ; - # @ a 6XCXbXbXNXZXNXZX",
"CXCXbXbX2X`.W.W.)./.D.../ { 2.l.I.I.I.Q.Y.Y.I.S.l.3.| _ ) ) ~ Q ! ) ~ ) ! U K K K H H G G z l l h r 2 ; ; # - $XzXAXMXMXNXAXAXAX",
"AXAXkX3X`.W.W.W.E.^.I.z.k.m.J.(.(.^.T.T.Y.Y.I.S.m.j.1.;. .| | ` [  ...>.4.0.w.w.w.0.( U K H z l h t 2 ; ; > XXgXNXZXbXbXNXAXZXAX",
"AXAXkX XW.W.W.W.E.^.^.!.!.^.)./.^.).T.T.^.!.I.D.V.f.8.3.2.2.1.1.5.5.k.m.K.K.K.K.K.K.b.*.! P L z j r < ; - i.uXnXNXZXbXbXMXAXAXAX",
"SXSXbX1XW.W.W.W.T.E.E.^.).).`.).E.).^.T.^.T.Y.D.Z.m.f.d.8.8.6.7.9.k.m.G.b.-.*.e.y.H.H.N.[ U P c l y 1 < V 0XCXZXZXAXCXNXAXAXSXSX",
"SXSXMXrX}.`.W.W.T.E.)._.).).).).).).R.^.Y.Y.Y.D.J.Z.m.b.k.j.8.k.x.m.k.b.0.-.=.<.t.t.y.H.0.Y J J z y 2 1 .XxXSXAXAXAXNXZXAXSXSXSX",
"SXSXZXAXgX[.C.C.U.).`.`.`.).).E.E.R.R.T.Y.Y.D.D.F.Z.V.m.v.h.l.m.m.m.7.<.-.w.K.H.B.B.y.N.y.Y K J u r 2 S uXZXAXAXAXAXZXNXZXSXSXSX",
"SXSXCXSXnX}.z.C.T.`.`._._.E.W.E.E.R.^.T.!.Y.D.D.A.A.m.V.m.v.V.M.m.J.w.{ =.-.G.K.L.H.y.y.y./ H z u r N yXZXAXSXAXAXAXZXZXAXSXSXSX",
"SXSXCXSXsX}.I.U.E.).`.`.).E.E.E.R.R.T.Y.F.F.F.V.A.A.V.n.m.Z.Z.Z.A.!.0.R R -.<.n.K.y.e.y.y.T H u u m 6XCXZXZXZXZXZXAXAXAXAXmXMXNX",
"SXSXZXAXrX(.U.U.E.).).).).).E.E.R.R.Y.Y.Y.C.A.V.V.A.V.V.V.v.m.Z.Z.m.=.=.=.=.H.n.H.y.e.t.e.H u y m @XhXAXNXNXZXNXNXAXZXZXAXbXbXMX",
"SXSXMXSXsX{.P.U.T.R.E.).).E.).R.R.T.Y.P.F.C.C.V.V.m.v.v.m.m.V.Z.G.-.*.<.r.e.n.B.y.t.e.t.-.G y m $XjXmXCXZXZXZXZXZXAXZXAXAXvXmXMX",
"SXSXMXSXAX2XS.D.U.R././.^./.Y.T.T.Y.F.D.D.D.A.V.v.m.v.m.l.l.b.m.J.M.V.M.M.r.r.n.y.e.t.e.T y S 9XcXMXNXSXAXAXAXZXZXAXCXCXCXSXSXSX",
"SXSXCXAXAXtX7.k.P.U.T.T.T.T.T.Y.Y.Y.D.D.A.Z.A.V.v.v.h.k.f.f.7.b.~.L.~.~.K.B.n.n.t.t.t.[ T +XuXvXMXvXMXAXAXAXAXZXZXZXbXMXCXSXSXSX",
"SXSXMXAXZXkX|.7.f.Y.Y.Y.~.Y.Y.F.F.F.D.A.A.Z.V.m.v.b.k.f.f.7.>.7.~.~.~.~.K.B.n.y.t.t.;.$.6XjXMXMXbXnXbXAXAXZXZXZXNXZXnXbXNXSXSXSX",
"AXCXMXSXSXAXwXJ.v.C.Y.Y.P.F.F.F.A.A.A.A.A.v.m.v.f.f.f.j.d.7.;.;.J.~.~.L.F.B.B.y.7.>.$.eXCXZXZXZXCXZXZXSXAXAXAXZXZXAXAXCXAXDXSXDX",
"MXvXlXSXSXSXxX;XC.C.D.P.F.F.D.C.A.A.A.v.v.v.h.f.f.f.9.7.8.>.;.;.>.7.M.M.t.7.7.>.:.;.=XxXAXZXNXZXZXZXNXAXAXAXZXZXNXAXZXAXSXSXSXSX",
"MXvXkXSXSXDXCXwXJ.S.C.C.S.A.A.V.Z.V.Z.m.k.k.j.j.j.7.9.5.2.>.:.>.>.:.>.>.;.;.;...:.u.dXAXAXZXZXZXZXZXZXAXZXAXAXNXZXZXAXZXAXSXSXSX",
"CXMXvXSXAXAXAXtX{.C.z.z.C.V.v.m.h.h.l.k.k.9.8.3.3.3.5.2.>.1.:.2.3.2.:.:.;.;.:.1.>.q.fXSXSXZXCXAXZXZXCXAXAXAXAXAXAXAXSXAXSXDXDXDX",
"MXbXlXmXvXvXZXkX|.z.z.h.h.h.h.h.g.f.d.d.8.7.2.5.2.1.1.:.:.:.1.2.6.5.2.:.:.....1.:.q.eXAXSXbXbXMXmXbXvXNXvXvXZXAXAXAXAXZXAXSXSXSX",
"NXbXlXNXbXbXZXNX3X{.V.h.g.f.f.d.d.d.d.d.8.2.2.......:.;.:.:.2.2.7.9.3.2.1.:.:.:.>.>.=XcXAXvXbXMXbXbXvXNXbXbXZXAXAXAXAXAXSXSXSXSX",
"CXMXlXZXmXCXAXZXnXrX|.g.f.d.d.3.3.3.3.1.q.u.o. .|  . . ...1.2.3.6.j.9.2.1.:.:.:.>.3.5.:XzXvXMXCXCXNXCXCXNXmXAXAXAXSXAXAXSXAXSXSX",
"ZXNXnXSXSXSXAXvXbXbXiXwX*X&X].&X-X-X&X=X6X9XoX[ | |  ...1.2.3.3.6.6.7.6.3.3.1.2.2.3.3.u.eXjXbXmXAXZXAXCXbXbXZXAXAXSXSXSXSXbXbXmX",
"ZXZXnXSXSXSXAXbXbXMXvXvXpX9X4XpXfXMX,X8XiXyX&.;.....:.5.6.j.j.6.3.j.7.6.3.3.8.8.8.8.d.8.oXqXvXgXZXAXAXCXbXbXAXZXZXSXSXSXSXbXbXmX",
"ZXZXZXSXSXSXAXMXmXCXvXvXCXZXZXZXZXZXAXCXMXMXZXAXAXAXbXmXCXvXvXCXAXAXAXSXSXSXAXnXMXMXnXMXCXnXvXCXAXAXAXZXmXMXAXAXAXSXSXSXSXMXmXNX"
};
