/* XPM */
static char *d2d87e79c33d4a22f58f5f4797b1baacvQyHBuiiEqSKMzAa[] = {
/* columns rows colors chars-per-pixel */
"64 64 32 1 ",
"  c #F7F6C5",
". c #F9F6C5",
"X c #F9F8C7",
"o c #F7F7CA",
"O c #F9F6CB",
"+ c #FDFECE",
"@ c #FAF7D1",
"# c #FDFFD2",
"$ c #F9F8D4",
"% c #FBF9D4",
"& c #FAF9D5",
"* c #FBFBD4",
"= c #FCF9D4",
"- c #FCFAD6",
"; c #FFFED4",
": c #FDFED6",
"> c #FBF9D9",
", c #FAFAD9",
"< c #FCFAD9",
"1 c #FDFFD8",
"2 c #FEFED8",
"3 c #FBFADC",
"4 c #FBFBDF",
"5 c #FCFBDF",
"6 c #FEFFDE",
"7 c #FDFCE0",
"8 c #FDFFE3",
"9 c #FFFFE2",
"0 c #FFFEE5",
"q c #FEFDE6",
"w c #FDFFE6",
"e c #FFFFE8",
/* pixels */
"009$o.$Oo=666###;##6260994oo*009;*;090926999e6260000009229#;2000",
"099@..@..@222####+#2229990  @090##+99092;9990;;60090096226++;990",
"099$..O..=226#+#;##6229099..$090;+#99092;09902269900096226+#2090",
"000099e990090;;;66;<$O<;;;=#;$O=9002226;;;@@,+@$9699666;;622900e",
"099099e090090++#222@..=+#;++#o.o000;#+;#+#..@..+2266;22##2226990",
"9900990090009###222$..#+#;###..O9002++;+#=..O..O222622;++22;699w",
"6666,,5$,7626===966=O@$==22;62<24,$2;;6226=26<2<6220906=$2226099",
"#++O..@. $++#X.X222@..O..O#+;;26o..###6226226226;+;909,.O=#*;2;6",
"#+++..@  +##;X..222$X + .=##;222...###2222;26;22;+#990=..=++#226",
"626<$$,+*$226$*=666<@*$OO=;22=22<==2226<27,;6666;;;77<7,=#==;;<2",
"0999222#+20906;26;26;2$..;226..O622000,..o..$;;6*++O..,002..o..o",
"00992;2++200022262;6;2;..<222 XO262090,..oo.=222#+#+..7995..O..o",
"9999666#;9000966666962=$*,666$O$66,0006OO=OO,629;##$O=6909OO=OO=",
";##9996##20900990092+#9090226222O O222=.OO..@##;OXX;##;##;#+;##;",
"#+#9996##;0909009092++6000226222O..,22=..OO.=#+;o.o=+##++;+#;++#",
"###9096##609e0990992##690e226266Oo.726$OOO.O$###o.o;##;+#2##;#;;",
"009$OO6220009;;;+.oqq00000269900Ooo@oo<626##2000OoO000,oo<966900",
"999$X 2226909#+#o .q990090226970O..o..2222++2900...999$..=226900",
"999@..,229009++#o .9909990226000@..o..<;22##2009.O 999$..$229990",
"6<2e005$$$@=$;$O$@@,$$00ee0e02;65656;;000e990226;=$0095;O90e0;26",
"#+#099,..O..O..oo..@ .<900996++#222;+#6900999#+#;++999$. ,099++;",
";++999,..O..@...o..@..2990099++*622;++9900909$+#*++999<..,909++;",
"622099<OO$+$<745@oO$OO499000e699696<@+4,$9000+#$#;29996==0000226",
"2226;2<..+++2099o..@..2;29000990222+..@..,900..O#+#62262;9900226",
"2226;2=..=#+2099oO.O..;229090990622*..@..=090...#+#2226226090226",
"9666,;6<$,##$699===5$,0999547776999$O@,=$6690+==;;$09962,09902<6",
"622$..7996..=o.X##+9900954  O.oO090$..<222#+;#+#o..909$o <009..o",
"222O..4095O.O...#++090000<  o..O099@..2222+#2#+#O.o999,. $999..o",
"662=#o6007OO=OO@;;;0990997+o$OO$999$OO6626;;6#;;=OO0902Oo4e00$$$",
"###;##9997O.Oo.o*;+;++;++7000X.O;+#+O.=++2266###++#662$  ,w70990",
"##+;++6995..=...#++2++;#+2090o O#+#O..#+#;222+###++222=..$990090",
";##2##9004OO=OOO###2;;2;#6909 .@#;;$O@;#;2629#;;;;;6222oO<000000",
"000$oo7009#;;;##+Oo2+#$.O;##2626@Oo7000000000*#;;+;;##2##$o.=;;;",
"099@. 7999++;#+#O.o;++;..O++;222o. 9900900999#+####;##;###..O##;",
"099$..6996##2###o..<#+@..$++;226O..7900900909##;+##;+#;#+;o.+#+#",
"0004620000226+O@099,o+56909902;2@O+00006692;6###9990996##2##<626",
"9996229909222o.oe09$..9990099#+#.  9009;26+#;+##9990992##;++;622",
"909622000962;o.o099$..4990099#+#O. 9099222++;++;9090906++;++;226",
"5,,9660009226OO$9267=22,,9690;;27746620099;;9;;2,,,9662;;6@$2226",
"o. 2220906+#=OXX;++222$..$226+##009;++9996##;#+#O X#++;*#;  ++#;",
"o.X2220099++#...###6;2=..=2;9++#9q9;##6999++;###...#++;##=..O###",
"==$9229666+=2$==22;962=#$22262229692##9666;;2626<<$6226;;<OO#;2;",
"222;++;#++..O2262622++;#+;++;622##*;++;+#;++29000996222++=..O626",
"622;++2+++..@222222;++;++###;226#+##+#2#+;+#2900900622;###..$222",
"9666;;6222==<<666696;;6;;622,999;;2,;26;;2;2600000e09662;6+$<969",
"0996222++;++#..o2222#+;+#2226999oooO.o;226+#;..O22262222;2++;090",
"0996222##;+#;..o222;++;##;226990Oo.O..<222++;o.o22;9226226##;090",
"0009622##2#;2oOO6662##;;#262900eOOOOoo<226##2OoO6266226626;;2000",
"09096209900906260990992;;;Xo$9906660095X ;266##;OOO;##;##2226XoO",
"099622090e0992;670w0906++*Xo+9006;2090$..=226++#o..;+####2;26.oO",
"0096220900000626000e997*;#o ;090222090,.o=;26+#;.o.;#+;##222,..O",
"0909665#$,669;22000e009;;,OO$0009669666;;900eO@$$+O9626;;2$@<700",
"0906;<$X.=226#+#090e096+##..@0902226222+#6999 .O...5;22+##.oO990",
"999622=OX$2;2#+;9090992++=o.@9006222262#+2090......6222#+=.O=990",
",,$999,O+$;@,9996260e09#;6=2<$,<2$=2;26;#9690#=;<=#6666;#6=;6e0e",
"o o900,. O..$099;++0096++2;22 .Oo..;+#;+#22;2#+#;#+622;##;226900",
"o..990;X O..+099;+#9996+#222<..OO.o#++;##;226+###++6222#+2226090",
"$@@7672=$,==<000;=;0549;;6666<=$=$=6266;;6990$=<=#=56262296690ee",
"o..o  =++;++;009o..O..$226222226#+#9906++6990...O. O..$222226900",
"O..o..@#+#++;090o.oO..=;262;6222##+9902++6999 .o...O..;266222090",
"@OO$o$<*;2;;2090$+O=OO26692<72262;;0ee6##6990OOo@O$=OO2629660997",
"#+#009<X O .$+++#++@OO<222O.OooO262090<..O..O..+222*..2229999. o",
"##+909*..O..O#####+O.O22#,..O..o622090,..OO.@..o2;2@..2229090..o",
";##0004oO@OO=###;;#=OO2226oo@oo+666000<oOOOo$.OO992*oo,260000.XO"
};
