/* XPM */
static char *_05e5ca55e1d48b8cd9d29c1ad99c1a5rPRum7pvyQDnPvb0[] = {
/* columns rows colors chars-per-pixel */
"64 64 232 2 ",
"   c None",
".  c #3F4E34",
"X  c #494E39",
"o  c #5F7153",
"O  c #7D715C",
"+  c #9E7367",
"@  c #A56E6E",
"#  c #6E805E",
"$  c #8E9C6B",
"%  c #919E71",
"&  c #A69178",
"*  c #93A272",
"=  c #9DAD7C",
"-  c #9AAA77",
";  c #A0AD7E",
":  c #CB856B",
">  c #CB8976",
",  c #D48C78",
"<  c #D19678",
"1  c #C7B46D",
"2  c #CBBA79",
"3  c #D2BC7A",
"4  c #9AA88E",
"5  c #A4B483",
"6  c #A6B589",
"7  c #A6BA8A",
"8  c #AABC8D",
"9  c #A5B985",
"0  c #ADBD93",
"q  c #AFBE99",
"w  c #B0BF95",
"e  c #B6B99A",
"r  c #A1AF84",
"t  c #BFBAA0",
"y  c #D28C82",
"u  c #D99889",
"i  c #CC9594",
"p  c #D39993",
"a  c #D69897",
"s  c #CC8E8B",
"d  c #E19F8D",
"f  c #D9A789",
"g  c #C4BD84",
"h  c #DDA29D",
"j  c #D3A39C",
"k  c #C8B79A",
"l  c #D9B495",
"z  c #D3BF84",
"x  c #E8A795",
"c  c #E2B495",
"v  c #E4B398",
"b  c #E7BA9C",
"n  c #E4A18B",
"m  c #DA9DA0",
"M  c #DBA3A3",
"N  c #DCABA4",
"B  c #DEA9AC",
"V  c #D9A8A9",
"C  c #DCB3AB",
"Z  c #DBB0A5",
"A  c #DEBBB3",
"S  c #DFB9B7",
"D  c #E1A3A6",
"F  c #E2AAA6",
"G  c #E2ABAC",
"H  c #E7A9AD",
"J  c #E9BEA3",
"K  c #E6B4AA",
"L  c #F2BBA1",
"P  c #E3ADB3",
"I  c #EBACB3",
"U  c #E5B2B5",
"Y  c #EAB4B5",
"T  c #E4BBB2",
"R  c #E6B4B9",
"E  c #E9B5BB",
"W  c #E6B9BA",
"Q  c #EBBBBD",
"!  c #F0BEBF",
"~  c #F2B8B9",
"^  c #ACC18F",
"/  c #AEC193",
"(  c #AFC098",
")  c #B2C396",
"_  c #B4C49A",
"`  c #B9C69E",
"'  c #B6CA9B",
"]  c #BACA9D",
"[  c #BAC7A1",
"{  c #BDCAA3",
"}  c #BECCA9",
"|  c #B5C4A0",
" . c #D9C38C",
".. c #D3C189",
"X. c #C8C997",
"o. c #DCC592",
"O. c #D7C896",
"+. c #DDD29F",
"@. c #E4C49D",
"#. c #E5CA9E",
"$. c #E4C798",
"%. c #C2CDA5",
"&. c #C3CEAA",
"*. c #C8C8A7",
"=. c #D7C9A6",
"-. c #C4D1A5",
";. c #C5D1AB",
":. c #C9D5AD",
">. c #C8D5AA",
",. c #DDC2B6",
"<. c #D4CCB4",
"1. c #DDC4BB",
"2. c #D4CCBA",
"3. c #DECABE",
"4. c #C6D3B1",
"5. c #CAD5B4",
"6. c #CCDBB5",
"7. c #CEDBBB",
"8. c #CED6BA",
"9. c #DAD1BB",
"0. c #D3DCBA",
"q. c #D4D6B7",
"w. c #CDCBB4",
"e. c #E5C6A3",
"r. c #EBC5A4",
"t. c #E5CBA3",
"y. c #EBCBA5",
"u. c #EDC5AA",
"i. c #E6CBAB",
"p. c #ECCCAB",
"a. c #E3C7AA",
"s. c #F1CEAC",
"d. c #F6C5AD",
"f. c #EDD1AC",
"g. c #E7D1A6",
"h. c #F2D2AD",
"j. c #F5D5AB",
"k. c #E3C1B6",
"l. c #EDCEB2",
"z. c #E2C5BB",
"x. c #ECC1BF",
"c. c #E2CABE",
"v. c #F4CCB2",
"b. c #F2C2BE",
"n. c #FBCEBA",
"m. c #EED1B3",
"M. c #ECD4BB",
"N. c #F4D3B3",
"B. c #F8D7B4",
"V. c #F9D9B4",
"C. c #F4D5BA",
"Z. c #FAD5BB",
"A. c #F6D9BC",
"S. c #FADABC",
"D. c #F5D8B2",
"F. c #D3E1BD",
"G. c #EBB7C1",
"H. c #EDBCC3",
"J. c #EFBDC8",
"K. c #F1BDC5",
"L. c #F2BEC9",
"P. c #F6BBC9",
"I. c #DECDC2",
"U. c #DCD3C4",
"Y. c #D9DDC3",
"T. c #D5DCC6",
"R. c #E5C5C2",
"E. c #EEC3C2",
"W. c #E2CEC3",
"Q. c #EFC3CB",
"!. c #E4CFC8",
"~. c #E9CEC9",
"^. c #F3C2C5",
"/. c #F2C9C4",
"(. c #F4C3CC",
"). c #F8C4CC",
"_. c #F4CACC",
"`. c #F8CACB",
"'. c #E4D3C5",
"]. c #E8D3C5",
"[. c #E6D8C6",
"{. c #E5D4CA",
"}. c #E9D5CA",
"|. c #EADACC",
" X c #E5DAC8",
".X c #F4D7C0",
"XX c #F6DCC3",
"oX c #FBDCC3",
"OX c #FADECA",
"+X c #F8D5C9",
"@X c #F6C6D1",
"#X c #F9C6D1",
"$X c #F6C9D3",
"%X c #F9CAD5",
"&X c #FBCEDA",
"*X c #F7CBD8",
"=X c #EBD6D1",
"-X c #EDDBD3",
";X c #EFDCDA",
":X c #E7DAD0",
">X c #F3D5D3",
",X c #F1DED5",
"<X c #FDD2DD",
"1X c #F1DEDA",
"2X c #F9D3D7",
"3X c #DAE1C5",
"4X c #DEE3CB",
"5X c #D7E1C3",
"6X c #E1E5CC",
"7X c #FDE2C5",
"8X c #F6E3CD",
"9X c #FCE3CB",
"0X c #F7E0C7",
"qX c #E7E6D7",
"wX c #F3E2D4",
"eX c #FCE5D4",
"rX c #FEE9D2",
"tX c #F3E2DB",
"yX c #FCEBDC",
"uX c #FEF0DE",
"iX c #FED6E1",
"pX c #FEDDE6",
"aX c #FDDBE5",
"sX c #FDDFE8",
"dX c #F5E5E2",
"fX c #F4E4E2",
"gX c #F9E7E5",
"hX c #FCECE6",
"jX c #F6EBE9",
"kX c #FAEBE9",
"lX c #F9E6E7",
"zX c #FBF2F1",
/* pixels */
"                                                                                                                                ",
"                                                                                                                                ",
"                                                                                                                                ",
"                                                                                                                                ",
"                                                                                                                                ",
"                                                                                                                                ",
"                                                                                                                                ",
"                                                                                                                                ",
"                                                                                                                                ",
"                                                                                                                                ",
"                                                                                                                                ",
"                                gXtXeX9X9X7X9X9XrXrXyXuX          pXpXpXaXaXaXaXsXsXlX                                          ",
"                        yXeXeXOXOXXXXXXXS.S.oXoX7X7X7X9XeXyXpX<X<X<X<X&X&X&X&XiXiX<XiXiXpXlX                                    ",
"    qX6X6XqX        eXeXOXoXXXXXS.B.A.XXS.S.S.oXoXoXoX7XOX*X%X%X*X*X2X*X&X&X%X&X*X&X&X&X&XiXiXpXlX        hXhXkXjXjXjX          ",
"qXT.5XF.6.F.F.3X8XXXoXXXS.S.V.A.S.B.j.XXXXZ.oXZ.S.Z.oX`.$X$X#X#X%X$X%X*X%X%X%X%X#X*X*X*X&X&X<XiXiXpXkXlXlXtXfXfXfXfXfXjXkX      ",
"4 [ 6.7.0.0.[.XXXXA.A.Z.A.A.V.j.B.B.B.N.C..XZ.Z.Z.+X`.).#X#X@X@X%X).#X@X%X%X#X#X#X#X@X*X%X&X&X<XaX1XfXfXtXtXtXfXtXfXfXgXlX      ",
"# | ;.:.q.M..X.X.XC.D.B.j.N.B.B.B.Z.D.C.n.C.C.n.n.$X@X@X@X@X#X*X#X%X#X#X*X@X#X@X(.#X#X#X%X*XiX1X;XtX;XtXtX;XtXtXtXfXdXfXdXhX    ",
"o } -.<.M.C.M.A.C..XA.A.B.j.j.N.D.N.v.C.C.n.n.n.@X@X@XQ.Q.@XL.@X#X%X#X@X#X#X@X@X(.(.#X#XL.=X;X1X;XwX;XtXtXtXtXwX1XfXdXtXdXjX    ",
". ( w.l.l.C.M.N.M.D.C.A.B.S.B.B.N.N.v.v.v.d.b.Q.Q.*XL.@X@X@XL.L.@X@X#X#X@X#X@X@XL.P.P.(.2X;X;X1X;XtXwX;XwXtXtXwXtXtXtXtXtXtXjX  ",
". t i.m.M.M.C.N.C.N.C.C.C.A.N.s.v.v.v.v.d.b.^.(.Q.L.P.L.L.L.@X@X@X@X#X#X#X@XL.L.L.P.L.=X;X;X-X;X;X;X-XtX;XtX;XtX;XwX-X-XqXtXjXzX",
"X =.i.l.l.l.l.v.p.N.C.N.D.Z.B.s.s.s.d.L ~ ^.^.L.L.G.L.@XL.L.@X#X#X@X@XL.L.L.L.P.~ Q.}.>X=X-X-X;X;X;XwX,X,X;XtXtX-X;X:X:X XY.4XjX",
"+ i.p.m.p.l.l.m.N.C.m.D.D.h.s.p.u.~ L L ^.K.(.(.J.@XJ.L.#XL.K.@X#X(.).(.L.H.H.~ (.|.-X-X-X-X-X-X;XwX-X,X-XwXtXwX:X:XU.U.8.8.8.qX",
"& i.l.l.l.l.l.l.p.h.N.N.C.N.s.u.u.b K ! K.L.H.J.L.Q.Q.(.@XL.).(.).P.P.(.G.Y I Q.~.=X-X-X=X-X-X-X-X,X,X,X-X-X-X:XU.U.2.&.4.5.8.T.",
"k i.l.l.p.p.y.m.v.N.N.N.N.s.u.L L x Q L.J.H.J.L.G.L.(.L.@X(.(.L.#X(.L.H.P I x.~.=X=X=X=X=X=X=X-X:XtX,X,X-XwX|.U.U.U.} 4.4.5.4.7.",
",.y.p.l.p.p.l.h.p.N.N.N.s.u.J v n Y K.K.Q.G.H.J.H.J.(.@X(.(.(.L.$X(.G.I H Q ~.}.{.=X{.=X=X=X|.|.|.,X,X-X-X:XI.2.w.| &.4.4.4.4.8.",
"e.y.i.a.r.p.y.s.N.m.p.N.s.b v n I K.J.E G.G.H.Q.Q.J._.(.(.L.^.L.^.K.R D W ~.~.}.{.{.{.{.:X:X|.-X-X-X-XwX:XU.I.*.q } } 4.4.4.;.8.",
"e.@.e.y.y.y.p.y.N.s.p.s.r.v n F E H.H.H.G.G.J.J.J.@X^.(._.(.(.^.K.P D W ~.~.{.{.{.{.{.{.=X=X-X:X-X,X|.:X{.2.[ 8 [ &.&.} } } ;.7.",
"e.@.a.i.i.p.h.N.s.N.h.u.c u d Q H.E G.E R E J.J.^.#X(.(.(.).^.K.U m G R.!.=X!.=X{.{.=X{.=X-X:X-X,X|.:X{.w.t 8 ' } } } [ } } 4.4.",
"@.r.e.y.p.s.h.h.N.y.r.v f u I E E Q G.G.R P H.L.(.).^.).(.(.^.E a V R.~.!.!.!.!.{.'.{.}.|.|.|.|.wX|. X2.| 6 _ { | ' ( } } } } 6.",
"e.e.e.e.y.p.p.N.h.y.J f , H Y R P U G.R I G.E ^.(.P.).).`.^.E m M W W.!.I.!.!.!.'.{.{.}.}.|.wX,X-X X2.e r | | | } { ( ( ' { } 6.",
"e.e.@.y.y.h.f.h.s.@.n > F U Y U E R P R G.G.^.K.^.^.).`.(.E.B a W W.I.!.!.!.I.{.'.{.}.|.}.|.,X|.|.3.e ; ( | ' ' ' ( ' ' } >.6.6.",
"e.@.e.e.p.p.h.N.y.f : x Y U I R R G.R E H.G.^.^.^.).^.`.^.Y i T R.W.!.I.I.I.I.{.'.'.}.|.|.|.-X|.9.e * w ( ( | | ( 7 { ' } } } 6.",
"@.e.y.y.y.s.y.s.c > p B U P P U E R E Q Q Q ^.^.! `.).`.W i V 1.1.I.I.U.I.I.!.{.'.}.}.|.|.|.:XU.e % 8 ) _ q [ q _ _ ( { { ;.;.7.",
"@.$.#.#.y.j.s.b < y F U U P U P U I Q E H.H.^.^.^.).`.^.p V S 1.,.I.I.I.I.{.I.{.'.}.}. X|.|.'.e % 9 w ) | q 0 | | ( ' ' &.{ >.0.",
"@.e.y.y.y.j.@.f : x B U P P P P U E U Q ! K.! ).).`.^.a j A 1.1.1.3.I.3.U.{.'.'.].}.[.,X|.'.t $ 6 8 0 0 _ q 0 / / / / { { -.:.7.",
"i.e.y.y.s.r.l : a P P P P P U W W G.Q E K.Q ^.`.^.^.B p A ,.3.I.I.I.I.I.I.{.{.'.].[.|.|.XX*.$ 5 8 0 ) 7 0 w ( 8 ) ' ' / ] ] -.F.",
"t.i.f.f.y.c : a G G P B P U R E W Q Q H.Q ! ^.).).K i C S 3.3.3.I.9.9.c.'.'.{.{.}. X|. X*.% 6 7 8 / q 7 0 _ ` _ ' ' { ' ' -.:.5X",
"@.i.f.p.@.> u M U U P P W R R U W G.E.Q Q ^.^.).~ p Z ,.,.3.1.I.W.c.3.'.'.'.'.}.|.|.|.<.$ r 8 7 8 0 0 0 7 q q [ ' ' ' ] ] >.:.4X",
"@.i.i.i.< y M P B P P P R U Q R E Q Q ^.! ^./.x.p Z A 1.1.3.3.3.3.'.'.].'.'.'. X:X X<.$ - 9 0 9 0 0 0 q ) ) [ %.{ { ' ' -.>.6.qX",
"@.y.y.l > M G B P P P R U Q R Q Q Q H.^.! /.! p N A ,.1.3.3.3.3.3.'.'.'.].].}.|.|.'.= = 7 7 7 7 0 0 0 ) q _ _ [ { } X.%.' -.6.hX",
"=.r.c < M B G G S U P R R E Q Q Q ^.H.^.b.b.h Z A A ,.3.3.c.3.'.'.'.'.].].}.|.XX9.; 7 7 8 0 6 0 0 0 ) ` ` ` ] ` &.&.%.-.-.-.+.hX",
"l e.> a B S P U Y U R P Q R Q Q Q b.E.^.b.F l A ,.1.3.3.I.c.'.U.'.I.'.'.|.|.|.9.- - w q 0 8 8 ) w _ _ _ ` %.[ { %.-.%.%.X.3 g.hX",
"+ p s F V P U U W Y W W U Q Q Q x.! b.b.F Z A z.1.3.3.c.W.3.'.'.'.].'. X X X9.; 5 8 7 ) 0 ) ^ ) w _ | { q %.&.&.&.-.>.X.1 o.j.uX",
"@ s j N G U U U W E E W Q ! Q ^.^.Q b.K T A 1.z.c.3.3.U.'.'.c.'.'.[.].|.XX<.; 8 8 8 w 8 / / / ^ ) ) ` ` [ X.X.%.%.-.g 1 3 o.A.hX",
"i i M B B P R R W W W H.Q Q Q x.b.^.T T ,.z.c.c.c.W.3.c.'.'.'.].]. X[.[.*.9 8 8 w 8 ) ) w / ^ / _ ` _ %.{ %.%.>.-.g 1 3  .#.V.uX",
"V a m G U R R U Y Q Q Q Q x.x.b.x.J T k.z.c.3.c.W.W.'.'.'.'.]. X].|.'.` ^ ^ ) ) _ ^ _ ' ) ] ) ) %.%.] ` %.-.-.*...3 .. .o.j.A.rX",
"S j B U U W E R Q E Q Q x.x.b.x.k.k.z.c.c.W.'.c.'.'.].].'. X}.{. X<._ 8 ) ) ) _ ' _ _ _ ) { ] ] %.%.%.%.-.>.X....... .o.#.g.S.rX",
"I.V G P W E Q Q Q Q Q Q b.x.b.z.c.c.c.W.'.W.'.'.[.'.].}.}. X|. X5.` X.{ ] ` ] ` ] ] ] ' X.] { -.%.%.>.*.=.O. .o.O.$.$.#.g.j.7XrX",
"~.J.B U W W Q Q Q x.E.E._.>X].].].].'.].}.].].]. X|.|.|.wX;X  qX3X;.-.{ { -.{ { { &.{ { -.-.{ >.>.5.9.g.g.t.+.#.t.#.#.g.f.j.7XuX",
";X;XP S W Q E x.x.E./.>X      tXwXtX,X,X,X|.,XwXwXtXtX              3X0.6.;.;.;.&.;.;.-.>.:.F.3X6X    yX8X0Xm.f.f.g.f.f.h.D.8XzX",
"lXlX=XS W E E.Q./.>X                                                      6X4XY.Y.3X3X4X6X                    rX8X8X0X0X0X9XyX  ",
"    lX=X_.}.>XiX                                                                                                                ",
"                                                                                                                                ",
"                                                                                                                                ",
"                                                                                                                                ",
"                                                                                                                                ",
"                                                                                                                                ",
"                                                                                                                                ",
"                                                                                                                                ",
"                                                                                                                                ",
"                                                                                                                                ",
"                                                                                                                                ",
"                                                                                                                                ",
"                                                                                                                                "
};
