/* XPM */
static char *_45cf981676b487cc6fdffff9752f851XRH4HAErJzRGgSWW[] = {
/* columns rows colors chars-per-pixel */
"64 64 230 2 ",
"   c None",
".  c #83955E",
"X  c #869762",
"o  c #8A9968",
"O  c #969D75",
"+  c #8FA06D",
"@  c #91A26D",
"#  c #95A475",
"$  c #9AAB75",
"%  c #9DA47C",
"&  c #9DAD7C",
"*  c #95A876",
"=  c #9DB17B",
"-  c #A0AF7E",
";  c #A0B77D",
":  c #DB957B",
">  c #9EB184",
",  c #A7AC88",
"<  c #A3B584",
"1  c #A3B986",
"2  c #A5B58A",
"3  c #A6B98A",
"4  c #AABC8D",
"5  c #ABB78F",
"6  c #ADBD92",
"7  c #ADBD99",
"8  c #B1BE95",
"9  c #B1BF98",
"0  c #BCB99C",
"q  c #B1BC8E",
"w  c #BDBBA1",
"e  c #CA8A85",
"r  c #CB8D8A",
"t  c #CE918E",
"y  c #DA9986",
"u  c #CF9991",
"i  c #D39393",
"p  c #D39B92",
"a  c #D99A9A",
"s  c #D28D90",
"d  c #E39D8A",
"f  c #E29F86",
"g  c #E29F99",
"h  c #D6A29B",
"j  c #DBA39C",
"k  c #DAA89B",
"l  c #E5AA8E",
"z  c #E4AD93",
"x  c #EAAA92",
"c  c #EEB096",
"v  c #E6B69C",
"b  c #E9B99D",
"n  c #DC9CA0",
"m  c #E29DA3",
"M  c #DEA5A4",
"N  c #DBACA3",
"B  c #DCA9A8",
"V  c #C0BFA4",
"C  c #DDB5AC",
"Z  c #DBB5AB",
"A  c #DEBDB4",
"S  c #DFBEB8",
"D  c #DCB6B2",
"F  c #E3A9A5",
"G  c #E2A5AC",
"H  c #E4ABAE",
"J  c #E9A7A8",
"K  c #EBBDA3",
"L  c #E4B6AC",
"P  c #E9B3AE",
"I  c #E2BAAD",
"U  c #E9B4A4",
"Y  c #F2BEA5",
"T  c #F4BEA8",
"R  c #E4ADB3",
"E  c #EAABB4",
"W  c #E8ADB8",
"Q  c #E5B2B6",
"!  c #EAB2B4",
"~  c #E2BCB3",
"^  c #E6B4BA",
"/  c #E9B5BC",
"(  c #E4BABB",
")  c #EBBBBD",
"_  c #ECBDB7",
"`  c #F2B4BC",
"'  c #F1BDBE",
"]  c #F1BBB2",
"[  c #ACC18E",
"{  c #AEC192",
"}  c #B1C296",
"|  c #B4C49A",
" . c #B9C69D",
".. c #B6C99B",
"X. c #BBCA9E",
"o. c #B6C797",
"O. c #B6C4A0",
"+. c #BAC6A1",
"@. c #BDCBA2",
"#. c #D5CA98",
"$. c #EBCE9E",
"%. c #C1CDA5",
"&. c #CBC3AC",
"*. c #C4CEA9",
"=. c #CBCBAB",
"-. c #C5C5A4",
";. c #C4D1A7",
":. c #C6D2AB",
">. c #CAD4AD",
",. c #CAD1A5",
"<. c #D7D2A9",
"1. c #CFC8B2",
"2. c #DDC1B6",
"3. c #D2CAB5",
"4. c #DDC5BB",
"5. c #DDCABE",
"6. c #D6CBB8",
"7. c #CCD7B1",
"8. c #CDD9B5",
"9. c #DCD2BD",
"0. c #D3DABB",
"q. c #D4D6B7",
"w. c #ECC3A6",
"e. c #ECC4AA",
"r. c #EECAAC",
"t. c #ECC9A6",
"y. c #F4C3AB",
"u. c #F2CDAD",
"i. c #F8C6AB",
"p. c #E7D2A9",
"a. c #F5D3AD",
"s. c #F7D5A9",
"d. c #E3C1B6",
"f. c #E2C4BB",
"g. c #EDC1BE",
"h. c #E2CABE",
"j. c #F4CCB3",
"k. c #FACEB5",
"l. c #F2C1BE",
"z. c #F7C9B8",
"x. c #E9D7B9",
"c. c #F5D3B4",
"v. c #F9D5B4",
"b. c #F9D9B5",
"n. c #F6D4BA",
"m. c #FBD4BB",
"M. c #F6D9BB",
"N. c #FADABC",
"B. c #F4D8B5",
"V. c #EBB6C1",
"C. c #EDBCC3",
"Z. c #EFBEC8",
"A. c #E7B7C0",
"S. c #F3B6C3",
"D. c #F2BDC5",
"F. c #F2BEC9",
"G. c #FABEC9",
"H. c #DFCCC2",
"J. c #DDD3C2",
"K. c #DAD9C3",
"L. c #E3C5C0",
"P. c #EEC2C2",
"I. c #E1CEC3",
"U. c #E9CCC4",
"Y. c #EFC2CB",
"T. c #E5CEC9",
"R. c #EBCDC9",
"E. c #F3C2C4",
"W. c #F4C3CC",
"Q. c #F9C4CD",
"!. c #F5C9CD",
"~. c #F9CACD",
"^. c #F3CBC6",
"/. c #E5D3C5",
"(. c #E9D2C4",
"). c #E5D9C5",
"_. c #E6D4CA",
"`. c #E9D5CB",
"'. c #E7D9CA",
"]. c #EBDACC",
"[. c #EADAC7",
"{. c #FCD5C1",
"}. c #F6DAC2",
"|. c #FCDCC3",
" X c #F3DECD",
".X c #FADEC9",
"XX c #F7D5C3",
"oX c #F6C6D1",
"OX c #F9C6D1",
"+X c #F6CAD3",
"@X c #FACAD4",
"#X c #F7CBD8",
"$X c #FBCDDA",
"%X c #ECD6D1",
"&X c #EDDBD3",
"*X c #EEDCDA",
"=X c #F2D4D5",
"-X c #F1DED4",
";X c #FDD2DD",
":X c #F1DEDB",
">X c #FBD6D7",
",X c #DCE1C7",
"<X c #FEE1C6",
"1X c #FEE2C5",
"2X c #FEE2C9",
"3X c #FDE4CC",
"4X c #F4E2C9",
"5X c #E3E5D2",
"6X c #E5EAD3",
"7X c #E9ECD9",
"8X c #F2E1D6",
"9X c #FBE4D4",
"0X c #FFE9D2",
"qX c #F3E2DB",
"wX c #FDEBDB",
"eX c #FCE6DF",
"rX c #FEF0DE",
"tX c #E1E7CD",
"yX c #FED5E1",
"uX c #FFD3E0",
"iX c #FEDAE5",
"pX c #FEDDE6",
"aX c #FCDBE2",
"sX c #FFDFE8",
"dX c #F6E3E1",
"fX c #FAE4E4",
"gX c #F6E9E3",
"hX c #FBEBE3",
"jX c #FEE1EA",
"kX c #FEF4E4",
/* pixels */
"          gXhXeX9X9X2X2X1X1X2X2X3X3X0X0XrXrXkX                    sXsXpXpXiXiXpXiXiXsXsXjX                                      ",
"  hXwX9X9X X X X}..X.X.X1X1X}.1X<X2X3X1X3X3X0XwXhX        fXpXaXuX;X;X;X;XuX;X;XuXuXuXuXiXyXiXpXjXjX                            ",
"9X X.X2X2X4X.X}.4X}.}.}.|.N.}.|.<X|.<X<X1X1X3X2X3X0XeXjX;X;X;X;X;X;X#X;X$X$X#X$X$X;X$X;X;XuXuXuX;XaXiXsXjX                      ",
"2X2X}.}.}.M.b.M.b.}.}.M.b.b.N.N.N.|.|.|.1X<X<X2X.X.X>X@X@X@X@X#X#X;X;X@X$X$X@X$X@X$X$X#X#X#X#X$X;X;X;XuXaXiXsXjX                ",
"}.}.N.M.}.N.b.s.M.}.M.}.M.N.N.|.N.N.|.|.|.|.|..X@X@X@X#XOX@X@X#X#X@X#X#X#X$X@X@X@X#X#X#X#X#X#X#X$X$X;X;XuXuXuXiXpXsX        hXhX",
"N.a.b.N.N.N.b.s.s.B.[.XXN.M.N.}.|.N.N.{.|.N.~.!.+X+X@XoXOX@X+X+X+X#X#X#X$X@X@X@X+XOXOX#X#X#X#X#X#X$X$X;X;X;X;XaXuXiXjXgXfXfXfXhX",
"b.s.s.b.b.b.b.b.s.c.n.}.}.XXm.N.{.{.m.{.{.~.oXoX+X+X!.OXW.OX@X@XOX+X$X#X$X@X@X$X#X#XOX#X+X+XoX#X#X@X;X$X$X;X;X;XaXaXdXdXdXdXdXdX",
"N.N.b.s.b.b.b.v.c.c.n.n.n.m.m.m.N.m.k.{.!.@XW.W.!.+XoXW.OXoXoXOXF.oXG.OXG.OX@XOX+X+XOXoXOXOXoXoX@X@X@X@X$X$X;X>X:XqXqXdXqXqXdXqX",
"s.M.B.b.v.c.M.n.c.c.c.n.n.n.n.k.m.v.z.~.+X+XoXoX#XoXoXoX+X+XOX+X$XOXW.OX@X@XoX@XOXoXOXW.OXoXoXoXOXOX$X@X#X=X:X*X:XdX:XqXqXqX8XqX",
"s.b.B.n.v.n.B.c.B.c.n.n.n.n.{.m.i.E.~.+XOXoX+XoXoXF.G.G.OXOX+XOX@XOX@XOX@X+X+XOXoXOXoXW.F.oXOXoXOXOXQ.oX=X*XaXdX*X*X*X8XqX*XqXqX",
"t.s.a.c.b.c.j.c.n.j.n.n.m.k.m.z.!.oXR.oXoXoXY.oXoXoX@XF.OXoXoXoXOX#XOXoXOXoXOXOXOXoXoXW.G.oX~.OXOXOXoX=X*XaX*X*X*X8X*X8X:X:X*XqX",
"N.v.s.s.a.n.n.n.u.j.j.z.k.j.y.P.R.Y.+X#XW.oXW.oXF.F.oXF.F.F.OX+XoX#XG.OXF.OXOXOXF.oXF.oXF.oXG.Q.Q.OX=X*X*X*X*XdX*X8X8X8X*XqXqXqX",
"b.n.c.b.B.j.c.j.j.j.j.i.i.i.E.W.Y.Y.Y.oXoXF.oXF.oXoXF.oXOXOXF.OXoX@X@XOXQ.@XOXoXoXoXF.oXW.G.G.D.!.=X&X&X*X*X:X*X*XqXqX&X8X*X8XqX",
"M.B.a.a.u.j.r.u.j.j.j.i.T E.E.W.#XF.#XZ.F.S.Z.F.oXZ.F.oXoXOXG.oXW.@XOX@XOXOXoXoXF.Z.F.F.G.S.D.!.`.=X%X-X&X*X*X*X*X:X:X*XqX-X-XqX",
"B.c.c.r.c.j.j.y.j.i.i.Y l.W.F.W.F.F.F.F.S.F.F.F.F.F.F.Y.W.@X#XS.OXOXW.W.W.W.F.oXZ.F.F.D.S.D.!.=X%X%X&X%X&X&X*X-X*X:X:X*X-XqX-XqX",
"n.c.a.c.r.r.j.j.i.T c ] E.D.F.Z.F.F.F.V.F.F.oXoXF.F.Z.OXOX@X@XOXOXF.oXF.W.W.F.F.F.C.S.` ' R.`.%X%X&X%X*X&X&X&X*X-X*X-XqXqX-X-X-X",
"v.a.u.r.a.e.e.e.T c P G.E.F.W.W.W.Y.oXY.Z.Z.Z.oXoXoXF.F.OXW.OXoXoXG.OXF.F.W.C.F.C.` V.C.T.%X%X*X%X%X*X&X*X%X&X*X*X&X:X8X*X8X-X&X",
"a.r.r.r.e.e.e.Y c U ' Q.W.C.Z.Z.F.Y.oXY.oXZ.V.Y.oXF.oXV.!.W.@XoXW.Q.F.!.Z.V.V./ V.` ) Y.T.%X%X_.:X&X%X&X%X%X&X*X8X&X-X&X X8X&X*X",
"a.u.r.e.w.t.K c U D.C.Z.F.E.V.F.V.Z.F.Z.Z.oXoXZ.oXW.F.W.Q.oXF.G.G.W.F.W.Z.V.V.` E / R.=X=X=X%X*X%X%X%X*X&X%X*X%X*X-XqX-X8X8X].8X",
"u.t.t.w.Y b x J ' D.E.Z.Z.F.V.C.oXV.Z.Z.F.Z.oXZ.oXoXF.!.G.F.!.OXG.W.F.Z.^ W ! H / R.T.T.%X_.*X_.%X%X*X'.'.&X&X&X&X&X-X8X-X X].8X",
"u.r.w.K b x d ` P.E.P.F.Z.A.Z.Z.Z.F.V.W.Z.oXZ.Z.!.oXoXZ.Q.F.OXW.oXF.Z.Z./ E E ! U.R.%X`.%X_.*X%X&X&X*X%X_.*X&X&X&X-XqX8X-X].-X].",
"w.w.K b l l P ' C.Z.F.P.C.Z.Z.V.Z.Z.F.Y.Z.oXoXoXS.E.W.!.S.F.!.oXoXS./ R R m R P.U.R.`.%X%X_._.%X%X&X%X%X&X_.&X'.&X].&X'.qX8X].8X",
"w.b v l f P ' ) Z./ Z.Z.V.A.Y.A.Z.Z./ C.!.!.W.+XW.W.F.F.~.F.!.W.F.Z.^ R m R L.R.R.%X`._._._._._._.%X%X*X&X%X&X&X&X%X8X8X8X8X'.&X",
"b v l f J ! D.D.Z.A.A.^ Z.A.C.C.Y.oX+XS.F.!.W.W.F.F.Z.!.F.F.E.W.Z./ E m R P.R.R.T.T.%XT.%X_._._.J.%XJ._.'._.&X&X%X&X&X8X&X&X].'.",
"v v f j ! / F.C.C.C.V.C.Z.A.F.C.Z.Z.C.W.~.F.D.F.OX!.!.W.W.F.D.) R H G G _ U.R.R.T.%X_._._.%X_._._.&X&X&X].&X].8X].&X8X].8X].].J.",
"z : f L _ ) / F.C.C.V.^ A.^ C.W.Z.W.Y.+X~.D.W.~.W.W.W.W.E.D.E.Q G m G L.T.T.R.T._._._.T.T.T._._.`.`.`.`.&X8X_.8X&X*X&X'.5X]._.H.",
"f y F / A.C.V.^ V.A.E V.A.V.C.Z.Z.!.Z.+XW.W.W.^.E.~.E.W.F.F.V.B n a ( L.T.T._._._._.T.J._._.%X_._.&X&X&X`.&X'.].]. X'.&X'._.9.1.",
": g E _ ) ^ C.C.A.Z.V.W W ^ Z.F.C.W.W.W.~.~.D.W.W.~.E.W.F./ G n a Q f.R.T._.R.T.%XH._._.T._._._._._.`.].].`.&X8X8X8X].]._.J.1.w ",
"y H ! ) ) / ^ ^ ^ A.V.) R W ) E.Z.W.E.Q.E.~.Q.Q.!.!.E.E.F.R n i B ( R.T.T.T.H._.H.H._._.T./.`././.].&X&X].&X-X X&X&X&X_.J.1.+., ",
"H ! / / R R W ^ A.A.V.R E E E C.W.W.E.' Q.D.E.W.W.E.E.P.Q n i B ( H.R.T.T.T._.H._._.H.H._././.`.'._._.&X].].].8X8X&X'.J.1.0 , 2 ",
"! Q / ^ / / ! ^ / R G V.Z.P.S./ F.~.E.S.Q.~.@X~.~.E.E.) M s B S L.I.H.T.H.H.T.H._._._._._._./.].`._.].].&X8X].8X X].J.3.w > > 5 ",
"! / R ! Q Q / / W W ^ V.A.C.D.E.S.E.~.F.E.E.~.Q.W.E.P.R s n A 4.L.I.H._._.H._.H./._.5._._./._.`.].].`.]. X-X].'.&XK.5.w % > 7 O.",
"^ ^ R R ^ A.S R R / C.A.) ) W.) ~.D.G.E.E.^.~.Q.W.Y.Q i i D ( L.L.T.T.H.H.H.T._.I./.`.H.`._.(.'.].`.].&X]. X-X].).6.V % # 2 9 | ",
"W Q W ^ W W A.C.A.Q ) ) C.D.E.C.Q.E.E.~.E.Q.^.!.E.^ a r C f.L.L.H.L.H.H._.T.H.H.H./._._._./.`.'.].].].].5X X].'.6.0 O # 4 | | | ",
"^ R ^ R ^ ^ ^ V.A.^ ) ) ) D.E.` !.D.S.~.~.G.E.E.) n r N ( H.H.4.H.H.H.%XT.H.H.J././.I./._._._._.].`.]. X].].'.9.V O + 2 9 } | 9 ",
"G R W R W D Q Q ) ) C.) ) C.P.F.E.Q.E.^.~.Q.Q.E.B e M D S L.4.5.H.H.H.H.H.J.H._.5._.I./._.).(._. X'.].'.].'.9.&.O o < 5 9 | O.| ",
"R R R Q R R R / / ^ ) ) E.C.E.D.E.W.E.~.~.Q.E.! e a D 4.4.S 1.4.H.H.H.H.T.J.T._.5._./././.'.`.].].].[.4X].).&.% + & 7 { 6 | | O.",
"D ^ R Q Q ( Q Q ) ) C.C.) ' E.E.^.Q.E.~.~.W._ i u C S 4.4.4.4.5.H.H.H.H.H.H._._././.I.).`.(.].`.].].[.]./.&.% o < 3 3 7 6 } | 7 ",
"R R R R Q Q ( ) ! / ) D.' C.D.E.Q.^.E.~.!._ i t B ~ 4.5.4.4.4.5.H.H.H.H.T.J.K._././././.).(.[.].].].].).1.% X & 3 6 4 { 3 } w O.",
"D Q Q ( Q Q / C.` ^ ) ) ) D.E.E.~.Q.E.^.P.h e N D S 4.4.5.5.5.5.H.H.H.H.T.H.T._.].I./.).`.`.].`.-X].).3.% X & 1 4 { } { 7 3 } 7 ",
"W R Q A.( ^ ) ) ) ) ` C.C.) E.^.Q.E.Q.E.F e h L S 4.H.H.4.H.5.5.H.H.H.H./.I.).).`././._.[.].].].5X[.6., X > 2 { 4 4 | } > > 2 7 ",
"W ( Q ^ ) ( ) A.) P.P._ _ E.E.W.~.E.E.P e h Z A S 4.4.4.4.H.5.H.1.H.J.H././.T._._._./.`.`.[. X].[.h., o & 2 4 4 4 [ 9 6 } 1 { | ",
"D ^ ^ Q ) ) ) ) E.) ) C.D.E.W.E.~.^.] t u Z A A 4.4.H.4.H.5.H.5.5.6.H.H.9./.).'./.`.].].`.].].'.x.5 X * 2 3 5 3 3 3 | 6 2 { 3 1 ",
"^ ^ Q ! ) _ C.) ) P.) ) E.E.E.W.E.' p p Z D A 4.4.4.5.4.5.H.H.H./.5.H.J.(././.(.)._.'.].5X].'.x.8 . * > 3 6 3 3 7 5 7 } 7 } 7 7 ",
"Q / ) ) ( ) ) ) ) E.E.` E.E.E.E.g.a p N Z 2.4.4.4.4.H.4.5.5.H.H./.5././.(././.h./.`.(.].&X[.(.0 . + $ < 4 { 3 3 3 7 7 } 5 } } 6 ",
") ^ Q ^ ^ C.) ) P.' E.) P.E.^.' j p k A A 2.2.4.4.5.H.5.H.I.I.5./.h././._.)./.'.`.'.`.].5X'.V o # < 3 3 3 4 1 3 6 6 6 5 7 } } O.",
") / C._ ) ) ) C.C.P.E.' ^.^.P.M p k C A A 4.5.5.5.5.H.5.5.H.5././.h.)./.(.I.`.(.'.].[.'.`.1.# & ; 3 4 4 4 3 3 1 6 6 9 9 9 | } O.",
") Q ( ) P.) ) E.P.P.E.' ^.l.F p N C A A 2.2.5.4.5.5.I.H.H./.J./././.).)./.).`.].].].[.[.=.# - 2 3 1 } 8 4 > 4 6 5 6 | } 9 | | O.",
") ) C.) / _ P.P.C.E.E.l.^.P p N Z C d.2.f.4.5.5.5.5.H.5.I.H././././.(./.(.[.[.'.].].M.-.+ $ 8 5 8 3 5 5 6 3 7 7 5 6 9 8 | | +.+.",
"Q / ) ) ) ) D.l.E.E.E.E.L k k I A A 4.4.h.4.5.5.5./.I.J.H.I.h./.I./.).).`.].'.].].'.-.@ @ - 8 } | 9 3 4 { 1 } | 9 } | | +.| +.+.",
"A.g.) ) ) g._ E.l.E.E.P k N I A S 4.2.h.6.4.5.5.5././.T./././._./.`.(.'.(.'.[.'.).*.@ $ < 3 ; q O.5 } 8 | [ { } } | O. .X.@.-. .",
") ) ) P.P.' ) l.E.l.I k U C A f.f.4.5.5.5.h.h././.5.5./.I././.).(.).(.].].].].[.-.$ - 4 3 q 4 { } 6 8 8 6 < { ..| } o.+.%. .4  .",
"P.) ) g.P.P.l.E.E.L k Z A A 4.f.h.5.5.5.6.h./.H.H.J.).I././.).(.`.).`.`.[.[.).-.- < 4 4 4 8 { 4 4 } { } | { { { [ {  .@. .| +.-.",
"( ) ) P.g.l.l.l.g.U I A A f.f.f.h.h.I.5.I.5.5./.I./.(.I./.(._.(./.`.[.'.[.9. .< < 8 5 q 6 4 } 4 4 6 4 4 { { [ [ { o.o.} o.@.@.@.",
"_ ) g.) E.E.l.d.I I ~ d.f.h.h.f.5.h.H.I./.5.5././.)././._.(.'./.`.].`.[.9.q ; 4 q 3 [ } 6 [ { o.} 8 { | { { [ ..| @.X.} @.%.+.%.",
") g.P.E.g.l.g.I I I f.f.f.h.5.h.h.h.H.h./././.I./.h./.).(.'.).`.[.'.[.=.q 1 4 } } 8 o.} { { o.| } o.{ o.X.o.{ ..+.%.%. .+.@.%.*.",
"g.E.g.g.E._ ~ e.d.f.h.h.h.h.h./.I.I.I.I././.(././.(.(.`.`.'.`.'.].x.-.[ [ [ [ { | } | | { { { ....o.o...o.o.o.X.%.%.*.%.X.X.%.,.",
"g.g.l.E.d.d.~ d.h.f.h.h.I.h.h./.I.I.I././././.)._.).'.'.'.(.'._.6.| { 4 { { } o.o.| o.o.| o.....X.o...@.X.@.o...+.%.X.%.X.%.,.,.",
"g.E.P.d.d.f.f.h.h.I.h.I.I.H./.h././././.(.(.`.`.).`.'.'.(.].).:.o.o. . . . . .o.| | | O.............@.@.@.@.@.;.%.*.*.*.,.*.%.,.",
"E.h.f.h.j.h.h./.x./.(.I./././././.(._.).)._.(.'.`.]._.'.].K.*.@.X.X. .%.X. .-. .+...+.@.@.@.+.......@...@.@.;.;.*.*.*.=.,.,.,.#.",
"R.U.h.(.(.(.(.(.(./._.(./.)./.(.[.`.'.`.'.'.'.8X].&X&XqXgX6X0.;.;.@.@.@.@.@.@.@.@.@.@.@.@.%.@.@.@.@.@.;.@.@.;.;.:.>.,.7.<.<.<.$.",
"fXqX-X].(.].`.`.`.`.`.(.`.`.].`.].].]. X&X].8XqXqX            6X0.7.:.:.;.%.;.@.@.@.%.@.%.%.;.;.@.@.:.:.;.,.:.>.7.0.6XqX4XM.x.p.",
"        eXqXqX8X-X-X-X-X]. X X-X8X].8XqXqXwX                      6X,X0.8.8.7.:.:.:.:.:.;.:.:.:.;.;.:.7.7.0.K.6X7X        hXwX4X",
"                    gXhXhXgXhX                                          6X,X,X0.8.8.7.:.7.8.7.8.8.,X,X,X7X                      "
};
