/* XPM */
static char *_010212dfc594d53af9e6a38302ae4d4yJC9xV0wiy6q2zHk[] = {
/* columns rows colors chars-per-pixel */
"91 80 180 2 ",
"   c None",
".  c #5D1E21",
"X  c #661A22",
"o  c #6A1E24",
"O  c #5F2022",
"+  c #642324",
"@  c #6C2326",
"#  c #6A2927",
"$  c #6E2A29",
"%  c #702227",
"&  c #742529",
"*  c #732C2A",
"=  c #7B2B2C",
"-  c #76312B",
";  c #7B342E",
":  c #7F3830",
">  c #7E3730",
",  c #6E363B",
"<  c #764B4F",
"1  c #7D5A60",
"2  c #802F2E",
"3  c #82302F",
"4  c #853331",
"5  c #8A3633",
"6  c #833A32",
"7  c #8D3A34",
"8  c #933D36",
"9  c #973F38",
"0  c #8F4436",
"q  c #914537",
"w  c #934539",
"e  c #9B433A",
"r  c #96493A",
"t  c #9B4D3C",
"y  c #9F503E",
"u  c #A0463D",
"i  c #A44A3E",
"p  c #A2523F",
"a  c #AD5638",
"s  c #BE6137",
"d  c #CB663C",
"f  c #AA4E41",
"g  c #A74F40",
"h  c #A65541",
"j  c #AC5242",
"k  c #AC5B44",
"l  c #B25444",
"z  c #B35C46",
"x  c #B85947",
"c  c #BC5C49",
"v  c #B75F48",
"b  c #BC624A",
"n  c #B56047",
"m  c #8A777C",
"M  c #C05F4B",
"N  c #C4634C",
"B  c #CA664F",
"V  c #C8694E",
"C  c #CD6A51",
"Z  c #D36D53",
"A  c #DA7256",
"S  c #DF7658",
"D  c #D37054",
"F  c #E07759",
"G  c #E47A5B",
"H  c #EA7E5D",
"J  c #EEA830",
"K  c #F7964F",
"L  c #EE825E",
"P  c #F38C5C",
"I  c #F1855F",
"U  c #F79852",
"Y  c #F89C56",
"T  c #F89F59",
"R  c #F5975C",
"E  c #F9A35D",
"W  c #ED8F61",
"Q  c #F38561",
"!  c #E3956B",
"~  c #E79367",
"^  c #EF977F",
"/  c #F19561",
"(  c #F9A561",
")  c #F9A965",
"_  c #FAAD6A",
"`  c #F7A664",
"'  c #FAB36F",
"]  c #FBB674",
"[  c #FBB977",
"{  c #FCBC7C",
"}  c #EAC06D",
"|  c #0063D5",
" . c #0069D6",
".. c #0073D6",
"X. c #007DD7",
"o. c #9D6D8C",
"O. c #96768C",
"+. c #A3688C",
"@. c #B77585",
"#. c #0083D7",
"$. c #008AD8",
"%. c #0083D8",
"&. c #0094D9",
"*. c #009DD9",
"=. c #00A3DA",
"-. c #00AADA",
";. c #00B0DB",
":. c #5FC4ED",
">. c #68C6ED",
",. c #64CAF2",
"<. c #6BCAF1",
"1. c #68D0F6",
"2. c #6BD3F8",
"3. c #72D6F9",
"4. c #7CD9FA",
"5. c #77D0F4",
"6. c #75C8ED",
"7. c #838598",
"8. c #898997",
"9. c #968D97",
"0. c #AC9398",
"q. c #AF9397",
"w. c #AAADB4",
"e. c #C59F9D",
"r. c #F19F89",
"t. c #EE9881",
"y. c #CBA39E",
"u. c #DDA99C",
"i. c #FCBF80",
"p. c #FDC585",
"a. c #FECB8C",
"s. c #FED294",
"d. c #FFD799",
"f. c #898CC7",
"g. c #898CC8",
"h. c #AFB9C1",
"j. c #82DBFB",
"k. c #8CDEFB",
"l. c #8CD2F1",
"z. c #99D8F4",
"x. c #88CEEF",
"c. c #A8DBF3",
"v. c #95E1FB",
"b. c #9BE3FC",
"n. c #A1E4FC",
"m. c #A8E6FC",
"M. c #AEE8FB",
"N. c #B4EAFD",
"B. c #BBEBFC",
"V. c #BAE3F6",
"C. c #BBC7D0",
"Z. c #CAE7F5",
"A. c #CCE9F6",
"S. c #C1EDFD",
"D. c #C7EFFD",
"F. c #C6EEFD",
"G. c #C7EAF9",
"H. c #CEECF9",
"J. c #C1E6F7",
"K. c #D1EFFA",
"L. c #D5ECF7",
"P. c #CDF1FD",
"I. c #D3F3FD",
"U. c #D2F1FC",
"Y. c #D5F3FD",
"T. c #D9F4FE",
"R. c #D9F4FF",
"E. c #DBF5FE",
"W. c #DAF4FE",
"Q. c #CEE4ED",
"!. c #E0F6FE",
"~. c #E3F3FA",
"^. c #E6F8FE",
"/. c #ECF9FE",
"(. c #EDF9FE",
"). c #EDFAFE",
"_. c #EBF5FA",
"`. c #F4FAFD",
"'. c #FFFFFF",
"]. c #CBD8DF",
/* pixels */
"                                              ^ ^ ^ ^ ^ t.^ ^ ^ ^ ^ ^ ^ ^ ^ ^ ^ t.^ ^ ^ ^ ^ t.^ ^ ^ ^ ^ t.^ ^ ^ ^ ^ ^ ^ ^ ^ ^ ^ ^ ^ ^ ^ ^                                             ",
"                                              Q Q Q Q Q Q Q Q Q Q Q Q Q Q Q Q Q Q Q Q Q Q Q Q Q Q Q Q Q Q Q Q Q Q Q Q Q Q Q Q Q Q Q Q Q Q                                             ",
"                                              Q ~ r.r.r.r.r.r.r.r.r.r.r.r.r.r.r.r.r.r.r.r.r.r.r.r.r.r.r.r.r.r.r.r.r.r.r.r.r.r.r.r.r.r.Q Q                                             ",
"                                              Q Q r w.~.(.(.(.(.(.(.(.(.(.^.(.(.^.(.(.(.`.(.^.(.(.(.(.(.(.(.(.(.(.(.(.^.(.(.(.(.(.^.(.L Q                                             ",
"                                              Q H X X , w.Q._.^.^.^.^.^.^.^.^.^.^.^.^.^.^.^.^.^.^.^.^.^.^.^.^.^.^.^.^.^.^.^.^.^.^.^.^.L Q                                             ",
"                                              H H X o o o X 9.].!.!.!.E.!.!.!.!.!.!.!.!.!.!.!.E.!.!.!.E.!.!.!.E.!.!.!.!.!.!.!.!.!.E.!.L H                                             ",
"                                              H H o o o o o o o m C.W.W.W.W.W.W.E.I.E.E.E.E.E.E.E.W.E.W.E.E.W.W.W.W.I.E.E.E.E.E.R.R.R.H H                                             ",
"                                              H H o o o o o o % o o 1 h.H.I.I.I.I.I.I.I.I.I.I.I.I.I.I.I.I.I.I.I.I.I.I.I.I.I.I.I.I.I.I.H H                                             ",
"                                              H H o o o @ % % % % @ o % < w.].D.P.P.P.P.P.P.P.P.P.P.P.P.P.P.P.P.P.P.P.P.P.P.P.P.P.P.P.H H                                             ",
"                                              F G % & % % % % % % % % % @ & # w.S.D.D.D.D.D.D.D.D.D.D.D.D.D.D.D.D.D.D.D.D.D.D.D.D.P.D.F G                                             ",
"                                              G G & % & % % % % & & & % % & $ 9.S.S.S.S.S.S.S.S.S.S.S.S.S.S.S.S.S.S.S.S.S.S.S.S.S.S.B.F F                                             ",
"                                              G S % & @ @ & % % & & & & & % & 9.B.B.B.B.B.B.B.B.B.B.B.B.B.B.B.B.B.B.B.B.B.B.B.B.B.B.B.S F                                             ",
"                                              S S & & % . . X # & & & & & = & 9.N.N.N.N.N.N.N.N.N.N.N.N.N.N.N.N.N.N.N.N.N.N.N.N.N.N.N.S F                                             ",
"                                              S A = & % O . O O % @ $ & = & & 8.M.M.M.M.M.M.M.M.M.M.M.M.M.M.M.M.M.M.M.M.M.M.M.M.M.M.M.S S                                             ",
"                                              A A = = @ O + + O & + X O @ & = 8.m.m.m.m.m.m.m.m.m.m.m.m.m.m.m.m.m.m.m.m.m.m.m.m.m.m.m.A A                                             ",
"                                              A A = = & + O + O & # + + O O = 8.n.n.b.n.n.n.n.n.n.n.n.n.n.n.n.n.n.n.n.n.b.n.n.n.n.n.n.A A                                             ",
"                                              A A = = & + + + + & # + O + + = 7.b.b.b.b.b.b.b.b.b.b.b.b.b.b.b.b.b.b.b.b.b.b.b.b.b.b.b.A Z                                             ",
"                                              Z D = 2 & # + + + * $ + + + + 4 8.v.v.v.v.v.v.v.v.v.v.v.v.v.v.v.v.v.v.v.v.v.v.v.v.b.k.b.A A                                             ",
"                                              Z Z 3 = = + + # + = $ + @ # + = 7.k.v.k.k.k.v.k.k.k.k.k.v.k.k.k.k.k.k.k.k.k.k.k.v.k.S.W.Z Z                                             ",
"                                              Z Z 3 3 = # # # @ = $ # @ # # 4 7.k.k.k.j.k.k.k.k.k.k.k.j.k.k.k.k.k.k.k.k.k.j.k.k.B.E.W.Z Z                                             ",
"                                              Z C 3 4 = # # # # = & # # # # = 7.4.j.j.j.k.4.j.j.j.j.k.j.4.j.j.j.j.j.j.j.j.j.j.k.W.W.W.Z Z                                             ",
"                                              C Z 3 4 2 # # # # > * # # $ # 5 7.4.4.4.4.4.4.4.4.4.4.4.4.4.4.4.4.4.4.4.4.4.4.4.m.W.I.I.C Z                                             ",
"                                              C C 5 4 ; $ $ $ $ > * $ $ $ $ 6 7.3.4.3.4.3.3.3.3.3.3.3.3.3.3.3.3.3.4.3.3.3.4.3.m.I.W.I.Z B                                             ",
"                                              B V 5 5 ; $ $ $ # 3 - $ $ $ $ 5 7.3.3.2.2.3.3.3.2.3.2.3.3.3.3.3.3.3.2.3.3.3.2.2.k.I.W.I.B B                                             ",
"                                              B N 5 5 4 $ - $ $ 5 * $ $ $ $ 7 7.2.2.2.2.2.2.2.2.2.2.2.2.2.2.2.2.2.2.2.2.k.j.5.D.I.I.I.B B                                             ",
"                                              B B 7 7 4 - - - $ 6 = - * - $ 7 7.1.1.1.1.1.1.1.1.1.1.1.1.1.1.1.2.1.1.z.D.I.I.H.I.I.K.I.N N                                             ",
"                                              N N 8 8 4 * * * * 5 ; * * * * 7 9.5.,.,.,.,.,.,.,.,.,.,.,.,.,.,.,.,.z.I.U.K.U.K.K.I.(.'.N N                                             ",
"                                              M M 8 8 4 - - * * 5 ; * - - * 8 0.G.<.:.>.,.,.,.,.,.,.,.,.,.,.:.:.,.D.K.H.H.H.H.I.`.'.'.M N                                             ",
"                                              N M 8 8 7 - - - - 5 > - - - - 9 0.K.l.>.:.:.>.x.V.B.V.c.>.>.:.>.c.M.H.K.H.H.H.H.^.'.'.'.N N                                             ",
"                                              M M 9 8 7 ; ; ; - 7 > ; - - - 9 0.K.V.x.z.z.c.H.H.H.K.H.V.>.6.V.G.A.H.H.H.K.H.H.`.'.'.'.c M                                             ",
"                                              c c 9 e 7 - ; - - 8 6 - ; - ; w 0.A.K.K.K.A.A.H.H.H.H.H.H.Z.H.H.H.A.A.L.~.L.H.Y.`.'.'.'.c c                                             ",
"                                              c c 9 9 8 ; ; ; ; 7 4 ; ; ; ; 9 0.K.A.Z.A.A.A.H.H.Z.H.Z.H.H.Z.H.H.L.`.'.'.'.'.'.'.'.'.'.c c                                             ",
"                                              c c e e 8 ; > ; ; 8 6 ; ; > ; e 0.A.A.A.A.A.A.Z.A.A.A.A.A.H.A.Z.A._.'.'.'.'.'.'.'.'.'.'.c x                                             ",
"                                              z z e e 8 > ; : ; w 6 > > > ; e 0.Z.A.A.Z.Z.A.H.Z.Z.G.Z.Z.Z.A.A.A.'.'.'.'.'.'.'.'.'.'.'.x x                                             ",
"                                              x x e u w 6 > > > w 6 6 > : : u q.Z.Z.L.L.L.Z.Z.Z.Z.Z.Z.Z.A.A.Z.L.'.'.'.'.'.'.'.'.'.'.'.x z                                             ",
"                                              x x u u w > 6 6 6 9 7 6 6 6 6 u q.~.'.'.'.'._.Z.Z.Z.L._.'.'.`._.`.'.'.'.'.'.'.'.'.'.'.'.l l                                             ",
"                                              l l u u e 6 6 6 6 e 7 6 6 6 6 u y.'.'.'.'.'.'.`.Z.Z.`.'.'.'.'.'.'.'.'.'.'.'.'.'.'.'.'.'.l l                                             ",
"                                              l l i i e 6 6 6 6 e 0 6 6 6 6 u y.'.'.'.'.'.'.'.`.`.'.'.'.'.'.'.'.'.'.'.'.'.'.'.'.'.'.'.l l                                             ",
"                                              l l i i i g u u u p u e e e w g y.'.'.'.'.'.'.'.'.'.'.'.'.'.'.'.'.'.'.'.'.'.'.'.'.'.'.'.l j                                             ",
"                                              f l f i j f f f f i j f f f g g y.'.'.'.'.'.'.'.'.'.'.'.'.'.'.'.'.'.'.'.'.'.'.'.'.'.'.'.f j                                             ",
"                                              f f f f f f f f f j f f f e a J } '.'.'.'.'.'.'.'.'.'.'.'.'.'.'.'.'.'.'.'.'.'.'.'.'.'.'.f f                                             ",
"                                              f f a f f f l l f j f j f t s J J '.'.'.'.'.'.'.'.'.'.'.'.'.'.'.'.'.'.'.'.'.'.'.'.'.'.'.f f                                             ",
"                                              i i l j j l f f f f a l f f f V u.'.'.'.'.'.'.'.'.'.'.'.'.'.'.'.'.'.'.'.'.'.'.'.'.'.'.'.f f                                             ",
"                                              f i l l l l l l l l l l l l l a y.'.'.'.'.'.'.'.'.'.'.'.'.'.'.'.'.'.'.'.'.'.'.'.'.'.'.'.i i                                             ",
"                                              u i l l f e r r r f e 0 0 0 0 l y.'.'.'.'.'.'.'.'.'.'.'.'.'.'.'.'.'.'.'.'.'.'.'.'.'.'.'.i g                                             ",
"                                              u u l x i 0 0 0 0 g t q q q 0 k O.;.;.;.;.;.-.;.-.;.;.;.;.;.;.;.;.;.;.;.;.;.;.;.;.;.;.;.u u                                             ",
"                                              u u x x h r 0 q 0 j t w w w q x O.-.-.-.-.;.-.-.-.-.-.-.-.-.-.-.-.-.-.-.-.-.-.-.-.-.-.-.u u                                             ",
"                                              u e x x h r r r q j t w w w w x O.=.=.=.=.=.=.=.=.=.=.=.=.=.=.=.=.=.=.=.=.=.=.=.=.=.=.=.u e                                             ",
"                                              e e c c j r r r r k t r r r r c O.*.*.*.*.*.*.*.*.*.*.*.*.*.*.*.*.*.*.*.*.*.*.*.*.*.*.*.e e                                             ",
"                                              e e c c j r r r r l y r r r w c O.*.&.&.&.&.*.&.&.&.*.&.&.&.&.*.&.*.&.&.&.&.*.&.&.*.&.&.e e                                             ",
"                                              e e c c l r r r r l p r r r r c o.&.&.&.&.&.&.&.&.&.$.&.&.&.&.$.&.$.&.&.&.&.$.&.&.$.&.&.9 9                                             ",
"                                              9 9 M c z r r y t z p t r y e b o.$.#.$.$.$.#.$.$.$.$.$.$.$.$.$.$.$.$.$.$.$.$.$.$.$.$.$.e 9                                             ",
"                                              8 9 M M z t t t r z g t t r r N o.#.#.#.#.#.#.#.#.#.#.#.#.#.#.#.#.#.#.#.#.#.#.#.#.#.#.%.8 9                                             ",
"                                              8 8 N M z i t t t c h t t y t N o.X.X.X.X.X.X.X.X.X.X.X.X.X.X.X.X.X.X.X.#.X.X.X.X.X.%.X.8 8                                             ",
"                                              8 8 N N c y y t t c h t y y t V +.......................................................8 8                                             ",
"                                              8 8 N N c y y y y c h y y y y N +... ................................. ............... .7 8                                             ",
"                                              8 7 B B b p p p p b k p p p y V +. . . . . . . . . . . . . . . . . . . . . . . . .|  . .7 5                                             ",
"                                              5 5 B B b p p p p M k p p p i B +.| | | | | | | | | | | | | | | | | | | | | | | | | | | 7 5                                             ",
"                                              5 5 C C b p h h p M k p h h p Z @.f.f.f.f.f.f.f.f.f.f.f.f.f.f.f.f.f.f.f.f.f.f.f.f.f.f.g.5 5                                             ",
"                                              5 5 C C N p k h p N z h h h h C ! d.d.d.d.d.d.d.d.d.d.d.d.d.d.d.d.d.d.d.d.d.d.d.d.d.d.d.5 5                                             ",
"                                              4 4 Z Z M h h k h N z h h h h Z ! s.s.s.s.s.s.s.s.s.s.s.s.s.s.s.s.s.s.s.s.s.s.s.s.s.s.s.4 4                                             ",
"                                              3 4 Z Z N h h h h V z k h h h Z ! s.s.s.s.s.s.s.s.s.s.s.s.s.s.s.s.s.s.s.s.s.s.s.s.s.s.s.3 4                                             ",
"                                              3 3 Z Z B k k h k V z h k k h D ! a.a.a.a.a.a.a.a.a.a.a.a.a.a.a.a.a.a.a.a.a.a.a.a.a.s.a.3 3                                             ",
"                                              3 2 A D B k k k h C n k k k k Z ! a.a.a.a.a.a.a.a.a.a.a.a.a.a.a.a.a.a.a.a.a.a.a.a.p.a.a.3 3                                             ",
"                                              = 2 A A V k k k k C n k k k k A ! p.p.p.a.p.p.p.p.p.a.p.p.p.p.p.p.p.p.a.p.p.p.p.p.p.a.p.= =                                             ",
"                                              = = A A C k k k k C b n k k k A ~ p.p.p.p.p.p.p.p.p.p.p.p.p.p.p.p.p.p.p.p.p.p.p.p.p.p.p.= =                                             ",
"                                              = = A A C n k n k C b k z n n A ~ i.i.{ i.i.i.i.{ { i.i.i.i.i.i.i.i.i.i.{ { i.i.i.{ i.i.= =                                             ",
"                                              = = F F C k n n k D b n k n b S ! { { { { { { { { { { { { { { { { { { { { { { { { { { { = =                                             ",
"                                              = * S S D n n n n D b N D F F S ~ [ [ [ [ [ [ [ [ [ [ [ { { [ [ [ [ [ [ [ [ [ [ [ [ [ [ & &                                             ",
"                                              & = G S D n n n b A G G G G F F ~ ] [ ] [ ] ] ] [ ] ] ] [ ] ] ] ] ] [ ] ] ] ] ] ] ] ] ] & &                                             ",
"                                              & @ G S D b D S G G G G G G G G W ' ] ' ' ' ] ' ' ' ' ' ' ' ] ' ' ' ' ' ' ' ' ' ' ' ' ] & &                                             ",
"                                              % & H G S Q G G G H G G G G G G W _ _ _ _ _ _ _ _ _ _ _ _ _ _ _ _ _ ' _ _ _ ' _ _ _ ' _ & &                                             ",
"                                              % % H H H H G H H H H H H H F H W _ _ _ _ _ _ _ _ _ _ _ _ _ _ ) _ _ ) _ _ _ _ _ _ _ _ _ % %                                             ",
"                                              @ % H H H H H H H H H H H L L / ` ( ) ) ) ( ) ) ) ` ` ) ) ) ) ) ) ) ) ) ) ) ) ) ) _ ( ( % %                                             ",
"                                              o o H H H H H H H H H H L R ` ` E E ( ( ( E ( ( ( ( ( E ( ( ( E ` ( ( E ( ( ( ( E ( ( E o o                                             ",
"                                              o o Q Q H Q Q H Q Q P R E E E E E E E E E E E E E E E E E E E E E E E E E E E E E E E E o o                                             ",
"                                              o o I L L L L Q P Y T T T T T T T T T T T T T T T E Y T T T T T T E Y Y E Y E E Y T T T X o                                             ",
"                                              X X I L L L P R Y Y Y T Y Y Y Y Y Y Y Y Y Y Y Y Y Y Y Y Y Y Y Y Y Y Y Y Y Y U Y Y Y Y Y X X                                             ",
"                                              X X I P P U U U U U U U U U U U U U U U U U U U U U U U U U U U U U U U U U U U U U U Y X X                                             ",
"                                              X X R K K K K K U K K K K K K K K K K K K K K K K K K K K K K K K K K K K K K K K K K K X X                                             "
};
