/* XPM */
static char *_6e58ac5d7ae4a18e1911bc991c0dd70rJPKxtWIwVLBsiuV[] = {
/* columns rows colors chars-per-pixel */
"64 64 182 2 ",
"   c None",
".  c #6C2F18",
"X  c #6B3419",
"o  c #6E3C1B",
"O  c #77371A",
"+  c #78391B",
"@  c #9A3225",
"#  c #AF2A24",
"$  c #B3372B",
"%  c #EB2C2A",
"&  c #E83728",
"*  c #E63D2B",
"=  c #855324",
"-  c #815229",
";  c #86592E",
":  c #975823",
">  c #935B2B",
",  c #9D5F35",
"<  c #AF5E31",
"1  c #9E652F",
"2  c #8E6135",
"3  c #956533",
"4  c #9A6835",
"5  c #9D703E",
"6  c #A76327",
"7  c #A56128",
"8  c #AC692C",
"9  c #B76E2E",
"0  c #B86F2E",
"q  c #B0742E",
"w  c #BA742F",
"e  c #A46730",
"r  c #A06B35",
"t  c #A36F39",
"y  c #A67035",
"u  c #BA7632",
"i  c #B67836",
"p  c #B67D3C",
"a  c #BC7D3D",
"s  c #DA4F2D",
"d  c #D9502B",
"f  c #E6432C",
"g  c #E9522F",
"h  c #E95431",
"j  c #E65A33",
"k  c #CD7C2F",
"l  c #D76C3B",
"z  c #C07731",
"x  c #CB7C31",
"c  c #E76036",
"v  c #EA6334",
"b  c #E96935",
"n  c #E16C3A",
"m  c #EA6B3A",
"M  c #E77639",
"N  c #EB7C3B",
"B  c #CC8236",
"V  c #C4843B",
"C  c #CB883C",
"Z  c #D38236",
"A  c #DF8833",
"S  c #D18738",
"D  c #D78C3A",
"F  c #E1892F",
"G  c #EB8E2F",
"H  c #EE922D",
"J  c #F0932E",
"K  c #E58D31",
"L  c #EA8F30",
"P  c #EF873F",
"I  c #EF8B3E",
"U  c #F18F30",
"Y  c #F2873F",
"T  c #F28B3F",
"R  c #E39134",
"E  c #EF9631",
"W  c #EE9933",
"Q  c #EA9638",
"!  c #EC9C3D",
"~  c #F19631",
"^  c #F59C34",
"/  c #F89E35",
"(  c #F59E38",
")  c #F89F39",
"_  c #ECA13E",
"`  c #F6A037",
"'  c #F8A137",
"]  c #F6A23B",
"[  c #F9A43C",
"{  c #F7A83E",
"}  c #FCA93F",
"|  c #C58847",
" . c #CB8E45",
".. c #CC934A",
"X. c #DA9741",
"o. c #DB9946",
"O. c #D4974A",
"+. c #DF934A",
"@. c #DB9C4A",
"#. c #EF8A42",
"$. c #F18C41",
"%. c #E29641",
"&. c #EF9145",
"*. c #E39C45",
"=. c #EE9F44",
"-. c #E79248",
";. c #E69B49",
":. c #F39343",
">. c #F59B44",
",. c #F59F4B",
"<. c #EFA245",
"1. c #E1A14C",
"2. c #EDA44C",
"3. c #EBA848",
"4. c #F4A443",
"5. c #FAA740",
"6. c #F6A943",
"7. c #FBAB42",
"8. c #F0A74C",
"9. c #F9A749",
"0. c #F6AC4C",
"q. c #FAAC4A",
"w. c #FDB146",
"e. c #F5B04E",
"r. c #FEB348",
"t. c #FBB64B",
"y. c #FEB449",
"u. c #FFB549",
"i. c #FEB749",
"p. c #FDB54B",
"a. c #FEB54A",
"s. c #FFB54A",
"d. c #FEB54B",
"f. c #FEB44A",
"g. c #FDB64B",
"h. c #FEB64B",
"j. c #FDB549",
"k. c #FBB54F",
"l. c #FBB64F",
"z. c #FBB54C",
"x. c #FDB54D",
"c. c #FFB54C",
"v. c #FDB64C",
"b. c #FCB64D",
"n. c #FFB64D",
"m. c #FCB54E",
"M. c #FDB74E",
"N. c #FEB64F",
"B. c #FEB44A",
"V. c #EAA555",
"C. c #F3AD52",
"Z. c #F5AD52",
"A. c #F3AE5A",
"S. c #FBB651",
"D. c #FBB652",
"F. c #FAB552",
"G. c #FDB551",
"H. c #FCB651",
"J. c #F9B756",
"K. c #FBB757",
"L. c #F9B555",
"P. c #F6B855",
"I. c #F5B25B",
"U. c #F7B65A",
"Y. c #F4B25C",
"T. c #F9B659",
"R. c #F6BA58",
"E. c #F7B85D",
"W. c #F6BA5E",
"Q. c #F6BC5E",
"!. c #F9B859",
"~. c #FBB85B",
"^. c #F8B85A",
"/. c #F9B85D",
"(. c #FBB85D",
"). c #F8B85E",
"_. c #FABA5E",
"`. c #F0B061",
"'. c #FBB961",
"]. c #F9BA62",
"[. c #FABB64",
"{. c #F6BC6C",
/* pixels */
"            {.      J.J.T./.].[.E.R./.]./.J.F.J.T.'.]./.J.E./.P.F.P.R.T.P.P.Q.Q.!.!.].[.'./.R.J.!./.E.]./.J.J.T.I.Z.C.2.V.V.    ",
"    ]./.!._._.K.H.H.k.N.F.F.F.F.l.t.k.k.N.N.N.N.f.G.G.G.k.l.M.s.M.N.t.s.N.t.s.M.i.N.M.M.M.H.k.t.s.s.t.k.s.s.7.q.6.7.7.[ 4.4.2.V.",
"  !.H.N.s.s.j.j.s.N.s.j.s.N.N.s.i.j.w.w.j.s.t.s.s.s.f.f.j.s.N.s.s.M.s.s.s.s.s.s.s.s.i.s.s.s.s.j.j.j.w.w.7.7.7.} 7.{ } } [ ] ( ! ",
"E.k.s.s.j.j.w.w.w.7.w.w.w.w.7.w.w.j.w.w.w.j.j.7.q.q.B.7.7.w.q.q.7.w.w.w.j.j.s.s.j.s.s.B.j.7.q.7.7.} { ] [ [ } } } } } } } { ^ ^ ",
"J.s.j.q.{ { { { { ] ] ] [ { [ { } w.w.w.w.w.j.6.[ [ ] { ] ] ` ` ' [ [ [ { w.w.j.s.B.7.4.( ) [ >.' ` ] ' ' ] ' [ [ } } } } [ ' ^ ",
"k.B.q.] ~ ^ ^ ^ ` ` ` ` ^ ^ ^ ` [ } w.j.s.j.6.W W ^ ^ ( / / ^ ^ ^ ^ ^ ^ ` { w.j.B.B.7.^ ~ ^ / ~ ^ / ^ ^ / / ^ ^ ' [ } } } } ' ^ ",
"k.B.{ ~ J ^ ^ ^ ^ ^ ^ ^ ^ ^ ^ ^ ` { 7.w.s.B.{ E H ~ ^ ^ ^ ^ ^ ^ ^ ^ ^ ^ ` } 7.j.s.B.] E E ~ ( / / / ^ ~ ^ / ^ ^ ' [ } } } } ' ^ ",
"s.j.{ H J ~ ^ ^ ^ ^ ` ^ ^ ^ ^ ^ ` [ w.w.B.w.{ H H W ( ^ ^ ^ ^ / ^ ^ ^ ^ / } 7.j.f.B.( H E ^ ~ / / / ^ ^ / ^ ^ ^ ' { } } } } ' ^ ",
"i.i.{ H H ^ ^ ^ ^ ^ ` ^ ^ ^ ^ ^ ` [ } j.j.w.] L E ~ ^ ^ ^ ^ ^ ` ^ ' ^ ^ ^ [ } i.i.j.` H H / / ( ^ ^ ^ ^ ^ ^ ^ ^ ` [ } } } } ' ^ ",
"i.i.` H H J ^ ^ ^ ^ ^ ^ ^ ^ ^ ^ ^ [ } j.s.w.] H G ~ ( / ^ ^ ^ ^ ^ ^ ^ ^ ' ' } i.i.j.` H H ~ ^ ^ ^ ^ ^ ^ ^ ^ ^ ^ ` [ } } } } [ / ",
"i.j.` W H W ^ ^ ^ ^ ^ ^ ^ ^ ^ ^ / [ 7.B.s.w.] H U ~ / / ` ^ ^ ^ ^ ' ^ ^ ^ [ } j.s.w.` E H J ^ ^ ^ ^ ^ ^ ^ ^ ^ ^ ` [ { } } } ' ^ ",
"i.{ ` H H W ^ ^ ^ ^ ^ ^ ^ ^ ^ ^ ^ ] 7.w.s.w.{ H J J ^ ^ ^ ^ ^ ^ ^ ^ ^ ^ ' { } w.s.B._ H H ~ ~ ^ ^ ^ ^ ^ ^ / ^ ^ ^ [ } } } } ' / ",
"i.t.{ W H H W ^ ^ ^ ^ ^ ^ ^ ^ ^ ^ ] 7.B.s.w.] H H J ^ ^ ^ ^ ^ ^ ^ ^ ^ ^ ^ ' } j.s.B.] E G H J ~ / ^ ^ ^ ^ ^ / ^ ' [ } } } } ' ^ ",
"i.i.{ H H H W J ^ ^ ^ / ` ` ^ ` / [ 7.7.s.w.{ H G H J ^ ^ ( ( ^ ^ ^ ^ ^ / [ } w.B.w.( E H H H J ^ ^ ^ ^ / / ^ / ` ' } } } } [ ^ ",
"j.j.{ H H H H ^ ^ ^ / / ^ ^ ^ ^ / ] 7.B.s.w.[ H J G J ~ / ^ ) ^ ' ^ ^ ^ ^ [ } j.B.B.( H H H H J J ^ ^ ^ / / ^ ^ ` [ } } } } ' ` ",
"t.j.{ H H H H H J J J ^ ^ ~ ^ ^ / ] 5.w.s.w.] H H G J J ~ ~ / ^ ^ ^ ^ ^ ^ ' } j.s.w.] E G J H H J J ^ J ~ ~ ~ ~ ^ [ { } } } [ ` ",
"t.j.{ W G G H H H J J H ~ J J H J ] 7.B.B.q.[ H G H H H H H H J H H H H J ' } j.B.B.{ J U H U J H H H H J H J H J [ } } } } [ / ",
"t.j.5.W G J H H H G H H H H H G J ] 7.B.B.B.7.~ G G H H H H G H H H H H J [ 7.j.N.B.{ ~ H U J G H H H H H G G H ~ ] 7.} } } [ ^ ",
"j.t.7.^ J J J J L U H H H H H W ^ [ 7.B.s.j.7.^ ~ E H U H U J J H H H W ^ { } j.s.B.{ ^ J H ~ ~ J J J J ~ ~ ~ ^ ^ [ { { } } [ / ",
"t.s.7.5./ / ~ / ( ^ ^ / ^ ^ ^ ` ] } 7.B.j.j.q.{ ) ) ^ ( ~ / ^ ^ ] ] ] ] [ } w.j.t.s.w.{ ] ] ] [ [ ' ' / ) ] { [ 7.7.7.} } } [ ' ",
"N.s.s.7.7.{ { } } [ 7.7.7.7.{ 7.7.7.w.B.w.j.w.7.7.7.7.7.} 7.7.5.7.7.7.7.7.w.j.j.s.s.j.j.7.7.7.7.7.7.7.7.7.7.7.7.7.7.7.} } } [ ' ",
"s.s.s.j.q.w.w.w.w.q.7.B.w.w.w.j.B.w.B.B.w.w.s.s.B.w.7.B.w.w.q.B.w.B.w.B.w.w.j.j.t.s.B.w.B.w.s.B.B.w.w.s.s.N.w.q.7.7.} 7.} } [ / ",
"s.s.j.j.j.j.j.s.B.s.t.s.s.s.i.i.B.B.j.7.B.s.s.s.B.s.s.s.s.s.s.s.s.s.s.s.B.s.s.t.s.s.s.s.s.s.s.w.s.s.s.s.s.s.s.w.7.7.} } } } [ ' ",
"s.k.s.j.j.w.j.j.B.B.w.w.j.j.i.i.w.B.B.B.B.B.s.B.s.B.w.B.w.B.w.B.w.B.w.s.j.j.s.s.s.s.s.w.w.w.w.w.w.w.7.w.w.7.7.B.7.7.7.7.} } [ ' ",
"t.s.s.j.q.7.7.7.q.7.6.7.} } } { 7.7.B.B.w.w.w.j.{ 6.7.{ { } 7.7.5.6.{ { } w.j.j.i.i.j.6.{ [ { { [ } } [ [ [ } ' } 7.} } } } [ ' ",
"t.s.q.{ ( ( ` ` ` ^ ] ^ ^ ^ ` ` ] 7.7.B.q.j.6.] ^ ^ ( ^ ^ ` ^ ^ ^ ^ ` ` ] } w.j.i.i.w.` W ^ ^ ` ` ^ ^ ^ ^ ^ ' / ' } } } } } [ ' ",
"t.s.q.^ ~ ~ ~ ^ ^ ( ^ ^ / / ^ / ( [ 7.s.s.w.7.~ H ~ ^ ( ^ ^ ^ ^ ^ ` ^ ^ ^ [ } w.i.j.{ W H ^ ^ ^ ^ ` ^ ^ ^ ^ ^ ^ ^ [ } } } } [ ' ",
"N.s.6.~ J ~ / ^ ^ ^ ^ ^ ^ ^ / ^ ^ [ 7.B.s.w.4.W W ~ ^ ( ` ^ ^ ^ ^ ^ ^ ^ ^ [ } j.i.i.{ ~ H ~ ^ ^ ^ ^ ^ ^ ^ ^ ^ ^ ` [ } } } } [ ' ",
"t.s.7.W H H ^ ^ ^ ^ ^ ^ ^ ^ ^ ^ ^ [ 7.B.B.B.5.W H ~ ~ ( ( / ^ ^ ^ ^ ^ ^ ^ ' } i.i.i.{ ~ H J ^ ^ ^ ^ ^ ^ / ^ ^ ^ / [ } } } } [ / ",
"s.s.{ J H ~ / ^ ^ ^ ^ ^ ^ ^ ^ ^ ^ [ 7.B.B.B.] E G W / ( / / ^ ^ ` ^ ^ ^ ` [ } j.i.} { W H ^ ^ ^ ^ ` ^ ^ ^ ^ ^ ^ / ] } } } } } / ",
"t.j.] W H ~ ^ / ^ ^ ^ ^ ^ ^ ^ ^ ^ ] 7.7.B.B.{ E H J / / ^ ^ ^ ^ ^ ^ ` ^ ^ ` } } i.i.' J H J J ^ ^ ^ ^ ^ ^ ^ ^ ^ ^ ] } } } } [ / ",
"s.j.{ W H H ^ ^ ^ ^ ^ ` ^ ^ ^ ^ ^ [ 7.B.f.B.{ E H J ^ / ( ^ ^ ^ ^ ^ ^ ^ ^ ` } i.i.i.{ J H H ^ ^ ^ ^ ^ ^ ^ ^ ^ / / ] } } } } } ) ",
"i.w.{ J H J ^ ^ ^ ^ ^ ^ ^ ^ ^ ^ ^ ] 7.w.s.j.4.W H H ^ ` ^ ^ ^ ^ ^ ^ ^ ^ ^ ' } } B.B.] ~ G H ~ ^ ^ ^ ^ ^ ^ ^ ^ ^ ( ] } } } } [ / ",
"i.i.{ W H J J ^ ^ ` ^ ^ ^ ^ ^ ^ ^ ] 7.w.s.s.{ ~ J H H ^ ^ ^ / ^ ^ ` ^ ^ / ' } } B.B.4.~ G H H J ^ ^ ^ ` ^ ^ ^ ^ ^ ] } } } } } ) ",
"i.j.{ W H H J ~ ^ ^ ^ ^ ^ ^ ^ ^ ^ ] 4.3.0.e.[ ~ H H H J ^ ^ / ^ ^ ^ ^ / ^ { } i.e.0.( R G H H H ~ / ^ ^ / / ^ ^ ^ [ } } } } [ / ",
"t.s.{ H H H H J ~ ^ ^ ^ ^ ^ / ^ W D i y p o.<.^ H H H H J J J ^ ^ ^ / ^ ` ` { t.@.| a B F J H H H J ^ ^ / ~ ^ / ^ ] } 7.} } } ' ",
"s.s.6.W H H G H J J ~ ~ ~ ~ ~ W S 1 ; 3 2 4 C Q U H H H G H H H J J W ~ J ` _  .3 ; - = w F H G G J H ~ ~ J J J J ( } } } } [ / ",
"k.s.7.~ J H H H J H H H E H H K 9 > | 1...t q R U H H H G U H H H H G H J ` 1.4 5 ....3 : k G G H H H H H H H G J ) } 7.} } } / ",
"N.N.q.^ J H H H H H H H E H W K z i o.j.0.@.X.! G H H G K K G G G A K H W ] <.p O.0.8.V 7 x K H H H H G H U H H ^ [ 7.} } } ] / ",
"t.s.7.[ ^ ~ J ~ ~ H W W ~ ~ ~ W Q ! 6.q.z.0.q.[ ( ~ E k 6 8 9 0 7 : u Q ( 7.6.3.0.0.7.4.%.*./ / ^ ^ ( / ( ( ( ] [ 5.7.7.} [ [ ^ ",
"w.w.q.7.[ } ] [ [ [ [ [ [ 5.[ 5.{ 4.>.T &.,.q.q.} [ ] V o X O O . o i _ 7.7.q.0.>.T I :.4.7.5.} } 5.5.5.} 7.7.} 5.7.7.7.} ] ^ ^ ",
"t.t.B.B.q.w.7.7.w.7.7.B.7.7.w.7.q.T b g j m :.q.w.7.0.o., @ # # $ < @.6.7.B.0.#.v h h v #.7.B.w.w.w.w.w.w.w.7.7.} 5.} 7.] ` ^ ` ",
"w.w.w.t.B.B.N.B.w.w.j.j.N.t.s.B.7.M * % % f N 7.B.B.s.0.-.l s s n -.0.t.f.f.Z.M f % % & P 9.s.t.s.s.s.s.s.s.j.} } } } { ` ` ` ^ ",
"k.w.j.w.B.B.B.s.s.s.s.j.s.s.t.s.q.#.g & * v $.0.t.s.s.N.0.,.:.! >.q.B.N.f.N.q.$.j f * j #.q.t.j.s.s.w.w.B.w.w.7.7.} } [ ` ` ` W ",
"N.w.j.j.B.q.w.7.w.} w.w.q.7.7.q.q.5.:.Y T >.5.q.q.q.w.7.7.7.5.7.7.q.7.w.7.B.w.7.,.#.#.$.>.7.7.} { { } } } } } { } } } } ` ` ^ ^ ",
"N.s.j.7.[ [ { [ ` ' ` ] [ ] { ] 5.7.9.7.q.B.f.7.( ( ] ] ] ` ] ` ' ` ' ' [ 7.w.w.q.9.9.4.( ` ` ` ' ' ' ' ' ' ` [ ' } } } ] ` W W ",
"l.s.q.] W ^ ^ ^ / ^ / / ^ / / / ( [ 7.j.s.t.q.] E E ( ^ ^ ^ ^ ^ ^ ^ ^ ^ ^ [ 7.j.B.7.7.^ H W ^ ^ ^ ^ ^ ` ^ ' ^ ^ ' [ } } { ` ` ` ",
"l.s.0.^ H W ^ ^ ^ ^ ~ ^ ^ ^ / ( ^ ] { w.j.s.6.( E ~ / ^ ^ ^ ^ ^ ^ ` ^ / / ] } j.B.B.7.^ H W ~ ` ^ ^ ^ ^ ^ ^ ^ ^ ^ [ } } [ { ` W ",
"l.s.7.W H W ^ / ^ ^ ^ ^ ^ ^ ^ ^ ^ ' } i.i.i.7.^ H W ^ ^ ^ ^ ^ ^ ^ ^ / ^ / ) } w.s.B.{ ^ H ~ ^ ^ ` ^ ^ ^ ^ ^ ^ / / ' } } } } ' ` ",
"l.j.6.^ H J ~ ^ ^ ^ ^ ^ ` ^ ^ ^ ^ ' } } i.i.7.~ H H ^ ^ ^ ^ ^ ^ ^ ^ ^ / / ] } w.s.s.4.W G ~ ( ^ ^ ^ ^ ^ ^ ^ ^ ^ ` ' } } } } ' ` ",
"e.j.{ W H J ^ ^ ^ ^ ^ ^ ^ ^ ` ^ ^ ' [ j.i.j.{ ~ H ~ ^ ^ ^ ^ ^ ^ ^ ^ ^ ^ / / [ w.s.B.{ ~ G J ~ ^ ^ / ^ ^ ^ / ^ ^ ` ' } } } } } ' ",
"q.7.[ ~ G W ~ ^ ^ ^ ^ ^ ^ ^ ^ ^ / ' [ } j.j.} ^ J J ~ ^ ^ ( ^ ^ ^ ` ^ ^ ^ ' } w.B.7.[ ~ H H ^ ^ ^ ^ ^ ^ ^ ^ ^ ^ ^ ` } } } } { ' ",
"6.7.{ ~ H H ~ ^ ^ ^ ^ ^ ^ ^ ^ ^ ` ` { w.w.w.5.~ H J J / ^ ` ^ ^ ^ ^ ^ ^ ^ ] { 7.7.7.] ~ H H J ^ ^ ^ ^ ^ ^ ^ ^ ^ ` ' } } } } } ' ",
"6.} [ ~ H H W ^ ^ ^ ^ ^ ^ ^ ^ ^ ^ ` [ } } 7.4.^ H H J J ^ ^ ^ ^ ^ ^ / ^ ^ ` } } 7.7.] ~ H H J ^ ^ ^ ^ ^ ^ ^ / ^ ` ' } } } } ' ' ",
"q.} ] ~ J H H ~ ^ ^ ^ ^ ^ ^ ^ ^ ^ ' [ } } } ] ~ H H H J / / / / ^ ^ ^ ^ ^ ' 5.5.7.7.[ ~ H G J J ^ ^ ^ ^ ^ ^ ^ ^ ` ` ' } } } } ' ",
"q.} [ ^ H H H H W ~ ^ ` ` ^ ^ ^ ^ ^ } } } 7.] ^ H H H H H ~ ~ / ^ ^ ^ ^ ^ ) } 7.7.7.) ~ H H H H ~ ^ ^ ^ ^ ^ J / ^ ` } } } } { ' ",
"0.} ] ~ H H G H H W J ^ ~ ~ ^ ^ ~ ^ [ } } } 5.~ G J J H H J J J ^ ~ ^ ^ ^ ` [ } 7.7.[ ~ J G H H H H W H ~ ~ ~ J ^ ^ } } } } } ' ",
"0.5.[ ^ H H H G H H H H J J J H W ^ [ 7.} } [ ~ J J J H H H J G H H H H H ^ { } 7.7.[ ~ H U G H H H H H H H J H J ^ } } } } [ ' ",
"L.5.} / H H H H H H H G H H H H J ^ [ 7.} } } / J U H H H H G J H H H H H ( } 7.7.} [ / H H G J H H H H H H G U J ^ } } } } [ ' ",
"e.7.} ` H H W H H H W J H H J J ~ ) } 5.} } } ) J J J ~ H H ~ ~ J ~ H ~ ^ [ } } 7.7.5.] ^ ~ J ~ H W ~ ~ ~ W ~ ^ ^ [ } } } } ' ^ ",
"Z.7.7.5.[ ( ( ( ] ) ) ) ] ) ] ] 5.5.5.7.} } } { [ [ ] ] [ ( [ ] ] ] [ 5.[ } } } } } } } [ 5.[ [ [ [ ] [ } [ [ [ } } } } } } ' ^ ",
"`.0.7.7.5.7.7.} } 5.5.7.} } 7.5.5.7.5.7.7.} } } } 7.} 7.7.5.5.7.} 5.5.5.7.7.} 7.7.5.} } 5.5.5.7.} 7.7.7.7.7.7.7.} 7.} } } } ` ` ",
"  `.Z.9.7.7.7.7.7.7.7.7.7.7.7.7.7.7.7.7.7.} } } } { 7.7.7.7.7.5.7.7.7.7.7.7.7.7.5.7.5.7.7.7.5.5.7.7.7.7.7.q.w.6.q.} q.{ [ ] 3.3.",
"    `.A.Z.Z.Z.0.q.q.e.0.q.q.0.9.0.0.0.0.6.q.6.q.q.0.0.q.q.q.q.q.Z.q.q.q.Z.0.q.q.q.q.Z.Z.Z.8.Z.A.C.9.0.q.e.I.`.U.C.C.8.2.2.2.    "
};
