/* XPM */
static char *_7b274bfffe94e5aba9738442cd01919UZ7DkwAd9WMXrZkv[] = {
/* columns rows colors chars-per-pixel */
"64 64 143 2 ",
"   c None",
".  c #CA8A85",
"X  c #CB8D8A",
"o  c #D38C8D",
"O  c #CE918E",
"+  c #D3998F",
"@  c #D18E92",
"#  c #CF9991",
"$  c #D39393",
"%  c #D39B92",
"&  c #DC9D95",
"*  c #D9969B",
"=  c #D69C9B",
"-  c #DA9B9F",
";  c #E49E9C",
":  c #D6A29B",
">  c #DBA39C",
",  c #DAA89B",
"<  c #DC9CA0",
"1  c #E29DA3",
"2  c #D7A5A0",
"3  c #DEA5A4",
"4  c #D7A9A4",
"5  c #DBACA3",
"6  c #DFA4A9",
"7  c #DFAFAC",
"8  c #DBB1A7",
"9  c #DDB5AC",
"0  c #DCBAAF",
"q  c #DCB6B2",
"w  c #DEBDB4",
"e  c #DFBEB8",
"r  c #E5A1A7",
"t  c #E3A9A5",
"y  c #EAA9A5",
"u  c #E2A5AC",
"i  c #EBA7AE",
"p  c #E4ABAE",
"a  c #EBAEAB",
"s  c #E0B0A2",
"d  c #E4B6AC",
"f  c #E9B3AE",
"g  c #E2BAAD",
"h  c #E8A7B0",
"j  c #E4ADB3",
"k  c #EAABB4",
"l  c #E6AFB9",
"z  c #ECAFBE",
"x  c #E5B2B6",
"c  c #E9B2B4",
"v  c #E2BCB3",
"b  c #ECBDB7",
"n  c #E6B4BA",
"m  c #E9B5BC",
"M  c #E4BABB",
"N  c #EBBBBD",
"B  c #F2B4BC",
"V  c #F1BDBE",
"C  c #DDC1B6",
"Z  c #D2CAB5",
"A  c #DBCAB7",
"S  c #DDC5BB",
"D  c #D7CEBB",
"F  c #DDCABE",
"G  c #D6D2B7",
"H  c #DCD2BD",
"J  c #E3C1B6",
"K  c #E2C4BB",
"L  c #EDC1BD",
"P  c #E2CABE",
"I  c #F5C2B0",
"U  c #F2C1BE",
"Y  c #F9C7BD",
"T  c #E0D4BF",
"R  c #E7B6C0",
"E  c #EBB6C1",
"W  c #E7B8C0",
"Q  c #EDBCC3",
"!  c #EFBEC8",
"~  c #F3B6C3",
"^  c #F2BDC5",
"/  c #F2BEC9",
"(  c #FABEC9",
")  c #DFCCC2",
"_  c #DDD3C2",
"`  c #DFD0C8",
"'  c #E3C5C0",
"]  c #EEC2C2",
"[  c #E1CEC3",
"{  c #E9CCC4",
"}  c #EFC2CB",
"|  c #E5CEC9",
" . c #EBCDC9",
".. c #F3C2C4",
"X. c #F3CBC6",
"o. c #F4C3CC",
"O. c #F9C4CD",
"+. c #F7C9CC",
"@. c #F9CACD",
"#. c #E5D3C5",
"$. c #E9D2C5",
"%. c #E5D9C5",
"&. c #EADAC7",
"*. c #E6D4CA",
"=. c #E8D6CB",
"-. c #E7D9CA",
";. c #EBDACC",
":. c #FAD0C9",
">. c #F0DDCF",
",. c #F6C6D1",
"<. c #F9C6D1",
"1. c #F6CAD3",
"2. c #FACAD4",
"3. c #F7CBD8",
"4. c #FBCDDA",
"5. c #ECD6D1",
"6. c #EDDBD3",
"7. c #EEDCDA",
"8. c #F2D4D5",
"9. c #F0DED4",
"0. c #F7D4DA",
"q. c #FDD2DD",
"w. c #F1DEDB",
"e. c #FCD9DF",
"r. c #F5E4CB",
"t. c #E5E5D4",
"y. c #E6E9D4",
"u. c #F2E0D6",
"i. c #FBE5D7",
"p. c #FEECD6",
"a. c #F3E2DB",
"s. c #FCE6DF",
"d. c #FDEBDB",
"f. c #FEF0DE",
"g. c #FED5E1",
"h. c #FDDBE5",
"j. c #FFDFE8",
"k. c #F6E3E1",
"l. c #FAE4E4",
"z. c #F6E9E3",
"x. c #FBEBE3",
"c. c #FEE1EA",
"v. c #FEF4E4",
/* pixels */
"          z.z.x.i.-.=.=.=.=.=.=.=.=.=.f.f.f.v.                    h.j.h.j.h.h.h.h.h.j.j.j.                                      ",
"  x.d.i.=.=.=.=.=.=.=.=.-.=.=.=.=.=.=.=.=.%.=.d.x.        l.h.h.g.g.q.q.q.q.4.g.g.g.g.g.g.g.h.h.c.c.                            ",
"=.=.=.=.=.=.=.=.=.=.=.=.=.=.=.=.=.=.=.=.=.=.=.=.=.=.s.c.q.q.0.q.q.q.3.0.4.4.4.4.4.4.q.4.g.g.q.g.q.g.h.j.c.                      ",
"=.=.=.=.=.=.=.=.=.=.=.=.=.=.=.=.=.=.=.-.=.=.-.=.=.=.-.2.2.2.2.2.3.q.3.q.4.4.2.4.3.4.4.3.3.3.4.4.q.q.q.g.g.h.h.c.                ",
"=.=.=.=.=.=.=.=.=.=.=.=.=.=.=.=.=.=.=.=.=.=.=.=.:.3.2.3.<.2.3.3.2.3.3.3.3.4.4.2.2.3.3.3.3.3.3.0.4.q.q.q.q.g.h.h.h.c.        x.x.",
"=.=.=.=.=.=.=.=.=.=.=.=.=.=.=.=.=.=.=.=.=.-.@.+.1.1.2.,.<.<.,.2.2.3.3.3.2.2.2.2.3.,.<.3.3.3.3.3.3.3.4.q.q.q.q.q.g.g.c.z.x.l.l.l.",
"=.=.=.=.=.=.=.=.=.-.=.=.=.=.=.=.=.=.=.=.-.+.,.,.1.,.,.,.<.,.2.2.<.3.3.3.4.3.2.4.<.3.,.<.3.<.1.1.3.2.q.4.4.q.q.e.h.h.k.k.k.k.k.z.",
"=.=.=.=.=.=.=.=.=.=.*.=.=.=.=.-.=.=.=.=.+.2.o.o.+.1.1.o.,.,.1.<./ O.<.( ( 2.4.( 3.3.<.,.<.,.,.,.2.2.2.2.4.4.q.0.w.a.a.k.a.a.k.a.",
"=.=.=.=.=.=.=.=.=.=.=.=.=.=.=.=.=.=.=.+.1.1.,.,.<.<.<./ 1.1.,.3.<.,.,.<.2.2.,.3.<.,.<./ <.<.<.,.<.2.2.2.4.0.7.7.w.w.7.a.a.a.a.u.",
"=.*.=.=.=.=.=.=.-.=.=.=.=.=.=.=.*.Y +.3.,.,.1.,.,.,./ ,.,.,.1.<.4.<.<.<.3.1.,.,.<.<.,.o./ ,.<.,.<.<.<.<.8.7.k.7.7.a.a.7.u.7.a.a.",
"=.=.=.=.=.=.=.-.=.=.=.=.=.=.-.=.+.o. .,.,.,.} ,.,.,.,./ <.,.<.,.<.2.<.,.<.,.<.<./ ,.,.o./ } <.<.<.( ,.5.7.7.7.a.7.u.7.a.a.w.a.a.",
"=.=.-.=.=.=.=.=.=.=.*.-.=.=.=. .| ,.,.3.} ,.,.,.! o.,./ ( / <.<.,.4.( <.( <.<.<.<.,.,.o.( ,.( O.O.<.7.0.7.7.7.h.7.u.u.u.7.a.a.7.",
"=.=.-.=.=.=.=.=.=.=.=.=.=.I ..} } } } ,.,./ ,./ ,.,.,.,.<.<.( 3.,.3.2.,.,.<.,.,.( } ! ,.o.( ( ^ +.8.6.6.7.7.w.w.7.a.a.7.a.9.u.a.",
"=.=.=.=.=.=.=.=.=.=.=.=.=.....o.3./ 3.! ! ~ / / / / / / <.<./ ,.o.<.,.<.<.<.,.,.,.} ( / ^ ~ / +.5.5.5.w.6.7.7.7.7.7.7.w.7.u.9.w.",
"=.=.=.=.=.=.=.=.=.=.=.=.U o./ o./ ! ! / ~ / / / / / ,./ o.<.2./ <.,.+.,.,.( o.,.! ! / ~ ( ^ X.5.5.5.6.5.6.6.7.9.a.7.w.9.a.u.9.a.",
"=.=.=.*.=.=.=.=.=.=.=.=...^ o.Q / / / ~ / / ,.,./ ! ! <.,.<.2.<.<./ ,.( o.o.! ! ! ~ / B N X.5.5.8.5.5.7.6.6.6.7.9.7.9.w.u.9.u.9.",
"=.=.=.=.=.=.=.=.=.=.=...O./ o.o.} o.,.} ! ! ! ,.,.,./ / <.o.2.o.,.o.+./ / ,.^ / Q B B W | 5.5.5.6.6.6.6.6.6.5.7.6.7.w.u.9.u.9.6.",
"=.=.-.=.=.=.=.=.-.$.V o.o.N ! ! ! } ,.! ,.! E } ,./ ,.E +.o.<.,.O.( O.O.! E m Q ~ B N  .8.5.5.5.6.7.5.6.5.7.7.7.6.6.w.=.9.u.9.9.",
"=.=.=.=.=.=.=.=.L V ^ Q / o.R ! E / / } ! ,.,.! ,.o./ o.o.,./ ( ( o./ / ! R m c h m } 5.5.8.5.7.6.6.5.7.5.5.6.6.u.9.a.9.u.9.;.u.",
"=.-.=.=.=.=.=.-.V Q o.! Q / ~ Q ,.E ! ! ! ! ,.! ,.,.! +.( / +.2.( ( / ! m l m i m  . .*.5.*.5.5.5.=.7.=.5.6.5.6.6.9.9.a.u.9.;.u.",
"=.=.=.=.=.=.=.N ] ] Q / ! W ! / ! / E o./ ,.! ! o.o.<./ o./ ,.o.,.! ! ! n i h c {  .5.=.5.*.7.5.5.6.7.*.*.6.6.6.6.9.a.u.9.>.6.;.",
"-.=.=.=.=.=.f Q ^ ..o.Q Q ! ! E ! / / } ! ,.,.,./ o.+.o.^ / ,.+.,.! n l j 1 j ]  .$.=.5.5.*.` 5.5.5.7.6.7.*.6.=.6.;.6.;.u.u.;.u.",
"=.=.$.=.=.a N Q / W ! ! R W } R ! ! E E ,.+.o.1.o.o./ / O./ +.o./ / n u 6 j ]  . .5. .*.*.5.*.` *.*.6.5.5.5.5.6.6.5.6.u.u.u.-.6.",
"=.=.=.=.y m ^ Q Q R R n ! R W ! } } +.Q } +.o.o./ / Q +.^ / o...Q m k 1 j Q |  .| 5.*.*.*.*.5.*.` 5.*.*.-.-.6.t.5.5.u.u.;.u.=.-.",
"$.=.=.$.c N ^ N Q Q R ^ ! R / Q / ! R ,.+.^ ( o.O.+.o.o.o./ ^ Q l p 1 j Q  . .| 5.| *.*.*.5.5.` *.6.6.6.6.=.=.u.=.6.u.;.u.;.;.-.",
"=.=.=.c N N m / Q Q E n W m Q o.} o.o.1.+.^ o.+.o.o. .o.../ ..x u < < ) | |  .| *.| *.| ` *.*.*.=.=.=.=.6.u.-.u.u.u.6.-.t.=.-.D ",
"=.=.t N W Q R l R R h E R R Q Q Q o.Q 2.o.o.o.....+.o.o.Q / Q u 1 > v ] | *.*.| *.*.` #.*.*.*.*.=.=.6.6.=.6.;.>.;.u.%.6.=.=.D +.",
"=.; f m N m Q Q E E E E l m ! ..Q o.+.o.+.2...O...+.O.o...m u < * x K  .|  .=.| *.| *.| ` 5.*.=.=.=.=.;.;.-.;.u.u.u.;.-.-._ +.+.",
"& a c n N m m n R R R N j k N / ! ,.( O.N @.O.O.o.+.......l * $ p K ' | | | ` [ ` ) *.*.` #.=.$.#.=.6.7.=.u.;.>.6.6.-.-.) Z +.+.",
"p c N n p c l n R R R k k k k Q o.o...V O.....o.+.....Q x - @ 7 J ' { | | | | ` *.=.) ) #.#.$.=.=.=.=.;.;.;.6.u.u.7.-._ Z +.+.+.",
"c c m c n m c n m l u m ! ] ~ m o.+.o.^ O.@.2.@.+...X.N 6 o 3 e K | ) | [ ` #.) #.*.| *.*.=.$.-.=.=.=.6.>.u.;.u.;.;._ Z +.+.+.+.",
"x m x x x x N m l k n Q W Q / ..~ ^ +.^ ....@.+.o.^ Q j @ = e K ' ' ` | | ) ` | ` *.) #.=.#.=.=.-.-.=.;.u.;.u.;.-.%.D +.+.+.+.+.",
"n l k 6 n Q n l j m Q W N N ..Q O...( ....O.+.O.o.o.n $ $ q M ' ' [ ` ` ) ) ` | ) #.=.) =.#.*.=.=.-.=.9.>.;.u.;.%.G +.+.+.+.+.+.",
"l n n n l q m W R x N N Q ~ o.N +.^ ..+...O.X.X.] m * X q S ' ' [ [ ` | | ` ) ) ) #.#.=.*.#.=.=.=.=.;.;.;.>.;.&.D +.+.+.+.+.+.+.",
"x l l j n l n m W n N N N Q ..V +.^ ~ +.@...O...N 2 . 4 M S ) S ) ) ) | ` ) ) [ #.#.#.#.=.*.=.=.;.;.;.>.;.;.%.H +.+.+.+.+.+.+.+.",
"u p l j l e x x N N Q N N ^ ..^ ..O.Y +.@.O.O...3 . 2 e J ' S F ) ) ) ` ` ) [ *.F #.#.#.=.#.-.#.>.-.;.;.;.;.H +.+.+.+.+.+.+.+.+.",
"j j x x u x j m m n N W ..N ../ X.+...+.@.+.O.f . = q C S w Z S ) ) ) ) ) ` ) =.F =.#.#.$.=.=.&.;.;.>.>.%.T +.+.+.+.+.+.+.+.+.+.",
"x x j x M M m l N N N Q Q N ......o...+.@...n + $ 9 M S S S C ) ) ) ) ) ) #.#.-.#.#.) #.=.$.=.&.;.;.;.;.%.+.+.+.+.+.+.+.+.+.+.+.",
"j j j 7 j j n N c m N ^ ~ ] ....+.O...@.+.N $ O 8 v S F S S F F ) ) ) ) ` ) ` *.#.#.$.#.=.#.;.;.>.;.&.T +.+.+.+.+.+.+.+.+.+.+.+.",
"q n n n M x m Q N c N ^ N N ....+.O...+.] > . 4 q e S S F ) S S F D ) ) [ ` *.` =.[ #.&.=.-.-.&.;.;.&.G +.+.+.+.+.+.+.+.+.+.+.+.",
"x j j M n n M Q N ..N V ^ L V +...+.O...t . : 9 e S ) ) S ) F F ) ) ) F #.#.#.#.-.#.#.=.;.;.;.>.;.&.A +.+.+.+.+.+.+.+.+.+.+.+.+.",
"x n n M N N N N N N N m N ....O.@.....f . : 9 e e S S ) S S ) F A P #.#.#.#.#.#.=.=.#.-.-.-.;.;.;.H +.+.+.+.+.+.+.+.+.+.+.+.+.+.",
"j n x x M N N N ] Q N V V X.o...@...b o # 8 w w S S ) D ) ) ) F F A H P P #.#.&.#.=.=.=.;.;.;.%.H @.+.+.+.+.+.+.+.+.+.+.+.+.+.+.",
"n n M x N N N N N Q V m ] ....o.Y V + % 8 w w C S S S S ) F ) ) #.F F #.#.#.#.#.#.#.-.6.;.;.&.%.+.+.+.+.+.+.+.+.+.+.+.+.+.+.+.+.",
"x m N m n N Q m N ] ..N ] X.....U = + 8 0 C S S S S F S F F ) ) #.F #.#.#.#.[ #.#.-.&.=.;.;.%.+.+.+.+.+.+.+.+.+.+.+.+.+.+.+.+.+.",
"m x m M N N N N ] ^ ..V ] ..+.V > % , 0 C C C C S ) ) F F [ _ F #.H #.#.&.#.$.$.-.=.-.;.6.-.+.+.+.+.+.+.+.+.+.+.+.+.+.+.+.+.+.+.",
"N m Q M L m N ] Q L ..V ..X..., + 2 9 w C C F F P F [ F ' _ F #.#.T $.#.#.#.-.&.;.;.&.-.-.+.+.+.+.+.+.+.+.+.+.+.+.+.+.+.+.+.+.S ",
"b m L m Q L N ^ ..Q X.V X.U t # 5 9 e e C C F S F F ) ) [ [ [ ) #.#.$.#.#.#.-.;.;.;.&.&.+.+.+.+.+.+.+.+.+.+.+.+.+.+.+.+.+.+.+.+.",
"N L N N m N Q Q ^ ..] ..X.d & , 8 0 J S K C F F F ) ) F _ [ #.#.#.#.#.$.$.&.&.&.&.;.&.+.+.+.+.+.+.+.+.+.+.+.+.+.+.+.+.+.+.+.+.+.",
"x m N N b N U ....U ..Y f : 5 0 w e K A P A S ) ) ) [ ) ) F #.#.#.#.=.*.=.;.-.;.-.&.+.+.+.+.+.+.+.+.+.@.+.+.+.+.+.@.+.+.+.+.+.S ",
"] W N N L L N ......X.f , 5 g w e C C K A S F ) ) #.#.[ #.#.#.#.#.#.$.=.&.=.;.-.-.+.+.+.+.+.+.+.+.+.+.+.+.+.+.+.+.+.+.+.+.+.+.+.",
"N N N ] L V N U U ] d , s 9 C J K F F F F F P #.#.F F #.#.#.#.#.#.#.$.&.&.&.-.%.+.+.+.+.+.+.+.@.+.+.+.+.+.+.+.+.+.+.+.+.+.+.+.+.",
"Q N m ] ] U U L Y f 5 9 v C C K P P F F A [ F [ ) [ #.#.T $.#.=.&.&.=.=.;.&.%.+.+.+.+.+.+.+.+.+.+.+.+.+.+.+.+.+.+.+.+.+.+.+.+.+.",
"b M N ] L ..L U L 8 d v v J K F P F ) F ) A #.#.#.#.#.#.#.&.$.$.#.-.&.=.&.T +.+.+.+.+.+.+.+.+.+.+.+.+.+.+.+.+.+.+.+.+.+.+.+.+.+.",
"N N L L U ..U L 9 g v C K P P P P P ) [ [ P F #.T #.#.#.$.&.#.&.=.-.;.&.H +.+.+.+.+.+.+.+.+.+.+.+.+.+.+.@.+.+.+.+.+.+.+.+.+.+.+.",
"L N ] ] ] U L g g J J J P F P ' P [ F ) #.#.#.) [ #.#.#.#.=.#.=.&.&.%.O.+.+.+.+.+.+.+.+.+.+.+.+.+.+.+.+.+.+.+.+.+.+.+.+.+.+.+.+.",
"] U { L U L g g J K P P P P F P [ [ [ [ $.#.$.#.#.=.-.-.&.$.=.=.-.T +.+.+.+.+.+.+.+.+.+.+.+.+.+.+.+.+.+.+.+.+.+.+.+.+.+.+.+.+.+.",
"L L U Y J J J L J K P P P #.T #.[ [ [ $.#.#.&.#.#.$.&.=.=.&.;.%.G +.+.+.+.+.+.+.+.+.+.+.+.@.+.+.+.+.+.+.+.+.+.+.+.+.+.+.+.+.+.+.",
"L ..U J J J P P T P $.[ [ [ [ [ #.#.#.#.#.#.=.#.#.-.=.=.#.;.%.+.+.+.+.+.+.+.+.+.+.+.+.+.+.+.+.+.+.+.+.+.+.+.+.+.+.+.+.+.+.+.+.+.",
"..' L P P P P P P $.P &.#.[ $.$.[ &.=.$.#.&.&.=.-.=.%.=.-._ +.+.+.+.+.+.+.+.+.+.+.+.+.+.+.+.+.+.+.+.+.+.+.+.+.+.+.+.+.+.+.+.+.+.",
" .{ { P { $.$. .*.$.$.| $.#.#.&.&.=.=.;.&.&.;.6.;.;.6.a.z.t.+.+.+.+.+.+.+.+.+.+.+.+.+.+.+.+.+.+.+.+.+.+.+.+.+.+.+.+.+.+.+.+.+.+.",
"s.a.u.;.&.-.&.&.=.$.=.&.=.=.;.=.;.-.;.;.6.t.u.a.z.            t.+.+.+.+.+.+.+.+.+.+.+.+.+.+.+.+.+.+.+.+.+.+.+.+.+.+.+.@.+.+.+.+.",
"        s.a.a.u.9.9.9.>.>.>.>.>.9.>.u.a.a.s.                      y.+.+.+.+.+.+.+.+.+.+.+.+.+.+.+.+.+.+.+.+.+.+.+.        x.p.r.",
"                    x.x.z.z.x.                                          +.+.+.+.+.+.+.+.+.+.+.+.+.+.+.+.+.                      "
};
