/* XPM */
static char *_416ebd8a629403eab7ad78c36c3ca74ZXKsSLqkQlKB9ZDg[] = {
/* columns rows colors chars-per-pixel */
"64 64 247 2 ",
"   c None",
".  c #050201",
"X  c #0B0503",
"o  c #0E0906",
"O  c #0F0B08",
"+  c #130503",
"@  c #120A07",
"#  c #130D0B",
"$  c #1A0C0B",
"%  c #1A0606",
"&  c #16110E",
"*  c #19110E",
"=  c #161211",
"-  c #1C1413",
";  c #1E1A1A",
":  c #1E1816",
">  c #1B0F10",
",  c #230C0B",
"<  c #23120E",
"1  c #221313",
"2  c #2B1413",
"3  c #221A16",
"4  c #231C1C",
"5  c #2C1C1D",
"6  c #271718",
"7  c #35191B",
"8  c #350B09",
"9  c #28211E",
"0  c #37221F",
"q  c #2A1E22",
"w  c #351E23",
"e  c #252222",
"r  c #2B2324",
"t  c #2D2A2A",
"y  c #2D2727",
"u  c #34262A",
"i  c #322B2B",
"p  c #3B2B2C",
"a  c #362423",
"s  c #3E312E",
"d  c #332E32",
"f  c #3B2E32",
"g  c #353233",
"h  c #3B3334",
"j  c #3C3439",
"k  c #3D393B",
"l  c #373439",
"z  c #460C0A",
"x  c #5B1518",
"c  c #4D1213",
"v  c #7B0706",
"b  c #76070A",
"n  c #68171A",
"m  c #731016",
"M  c #731D21",
"N  c #452929",
"B  c #58262A",
"V  c #492D32",
"C  c #42353B",
"Z  c #433C3D",
"A  c #473435",
"S  c #573A3B",
"D  c #533031",
"F  c #672527",
"G  c #752527",
"H  c #6C3537",
"J  c #763437",
"K  c #6D2B32",
"L  c #5F1F20",
"P  c #50413D",
"I  c #77403E",
"U  c #443C42",
"Y  c #493B43",
"T  c #583D40",
"R  c #6B3C42",
"E  c #712F6B",
"W  c #464344",
"Q  c #4C4344",
"!  c #4D4A4B",
"~  c #4D444A",
"^  c #56484A",
"/  c #564D53",
"(  c #5B5658",
")  c #684547",
"_  c #744548",
"`  c #675858",
"'  c #73585B",
"]  c #734E50",
"[  c #625D61",
"{  c #7B5D62",
"}  c #696367",
"|  c #766669",
" . c #7B7377",
".. c #726D73",
"X. c #880D14",
"o. c #861213",
"O. c #88161B",
"+. c #981219",
"@. c #93090F",
"#. c #AD0105",
"$. c #A8030A",
"%. c #B40105",
"&. c #BB0203",
"*. c #BC040B",
"=. c #B4040C",
"-. c #AA0816",
";. c #B80415",
":. c #B81218",
">. c #A91219",
",. c #891C23",
"<. c #921A25",
"1. c #AA1826",
"2. c #BA1925",
"3. c #A9183D",
"4. c #892327",
"5. c #89393A",
"6. c #933236",
"7. c #B9252C",
"8. c #BB2D34",
"9. c #A8373D",
"0. c #B32D2F",
"q. c #C30203",
"w. c #CC0204",
"e. c #C3030C",
"r. c #CB030B",
"t. c #CB0B0D",
"y. c #D40103",
"u. c #DB0104",
"i. c #DB030B",
"p. c #D5070C",
"a. c #C30514",
"s. c #C60817",
"d. c #D50313",
"f. c #DB0C13",
"g. c #D90718",
"h. c #C81419",
"j. c #D5161A",
"k. c #E20105",
"l. c #E4020B",
"z. c #EB010D",
"x. c #E50313",
"c. c #EB0213",
"v. c #E7081A",
"b. c #E4121E",
"n. c #C81925",
"m. c #D71826",
"M. c #D10C21",
"N. c #E60D23",
"B. c #E41423",
"V. c #E41A25",
"C. c #E81927",
"Z. c #C92527",
"A. c #D3222C",
"S. c #DB222E",
"D. c #D62626",
"F. c #DA2931",
"G. c #CB393C",
"H. c #D43235",
"J. c #D6373A",
"K. c #C52D34",
"L. c #E8232D",
"P. c #E42B35",
"I. c #E53438",
"U. c #F22C33",
"Y. c #DA403E",
"T. c #883748",
"R. c #BB3E41",
"E. c #862059",
"W. c #D13E44",
"Q. c #E63B42",
"!. c #85474A",
"~. c #884B54",
"^. c #88575A",
"/. c #9F434F",
"(. c #BC484A",
"). c #AD5154",
"_. c #965C66",
"`. c #895C62",
"'. c #876769",
"]. c #98696C",
"[. c #836D72",
"{. c #887778",
"}. c #977778",
"|. c #8E6D70",
" X c #A5696C",
".X c #A06D70",
"XX c #8E655B",
"oX c #CD4344",
"OX c #CD4B4B",
"+X c #C54447",
"@X c #D34C4B",
"#X c #D84646",
"$X c #C74D52",
"%X c #CA5958",
"&X c #D55858",
"*X c #D2504F",
"=X c #E54747",
"-X c #E65856",
";X c #E9524F",
":X c #D3625E",
">X c #EA625E",
",X c #CC6868",
"<X c #D66765",
"1X c #CA7575",
"2X c #D67777",
"3X c #D26F6E",
"4X c #E96864",
"5X c #E77A76",
"6X c #E77171",
"7X c #E65C62",
"8X c #92837B",
"9X c #E9837E",
"0X c #343988",
"qX c #4A4F97",
"wX c #6F608B",
"eX c #877D84",
"rX c #977F82",
"tX c #A37D84",
"yX c #CB7B81",
"uX c #898488",
"iX c #978788",
"pX c #938B96",
"aX c #A7888D",
"sX c #AA8B92",
"dX c #A69696",
"fX c #B09394",
"gX c #9593A6",
"hX c #A89CA2",
"jX c #B69BA8",
"kX c #B5AAB0",
"lX c #D08F90",
"zX c #EC8885",
"xX c #ED9591",
"cX c #F3A19F",
"vX c #CAB2B5",
"bX c #EFA8A5",
"nX c #F2AAA7",
"mX c #F2BFBB",
"MX c #C29AA3",
"NX c #F2C1BC",
"BX c #BABCCE",
"VX c #C3BDC9",
"CX c #F4CAC5",
"ZX c #F3D3CF",
"AX c #F7E1DE",
"SX c #CFD5ED",
"DX c #D4C4C8",
/* pixels */
"                                                                                                                                ",
"                                                      [ W k l g g Z ! (                                                         ",
"                                                    ( t g l l l l g g g k                                                       ",
"                                                    W g l l l l l g g g k (                                                     ",
"                                                  [ k d d g g g d d d d g !                                                     ",
"                                                  } k t t y y t t t g l k k                                                     ",
"                                                  k 9 9 e y e ; e t W W l W [                                                   ",
"                                              W t 4 - & - ; ; e e r 4 ; ; 9 t !                                                 ",
"                                            Q 9 # * p l k g ; = - t ( } i 9 < 1 g                                               ",
"                                            3 @ @ @ @ - - ; ; = - = - t h i : * - Q                                             ",
"                                          l @ + + @ O = ; ; 4 e e l l e & # O & $ r iX                                          ",
"                                      ( Q s 9 4 Q r 9 e e e q e t g k g y r y t A P ..                                          ",
"                        / ` ) S A V V N s a 4 : * = = = = # = = = & * * 3 9 y t g Q ` ' [.{.8X .{.                              ",
"                      P P P A 0 2 2 2 2 3 1 @ @ @ O X X O O O # # : 3 9 & = ; 9 y i g h P P ) ' ' [.8XdX                        ",
"                    ` D N N 0 2 , , , , < < # o @ @ X X X X X . X X # : & : ; 4 4 4 9 r N V D N D P XX8XdX                      ",
"                    P N N 2 2 , % % + @ @ # @ . o @ @ O . . . . . X O & - = - - : : ; 4 N V N N N D P I {.                      ",
"                  [ P 0 2 < , , + + + . . % @ . . O # & # X X X @ * 4 - - - 3 ; 4 4 4 4 u V w w 0 N s A `                       ",
"    ,X$XG.Z.j.G.  } A 9 < 2 $ , % + . . . X + X . X @ & O . . # # - 3 3 4 : & & 5 e q ; r p w 7 0 0 a i ^     $X#X=X-X          ",
"1XG.j.y.y.y.i.A.  ` a 4 3 < < , % + . . . . X X . X @ # O O X # # - 3 : 3 = @ - e r ; ; r u 6 6 5 7 a t h     7.N.v.N.c.C.;X    ",
":Xh.g.M.m.F.j.n.  ( a 4 : 2 < * * X X X . . @ @ X o @ # @ O O @ @ $ - # * & & 3 4 ; = ; e q 6 6 5 r y t u `   1.m.6X5X6X6XQ.-X  ",
"W.;.a.r.r.y.y.7.[.P i 4 6 2 2 < & & O O o o @ @ o X @ @ @ @ o $ & & * - * - 3 3 4 ; ; 3 y e ; 5 w w a i i ^   9.a.N.U.Q.Q.P.=X  ",
"  ).R.9.1.=.&.(.[.s s t 9 3 9 3 3 : & & # # * * @ @ @ = & @ @ + - $ - 3 3 9 9 9 9 5 9 9 i y 4 5 r u i s A P 8X9.a.B.W.&X-X      ",
"          ;.w.).).4.M G G G M F M M M n M n n n n x x x x x n x n x x x L B F B H H R ) ] ) ) ) ) ) I I J 5.).  d.g.            ",
"          :.w.;.7.(.&.=.#.#.#.#.#.#.#.%.%.&.%.%.#.%.%.#.#.#.$.#.#.=.%.%.&.&.&.&.=.&.&.e.;.:.h.h.h.n.Z.Z.Z.:X5XD.g.S.            ",
"          h.y.q.*.<X8.%.&.%.%.%.#.&.&.&.&.&.&.&.%.%.%.%.$.#.%.%.%.%.*.&.q.q.q.&.q.r.r.w.e.s.h.j.t.h.j.j.G.mXI.z.V.L.            ",
"          lX$X&.&.%X,XOXK.2.7.7.8.2.&.&.e.;.;.*.&.%.*.*.t.e.e.t.r.r.t.t.t.q.w.w.h.h.n.s.a.<X5X&X@X#X&XlXCXZXx.v.Q.7X            ",
"          lX(.&.&.OX*X%X%X:X&X%X%X*XG.G.oX+XOXn.q.&.oX*X*X*X*X*X&X&X:X3X6X:Xt.w.Z.6X<X*X@XmXZXNXCXCXZXCXCXNXC.C.7X              ",
"        MX$Xe.a.oX&XOXOXOXOXOXOXoXoX:X<X&X&X&X@XZ.t.w.t.Z.H.J.J.#X#X#XY.D.t.p.H.6XxXxXzX9XxXcXbXnXnXbXbXbXbXcXQ.=X              ",
"        3Xn.W.,X,X%XoXoXoXoXoXW.G.H.W.@X#X#XW.oX#X#XJ.H.D.D.S.D.D.D.D.F.J.#X;X-X>X>X:X&X-X4X6X9X5XzXzXzX9XzXCXCXzX7X            ",
"        lX3X,X3X$X$XG.G.G.J.G.G.H.A.m.H.J.G.J.J.H.H.H.H.H.H.F.J.I.J.Q.J.Y.=X#X=X;X*X;X=X=X;X>X>X4X4X4X4X4X6XcXCXAXAXnX          ",
"      lX2X,X,X<X$XOXOXH.A.A.A.m.m.m.M.M.m.m.F.S.S.S.S.S.S.S.m.S.F.P.P.I.F.I.I.I.I.I.I.P.P.I.Q.=X=X=X=X=X;X4XyXnXmXCXAXxX        ",
"    MX1X<X<X%X@XoX#XG.m.d.d.d.d.d.d.d.d.g.g.g.M.g.m.m.m.S.S.L.S.D.F.D.P.P.P.L.D.V.V.b.b.C.b.C.C.C.C.b.L.U.;X;X7XzXnXxX6XzX      ",
"  9X1X].}.(.oXG.K.t.w.y.y.u.y.u.y.y.u.u.u.d.x.g.g.g.v.m.m.B.B.b.V.C.V.V.B.B.b.b.v.v.v.x.x.v.c.c.l.c.c.v.C.C.U.U.=X%XvXmXxXzX    ",
"  ,X(.].|.'.5.2.t.y.w.y.w.p.f.j.j.f.f.f.f.i.l.k.k.u.k.k.k.k.k.k.l.z.z.z.z.z.z.z.c.c.x.c.v.v.C.C.C.P.C.N.v.N.N.K.~.'.|.lX-XcX    ",
"  1X1.{.] H _ ] 5.:.m.n.j.p.i.u.u.u.u.k.k.k.k.k.k.l.l.l.z.l.z.z.z.x.z.z.c.z.z.c.c.c.c.c.c.c.c.v.v.U.U.C.N.n._ ] _ H [.fXJ.xX    ",
"  ,X0.dX8X] ~._.{.'.6.n.h.m.d.f.f.p.r.r.r.w.e.e.e.e.e.&.*.q.a.e.t.t.a.a.;.a.a.a.s.s.M.h.M.D.m.F.I.U.U.A.!.[.[.^.~.[.dXfX#X4X    ",
"  2X/.dXjXVXfX~.].8XdXH n.-.c p S f f j j k k j C C C A s B G M M x / / ^ Y ^ ~ ! ! ~ ~ ! ! / A c A.C.rXdXeX]._.DXSXkXiX>X4X    ",
"  2X9.iXBXSXhX..~.^.8X' 2.-.|.`.'.`._.`.`.^.] ~._ !.J J [.` = O O ^ aX6.5.5.T.!.^.].tXaXMXvXjXsX}.-.m.kXvX_.~.[.VXBXdX}.;X6X    ",
"  9XoX~.wXgXeX .pX.X!.8X-.-.S ' uXkXkXjXjXdXdXrX|.` |.|  .# # # # & | [.}.' ' [  .{.iXdXhXhXpX} ~ ;.a.sX$XlXgX{.{.pX| K.;X9X    ",
"  3X%X&.4.| ..eXSXkXJ _.,.s.x ! ! ! W P C k l g d i u ^ W @ = # O & 4 k r u g C k ! ! ( ` ......R d.,.R._.VXBXwXeX] h.v.;X6X    ",
"  1X,Xj.y.%.,.) gXdX/ G B ;.n..XiXhXhXuX..( ! W k l g ( W @ # = & # y  .U W Z W ! [ {.hXVXvXkX].2.e.K 6.{.kXrX<.a.c.c.C.;X4X2X  ",
"  1X%X2.a.d.i.w.=.O.F S D O.a.).) ] | iXiXdXpX{.| ^ [.}  .* = # & & | pX[.` ` ` } {.{.| ' ` / O.d.O.R _./.s.g.c.c.v.N.m.Q.-X2X  ",
"].2X$X2.;.;.a.r.y.y.w.*.@.X.-.e.+.N Z ~ W C A p p N P P {./ * * = / } ^ Z p p k ~ / ` } [ ^ O.d.d.:.s.x.b.U.N.x.l.x.x.N.J.;X3X  ",
"XX1X(.:.;.;.;.;.&.q.w.f.f.y.w.:.t.:.>.n V k W ! / ~ Q Z C ^ ^ T ^ ` P ^ [ } } [ ( / ~ K +.t.j.7XI.I.=XJ.I.v.i.k.k.l.v.N.P.#X,X  ",
"`.,XK.-.-.;.;.=.%.%.%.&.h.h.D.J.&X:XH.w.w.*.#.@.o.n x 0 w 5 , , 2 f V D B F O.+.-.a.r.i.m.-X6XW.Q.J.l.i.u.k.k.i.i.d.s.s.m.Y.%X  ",
"^.,X+.n V B M +.$.#.#.#.%.%.&.&.h.K.oXH.w.w.y.y.y.u.w.w.q.&.*.a.q.w.r.r.i.i.u.u.f.u.y.i.f.d.u.y.y.y.u.u.u.u.r.-.m B V B =.P.$X  ",
"_ $Xb N h h f u N x X.$.#.%.&.%.&.&.q.q.w.q.3.E.E.E T.!.~.^._..X}.tXsXsXfXjXjXvX2Xw.y.y.y.y.y.y.y.y.w.*.X.n w u f U Y U m m.+X8X",
"!.9.b h A h l f u 9 : 4 z b @.#.#.&.q.&.q.e.E.qXqX0X( C Y / ~ [  .uXuX .eXgX..BXlXw.y.y.y.y.w.q.$.m 2 q w f C C j Y W Y M :.W...",
"J 0.n s h g g p i r 4 4 4 6 m >.-.-.=.&.*.=.E.qXqX0X/ U U ~ / [ {.wXeX} gXiXeXBXlX%.r.y.w.a.;.-.-.a u f f C C C f U Y U K i.K. .",
"J 7.4.A f s s g u r 4 4 6 7 1.2.2.;.=.b z 5 3.qXwXE ] R ] ^.`.|.8XtXsXaXfXjXjXMX]., 8 v r.N.C.N.g.,.f j j j f j j C U Y /.Q.K.{.",
"K 8.2.G V g d d a r 5 4 q <.:.2.:.$.z @ @ # x b b b b b v v v v X.v v v v v b b c $ $ $ z e.B.B.m.M.D j j j C A j U Y 5.I.&X8.  ",
"H 8.a.:.>.4.G K N 0 r q F 7.2.s.$.8 $ - - : - - # $ $ $ % $ $ % @ % $ $ @ * - 4 6 6 : > & z *.m.B.B.3.K D K 4.<.1.7.m.N.v.p.W.  ",
"H 8.2.s.q.w.y.w.w.e.*.=.2.K.s.@.8 < 3 3 3 3 3 1 > 1 1 1 - 1 1 1 1 1 1 3 6 r u u u u q 5 < 1 z =.N.B.b.l.l.z.l.l.z.x.N.N.g.S.$X  ",
"S ).G.h.e.t.r.w.y.y.y.y.M.n.=.X.o.X.X.@.@.X.o.o.X.X.o.o.o.X.o.o.o.o.o.o.O.O.4.<.4.,.,.,.,.M b b *.B.C.b.v.l.l.l.x.g.B.V.I.R.R   ",
"g 9 L 4.1.s.r.u.w.w.w.w.w.q.w.y.y.y.p.p.p.y.y.y.y.y.u.u.u.u.y.y.u.u.u.u.u.u.k.u.u.u.u.u.i.i.k.i.u.j.j.V.v.l.z.x.b.n.2.4.D t f   ",
"P : = - $ 8 c G +.:.h.t.y.y.p.s.s.                                                            f.d.B.j.b.j.g.  n c 6 4 3 r t l   ",
"P ; : - & & & P h                                                                                             5 - ; ; ; t d l   ",
"  9 ; & & * & 9 `                                                                                             A = q e ; t l U   ",
"  ! t : # - - & 2                                                                                               > ; q ; t       ",
"      y & & &                                                                                                   r - = q         ",
"                                                                                                                                ",
"                                                                                                                                ",
"                                                                                                                                ",
"                                                                                                                                "
};
