/* XPM */
static char *eddda66891b749d1f49995a4fc1a988fIfY6GMEbk1mqBDQy[] = {
/* columns rows colors chars-per-pixel */
"64 64 242 2 ",
"   c None",
".  c #050404",
"X  c #0A0505",
"o  c #0D0B0B",
"O  c #0C0808",
"+  c #120D0D",
"@  c #180809",
"#  c #11100F",
"$  c #130E11",
"%  c #141313",
"&  c #1A1515",
"*  c #171619",
"=  c #1C1B1C",
"-  c #1A1719",
";  c #0E0E10",
":  c #221C1D",
">  c #291415",
",  c #3A1A1A",
"<  c #2E0908",
"1  c #21211F",
"2  c #2E1F21",
"3  c #1F2225",
"4  c #232223",
"5  c #252429",
"6  c #2D2C2C",
"7  c #292627",
"8  c #322829",
"9  c #2E2D30",
"0  c #343333",
"q  c #3A3736",
"w  c #3C3A3C",
"e  c #363538",
"r  c #363130",
"t  c #1F1F21",
"y  c #580605",
"u  c #4B1615",
"i  c #551919",
"p  c #5A110F",
"a  c #680404",
"s  c #761A18",
"d  c #6C1213",
"f  c #4F3233",
"g  c #662426",
"h  c #722E30",
"j  c #471F21",
"k  c #41403F",
"l  c #3D3D41",
"z  c #423F42",
"x  c #4A3D41",
"c  c #763F42",
"v  c #3B4248",
"b  c #444344",
"n  c #44444A",
"m  c #4C4B4C",
"M  c #4B4547",
"N  c #4D4C53",
"B  c #544E53",
"V  c #535253",
"C  c #53545A",
"Z  c #5B5B5B",
"A  c #59575A",
"S  c #4F5356",
"D  c #764546",
"F  c #655355",
"G  c #6F4B50",
"H  c #595C61",
"J  c #765D61",
"K  c #596368",
"L  c #5E6771",
"P  c #636263",
"I  c #6B6A6B",
"U  c #69666A",
"Y  c #6B6C72",
"T  c #736A72",
"R  c #757475",
"E  c #7B7B7C",
"W  c #77757B",
"Q  c #6D6B6F",
"!  c #830A0A",
"~  c #970505",
"^  c #871916",
"/  c #971915",
"(  c #86130F",
")  c #AB1B18",
"_  c #B0160D",
"`  c #94201D",
"'  c #A7221C",
"]  c #B7231B",
"[  c #852726",
"{  c #98393B",
"}  c #893132",
"|  c #A62524",
" . c #A73836",
".. c #BA3B38",
"X. c #B62B26",
"o. c #CA1612",
"O. c #C3231D",
"+. c #D9231C",
"@. c #E6251A",
"#. c #FB2719",
"$. c #D92B27",
"%. c #DD362C",
"&. c #C93A35",
"*. c #D93A36",
"=. c #C72D29",
"-. c #E42A25",
";. c #FC2D24",
":. c #F22C22",
">. c #E9332D",
",. c #FA3127",
"<. c #FC352B",
"1. c #FC392D",
"2. c #F4332A",
"3. c #EC3C35",
"4. c #E73D39",
"5. c #FC3B33",
"6. c #FB3E39",
"7. c #F63A33",
"8. c #E01F15",
"9. c #B2413E",
"0. c #DD413C",
"q. c #EA423D",
"w. c #E54339",
"e. c #FB433C",
"r. c #F6423B",
"t. c #A23E42",
"y. c #D63E41",
"u. c #E63E43",
"i. c #944749",
"p. c #905056",
"a. c #B64A4D",
"s. c #927173",
"d. c #AB6B70",
"f. c #AA5D68",
"g. c #C94747",
"h. c #DB4645",
"j. c #D95758",
"k. c #CB5056",
"l. c #E94946",
"z. c #F54542",
"x. c #FB4642",
"c. c #F44945",
"v. c #FB4A45",
"b. c #F44D4B",
"n. c #FA4D4A",
"m. c #FA514D",
"M. c #F7504A",
"N. c #F74D53",
"B. c #E85657",
"V. c #F35453",
"C. c #FA5452",
"Z. c #F45A5B",
"A. c #F7545C",
"S. c #EA4E53",
"D. c #EC615E",
"F. c #F6625D",
"G. c #EE5E61",
"H. c #F75D65",
"J. c #C86768",
"K. c #D56569",
"L. c #DC6D73",
"P. c #C67575",
"I. c #DC777A",
"U. c #C56F70",
"Y. c #E96465",
"T. c #F36262",
"R. c #F7666B",
"E. c #F76874",
"W. c #ED7479",
"Q. c #E87476",
"!. c #F47376",
"~. c #F87679",
"^. c #EF7171",
"/. c #C85A61",
"(. c #8F817D",
"). c #7B7C84",
"_. c #6C7086",
"`. c #887E84",
"'. c #AF7B80",
"]. c #DE7E84",
"[. c #E77C83",
"{. c #F87583",
"}. c #7E81A2",
"|. c #828183",
" X c #8B8B8C",
".X c #86868A",
"XX c #868996",
"oX c #939294",
"OX c #9B9B9B",
"+X c #969698",
"@X c #928F92",
"#X c #A19798",
"$X c #A68B8E",
"%X c #9B9CA2",
"&X c #9199B5",
"*X c #A2A2A4",
"=X c #ABABAC",
"-X c #A7A6A9",
";X c #ABACB1",
":X c #B3B3B4",
">X c #BBBBBB",
",X c #B7B7BA",
"<X c #AFB0B3",
"1X c #C4878A",
"2X c #D98588",
"3X c #D39596",
"4X c #D18E95",
"5X c #E8878A",
"6X c #F78589",
"7X c #E48C93",
"8X c #EC8E94",
"9X c #F38C92",
"0X c #FC8D93",
"qX c #E8979B",
"wX c #F39997",
"eX c #EE918E",
"rX c #EA9DA3",
"tX c #D5A5A6",
"yX c #D3ACB0",
"uX c #EAA4A8",
"iX c #F3ABAA",
"pX c #ECB2B7",
"aX c #F4B8B8",
"sX c #EAABB1",
"dX c #F2A09B",
"fX c #BFBEC2",
"gX c #EDBCC1",
"hX c #C1BEC2",
"jX c #BBC0DB",
"kX c #C3C2C4",
"lX c #CACACC",
"zX c #CCCDD1",
"xX c #D6D4D5",
"cX c #D2CDCE",
"vX c #F4C7C6",
"bX c #F6D5D7",
"nX c #E7CED3",
"mX c #E9E7E8",
"MX c #F9E8EA",
"NX c #FBF9F9",
"BX c #E9EBF4",
"VX c #FBDEE0",
/* pixels */
"                                                                                                                                ",
"                                                                                                                                ",
"                                                                                                                                ",
"                                                                                                                                ",
"                                                                                                                                ",
"                                                                                                                                ",
"                                                                                                                                ",
"                                                                                                                                ",
"                                                                                                                                ",
"                                                                                                                                ",
"                                                                                                                                ",
"                                                                M M b Z                                                         ",
"                                P Z I K P                 R q = m }..Xm k *X                                                    ",
"                              b 1 * = = 1 0           P k K :XmXNXNXNXNXoXm                                                     ",
"                            b 7 3 * * * * = N       M 9 :XmX>X-X:XlXBXmXR m                                                     ",
"                          Z 9 e = % % * * * q P   P # b E (.(.}.(.E R b Z                                                       ",
"                          0 6 e % % % % * * 6 6 M - Z 9 v e 6 * % t 9 R ).                                                      ",
"                        6 6 = 3 % % ; % % * = = * X tXgXq O . o ; * 9                                                           ",
"                qXB.>.' = = * % o o o O O + % * $ X f p.D i. .9.a.a.Y.Y.K.I.L.U.P.P.U.U.U.U.2X                                  ",
"              pX4.-.-./ = = % o * * * & @ & j k.Q.Y.y.h.g.9.i.{ c c f x f M N C C C C C N S H 1X                                ",
"              vX*.$.O.2 = = # O o # # o o + { m.>.j t 5 5 5 5 5 6 e l n N v N n n N N N N N H T 4X    T.c.B.I.                  ",
"            MXMXJ.' d 1 1 % # o % * * = % *  .e.>.t * t 5 5 5 7 3 3 3 H _.L v v n z x N B N N Y +XtX  l.1.h.3XtX                ",
"          vXMXNXMXpXp.& # # $ $ X > i./.K.j.0.c.<.i t * * 5 7 5 5 5 3 H K K l l n n n z n N S H ).`.4XA.#.%.g.                  ",
"      bXvXbXbXVXbXgXpXL.d.D & * # 1X6X*.*.l.%.w.<.[ = * t 5 5 7 5 5 5 C K L _.H z n z l x G J p.f.'.7Xl.7X                      ",
"      MXNXbXiXaXvXbXaX^.rX~.B.g. .2XdX0.h.D.*.w.z.*.0 r 6 8 8 2 j g h } p.p.a.a.k././.K.L.I.].7XrXrXsXW.Q.7XrX                  ",
"    pXNXMXvX7.b.Z.G.T.B.dXdX9XZ.eX!.l.:.*.3.$.z.n.e.h.h.h.l.l.S.G.K.Y.S.B.j.Q.W.I.5X2X5X[.2X7XsXpXuX5XG.qXrX8X7X7X              ",
"    nXqXg.j.n.F.E.N.V.Z.H.A.A.S.Z.!.6XeXL.T.2.<.1.,.e.n.l.S.j.6X6X6X^.4.b.S.{.9X9X9X9X9X8X9XrXrXuXuXuXrX5XsXuX3X5X2X            ",
"    qX( ~ ~ 0.e.A.E.~.0X0X{.E.H.H.Z.V.M.Z.F.6.,.,.;.5.n.m.e.c.S.W.9XB.u.!.!.T.H.R.W.!.!.W.W.!.W.[.9X7X7X8X8XrXrX7X[.[.          ",
"    J.a ~ ~ ! w.5.H.~.6X~.~.E.E.E.E.N.x.n.C.C.n.;.;.x.n.C.C.x.x.x.R.j.^.{.~.R.R.Z.V.T.Y.T.T.G.G.H.Y.W.[.[.[.[.[.[.[.L.pXxX      ",
"  iX' f.s.r & } 5.V.T.T.R.E.{.E.n.H.6.x.R.~.iXwXx.6.x.v.n.n.x.e.e.1.<.A.!.~.R.T.Z.A.V.V.A.V.S.N.V.V.Q.qXZ.G.Y.E.W.W.W.rXxX      ",
"  5X{ *XfXI & @ 3.n.V.V.n.n.e.7.;.<.5.n.{.MXvX6X6.e.N.n.n.m.n.z.l.4.3.<.<.5.n.C.N.n.v.c.c.v.x.v.x.N.Q.yXG.C.N.N.l.y.g.y.yX      ",
"  eXs.cX:X}.M @ ..x.V.V.b.n.c.x.6.5.e.N.aX9X..' &.r.6.6.x.n.n.d.XX;X%XU d.g.3.<.5.6.6.6.6.6.<.7.3.*.%.] | ^ i @ O O O _ 3XmX    ",
"  I.$XlX-X XE = } 6.z.C.b.c.c.z.e.e.m.R.wX[ a a a ^ w.r.e.e.e.p.}.<XzXBXzX;XY p.q.5.@.] ` s u @ + ; 7 J (.Z # o # 1 B k.1XmX    ",
"  U.fX@X-XOXP 7 , Z.H.R.Z.c.c.e.r.e.M.~.&.y a a ! ( s r.,.r.1.r.W ).BXjX}.zXzXY h.m.< % + + o # + = J B (.E |.}.(.oXR 9.(.eXMX  ",
"  (.>XoX,X<XR E % l.C.T.R.E.x.r.e.M.M.R.s y D F , & > g r.,.1.r.c.f.&X)._._.;XzXt.5.i.P Q T s.|.`..X=Xm OX}.U V q o X 8./.L.nXbX",
"    zX.X,XkX|.R O &.T.l.b.A.N.A.A.R.M.B.y c  XOXP 1 + > X.1.1.,.<.5.7.k.p._.L &XT 2.0.m B V n b w 0 R W w oX- @ o @ / >.y.k.2X1X",
"    xXP fXlXH Z % } k.C.b.l.3.c.n.N.C.9.~ (.xXoX:XV @ + , r.r.,.1.e.6.1.<.7.g.{ p.a.7.' + + ; o + o & I J V @ d _ +.@.+.$.*.t.M ",
"    ,X%X-XkX<XU % 7 k D a.l.M.l.q.4.M.| ) kXkX-X>XP 6 @ # 0.1.,.<.<.5.v.{.n.<.;.#.#.M.2.O./ ^ ( ( ^ / ) ] ] O.X.' @.8.@.$.} 0   ",
"    =X+XoX,XA |.+ & - 6 w k h 9.0.c.v.[ V xX(.=X=XZ R % % [ e.e.1.5.3.b.x.;.;.;.#.#.#.#.#.,.,.:.] | / g u q V (..Xs ! o.3X0 r   ",
"      *X:XOXR M + % # V E k k w e h  .d s.kX+X=X=XoXE q o > r.e.r.g * 2 g [ ' =.$.#.#.#.#.,.@.O.4 =X=X:X>X,XOXoX.X+ y o.j.'.yX  ",
"      :X=X*X*X0 # % o V       I M r 0 p $X>X@X*X>X XP k # - =.e.>.= % 1 7 7 4 = * h d.&.>.u # . I oXI m - % % o o . @ a +./.d.  ",
"      oXcXkX.X% - # =           E     f +X>Xm :X>XOXZ I + = X.r.%.* : 1 6 6 1 1 , q.~.3.u # # X o o . . . . . O O X @ > g A %XlX",
"         XoX6 % - 1 m                   +X,X*X>X>X:X*XI + % [ r.1.} ] ] ' | ' ) &.M.5.` . . . . . . . . X o % = 4 q b 1 * V Y   ",
"           XK 0 b A                      XmXoX=X,X*X0 Z # # i %.>.7.1.1.e.e.1.2.,.;.O.X . . . o # = 1 1 7 6 r 7 6 1 = k         ",
"                                          BX*XoX>X=Xm V % % % 1 % 2 , u p i i p y @ @ % 4 7 k q q P k # X . 1 O o # 4           ",
"                                          fXkX X*X.X-XV % - % % 6 7 1 1 1 w f 1 & & 7                 1 . # 1 . O q             ",
"                                          +XkX*X+X+X*X1 # % # %                                         Z b k m P               ",
"                                            =XlX+XkXR * # % # w                                                                 ",
"                                            =XlXlXfXV % % % q                                                                   ",
"                                              Z oXZ = % = 9                                                                     ",
"                                                M 1 1 1                                                                         ",
"                                                                                                                                ",
"                                                                                                                                ",
"                                                                                                                                ",
"                                                                                                                                ",
"                                                                                                                                ",
"                                                                                                                                ",
"                                                                                                                                ",
"                                                                                                                                ",
"                                                                                                                                ",
"                                                                                                                                ",
"                                                                                                                                ",
"                                                                                                                                ",
"                                                                                                                                "
};
