/* XPM */
static char *_16595e1cf4b43f3f8e0d530a497fdcc1B5lu2y2Iqm3nZg1[] = {
/* columns rows colors chars-per-pixel */
"84 80 253 2 ",
"   c None",
".  c #0C0100",
"X  c #070100",
"o  c #150101",
"O  c #1B0101",
"+  c #230101",
"@  c #2B0102",
"#  c #28010A",
"$  c #340202",
"%  c #3B0302",
"&  c #3D0B02",
"*  c #380607",
"=  c #3E1008",
"-  c #430302",
";  c #4B0502",
":  c #440A03",
">  c #4D0B02",
",  c #4B0B0B",
"<  c #540402",
"1  c #5A0402",
"2  c #530C02",
"3  c #5B0C02",
"4  c #530D09",
"5  c #4C1205",
"6  c #4A1706",
"7  c #541203",
"8  c #5D1303",
"9  c #551B05",
"0  c #5C1B03",
"q  c #571909",
"w  c #650B02",
"e  c #680C03",
"r  c #641402",
"t  c #6C1402",
"y  c #631B02",
"u  c #6C1C03",
"i  c #691809",
"p  c #711502",
"a  c #731B02",
"s  c #7B1B02",
"d  c #7B1703",
"f  c #710F02",
"g  c #5B2807",
"h  c #652304",
"j  c #6C2302",
"k  c #672909",
"l  c #722203",
"z  c #7A2302",
"x  c #752B03",
"c  c #7B2C03",
"v  c #76280B",
"b  c #6C3308",
"n  c #793805",
"m  c #683810",
"M  c #78440A",
"N  c #784413",
"B  c #7E5431",
"V  c #8D1E03",
"C  c #B41003",
"Z  c #822403",
"A  c #832C02",
"S  c #8C2903",
"D  c #843403",
"F  c #8B3304",
"G  c #853B03",
"H  c #8B3B03",
"J  c #8A370A",
"K  c #943C03",
"L  c #983704",
"P  c #952D03",
"I  c #A53806",
"U  c #B33505",
"Y  c #B52E06",
"T  c #C71905",
"R  c #C23804",
"E  c #CD2605",
"W  c #8C4303",
"Q  c #87480B",
"!  c #934502",
"~  c #9B4303",
"^  c #954A03",
"/  c #9B4B02",
"(  c #924A0A",
")  c #9C5103",
"_  c #95550A",
"`  c #8A5518",
"'  c #955C16",
"]  c #884F0F",
"[  c #A34402",
"{  c #A44B02",
"}  c #AC4D02",
"|  c #AC4704",
" . c #B34C02",
".. c #BA4C02",
"X. c #B84404",
"o. c #A35402",
"O. c #AC5402",
"+. c #A55902",
"@. c #AC5B03",
"#. c #A9560A",
"$. c #B45302",
"%. c #B35B03",
"&. c #BB5B02",
"*. c #BA5507",
"=. c #97621C",
"-. c #976813",
";. c #AE6203",
":. c #A4680B",
">. c #B56204",
",. c #BC6302",
"<. c #BD6B03",
"1. c #B86708",
"2. c #BA760B",
"3. c #A86C15",
"4. c #B57917",
"5. c #AF7011",
"6. c #8E5B25",
"7. c #9A6E26",
"8. c #AA7928",
"9. c #AB752B",
"0. c #C44903",
"q. c #C25C03",
"w. c #C85605",
"e. c #D75A06",
"r. c #D14E0E",
"t. c #C46402",
"y. c #CB6504",
"u. c #C46B03",
"i. c #CB6C03",
"p. c #C76B0A",
"a. c #D26D02",
"s. c #D96406",
"d. c #C57202",
"f. c #CE7205",
"g. c #CE7A03",
"h. c #C4710A",
"j. c #CB7609",
"k. c #D37405",
"l. c #D57B05",
"z. c #DB7C05",
"x. c #D37509",
"c. c #D57B0A",
"v. c #DA7D0A",
"b. c #D97305",
"n. c #D96A11",
"m. c #D87218",
"M. c #E86B07",
"N. c #ED7C0C",
"B. c #E77606",
"V. c #F1750D",
"C. c #F37B0D",
"Z. c #F97F0F",
"A. c #F77912",
"S. c #E57E17",
"D. c #E06E1C",
"F. c #BC8514",
"G. c #B78638",
"H. c #B78A36",
"J. c #D48205",
"K. c #DD8405",
"L. c #DD8905",
"P. c #D6810B",
"I. c #DC830B",
"U. c #DE8B0C",
"Y. c #D68A07",
"T. c #DD9406",
"R. c #DB8410",
"E. c #CE9518",
"W. c #CD8E1A",
"Q. c #E28404",
"!. c #E38B04",
"~. c #E98D03",
"^. c #E2860B",
"/. c #E38C0A",
"(. c #EA8E0B",
"). c #EC8208",
"_. c #F4840E",
"`. c #F58C0E",
"'. c #F9850F",
"]. c #E49205",
"[. c #EB9305",
"{. c #EB9B03",
"}. c #E5930C",
"|. c #EB940B",
" X c #EB9B0C",
".X c #E69B06",
"XX c #F29C0C",
"oX c #F5970B",
"OX c #E58B11",
"+X c #E98714",
"@X c #F98412",
"#X c #F58A11",
"$X c #F68713",
"%X c #EB9412",
"&X c #EC9C11",
"*X c #E69716",
"=X c #F49411",
"-X c #F99412",
";X c #F59D12",
":X c #FA9A12",
">X c #F69B1B",
",X c #EDA20B",
"<X c #EAA304",
"1X c #F5AB04",
"2X c #F9AE05",
"3X c #F5A30D",
"4X c #F8A40D",
"5X c #F6AA0D",
"6X c #F9AD0D",
"7X c #F3A503",
"8X c #FAB406",
"9X c #FBBB06",
"0X c #FAB20D",
"qX c #FBBA0C",
"wX c #F6B408",
"eX c #ECA314",
"rX c #F3A311",
"tX c #FAA413",
"yX c #F7AB11",
"uX c #F9AC11",
"iX c #FAB311",
"pX c #FABC13",
"aX c #F6BB15",
"sX c #EDB01A",
"dX c #D89B25",
"fX c #C6983A",
"gX c #D09A2D",
"hX c #E69429",
"jX c #D9A839",
"kX c #D3A42D",
"lX c #E6A52C",
"zX c #EEB326",
"xX c #F1B530",
"cX c #DDA211",
"vX c #FBC10A",
"bX c #FAC819",
"nX c #FAC827",
"mX c #F6C839",
"MX c #FDD53E",
"NX c #BB9047",
"BX c #C49641",
"VX c #D09F42",
"CX c #CDA545",
"ZX c #D5AB46",
"AX c #DDB24B",
"SX c #E6BC47",
"DX c #E6BB53",
"FX c #E39042",
"GX c #F1C545",
"HX c #FCD644",
"JX c #FAD457",
"KX c #EFC756",
"LX c #F2CD60",
/* pixels */
"                                                                                                                                                                        ",
"                                                                          DXCXBXfXCXG.G.CX                                                                              ",
"                                                                AXCX8.` m b k h h y h 0 b ` 6.fXNXG.                                                                    ",
"                                                        KXBX6.b 7 , * $ @ @ $ $ % % - : > 4 , 4 9 q 0 ` G.                                                              ",
"                                                    fX7.g q > * $ $ % - - % % @ @ $ % : & 6 > - - & - - 0 M fXCX                                                        ",
"                                              ZX8.Q 8 , 6 , % $ % % - $ % - % $ % % - - $ $ : : % $ % % - , 9 k ` BXAX                                                  ",
"                                    LXAXH.8.=.b 5 * @ # @ % % * $ $ @ @ @ @ @ @ @ @ @ $ $ $ $ % : & % % $ : & % : 9 ] fX                                                ",
"                                KXNXN , $ @ @ @ @ @ @ @ $ * $ $ @ + O o O O + + + O + + O O + $ $ % $ @ @ $ & % % : 0 c =.fXKX                                          ",
"                              BXn , - * % @ @ @ @ % $ % $ $ # @ @ @ @ + O + + @ + + + @ O o o + $ $ $ * O + @ $ $ & - > h M 4.LX                                        ",
"                            9.q ; - % $ @ @ O @ $ * % $ % $ @ + + + + @ * @ @ @ + @ @ @ @ O O O @ $ * @ O O @ @ @ $ - % - - 5 ' AX                                      ",
"                        fX` 4 - % % $ @ + + @ $ % $ @ @ + + O O O O O O + @ + O O + + + @ @ + O O @ $ @ @ + + O + @ $ * % % % > M jX                                    ",
"                    SX=., * $ @ @ @ # + + O O @ @ O + o O O O + + O + O + + @ @ @ @ @ @ + @ @ O O O + @ + O O O + @ @ @ @ $ $ % - Q ZX                                  ",
"                  ZXM $ @ @ O O O o o O + + + O + O O O o o O O O O + + @ @ & % $ $ @ @ @ @ @ + + o O O # + O o O @ @ @ @ @ $ $ % : n 4.AX                              ",
"                  =.- * % @ O O o . o + @ @ @ @ + + O O O O O O O @ @ + @ @ % : : $ @ @ @ + + @ O o o o O @ @ O O @ * @ + @ @ @ $ % 2 0 8.                              ",
"              SXF.6 & $ @ # + O o O + + O O + + + @ O + + + O O O @ @ @ @ @ $ % > % @ @ @ + @ + O O o o O @ $ @ @ + @ @ @ + @ @ $ $ - : k ZX                            ",
"              kXN * @ + O O O O O O O O O o o o O @ + O O O + O O O O + O + @ $ : $ @ @ @ + + @ O + + O @ * - $ @ @ @ @ @ @ @ $ $ $ * : - n ZX                          ",
"            GX3., + O o o O o o o o o o o o o o O O o . o o O O O O O O O O + @ * & $ @ @ + @ @ @ @ @ @ % > > - $ @ @ @ $ $ - % $ $ @ ; - ; ' KX                        ",
"            fXm * + O o o o . o o o o O o O O O O + O o O o O O O O O O O O + @ @ $ $ @ & @ & $ $ $ @ $ 2 r 8 2 - @ @ @ % ; 1 < 4 q $ * * ; 7 H.JX                      ",
"        GX4.0 - * # # O o . . . o O O + O + O O O O O O O O O o O O O O + + O @ @ @ @ & $ * & & % $ % ; r l j i - $ @ $ ; i r r ] v * - - % - n AX                      ",
"        kXM ; @ o o o o o . . o O O O O O O O O O O o O o O O O O O O O + + @ @ * @ @ * $ @ * & & % - 7 j l v 4 - * ; r c F J ~ J e 1 - ; $ $ n jX                      ",
"        :.g * @ O o o . . . o o o o o o O O o o O O O O O O o O O O + + + O @ @ @ @ @ @ @ + $ & = : > 0 j j r < i i J ~ #.#.#./ ( L v 3 y $ $ 6.                        ",
"      GX_ > @ o . X . . . . . o O o o o o o o o o o O o + O O o O + + + O + @ @ @ $ + O O O @ @ = : 7 y j u y c ~ K #.1.p.h.p.1.%.*.{ ( J % : Q                         ",
"      jX' - + o . . . . . X . o O O O o o o . o o . o o O O + o o + @ @ @ + @ $ $ $ $ @ @ # O + $ : 7 y y u D #.;.%.1.h.c.R.c.p.h.j.u.1.L 3 y (                         ",
"      kX_ * + o . o o o o . o O O O O O O O o O o o . o o o O + + @ @ @ @ @ * $ % % & % % & @ o @ * : 8 t D ^ 1.>.2.h.c.R.R.R.OXR.c.P.l.#.K F 3.                        ",
"    kX  ] % @ o o o o o o O O + O O O o O O + @ + o o o o o O + @ @ $ $ @ @ @ $ % % : > 5 7 : + @ @ - 3 u F ^ #.1.h.c.R.R.U.}.}.OXU.OX}.I.f.u.W.                        ",
"    2.:.M * + O O O o o o O O O O O o o o o + @ @ @ O O O O + @ @ $ % % $ $ % % % : 7 7 7 0 > % $ $ - < p F ! o.1.h.c.R.U.U.}.}.}.OX*X&X X.X.XcX                        ",
"    5._ k + O o o o o . o o o o o o O o o O O + @ * $ O O O + O @ $ $ % % % : 5 - ; 7 2 > 2 7 < ; % ; 1 t F ~ { *.h.c.P.U.U.}.}.*X}.}. X X,X<X<XmX                      ",
"    F._ k + o o o . . . o o o o O o O O O O o O + @ * $ @ O O @ @ $ % % - - % 9 5 : > 7 ; - 7 2 8 2 3 e t K L } *.h.c.R.U.OXT.}.}.}.}. X X3X<X<XcXGX                    ",
"    2.Q q O . . X X . o o O o O o O O + O O O O O + $ $ @ @ @ @ @ $ % ; 7 2 ; : q > - 7 ; - 2 8 u u w l a K [ $.*.u.c.U.OXU.}.*X*X X}..X.X{.U.g.Y.GX                    ",
"    4.h % o o . o . o o O o o o o o O O O O + O O O @ $ % % $ @ @ @ $ > > 7 > : > 8 > > 7 ; 3 r j a w z A K [ %.&.p.c.I.OXT..X*X}. X}././.g.%.[ d.                      ",
"  jX3.j % O o o o o o O O o o O o o o O O + + O O o @ @ % : % $ $ * % ; > 7 7 2 7 8 3 7 h y u y u u e a F ~ O.$.&.f.c.U.U.}.*X X X XK.g.,.{ [ { Y.JX                    ",
"  4.Q 7 @ o . O o o O O O O O o o o o O + + @ + + O O @ $ : 5 % % $ : > ; 2 y 7 < 2 2 8 y j y u a a w t F ~ O.%.,.f.c.U./. X,X X&XT.f.,.,.p.u.g.T.mX                    ",
"  3.h : @ X . O + o O O O O O O o o o O O + @ $ @ @ O @ $ % 2 : % % : 2 > ; 8 h 7 ; 3 r 8 u y w u a e e S ~ %.,.i.f.c.U.}. XrX&X XJ.,.u.Y.T.Y.T.<XmX                    ",
"  _ 8 $ O X o + + o o o O O o o o o o O O + $ $ @ @ @ @ $ % > 7 > > 7 8 y 3 y j y 7 j j r u l u t z p p K { $.&.t.f.z./.}.XXeXrX/.,.,.l.]. X.X.X1XbXmX                  ",
"  ( , $ + O o O @ o O o o o O o o O O O + O @ @ @ $ $ $ % ; ; 2 0 r j u x u r x x j x n x x c c a s z A ~ +.&.&.y.l.K./.|.&X3X Xg.,.p.U.&X XT. X1XwXxX                  ",
"  ] - @ + + O O + o o o o o O o O O O + + @ @ @ @ $ $ % - ; ; 2 8 y l x x c u c c x n W G G n F D A F { %.1.p.u.z.Q./.}.|. X&XU.i.i.J.}.}.}.]..X X1XvXmX                ",
"  ` % @ O + O o O o o o o o O @ + + @ @ @ @ $ $ $ % % - ; ; > 2 r u c G c D l c n D W W ( W W G ~ K ~ %.h.g.c.l./.}. X&X&X X XJ.l.c./.}.U./.1.{ j.wXqXqXnXMX            ",
"  =.* + O o O o o o O O O o O O + + @ @ @ $ % % % - - 2 - ; 2 2 r x n W W n x c G D ( W ^ ^ _ ^ ^ { +.h.P.U./.(.&XXXeX,X,X X XJ.I./.}.}.L.p.J 1.,X0XqXqX9XvXnXMX        ",
"  ZX> @ O . o O . X . O O o O + + + + @ @ $ % % $ - ; 2 - ; 2 8 u j G ^ _ Q W G W H ^ _ ^ W ) ^ / ;.1.P.}. X&X&X3XtXrXrXrX<X.X/.}.|.*XR.#.a J h.,X0XwXqXqX9X9XvXnX      ",
"    ` @ + . . o o o . . o O O + @ + @ @ @ $ $ $ % % - > ; 2 7 y j j n _ _ W W W ( ! W ) ^ ^ ) +.o.@.2.U.*X X XrXtXyXyX5X3X3X.X X3X X^.[ s d D u..XyXiXqXqXqX9XvXvXbXHX  ",
"    3.: # . . o o o o o O O O # + @ @ @ @ $ % - $ % - > 2 8 8 y j x x Q ^ G W W ! ! W ^ / / ) +.@.@.2.U.&XXXrXrXyXuXuXtXyXrXeXrXeX XU.l.k.u.J.T.,X6XiX0X9X8X9X9XvXvXbX  ",
"    dXQ * . X o O o o o o O + O O + + + @ $ % - ; - ; ; 2 8 h y j x j D G D ! H W ^ H ! / ) ) ) ;.;.2.Y.*XeXeXtXuXuXuXuXyXyX5X5XtXrX X,X|..X]. X5XyXiX0X0X8X8X9XvX9XvX  ",
"      4.9 @ . o o o o o o O O + O O + + @ @ $ - > > ; 2 2 y j y y l c D D G W H ! ^ ! ! / ) o.+.;.;.<.P.}. XrXrXuXuXuXiXuXuXuXuXuXuXyXuXtX3X,X3XyXuXiX0X8X8X8X9XqX8XpX  ",
"        ] * O o o o o o o o + # @ + @ + @ @ $ - 2 7 2 8 8 8 h j j l c A c H G D ! ^ ^ ! ^ ^ o.@.;.>.<.g.Y.}.eXrXuXuXiXuXyXuXiXiXiXiXuXuX0X6X0XiXiXiXiX6X0X8XqX8X6X[.xX  ",
"        5.: O o o o o . o O O + @ @ @ @ @ @ $ ; > 0 8 8 8 8 8 j j u c c A D A D K ^ / ^ ^ / o.+.+.;.>.g.J.T. X3XyXuXuXiXiXiXiX0XiXiXiXiXiXiXpXpXpXpXiXuX6X2X6X2XU.lX    ",
"        F.n # o o o . . O + O O + @ @ @ $ % % ; 2 7 7 7 0 y y j a l z c D H H K ! ^ ) ) ) o.+.@.@.>.>.d.J.U.}. XtXyXuXyX6XiXiXiXiXiXiXiXpXpXpXpXpXpXpXiX1XXX{.{.sX      ",
"          :.= o o o o . O O O O O # @ @ $ * ; > 2 2 3 8 r u u l u z z c D H ^ ^ / ) +.) o.o.@.@.>.>.<.g.g.L.}. X3X5X5XuX6XiXiX0XiXpXiXiXpXpXpXpXpXbXvXpX1X{.XX7XqXHX    ",
"          F.M + o o . . o O O O O O @ $ $ * ; > 2 2 3 8 t u t a a z z D D K ^ ^ +.o.+.#.o.o.O.&.>.<.d.J.J.L.[. X3XtXyXyX6XiX0XyXiXiXiXpXaXpXiXpXpXpXpXpX2X8X2X2X8XmX    ",
"            -.$ + O o X o o O O O O # @ @ % ; > > 2 8 r u u u a z z s A A F / ~ @.@.@.%.>.O.&.<.d.d.g.P.K.L.]..XXX3X4X5X5X6X0XiX0XiXiXiXqXqX0XiXpXpXvXpX0X2X0X8X8XnX    ",
"            F.k @ + O . o O O O O O O @ $ % - ; > 2 r r t u a z a a d z Z F ~ | 1.1.<.p.u.<.u.f.l.J.J.J.I.L.}.|.{.XXXX4X4X5XuX5XuX6X0XuX0X6XiXiXiXqXpXiX8X2X8X8X2XqX    ",
"              5.9 + O O o O + O O o O O @ % - - - 2 3 t t t a s a s d s S L  .1.a.x.x.f.k.x.k.k.l.c.P.K.L./.[.|.|.XXXX4X5X4X5X6XtXiXuX0X6X0XiXiX0XqXqX0X2X2X8X2X1X2XmX  ",
"              E.' * O O O O + + O o O @ @ $ % ; - 2 w i t u a a p s V [ n.+X=X=X%X+XOXI.K.v.v.l.l.J.I.I.!././.|.|.XXXX7XXX4X4X4X6XuX6X6XuXuX6X0XiX0X0X0X2X2X2X1X1X<X    ",
"                4.M + O O O O + O o O @ @ $ $ ; ; 1 3 t t u a p s P m.=X:X:X-X=X-XoX=XOXOXv.v.v.c.z.K.Q././.(.|.|.XXXX3XXXXX4X4X7X4XuXuX6X6X6X6X6X0X0X2X7X1X1X7X{.xX    ",
"                E.4.= O O o O O O o O @ @ $ % - > 3 8 r t p d d P S.-X:X@Xn.Y U n.S.+XOXOX^.R.I.P.K.I.U././.(.|. XoXXXXXXX4X4X4X4X4XyXuXtX6X6X6X6X6X2X7X{.XX{.>XxX      ",
"                  E.n @ O O O O O O + @ $ % % - > < 8 t p t d S p.-X-X#XB.w.Y X.s.B.v.v.v.^.I.I.K.I.I.K.^././.|.|.oXXXXXXXXXXXtX4X4X5XtXtX5X4X5X6X6X2X{.[.[.*X          ",
"                    3.5 * o O O O o + @ $ $ % - > 2 8 r t t s L A.@X@X_.=X_.).(.m.e.v.b.v.OX%XOX^.^.^.Q.Q.!./.|.|.=X|.|.XXXXoX:XXX4XtX4XtX4X4X4X6X6X5X].~.lX            ",
"                    W.3.9 # O o o o O + @ & % - ; 2 3 3 f f Z #.@X@XV.-X-X-XoX:Xy.s.z.Y *.>XtX=X(.^.Q.Q.K.Q.Q./.(.|.|.|.|.|.oXoXoXXX3X3X3X4X4X4X4X5XXXU.lX              ",
"                      gX3.6 @ o o O O @ @ $ $ - - < < 3 t a Z *.@X@X'.-X:X:X:X;Xs.b.b.w.P +XtX;X=X/.^.K.Q.B.Q.Q./.(.(./.|.|.|.[.{.XXXXoXXXXX4X4X7X7X|.lX                ",
"                          3.g @ O O O + + @ $ % - ; 1 1 t a z *.A.@X$X-X:X:X:X`.B.B.e.0.Y R +X>X;X%X^.B.z.z.z.Q.^.^.^./.(.|.~.(.[.|.|.|.:XoX3X4X4X7Xv.                  ",
"                            5.g # o o O + + @ $ % - 1 3 e p d I N.@X@X_.`.:X:X`.`._.R 0.R R Y R `.=XQ.z.l.b.z.z.B.U./././.!.!.~.].[.[.|.oXoXXXXX3XtXr.FX                ",
"                              5.g # O o O + @ @ $ - < 3 r a f S n.A.Z.V.C.'.-X`.:X`.e.M.e.w.e.e._.=XB.a.b.b.b.b.z.P.K.K.^.!.Q.!.]./.[.|.|.=X XoXXX|.C D.                ",
"                                  N 6 # O O O @ $ - ; 1 t a p d r.V.Z.Z.M.C.'.`.:X_.M.B.'.`.#X-X:XoX+X0.e.a.b.k.z.z.c.z.K.Q.Q.Q.Q./.~.}.|.oX|.|.{./.C r.                ",
"                                      M * O + @ $ $ - < i t p t S e.V.A.M.M.C.'._.C.s.B.:XtXtXtXrX:X-XX...t.a.k.b.l.z.z.v.Q.z.z.K.!././.(.|.|.|.|.+XC E hX              ",
"                                        -.g O @ $ $ - < 3 e p f p I e.M.C.V.M.V.'.'.C.`.'.oX>X;XtXtX-XX.X.q.y.a.k.b.b.z.z.z.z.z.K.!.Q././.(.|./.|.(.m.T r.              ",
"                                            m @ @ % - ; ; 1 w w e p P r.s.C.V.M.M.V.Z.V.C.#X:X:X:X-XN.X.U *.y.i.x.k.k.k.c.c.c.c.K.P.Q./././././.]./.(.R E D.            ",
"                                              N * $ $ - - ; < 1 w f V I ..e.M.V.A.V.V.Z.@X'.`.oX#X).a.q.*.&.t.y.i.a.k.k.l.k.l.l.z.K.K.K.Q./.~./.].~.!.~.s.T D.          ",
"                                                ` 5 $ $ $ ; < < 1 e d F [ | ..w.s.M.V.V.N.M.M.M.a.s.k.i.y.t.y.i.i.i.f.f.k.l.k.c.c.J.K.I.I.U.U./././.~.).B.w.e.>X        ",
"                                                  9.g # $ % ; ; 1 e d L [ [ }  ...X...0.0.0...w.y.z.v.x.k.i.i.i.i.x.f.f.f.k.c.k.z.z.K.v.I.K.U./.U.!.].Q.B.B.M.:X        ",
"                                                      m @ $ - < w p Z K { { } }  .X.X. .....w.q.b.R.^.v.b.k.a.f.f.x.f.x.l.f.k.k.x.v.v.v.B.z.^.U.U.!.~.~.~.B.M.+X        ",
"                                                        M @ < e s Z F K { { } }  . .X.....q.q.k.v.v.R.v.v.c.x.x.f.f.f.f.j.x.f.k.b.v.z.z.P.K.^.U.U.!.(.~.~.B.B.*X        ",
"                                                          n 3 s F F K K { { }  .}  .$.&.&.t.f.x.v.v.R.R.I.c.k.f.x.f.f.f.f.k.f.x.x.x.l.c.z.z.I.I.!.!.~.!.~.!.}.          ",
"                                                            Q J ! [ [ } { { } }  .$.&.q.i.f.x.c.c.v.v.I.v.c.k.k.f.f.f.f.f.f.f.x.x.k.k.b.b.z.K.K.L.Q.Q.Q.Q.T.zX          ",
"                                                            ' v ~ { O.} } } O.$.&.&.t.y.i.i.x.l.c.c.v.v.c.x.k.k.a.f.i.f.i.i.i.f.i.i.f.b.l.l.K.K.L.Q.L.Q.].zX            ",
"                                                            b j ~ [ { | } $.&.t.t.y.y.i.i.i.k.k.c.c.c.x.x.a.i.i.i.i.i.i.u.i.u.i.u.i.i.k.k.b.l.K.K.Q.Q.!.zX              ",
"                                                          N , ( @.} P S I [  .&.q.y.y.i.a.x.k.l.v.v.v.c.x.k.i.t.t.t.t.u.t.t.t.,.t.u.i.f.f.a.k.z.L.Q.Q..X                ",
"                                                          g i { +.%.$.$.} *.*.*.*...w.q.y.i.k.b.x.l.c.v.c.c.x.a.q.&.q.,.,.$.%.&.,.t.u.u.u.t.f.l.K.L.].sX                ",
"                                                        7.: c o.@.,.t.u.p.i.f.k.x.x.n.p.q.q.q.y.a.k.k.l.b.l.c.c.x.&.} &.&.@.O.%.>.,.u.t.1.,.i.l.z.L.].zX                ",
"                                                        7.* A O.,.u.i.f.f.x.x.b.v.v.I.c.I.z.z.b.k.k.b.l.k.g.l.l.c.f.,.} O.>.2.4.2.<.<.h.2.<.d.g.z.Q.eX                  ",
"                                                        NX& Z %.u.f.g.l.l.z.K.K.K.K.Y.!.L.L.L./.^.I.K.z.z.l.l.l.l.l.k.f.1.2.dX            jXdXU.dXxX                    ",
"                                                          B F ,.f.l.l.z.K.L.L./.~.].].].].].[.}.].~.~./.Q.K.l.l.l.l.z.l.z.E.jX                JXJX                      "
};
