/* XPM */
static char *_12d34156d6b4559f2a1c9aa3ed659d4oFibsX9sQyhFZxCt[] = {
/* columns rows colors chars-per-pixel */
"84 80 253 2 ",
"   c None",
".  c #0C0100",
"X  c #070100",
"o  c #150101",
"O  c #1B0101",
"+  c #230101",
"@  c #2B0102",
"#  c #28010A",
"$  c #340202",
"%  c #3B0302",
"&  c #3D0B02",
"*  c #380607",
"=  c #3E1008",
"-  c #430302",
";  c #4B0502",
":  c #440A03",
">  c #4D0B02",
",  c #4B0B0B",
"<  c #540402",
"1  c #5A0402",
"2  c #530C02",
"3  c #5B0C02",
"4  c #530D09",
"5  c #4C1205",
"6  c #4A1706",
"7  c #541203",
"8  c #5D1303",
"9  c #551B05",
"0  c #5C1B03",
"q  c #571909",
"w  c #650B02",
"e  c #680C03",
"r  c #641402",
"t  c #6C1402",
"y  c #631B02",
"u  c #6C1C03",
"i  c #691809",
"p  c #711502",
"a  c #731B02",
"s  c #7B1B02",
"d  c #7B1703",
"f  c #710F02",
"g  c #5B2807",
"h  c #652304",
"j  c #6C2302",
"k  c #672909",
"l  c #722203",
"z  c #7A2302",
"x  c #752B03",
"c  c #7B2C03",
"v  c #76280B",
"b  c #6C3308",
"n  c #793805",
"m  c #683810",
"M  c #78440A",
"N  c #784413",
"B  c #7E5431",
"V  c #8D1E03",
"C  c #B41003",
"Z  c #822403",
"A  c #832C02",
"S  c #8C2903",
"D  c #843403",
"F  c #8B3304",
"G  c #853B03",
"H  c #8B3B03",
"J  c #8A370A",
"K  c #943C03",
"L  c #983704",
"P  c #952D03",
"I  c #A53806",
"U  c #B33505",
"Y  c #B52E06",
"T  c #C71905",
"R  c #C23804",
"E  c #CD2605",
"W  c #8C4303",
"Q  c #87480B",
"!  c #934502",
"~  c #9B4303",
"^  c #954A03",
"/  c #9B4B02",
"(  c #924A0A",
")  c #9C5103",
"_  c #95550A",
"`  c #8A5518",
"'  c #955C16",
"]  c #884F0F",
"[  c #A34402",
"{  c #A44B02",
"}  c #AC4D02",
"|  c #AC4704",
" . c #B34C02",
".. c #BA4C02",
"X. c #B84404",
"o. c #A35402",
"O. c #AC5402",
"+. c #A55902",
"@. c #AC5B03",
"#. c #A9560A",
"$. c #B45302",
"%. c #B35B03",
"&. c #BB5B02",
"*. c #BA5507",
"=. c #97621C",
"-. c #976813",
";. c #AE6203",
":. c #A4680B",
">. c #B56204",
",. c #BC6302",
"<. c #BD6B03",
"1. c #B86708",
"2. c #BA760B",
"3. c #A86C15",
"4. c #B57917",
"5. c #AF7011",
"6. c #8E5B25",
"7. c #9A6E26",
"8. c #AA7928",
"9. c #AB752B",
"0. c #C44903",
"q. c #C25C03",
"w. c #C85605",
"e. c #D75A06",
"r. c #D14E0E",
"t. c #C46402",
"y. c #CB6504",
"u. c #C46B03",
"i. c #CB6C03",
"p. c #C76B0A",
"a. c #D26D02",
"s. c #D96406",
"d. c #C57202",
"f. c #CE7205",
"g. c #CE7A03",
"h. c #C4710A",
"j. c #CB7609",
"k. c #D37405",
"l. c #D57B05",
"z. c #DB7C05",
"x. c #D37509",
"c. c #D57B0A",
"v. c #DA7D0A",
"b. c #D97305",
"n. c #D96A11",
"m. c #D87218",
"M. c #E86B07",
"N. c #ED7C0C",
"B. c #E77606",
"V. c #F1750D",
"C. c #F37B0D",
"Z. c #F97F0F",
"A. c #F77912",
"S. c #E57E17",
"D. c #E06E1C",
"F. c #BC8514",
"G. c #B78638",
"H. c #B78A36",
"J. c #D48205",
"K. c #DD8405",
"L. c #DD8905",
"P. c #D6810B",
"I. c #DC830B",
"U. c #DE8B0C",
"Y. c #D68A07",
"T. c #DD9406",
"R. c #DB8410",
"E. c #CE9518",
"W. c #CD8E1A",
"Q. c #E28404",
"!. c #E38B04",
"~. c #E98D03",
"^. c #E2860B",
"/. c #E38C0A",
"(. c #EA8E0B",
"). c #EC8208",
"_. c #F4840E",
"`. c #F58C0E",
"'. c #F9850F",
"]. c #E49205",
"[. c #EB9305",
"{. c #EB9B03",
"}. c #E5930C",
"|. c #EB940B",
" X c #EB9B0C",
".X c #E69B06",
"XX c #F29C0C",
"oX c #F5970B",
"OX c #E58B11",
"+X c #E98714",
"@X c #F98412",
"#X c #F58A11",
"$X c #F68713",
"%X c #EB9412",
"&X c #EC9C11",
"*X c #E69716",
"=X c #F49411",
"-X c #F99412",
";X c #F59D12",
":X c #FA9A12",
">X c #F69B1B",
",X c #EDA20B",
"<X c #EAA304",
"1X c #F5AB04",
"2X c #F9AE05",
"3X c #F5A30D",
"4X c #F8A40D",
"5X c #F6AA0D",
"6X c #F9AD0D",
"7X c #F3A503",
"8X c #FAB406",
"9X c #FBBB06",
"0X c #FAB20D",
"qX c #FBBA0C",
"wX c #F6B408",
"eX c #ECA314",
"rX c #F3A311",
"tX c #FAA413",
"yX c #F7AB11",
"uX c #F9AC11",
"iX c #FAB311",
"pX c #FABC13",
"aX c #F6BB15",
"sX c #EDB01A",
"dX c #D89B25",
"fX c #C6983A",
"gX c #D09A2D",
"hX c #E69429",
"jX c #D9A839",
"kX c #D3A42D",
"lX c #E6A52C",
"zX c #EEB326",
"xX c #F1B530",
"cX c #DDA211",
"vX c #FBC10A",
"bX c #FAC819",
"nX c #FAC827",
"mX c #F6C839",
"MX c #FDD53E",
"NX c #BB9047",
"BX c #C49641",
"VX c #D09F42",
"CX c #CDA545",
"ZX c #D5AB46",
"AX c #DDB24B",
"SX c #E6BC47",
"DX c #E6BB53",
"FX c #E39042",
"GX c #F1C545",
"HX c #FCD644",
"JX c #FAD457",
"KX c #EFC756",
"LX c #F2CD60",
/* pixels */
"                                                                                                                                                                        ",
"                                                                              ZXG.G.VXfXfXCXDX                                                                          ",
"                                                                    G.H.fX6.` b 0 y y h h k b m ` 8.CXAX                                                                ",
"                                                              G.6.0 6 q 4 5 , , > % & - $ $ @ @ $ % : 7 b 6.NXKX                                                        ",
"                                                        CXBXQ 9 : - - - - > : & - - $ @ + % % - * - $ $ % > q h 7.fX                                                    ",
"                                                  SXNX` k 9 > - % % $ & : : $ * & - % $ $ % - & % % % % $ $ & q , q Q G.ZX                                              ",
"                                                fXQ 9 : & & - $ $ $ % - % & $ $ $ @ @ @ @ $ @ @ @ @ @ % & % $ @ @ @ $ : b ' 9.H.ZXLX                                    ",
"                                          KXCX=.x 7 : - & % @ @ @ % & $ $ + O O + O + + O + O O O O + # $ $ % $ $ @ @ @ $ # @ * , N BXKX                                ",
"                                        LX4.M y > - & $ * @ + O @ $ $ $ + o O + + + + + + + + O + @ @ @ $ @ $ $ * $ $ @ @ @ @ $ % - ; N BX                              ",
"                                      AX' 5 - - % & $ @ @ + + O $ $ $ @ O O O + @ $ @ @ @ @ @ * @ + + + + @ $ $ * * % $ @ + + @ $ % - ; 8 9.                            ",
"                                    ZXn : - % % % $ + + O + + @ $ $ @ + O + @ @ + + + O + + @ + + O O O O O + + @ $ @ % $ @ + + @ $ % & - , ' VX                        ",
"                                  jXQ & % * $ @ @ @ @ + O O O + @ + O O O @ + + @ @ @ @ + + + + O + O O + O O O O O + + + O O + + + @ # @ $ * : =.SX                    ",
"                              ZXF.n : % $ $ @ @ @ $ @ O O O + + O O o O @ + @ @ @ $ $ $ % % $ + + + O O O O o o O O + + + + + + O o o O + O @ @ @ N ZX                  ",
"                              8.0 > % $ @ @ @ + @ $ @ O O @ @ O o o o + + @ + + + @ % - : % $ @ @ @ @ O o O O O O O + + @ @ @ + + o o o O O @ % % : =.                  ",
"                            AXh ; - $ $ @ @ + + @ @ + + @ $ @ O o o O O @ @ + @ @ @ $ : - $ @ + + @ + O O # + + O + @ + + + + O # O O o O O + @ $ * 9 F.SX              ",
"                          ZXn - : % $ $ $ $ + $ @ @ @ @ $ - & @ O O # O + + @ @ @ @ % : $ @ + O + + O O O O O O + O + O o o o O O O O + O O O O + @ @ N dX              ",
"                        KX=.> - - $ * * % - $ $ $ @ @ $ - ; > % @ @ @ @ @ @ @ @ $ @ % * @ + + O O O O O O O o o . o O o o o o o o o o o o o o o o O @ 6 3.KX            ",
"                      JXH.7 - - % $ q 4 < 1 ; $ @ @ @ - 2 8 r 2 % @ $ @ & * $ * $ $ $ $ @ + O O O O O O o O o O o O + O O + O O O o o o o . o o o O + * b gX            ",
"                      AXn & % - % % k ( t r i ; $ @ @ - i u l r : % * * & & $ * * @ @ @ @ + + O O O O O O O O O o O O O O O O + + O O o . X o o o # @ $ & 0 8.GX        ",
"                      ZXb $ $ ; - 1 e J ~ F J x r ; % - 7 v l j 2 - $ & = * $ @ * @ @ @ @ + + + + O O O O O O O O O O O O O O O O O O o o . . o o o o O @ : Q gX        ",
"                        6.$ $ i i v K ~ ~ #.#.#.[ J t i < r j l 0 : : & = $ + + + + @ $ @ + + + + + O O O o O O O O o O o o O O o o o o o o o o . o o O + * h :.        ",
"                        Q : % G H ~ 1.%.1.h.h.p.1.#.K ^ n t u j h 7 5 & @ + O + + + $ @ $ @ + O + + + o o O O O O O o o o . o o o o o O o X X X . . X . O # 4 ) GX      ",
"                        ( 0 3 I 1.p.j.p.h.c.R.m.h.1.;.#.#.D u r y 7 : @ + O + $ @ $ * $ $ @ @ + + @ + O O + O O o o . o o . o o o O o O o . X X . . . . o + % ' jX      ",
"                        5.H F O.g.P.P.R.R.R.R.R.m.j.2.>.1.^ D t 8 > $ @ O + % & % % % & $ @ @ @ @ $ + + + O o o o . o o O O O O O O O O O O . o o o o . o + * ' kX      ",
"                        W.u.f.U.}.OXU.OX*X}.U.P.R.c.h.1.@.! J u 3 - $ + + : 7 5 > : : % $ @ @ @ $ $ @ @ + O o O o o O + @ + O O o o O O # O o O o o o o o @ % ]   kX    ",
"                        cX.X.X}.&X*X}.OX}.}.}.U.P.c.h.1.o.~ F t < % @ $ % > 0 q 7 7 : % % % $ * & $ @ @ + + O O O O @ @ + + O o o O O O O O O o o o o + O + % M :.2.    ",
"                      GX<X<X3X&X&X*X}.}.}.}.U.U.R.j.h.1.{ K F t 1 ; - ; < 7 2 > 7 7 - - 5 - % % % % $ @ + + O O + $ * @ + O o o o o O o o o o o o . o o o O @ k _ :.    ",
"                    GXcX<X<X,X X X}.}.}.}.T.OXU.U.c.h.*.O.L K p e 3 2 r 3 2 - - 7 > - 5 7 & - - % % $ @ @ + O + @ * # + O o O O O O O o o o o o . . X o o o + g _ F.    ",
"                    GXJ.J.Y..X{.|.}.%X X}.}.U.OXP.c.u.&.$.~ K a a 3 i j 8 2 - ; 2 - > 9 : : > 7 - & $ @ @ + @ @ % @ + O + O O O + O o o O o O O o . X X . o O q Q 4.    ",
"                      g.[ %.g.L.}.}.}. X}.}.}.U.R.c.i.%.%.[ K A z w l u r 7 ; 7 > > 8 > > > 7 2 > % @ + @ $ % % $ @ O O O O O O O O o O o o o o o o X o . . O % h F.    ",
"                    JXY.{ { } ,.d.L. X&X&X X}./.^.c.f.%.$.#.K F s e a j y t y j 7 3 r 2 2 7 7 > ; % % $ $ & : % @ @ O O + O + O O o o o o O O O O O o o o o O % j 3.fX  ",
"                    GX.Xd.u.p.,.,.d.].&XeX X XU.U.v.f.t.%.$.[ F t w a a u y j y 2 3 2 2 7 0 2 ; ; : % $ % > : $ + O O + + @ + + O o o o o O O O o o o O O . o @ 0 Q F.  ",
"                    mX<XT.T.T.Y.u.,.P. X&X,X X}.U.l.k.u.&.%.~ S w w a p r y j 8 r 3 ; 2 h 0 ; 2 > > % % > 5 & $ + + + @ $ @ + O o o o o O O O O O O o O O X X + : k 3.  ",
"                  GXbX<X.X]. X}.l.,.,.(.rXeX;X}./.z.f.y.&.$.{ K p p z t u l t r j j 2 y l r 3 r 7 7 > 2 7 > % $ @ @ @ $ $ $ + + O O o o o O O o o o O + + o . + $ q _   ",
"                  nX9XwX.XT. X&XL.u.,.g. X;X&X X!.K.l.t.&.&.O./ A z z a c c x x n x j x x y y x u j 8 0 2 ; - % $ $ @ @ @ @ + O O O O o o O o o o o o + O o O + $ ; (   ",
"                mXqX,X X.X].}.}.}.P.u.u.}. X X|.}./.Q.z.u.p.1.%.{ F A A D D G G W n c c c u c x c l y 8 2 ; ; - % % $ @ @ @ + + O + O O O O O o o o O # O O + + @ - ]   ",
"            HXnX9XqX6Xj.{ p.R.}.}.+XP.g.K. X X X&X}.|./.v.x.J.2.%.~ K ! F W W ( W W n n c l D x G c u i > 2 ; - - - % $ $ $ @ @ @ + + + + O o o o O o O o O O O # - ]   ",
"        MXnXvX9XqXqX0X.X1.F 1.^.}.}.(.Y.Y.}. X X&XrXrX&X}./.U.P.h.O.o.^ ^ _ ^ ^ W ( D G c c n W W n j y 3 > ; ; > - - % % % $ @ + @ + + + O o O O o o o o O o O + * =.  ",
"      nXvXvXqXqXqXqXwX,X2.J s #.P.%X}.|.]..X,X,XrX5X4X3X X}. XOXP.1.;./ ^ ) ! ^ ) ^ W W G G W _ ( G l u 8 2 - ; > ; % % % $ $ @ + @ + + O O o O O o X . O o . + @ , jX  ",
"  HXbXvX9X9X9XqXqX0X6X Xu.F a s [ !. X X X X,X5XrXyXyXtXrX&X X&XU.2.;.) +.^ ^ ^ _ W W ( W ^ ! _ _ n j j y 2 2 ; > ; % % $ % $ @ @ @ @ @ + O O o . . o . o . . + @ `     ",
"  bXvX9X9X9X9X9X0XiX6X,X].J.i.f.c.U. XeX3XrX3XrXyXuXuXtXtXeX;X&XU.h.@.@.+.^ ) ) ^ W ^ ! H ! G ^ W x x j y 8 7 2 > - % % & - $ @ @ @ + + + + O o o o o o o . . + : 8.    ",
"  vX9X9X9X8X8X0X0XiXuX4X X].}. X X X3XtX5X5X5X6XuXuXuXuXtXeXeX*XY.2.;.;.+.) ) / W W ! W W W D G n j x u y h r 2 ; ; - ; - $ % @ + + + + + O O O o o o O o X o $ Q dX    ",
"  pX8X9XqX9X8X0XiXuXuXuX5X3X3XyX6X5XuXyXuXuXuXuXuXiXuXuXtXrX&X}.J.<.;.;.+.) ) / ! ! ! ! H W G D D x l y h j y 2 2 ; > ; - $ @ @ + + + O + O O o o o o O . . @ 9 4.      ",
"  mX!.6X9X0X8X2X0XiXiXiXwXyXwXuXiXuXiXiXiXiXuXuXuXiXuXyXrXeX}.Y.J.<.;.;.@.) ^ / ! ^ ^ ! G D H c D z l j j h r 7 8 2 7 2 - $ @ + + + + @ + + o o . o o o o O * ]         ",
"    lXL.2X2X6X6XiXpXiXpXaXaXiXiXiXiXiXiXiXiXiXwXuXuXuXyXeX XT.J.2.;.;.+.@.o./ / ~ ^ ^ ! D D D D A z l h j 8 8 8 r 8 9 > - $ $ $ $ # @ + O O O o . o o o o O : 4.        ",
"      sX{.{.XX7X0XpXpXpXpXpXpXpXiXiXpXaXiXiXiXyXuXuX6XtX,X}.L.J.d.<.>.@.@.+.o.) / / ^ ! H H F D c z z u j y y 0 7 7 7 < ; - $ $ @ @ @ + O O # O . o o o o # n F.        ",
"    HXiX1X{.{.2XpXpXbXpXpXpXaXpXiXiXiXiXiXiXiXwX6XyX5X3XXX}.L.g.d.<.<.>.@.@.o./ ) ) ) ) ! ~ H F c z l a l u t y 3 3 7 4 > ; % $ @ @ # O O O O O . . o o o = :.          ",
"    mX8X2X2X2X2XpXpXpXpXpXpXpXaXiXiXiXuX6X0XiXyXyXyXyX4X|.}.L.l.J.d.<.,.>.O.O.o.@.@.+.+.^ / W D D z z a p u u r r 3 2 4 > ; % $ @ @ + O O O O o . . o o + n F.          ",
"    nX8X9X2X2X0XpXpXpXpXpXiX0X0XiX0XiX0XiX6XyX6X4X3X3X X|.].L.U.P.g.j.d.<.%.O.%.>.@.>.#.~ / H A A z z a a p j t r 8 2 2 ; - % $ @ @ O O O O o o . o o + $ -.            ",
"    8X2X2X8X2X8X0XqXqXpXiX0X0X0XiXuXuX6X6X6XyX6X4X3X7X|.|.].!.L.J.J.l.x.d.d.u.p.u.p.1.1.} ~ S z z d s s z a a i r r 2 2 ; - % $ + O o O + O O o . O + @ k F.            ",
"  mX2X2X2X2X8X2X0XqX0X0X0XiXiX6X6X0XuXyXyX4X6X4X4XXXXX|.|.!./.L.Y.P.l.l.l.k.x.x.k.x.x.p.,.$.L S Z d a p z a t t t r < - - - % @ # O o O O O O O O O # g 5.              ",
"    <X7X1X2X2X2X0X0X0XiX6X0XuX6X6XuX6X6X4X4X3XXX7XXXXX|.|.(././.K.I.l.l.l.c.v.v.R.^.OX#X#X%X+Xm.I S s p u a t t i 3 2 - - - $ @ + O o O + + O O O O & ] E.              ",
"    xX X7X3X7X7X2X0X0X6X6X6XuXuXuXuX6X4X4X4X4XXXXXXX X|.|.|.}.Q.K.I.z.l.v.v.R.OX+X|.=X-X=X:X:X:X-Xm.P d p a u t t 3 2 ; - % $ @ @ O o O + O o O O # n F.                ",
"      mX>X{.{.{.7X2XiX6X6XuX6X6XuX5X4X4X4X4XXX3XXXXXoX X|.|.^./.K.I.K.I.I.I.^.^.OX+X+Xs.U Y e.$X:X:XS.P d s p t r 3 3 2 - % $ @ + O O O O O O O O & 4.gX                ",
"          lX[.[.XX2X6X6XuX6XtXtXtX4X4X4X:XXXXX XXXoX&X=X|.(.Q./.K.^.I.I.I.^.K.S.v.I.b.s.0.U e.B.#X-X-Xy.Z s p p t 8 2 ; - % % $ @ + O O O O O O @ n E.                  ",
"            lX~.].6X2X4X4X4X4X4XtX4X4XXXXXXXoXoXoXoX|.|.(././.K.Q.I.^.^./.%XOXv.a.v.e.m.~.).+X#XC.@X@X$XL s f t r 8 2 ; - % % @ @ + o O O o O $ 5 5.                    ",
"              lXQ.7X1X4X7X4XXX4XXX3XXXXXoXXX|.|.|.|.|.(.!.Q.Q.L.Q.Q.^.(.%XtX;Xq.U b.y.y.:X-X-X:X-XC.@X$X*.s t f 8 3 < ; - % $ @ @ O o O o O + 9 3.W.                    ",
"                lX[.4X4X4X4X4XoX3XXXXX[.[.[.|.|.(.(.(.(.Q.Q.K.B.Q.^.(.|.tXtXS.P w.M.b.s.:X:X:X:X-X@X@X$X*.Z a p 3 < < - % $ $ @ + O o o O # 6 3.gX                      ",
"                  P.3X3XXX4XXXoX|.|.[.[.(.(.(.|././.^.^.B.I.z.z.v.^.=X=X>X+XR Y 0.e.B.B.`.:X:X:X`.@X@XA.*.s a t 1 1 ; - % $ $ @ + O O O + g :.                          ",
"                FX0.3X3XXXXXoXoX|.[.[.].~.~.!.!.Q.^.^.v.z.z.z.b.z.^.=X`.R Y R R 0.0.+X#X`.:X-X`.'.@X@XV.[ a t t 3 1 % % $ @ @ O O o O # m 5.                            ",
"                D.C |.XXXXoX=X|.|.!.(.}.!.!.Q.Q.I.K.z.v.b.b.b.b.b.B.%X_.e.e.e.e.M.e._.-X`.-X'.V.V.@XA.n.S f p r w < % % @ @ + O O o # g 5.                              ",
"                r.C !.{.XX|.|.|.}.!.Q.!.Q.K.Q.Q.K.l.z.z.b.a.a.y...).-X:X>X#X_.`.B.M._.-X`.#XC.M.C.C.V.r.d p a t 3 ; % % @ O + O + 6 N                                   ",
"              hXE C (.|.|.|.=X|.|.(.Q.L.B.K.v.v.z.z.k.k.k.a.y...X.-X:XtXtXtXtXoXB.M.C.'.'.V.M.M.A.V.e.S p p u w < - % @ @ O O * M                                       ",
"              r.T m.~.|.}.!.(.!.!.!.K.K.v.l.z.z.z.l.b.k.a.y.q.X.X.-X:XtX;X:X-X#X'.).`.'.V.M.V.A.M.n.I f e p e 3 < - $ $ + O g -.                                        ",
"            D.E R +X!.}.!.(./././.Q.I.K.v.l.v.g.x.k.k.k.i.y...X.X.B.:XtX>X:X$XN.N.'.V.M.M.V.A.M.r.P f e e w < < - - % @ # m                                             ",
"          D.E m.~.~.~.!.}.Q./.Q.K.K.K.l.l.l.l.k.f.k.f.a.y.t.&...w.a.).#X`.`.'.'.C.C.V.A.V.M.e...I Z f w 1 < ; - - $ $ * N                                               ",
"        >Xe.r.B.~.!.!.U././.^.I.I.K.v.c.x.l.l.k.f.f.f.i.u.y.t.u.a.x.y.s.M.M.B.V.V.V.M.s.w...| [ S s w 1 < < ; $ * $ 5 '                                                 ",
"        >XB.M.B.Q.]././.U.L.I.I.v.K.v.l.x.l.k.f.f.k.f.i.i.i.a.k.b.v.c.y.w...0.0.0...X.X. .| { [ K d w 1 < - % $ + g 9.                                                  ",
"        +XM.B.).~.~.!.U.U.K.B.v.v.v.c.l.k.k.x.f.f.f.f.f.a.i.k.c.v.^.v.x.t.0.......X... .} } { / K Z p w < ; $ + m                                                       ",
"        hXB.B.~.~.~.!./.R.I.K.z.z.z.c.x.k.k.x.f.x.f.x.f.k.b.c.v.R.v.R.v.b.t.q..... . . .} } { { ~ F Z s w < $ N                                                         ",
"          }.!.~.!.!.Q.U./.K.z.z.c.k.x.x.x.f.j.k.f.f.k.f.k.x.v.v.R.^.P.c.k.f.t.&... . .}  .} } { K K F F s w m                                                           ",
"          zXT.!.Q.!.!.Q.K.K.z.z.b.k.b.k.k.f.f.f.f.f.k.j.f.x.c.v.I.I.v.v.x.x.x.y.t.&.$. .} } } { { [ ~ K J ]                                                             ",
"            zX].Q.L.Q.L.K.K.l.l.k.i.i.f.f.i.i.f.p.f.k.i.a.k.x.v.v.v.c.c.l.x.a.u.t.q.&.*.$.O. .} } { { ~ x '                                                             ",
"              zX!.Q.!.K.K.l.k.k.k.f.i.u.u.u.i.u.i.y.i.i.i.i.k.k.k.l.c.x.k.b.a.i.i.y.y.p.t.&.$.} } { { [ u b                                                             ",
"                .X!.!.K.z.k.i.k.f.i.u.t.t.t.t.t.u.t.t.y.t.y.k.k.c.v.c.z.x.k.k.k.p.i.t.t.&. .| L S P { @.( : N                                                           ",
"                eX!.L.K.l.i.u.y.i.t.t.,.%.%.$.,.,.t.&.&.f.x.c.c.c.v.z.k.k.k.i.y.q.w...*.*.*.*.| *.$.%.@.{ h g                                                           ",
"                zX].!.K.k.i.,.<.u.u.,.>.%.O.O.&.&. .&.k.c.c.v.l.z.k.k.a.y.q.&.q.y.j.x.m.k.k.p.y.u.t.,.%.{ c : 7.                                                        ",
"                  eX!.z.f.d.,.2.u.<.2.2.2.4.1.O.| ,.k.l.v.x.k.k.k.k.k.k.b.z.v.K.v.v.v.v.l.k.x.k.f.u.u.,.O.A * 7.                                                        ",
"                    xXdXE.dXlX            dX2.,.j.k.l.l.l.l.k.z.v.Q.I./.!.!.L.!.!.!.L.K.K.z.z.l.l.k.f.u.%.Z & NX                                                        ",
"                      JXJX                jXE.l.J.l.l.k.l.l.K.!.!.!.].].}.].].!.].].].!.!.Q.L.K.J.l.l.f.>.F B                                                           "
};
