/* XPM */
static char *_05c3547464048b6f8efc838538059c4PUIjLQVajm7Ve3x2[] = {
/* columns rows colors chars-per-pixel */
"74 80 240 2 ",
"   c None",
".  c #0C0000",
"X  c #060101",
"o  c #140001",
"O  c #1B0101",
"+  c #1B0209",
"@  c #240101",
"#  c #2B0302",
"$  c #2E0902",
"%  c #240804",
"&  c #320403",
"*  c #3A0402",
"=  c #330B02",
"-  c #3B0C02",
";  c #351103",
":  c #3B1303",
">  c #3E1A03",
",  c #440401",
"<  c #440C02",
"1  c #4A0D02",
"2  c #480502",
"3  c #530C02",
"4  c #5A0B02",
"5  c #431303",
"6  c #4C1402",
"7  c #431B03",
"8  c #4C1B02",
"9  c #4E100A",
"0  c #531403",
"q  c #591503",
"w  c #531B03",
"e  c #5B1C02",
"r  c #670F07",
"t  c #631504",
"y  c #631B02",
"u  c #6B1B02",
"i  c #6B1706",
"p  c #721D03",
"a  c #701701",
"s  c #4B2103",
"d  c #452101",
"f  c #542203",
"g  c #5B2403",
"h  c #5D2A03",
"j  c #542805",
"k  c #632402",
"l  c #6C2402",
"z  c #622C03",
"x  c #6B2B02",
"c  c #732303",
"v  c #732B03",
"b  c #7C2B03",
"n  c #7A2603",
"m  c #643204",
"M  c #6A3403",
"N  c #6D3A03",
"B  c #673E04",
"V  c #753302",
"C  c #7B3402",
"Z  c #733D03",
"A  c #7C3A04",
"S  c #783F08",
"D  c #753710",
"F  c #754205",
"G  c #7B4805",
"H  c #7C5007",
"J  c #941902",
"K  c #A31902",
"L  c #832C04",
"P  c #8B2C04",
"I  c #882805",
"U  c #9B2604",
"Y  c #843403",
"T  c #8A3502",
"R  c #843B03",
"E  c #8B3A03",
"W  c #803A08",
"Q  c #933402",
"!  c #943B02",
"~  c #9A3D02",
"^  c #983504",
"/  c #8B3C18",
"(  c #A72804",
")  c #A43D03",
"_  c #AA3704",
"`  c #BB3B02",
"'  c #B43802",
"]  c #BD2D03",
"[  c #854103",
"{  c #8B4303",
"}  c #824C0C",
"|  c #8A490A",
" . c #934302",
".. c #9B4402",
"X. c #954B04",
"o. c #9C4B03",
"O. c #984D08",
"+. c #8A5709",
"@. c #9D5205",
"#. c #945A0C",
"$. c #855412",
"%. c #895A15",
"&. c #915A14",
"*. c #8C4F10",
"=. c #A44402",
"-. c #AA4502",
";. c #A34C03",
":. c #AB4D02",
">. c #B34502",
",. c #B44C03",
"<. c #BA4C02",
"1. c #BB4602",
"2. c #A55304",
"3. c #AC5403",
"4. c #A55A06",
"5. c #AC5B04",
"6. c #A45408",
"7. c #A85708",
"8. c #AC5B09",
"9. c #A55B0A",
"0. c #B35502",
"q. c #BD5403",
"w. c #B35C04",
"e. c #BA5D03",
"r. c #B35E09",
"t. c #99670C",
"y. c #976518",
"u. c #9D7115",
"i. c #8E6414",
"p. c #AD6206",
"a. c #AC630A",
"s. c #A16D0E",
"d. c #B56204",
"f. c #BC6403",
"g. c #B46904",
"h. c #BC6A05",
"j. c #B56209",
"k. c #BA6409",
"l. c #B56B0B",
"z. c #BD6B09",
"x. c #BC7304",
"c. c #BC730B",
"v. c #BA7A06",
"b. c #A16914",
"n. c #A77519",
"m. c #B77A12",
"M. c #A4710F",
"N. c #885A21",
"B. c #9A6925",
"V. c #9D7524",
"C. c #A4742A",
"Z. c #A77926",
"A. c #A77C33",
"S. c #A97627",
"D. c #C34B04",
"F. c #C35C04",
"G. c #C75605",
"H. c #C26503",
"J. c #C36C04",
"K. c #CA6B04",
"L. c #C26E0A",
"P. c #C86306",
"I. c #D26B04",
"U. c #D66905",
"Y. c #C57304",
"T. c #CA7404",
"R. c #C47A03",
"E. c #CC7B04",
"W. c #C4740A",
"Q. c #CA7509",
"!. c #C5790B",
"~. c #CC7C0B",
"^. c #D17B04",
"/. c #D17D0A",
"(. c #D77706",
"). c #CC7B10",
"_. c #BA8617",
"`. c #AE8111",
"'. c #AC812B",
"]. c #AD8437",
"[. c #B38833",
"{. c #B99437",
"}. c #BA8D2A",
"|. c #CD8205",
" X c #CD830B",
".X c #CD8A0B",
"XX c #C38204",
"oX c #D48402",
"OX c #DB8C04",
"+X c #D4840B",
"@X c #D58A0D",
"#X c #DA8C0C",
"$X c #D98605",
"%X c #DC9302",
"&X c #D7920C",
"*X c #DE930D",
"=X c #DC9802",
"-X c #CB8914",
";X c #DA8C10",
":X c #D38610",
">X c #DD9610",
",X c #CB910D",
"<X c #E48A0C",
"1X c #E28805",
"2X c #E19B05",
"3X c #E1950C",
"4X c #E39B0D",
"5X c #E39505",
"6X c #E59C11",
"7X c #E39715",
"8X c #DDA206",
"9X c #DEA316",
"0X c #E5A306",
"qX c #EAAB06",
"wX c #E4A209",
"eX c #EAAA0B",
"rX c #E8A509",
"tX c #EBA513",
"yX c #E4AA18",
"uX c #EEB416",
"iX c #F3B30E",
"pX c #C49A37",
"aX c #D49930",
"sX c #E89B24",
"dX c #DDAB3A",
"fX c #E3AE28",
"gX c #EAB32A",
"hX c #EAB536",
"jX c #F0B531",
"kX c #EFC53E",
"lX c #BE9846",
"zX c #BA8D4C",
"xX c #C39351",
"cX c #C39D44",
"vX c #CAA547",
"bX c #D5AD4D",
"nX c #D8B54E",
"mX c #E4B941",
"MX c #D5A666",
"NX c #E3C150",
/* pixels */
"                                                                                                                                                    ",
"                                                              {.'.[.                                                                                ",
"                                                    cXB.B.+.G $.B.n.u.].A.A.].{.vX                                                                  ",
"                                                bXcXH F N h z Z N B m M F F F F G V.bX                                                              ",
"                                            '.G F F N z f h h h 8 8 j f f h m j h m N.vXnX                                                          ",
"                                        vXS.G m m M h g f 8 6 5 5 8 w f s 8 8 : < * ; F u.Z.                                                        ",
"                                    cXZ.M H M m z f f 1 5 5 * & * - - < < 5 7 < - - $ = m G B.vX                                                    ",
"                                    n.D M m w f w 8 5 5 8 - = # # & - : : 7 : - - - * & j j F H {.NX                                                ",
"                                  $.Z M g 1 w h 8 8 s f 8 7 = $ : : - - : = = - 5 5 - = f - 9 m N i.{.                                              ",
"                              B.G Z m f 5 : f h 8 8 j j s - = 5 7 7 - : - : - - : 5 - < - # - f g g N +.                                            ",
"                            C.F M m w 8 5 8 s s 5 7 s 8 : - 7 d 7 : - : : - : = : = - 7 & # & = f w h M N.                                          ",
"                          '.} z h g f 5 5 - & & = - : : & 7 8 s 7 : - 7 5 : 7 > : = : : & # # & 5 h g h z N %.].                                    ",
"                          }.M 8 j e w 5 & # $ & = = = # = d 7 > > 5 > > ; ; = # # # # $ # @ @ & = f g g g z N Z B.                                  ",
"                          $.8 8 9 8 7 # # # # % # # # & = = = = & > 7 7 > = # # # @ $ $ # # @ & - 8 8 w h g h M Z i.pX                              ",
"                        $.w 5 5 5 : # # # = ; d : = = # # @ # @ $ $ = : ; $ # $ = = & # # # @ & : 8 : 5 8 f f g z Z n.bX                            ",
"                      Z.g 5 5 < < % # # $ $ : d 7 : = @ @ @ @ @ O # # # & = ; ; ; = $ $ # # @ # : 7 = = 7 8 w w w z +.pX                            ",
"                    pXM w 5 8 5 # # O O # # : > d > $ @ @ @ O O O % # % % ; > > $ $ $ $ = @ @ $ 7 > # & : 5 0 8 5 g Z u.                            ",
"                    %.w g w < # # @ O @ @ # = > : ; $ $ @ @ @ @ # # @ O O o O @ % # # # # @ # & : $ # & - - 6 6 - w z } _.                          ",
"                  A.g e w 9 $ # O O O @ # # = $ $ ; ; = $ $ @ @ @ O O O O O o O @ @ # # # # @ $ # @ @ & - = 1 8 6 0 h z M.                          ",
"                vXM e 0 5 & @ O O O O @ @ # % @ @ # $ $ $ @ O O O @ $ ; ; # : = # @ @ O O O @ @ @ @ # # & = - - < 5 h e M.                          ",
"                ].k 6 5 & # O o o O O @ @ @ @ O O O # @ O O O O # # = ; $ # > : = # # @ @ # # # # # # & & * - * - 6 k 0 y.                          ",
"                &.w 6 - & @ O o o O @ % O O O O O O @ O o o O @ @ @ O @ @ # # ; = $ # # # & # # # # # # & = - - - < w 0 +.                          ",
"              nXD 8 1 # # O o o O O @ O O O O o o O O o o O @ @ @ O @ @ % # = = & # # # # @ # # # # # # & - : 5 - * 6 h +.                          ",
"              [.e 1 < & # o o O O # O o O o O o o o o O o o o o o o o . . O # = # # # # @ # @ @ @ # @ @ # * 5 - & < 0 z s.                          ",
"              y.w 1 * # O o O O # O o o o o o o o O o o o o o o . . . X . O + % @ @ # @ # # # @ # @ # # & - * < < 0 6 z n.                          ",
"              i.0 1 * # O O O @ O o o o o o o o o o o o o o o o o o o . . . X O O @ @ @ # @ # # # & & * * < - < 6 0 0 z m.                          ",
"              t.1 5 - # @ # # @ O o o o o o o o o o o o o . . o o . o . o o O % & 5 = # & & & # * 6 6 6 6 6 6 6 g e w M Z.                          ",
"              &.1 1 1 & @ # # @ o o o o O O o o o o o o . . o o o . . o . o O # & 5 1 6 < 1 1 , 6 h x z q 0 0 e e g w x '.                          ",
"              #.< 1 < # # * # + O O O O @ # # O O o o . . . o . . . . o o o @ # * 5 6 w e e 0 0 y A A A v q e e k e g V Z.                          ",
"              t.1 < 1 & * * # # O @ @ # & * & # O o . . . . o o . o o o o O # & * 6 g k k k y x E X.X.X.Y l y k y e h Z Z.                          ",
"              t.1 < < - * * < < 1 0 k k k q 6 < O . . . . . . . o o o o O # # * , 0 k l l l b E @.6.7.7...C c l k k x V C.                          ",
"              t.6 < , 1 * < e k x Z [ | { { A w O . . . . . . . o o + O @ # & * 1 y u l v R  .;.8.5.r.5.6.! Y v e q k C A.                          ",
"              s.0 < < 1 < 0 k V E O.@.O.O.W q @ o o o o . . o o o o + @ # # * 2 0 y p b ! ..;.r.d.d.j.j.5.;. .Y k y l V C.                          ",
"              M.e 1 , 1 < q z A | o.*.E v 9 # O o o o o O o O O o O @ # # & , 4 u n T ..:.3.r.d.j.j.j.h.d.5.2.o.v k M C C.                          ",
"              `.z 0 , , 2 q v [ O.O.E u q 1 w < & + O o O O o O O @ # & * 2 3 c E ..2.3.3.r.f.d.d.h.h.h.h.d.3.2.R x V C B.                          ",
"                S 0 1 < 1 q M [ X.6.O.O.X.....R u * @ O O O # # # * , , 3 u R ..;.7.8.r.j.k.h.h.h.h.z.z.z.h.5.4. .v V V S.                          ",
"                *.w 0 3 2 q v { @.@.6.6.2.o.2.O.E v y 0 < , , 2 , , 3 t n ! o.7.5.r.j.j.h.h.z.z.z.L.W.W.L.z.d.w.o.R C V S.                          ",
"                $.q q 3 1 q v { @.6.6.6.6.2.2.2.6.o. .Y c t 4 4 t i n E ..6.8.r.d.k.h.z.z.W.z.L.W.W.!.!.!.W.x.g.d.o.R A Z.                          ",
"                t.e e w 0 e C  .@.2.4.6.3.6.7.7.7.7.6.o.! T Y Y Y Q ~ ;.:.r.r.r.k.z.z.z.L.W.L.W.!.).).~.!.!.!.c.x.g.{ R pX                          ",
"                n.e y e 0 l A { @.4.4.4.2.6.7.7.4.7.7.7.6.;.6.....o.;.3.8.r.k.k.j.z.z.z.z.z.L.h.L.z.W.!. X X~.~.R.x.{ o.&XeXiXjX                    ",
"                -XM k y x A [ X.9.a.9.9.5.6.4.7.4.4.8.7.7.7.6.;.6.:.7.7.5.r.d.r.r.k.j.r.r.3.;.;.;.o.@.3.l.W. X+X Xx. .r.OX5X1X3X                    ",
"                  } g k V X.X.2.a.j.p.5.9.4.2.7.6.7.7.7.7.7.6.3.6.:.3.5.5.r.r.r.0.3.;...T n i i c L E  .X.;.x.-X.Xl.4.T.oXP.] U.                    ",
"                  b.k k R 4.4.p.g.l.a.@.{ !  . .X.X.o.......X.;.;.3.3.3.5.0.3.3.:...Q L p a i n T ..o.2.2.2.5..X@Xh.g.^.(.(.] U.                    ",
"                -Xm.C l R a.l.l.a.4.E c c i i t i u u n T ! ! ..:.:.3.0.3.3.:.:...~ ! P L n b b T X.2.5.d.h.!.-X&Xx.Y.^.1X<X] (.                    ",
"              @XoXY...v C a.x.c.9.R b n Y b v p u u i c L T T ! o.:.:.0.3.0.:.-.=...! P t < $ & , t L ! 8.L. X&X&XL.1.U.1X<X` <X                    ",
"              ~.F.K.d. .C 9.c.c.4. . .X.X.X.{ W v v v L T  . ...;.:.3.0.0.3.3.3.:.~ I 9 o o . o j h 9 L =.h. X:X&XT.` D.U.(.G.sX                    ",
"            .XF.K q.H.w.E 2.m.c.d.4.7.@.X.b w & O O @ < c T X.;.2.3.3.0.0.e.d.0.:.^ r 0 o . . % } 4.E c ..H.:X&X*XE.D.` U.U.(.                      ",
"            .XD.( H.H.f.3.2.W.v.l.j.8. .p - : o o X o m v c ! o.2.0.w.f.f.L.L.f.3.~ i i < + + 8 +.o.7.k.W. X@X&X>X#X(.U.U.(.sX                      ",
"            .XG.( I.K.H.:.6.z.W.c.k.7.n 2 9 v + o . + S W r  .;.3.f.f.H.!.).~.W.k.0.=.~ ^ Q ! ~ =.3.f.~.:X#X>X*X6X%X$X$X(.1XjX                      ",
"            ,XF.K P.K.,.U -.z.!.W.z.5.! E n n q - : e b L Q =.2.5.d.L.Q./.+X;X/.Y.L.0.-.) =.-.0.e.h.Q.~.@X&X>X3X6X$X1X5X1XtX                        ",
"              Q.( F.F.' _ >.z.W.!.L.h.d.5.3...Q P T Q Q ! ~ :.0.f.d.L.~.+X#X;X;X+X~.!.f.,.-.>.0.0.H.T.+X#X=X4X>X6X=XrX5X3XjX                        ",
"              -XP.G.F.' 1.e.L.!.!.Y.W.z.k.w.0.3.:.-.=.) =.3.0.w.f.Y.E.~.#X#X#X#X;X+X+XE.T.L.H.H.Y.^.+X#X4X4X4XwX8XwXeXqXgX                          ",
"                .XH.G.<.<.F.H.!.!.~.!.W.H.f.e.w.0.:.:.,.0.k.H.L.Y.T.E.^.$X;X3X;X*X#X#X;X@X$X@X@X#X3X7X6X6XrX4XrX2XrXeXiXkX                          ",
"                  E.H.P.q.G.e.W.!.Q.~.R.R.L.h.f.H.f.P.L.L.L.L.T.T.T./.+X#X3X3X3X*X3X*X*X*X*X*X3X4X6XtXtXtXtXrXrX4X%XqXuX                            ",
"                    Y.H.K.K.H.J.~. X~.E./.~././.~./././.Q.Q.!.Q.T.E.+X$X#X3X3X3X3X3X3X3X*X3X3X4X4XtXtXtXtXtXeXeX=XE.5XjX                            ",
"                      T.Y.^.T.T.~.|.|.|.+X+X+X+X+X+X/.+X/.Q.T.T.Q./.+X#X#X3X4X4X3X3X3X#X<X3X3X3X6XtXtXtXtXtXeXeX8XhX                                ",
"                        E.^.^.T.E. X|.|.+X@X;X;X;X+X+X/.~.T.Y.Y.T./.+X<X7X6X6X6X6X3X3X#X$X$X$X*X4X6X6XtXtXtXeXqXwX                                  ",
"                          oX(.Y.R. X X+X@X#X#X#X;X;X+X/.E.K.J.T.T.^.+X+X;X3X7X6X3X3X3X#X$X^.$XOXOX3X4XwXwXeXeXqXyX                                  ",
"                            E.H.Y. X.X+X+X+X@X#X:X+X/./.Y.J.Y.T.T./.^././.+X;X#X#X3X3XoX^.^.T.^.$X#X*X*X4XwXqX0XyX                                  ",
"                                R. X.X+X+X+X+X$X;X/./.E.K.H.H.Q.Q.K.K.Q.E.^.^.^./.+X#X^.^.^.T.T.^.^.$XOX2XwX0X0XgX                                  ",
"                                   X XoX^.+X+X^.(.(.~.K.H.H.f.H.f.0.k.H.P.J.K.e.-.<.!./.E.^.T.Y.K.T.^.OXOX=X=X0XgX                                  ",
"                                  XX X|.+X/.^.^.Q.Q.L.K.f.f.f.e.0.:.-.0.f.e.f.q.0.K./././.^.K.H.H.H.J.T.OXOX%X=XgX                                  ",
"                                  XX|.E.E.E.T.T.J.J.H.d.f.f.d.e.e.0.0.0.q.0.e.f.L.Q./././.~.J.f.e.e.H.T.oXOX=X=X                                    ",
"                                  R.E.E.E.Q.Y.J.H.f.e.e.w.d.e.f.k.e.0.0.0.0.e.H.K.)././.Q.L.f.0.0.0.H.Y.^.oX%X9X                                    ",
"                                    R.T.T.Y.Y.J.f.0.3.0.0.w.d.r.r.r.0.0.0.0.q.k.P.z.L.).W.z.:.^ =.0.H.T.E.oXOXfX                                    ",
"                                    R.R.Y.Y.H.d.f.0.:.=.3.5.r.w.0.0.0.0.0.0.r.e.e.P.P.F.q.) ^ ) -.0.J.E.oXoX&X                                      ",
"                                    `.T.Y.J.H.f.w.3.=.Q ^ -.3.0.0.8.3.:.0.q.,.' _ _ ( U _ F.H.H.e.e.K.T.E.oXhX                                      ",
"                                    _.v.Y.Y.h.f.d.0.:.Q Q P P P P I U U J J J J ( ' <.P.Q.).~.!.L.f.H.Y.E.aX                                        ",
"                                      m.x.z.h.d.d.5.:.:.6.:.:.=.( U U ( ( ( ' 1.D.G.U.Q.Q./.:X~.T.g.J.T.-XmX                                        ",
"                                      m.m.l.g.g.d.d.3.3.3.w.w.4.r.0.0.,.<.1.<.q.F.P.K.L./.). X~.R.Y.J.~.dX                                          ",
"                                      n.p.5.p.p.p.5.5.5.9.j.r.r.r.e.r.0.0.0.0.0.k.H.L.)./.Q./.~.T.Y.Y.pX                                            ",
"                                      *.2.4.3.p.5.5.r.5.5.r.j.r.r.r.r.0.0.0.0.0.e.L.L.L.~.Q.Q.Q.R.R.v.9.zX                                          ",
"                                      *.2.4.4.3.3.5.5.5.5.a.j.r.d.r.8.r.0.0.0.q.e.k.h.K.Y.W.Y.Y.Y.R.|.a.&.                                          ",
"                                      *.2.3.2.2.2.4.3.3.5.5.5.r.d.r.r.0.w.0.0.e.0.h.H.L.W.W.Y.Y.Y.E.|..X| xX                                        ",
"                                      C.o.2.2.;.2.;.;.2.3.4.a.r.r.r.w.r.w.e.k.e.f.H.L.Y.!.T.Y.Y.R.R.|.oXj.B.                                        ",
"                                        O.;.;.;.;.2.;.;.o.3.4.5.d.5.r.w.d.r.k.k.f.h.H.L.L.L.J.J.Y.E.|.OXW.D zX                                      ",
"                                          X.;.2.;.;.;.o.o...X.3.3.d.5.r.w.w.w.w.k.d.H.h.J.H.h.Y.T.E.oXoXR.l zX                                      ",
"                                            X.;.o.=.o.....~ ~ ~ ;.4.a.5.5.0.5.0.0.d.f.d.f.h.J.Y.E.|.|.|.Y.v zX                                      ",
"                                              X.;.;.o... .~ ! ! ! ..;.3.7.3.3.3.0.w.0.w.d.J.Y.T.|.|.oX|.z./ MX                                      ",
"                                                @.o.=.......! ! ^ Q ! ! ! ..o.o.=...-.d.Y.Y.T.oXoXoX|.E.l.xX                                        "
};
