/* XPM */
static char *feffbb8da4ab4362a61ae769622f5c60J85aGoZXWsbyzKCL[] = {
/* columns rows colors chars-per-pixel */
"64 64 243 2 ",
"   c None",
".  c #0E0100",
"X  c #140001",
"o  c #1D0101",
"O  c #240101",
"+  c #2C0202",
"@  c #330303",
"#  c #3B0403",
"$  c #350903",
"%  c #3C0A04",
"&  c #380808",
"*  c #3C1002",
"=  c #430403",
"-  c #4A0503",
";  c #430B04",
":  c #4B0C03",
">  c #4A0E09",
",  c #530D04",
"<  c #5B0E03",
"1  c #520503",
"2  c #451204",
"3  c #4C1304",
"4  c #4B1904",
"5  c #4B1309",
"6  c #491B0A",
"7  c #531404",
"8  c #5C1503",
"9  c #531A05",
"0  c #5B1B05",
"q  c #541C0A",
"w  c #5B1B09",
"e  c #561409",
"r  c #491D11",
"t  c #631503",
"y  c #641C05",
"u  c #6C1C05",
"i  c #621D0A",
"p  c #681A08",
"a  c #721F08",
"s  c #5D230A",
"d  c #58260A",
"f  c #582913",
"g  c #5F3215",
"h  c #642205",
"j  c #6C2404",
"k  c #6C250B",
"l  c #692909",
"z  c #732403",
"x  c #7B2603",
"c  c #732B04",
"v  c #7B2C04",
"b  c #762C09",
"n  c #69330C",
"m  c #7B3304",
"M  c #7E3905",
"N  c #783508",
"B  c #663616",
"V  c #773614",
"C  c #6E2D10",
"Z  c #5E3521",
"A  c #663E20",
"S  c #75491B",
"D  c #7E4A19",
"F  c #6F4116",
"G  c #664124",
"H  c #7D4B23",
"J  c #785527",
"K  c #7B5734",
"L  c #6F5131",
"P  c #822C04",
"I  c #872C04",
"U  c #833404",
"Y  c #8B3304",
"T  c #833B04",
"R  c #8B3C04",
"E  c #823B0A",
"W  c #893909",
"Q  c #923C05",
"!  c #943808",
"~  c #973A13",
"^  c #BB3C08",
"/  c #AB2D06",
"(  c #874205",
")  c #884209",
"_  c #934404",
"`  c #9B4304",
"'  c #9B4B05",
"]  c #984809",
"[  c #96550B",
"{  c #844814",
"}  c #944E14",
"|  c #8C5617",
" . c #915A12",
".. c #A24D04",
"X. c #A64A05",
"o. c #A45406",
"O. c #AB5405",
"+. c #AD5A05",
"@. c #AE5B09",
"#. c #AA570B",
"$. c #B55D03",
"%. c #B85B07",
"&. c #AD5B16",
"*. c #B05111",
"=. c #98631B",
"-. c #B66102",
";. c #BB6404",
":. c #BE6B0B",
">. c #BC6607",
",. c #AD771D",
"<. c #B36B14",
"1. c #834D21",
"2. c #885827",
"3. c #8A5831",
"4. c #89652E",
"5. c #976838",
"6. c #9A7538",
"7. c #8F6632",
"8. c #AA7A2A",
"9. c #B17D27",
"0. c #A97734",
"q. c #AD7635",
"w. c #C34806",
"e. c #CA5C0C",
"r. c #D45C09",
"t. c #C25711",
"y. c #C26503",
"u. c #C46C02",
"i. c #CB6D03",
"p. c #C46D0A",
"a. c #C96309",
"s. c #D66608",
"d. c #C67104",
"f. c #CB7404",
"g. c #CE7905",
"h. c #C6720B",
"j. c #CC7509",
"k. c #CC7A0B",
"l. c #C77C0C",
"z. c #D27C05",
"x. c #D27D09",
"c. c #D97706",
"v. c #CB6512",
"b. c #D36714",
"n. c #C67914",
"m. c #D87717",
"M. c #E46D07",
"N. c #EB750B",
"B. c #EC7C0B",
"V. c #E57608",
"C. c #E57D11",
"Z. c #F27F12",
"A. c #F17F0A",
"S. c #C57A22",
"D. c #906C43",
"F. c #947544",
"G. c #A27943",
"H. c #BC8B39",
"J. c #B8872F",
"K. c #D58304",
"L. c #DA8505",
"P. c #DD8B05",
"I. c #D5820A",
"U. c #DA850A",
"Y. c #DD8A0C",
"T. c #D48808",
"R. c #DE9304",
"E. c #DE930C",
"W. c #D98814",
"Q. c #D9911B",
"!. c #CB8319",
"~. c #E18D07",
"^. c #E3860B",
"/. c #EE830A",
"(. c #E28D0A",
"). c #EC8B0E",
"_. c #F28B0D",
"`. c #F1820C",
"'. c #E49405",
"]. c #EA9D07",
"[. c #E5920B",
"{. c #E9950A",
"}. c #EC9B0B",
"|. c #E59908",
" X c #F39A0E",
".X c #E78714",
"XX c #F38511",
"oX c #F68D12",
"OX c #E49311",
"+X c #EB9A13",
"@X c #E89614",
"#X c #F99413",
"$X c #F99E13",
"%X c #F59715",
"&X c #EDA304",
"*X c #EDA10C",
"=X c #EBA50B",
"-X c #F2A40D",
";X c #F5AB0D",
":X c #F8AD0F",
">X c #F2AA05",
",X c #F7B30C",
"<X c #F9B30E",
"1X c #FBBA0B",
"2X c #FAB905",
"3X c #EBA213",
"4X c #F2A312",
"5X c #FAA115",
"6X c #F6AB11",
"7X c #F9AE11",
"8X c #FAB412",
"9X c #F9BA12",
"0X c #F7B71D",
"qX c #C6983B",
"wX c #C58929",
"eX c #E59D2B",
"rX c #E6A938",
"tX c #F1B837",
"yX c #EBB439",
"uX c #FDC00B",
"iX c #F8C328",
"pX c #B7864F",
"aX c #BC9248",
"sX c #B7965B",
"dX c #AB8650",
"fX c #B99D60",
"gX c #C89846",
"hX c #C18E54",
"jX c #D4A949",
"kX c #DEB659",
"lX c #CEAA52",
"zX c #EAB749",
"xX c #F2BB46",
"cX c #EBB752",
"vX c #E5AF48",
"bX c #DEB86A",
"nX c #CFB36F",
"mX c #F5C448",
"MX c #F9D14F",
"NX c #F3C955",
"BX c #F3CC59",
"VX c #D8C37C",
"CX c #FAD967",
/* pixels */
"                                        sXF.5.D.F.K G 5 # = > ; = % @ @ # = = ; ; 3 ; # = d J 6.nX                              ",
"                                    dX2.H i : # # # # = ; # # @ @ @ @ @ $ + & % % & # @ # % ; 9 K dXbX                          ",
"                                nXG.B 4 3 ; # ; 3 5 : 2 > = # ; # # @ + + + $ @ & @ + & # # # ; ; g 6.gX                        ",
"                              VX4.s > % # & ; 4 * & # @ # @ @ @ & % % # $ @ @ @ + + + & + + O O + * s n F gXqX                  ",
"                              F.0 2 # # % 2 2 $ + @ @ + $ $ $ * * % @ $ @ % % $ & & $ + O O O O @ ; % * 4 D 9.                  ",
"                          dXG > ; % % ; ; @ $ + + + + $ $ $ + + + O O O + + + O O O o o o o O O O O X + ; 9 D H.                ",
"                        K Z > # # = ; ; $ + + + O + + + o O O O O O O $ + + O O o O O O o o X o o o O + + @ d 8.gX              ",
"                    dXB 3 ; ; @ % % $ + + O + + $ + O O O O O O O + O + O O o o o O o o o o o o X O o o o O * 2.qXqXjX          ",
"                  F.f ; & ; % # $ + + O + @ $ % $ O O + O O O O O + O + O X O + + + O o O O O o o o o o X O @ B =.9.gXkX        ",
"                sXZ ; # # @ @ @ O O + + + @ + + O O + O O O O O O O O O O O O + O O o O O o o o X o o O o O @ # F  .J.wX        ",
"              nXL = ; $ & $ @ O o O + $ $ + + + @ $ + O O o O O o o o O O O O o o o o o o o X o O o o o o + + @ 4 D 0.9.        ",
"            nX7.# 5 & + + + + o o o + + + + + * % @ O + O o o O o o O O O o X o o o o O + O O O O o o o o + + + + 3 n =.H.      ",
"            7.f 9 % + + + $ + o O O + + + + $ 4 % @ O O O O o o O O O O o X o X o X O O + O + O O o o X o O + O O # 9 | ,.      ",
"          fXf 5 4 $ o O O + O o X O + + + + $ 4 % @ + + + O O O O O + o O O O X o o + O O O O O o o o o X o O + + $ # s [ J.    ",
"          4.4 0 ; + o o O O o X X O + + $ + % 2 % @ + @ + + + + O + + O O O X o O + O o O + O O o o o o o O O + @ + + = l [ gX  ",
"        G.n 3 9 # + O o O O X X X O O $ @ $ # 2 % % # @ @ + $ @ + O $ + + o O O + + O O O O O o o o O o X O O O + O + @ % n 0.  ",
"      fX3.9 4 2 @ + O X O o X o O O O & & * % % % 2 % $ % $ % + O + $ + + o O $ $ O O O O O O o O O O O o O O + O + + @ # 7 2.  ",
"      6.r 2 3 ; @ + o o O O X o + + + & $ 2 2 % % # + + $ & % @ @ % + + + + @ * + O O O O O O o o o o O O O O O @ + @ @ @ : 1.  ",
"      4.# : : # # + O O + + O O & + + $ % $ % % & + @ @ % @ 2 6 % % @ $ @ @ % 2 @ + + + + $ O O o O O O O O O + + + @ @ + > 1.  ",
"      K # 3 ; % @ + O + @ & @ + + + & % $ o O + $ O @ & % @ % 2 % 2 % $ $ @ 4 ; @ + + + % $ + O O + O + + + + + + + @ @ + = 1.  ",
"      G # ; ; ; @ @ + + % 3 3 2 % $ & & o X X X + + $ + + $ % + & 2 2 % + 2 4 ; % # @ # 2 $ + + O + + + + @ @ + + + @ @ + = H   ",
"    D.5 # = : 4 & @ + + % 9 0 0 0 4 & + X X X X O @ $ O O % * + & @ @ @ % 3 2 # @ & @ 2 6 @ + + + + + + @ + @ + + @ @ @ @ : 6.  ",
"    3.# & @ e s 2 # @ + @ ; 7 0 s h % o X . X X O + + O + % & + @ O O @ 3 4 ; @ + @ % 9 3 % $ @ + + @ + + $ + + + @ @ @ @ 5 0.  ",
"    l # + + 7 c c j w w 1 - , , 0 9 2 X . X X O O + O O @ @ @ & $ O o + 2 9 ; @ % % % 9 ; % @ @ @ @ @ @ + + + @ @ @ @ @ # 5 0.  ",
"  aXn + + O d ] ' ] W m b b U N y : # O X X X @ + O O + @ + @ & & O o O 2 3 ; % % # ; 7 ; # % # @ + @ + + + @ + $ + @ @ @ > H.  ",
"  lX=.+ o o 5 _ @.@.@.#.o.o.' ] U t = + O X + @ O + + O + @ & ; @ O o + 4 e e > ; # : ; ; ; ; # @ @ @ + O + + + + + + @ @ q qX  ",
"  cXH.6 + o = a Q @.p.h.p.:.@.' Q c , @ + + @ & @ + $ + @ + % % + + + % 7 7 d ; 5 # : ; ; : ; % + $ @ O O O + + + + + @ @ g jX  ",
"    lX2.d @ l #.>.p.j.k.k.h.>.o.` P p - = & = ; # # 2 + @ @ ; 2 & % 4 e 0 w w 7 7 : 7 = ; ; ; @ + + @ + O + + + + O + @ + F jX  ",
"      aX5.V o.k.k.k.l.g.g.j.p.%.` Q P t < - , , 5 > 9 # # # 7 7 2 w 0 h s w w e 3 7 3 : 3 3 ; @ + + + + + + + + + + O @ @ 2.    ",
"        gX<.k.U.I.x.I.I.g.k.j.:.O.Q Q x p , 1 7 e , e 3 7 ; 7 7 , k k c i 0 0 9 - 7 : : : 7 = @ + + + + $ $ + + + + + @ = 0.    ",
"        vXW.R.E.W.I.I.I.I.x.x.h.%.X.Q Y v < 1 t < 8 8 y l s 8 0 0 j N { l y l 0 7 9 , : , 7 ; # @ @ @ @ @ + + + + + + @ f q.    ",
"        cXQ.R.R.Y.U.U.U.T.I.I.j.u.%.O.X.W u < u < l y j c c j j h c ) } N j h y h y 7 7 7 w : = # # @ # @ + + + @ + + @ S J.    ",
"        BXS.>.g.K.U.W.Y.Y.Y.U.x.d.>.$.%.` R a z p N b N N M m m b M ) [ F j h y l h 0 0 0 0 7 , ; ; # # # + + + @ + + @ S       ",
"          J.W ` +.y.k.Y.OXOX(.U.I.f.u.%.;.+.` U b E M M N T M E M T M ) T c j j C h 8 h 0 l 7 7 7 7 = # @ + + + @ @ @ @ S       ",
"          vX<.+.-.;.%.k.OX@X[.E.(.U.x.j.p.p.>.' ! ) W M m ( M T M T T m m v z l k h t h 0 0 0 8 7 3 - # @ + O + @ @ @ 2 |       ",
"          xXE.T.K.j.$.%.j.Y.@X[.[.[.OXY.x.I.k.:.o.] R R M ( T T ( T M M m m c j k j y l y h y 8 7 , , ; # @ + + @ @ @ n 9.      ",
"          mX=XR.K.I.:.:.;.x.(.@X}.+X}.+XOXY.Y.W.:.' _ _ R R T T ( T m m m m c j z l z j j j y 8 < : : - # # @ + @ @ * D         ",
"          tX;XE.T.I.I.l.j.f.z.[.|.+X*X*X+XOXE.Y.n.+.' _ ( R ( T ( T m m M m m c c j z c c j j y 7 < , = = # @ @ @ # d 5.        ",
"        mX0X3XS.&.&.:.l.k.x.T.P.{.*X-X3X4X}.|.Y.K.-.' ' _ R R R ( R T T W U m v v v v c c c c j 8 < < : = # # @ @ % 1.          ",
"        iX9X7XeXS.~ C } -.g.Y.E.|.}.-X4X4X+XOXY.l.-.' _ _ _ _ Q _ _ _ R R U P P x v v U x c c j y 8 , , - = # # # f q.          ",
"    BXiX1X1X<X6XE.@.V i ~ a.E.|.}.*X-X4X*X}.+XY.g.-.' ' _ _ _ Q _ _ _ _ R Y P P P P a P P x z j h 8 < : - = = @ ; 2.            ",
"  MXiXuXuX1X8X7X}.u.X.] >.I.E.+X=X-X;X4X4X*X}.Y.x.;.+.+...o.` _ ' o.' o.Q Q Y Y I I I P I x v b j j 8 < - = = = S               ",
"CXiXuXuX2X<X<X7X3X~.T.U.[.+X6X6X;X;X;X-X-X}.|.[.K.u.u.;.-.-.$.+.%.;.;.u.p.v.m.m.m.v.X.! Y I v v c k y < - - = S                 ",
"MXuX2X2X2X,X<X6X6X4X}.4X6X0X7X7X:X;X6X-X-X*X|.[.L.c.g.d.u.d.u.u.d.f.I.^.@X%X%X#X%X%X/.e.X.Q R m v j t 1 1 - g 8.                ",
"MX1X2X2X2X,X;X:X7X7X7X7X8X8X8X8X7X;X6X6X-X-X}.[.(.L.z.z.x.z.j.x.x.Y.OXOX.Xm.b.N._.oX#XXXa.` R R v z y , 1 : S                   ",
"CXyX>X9X,X,X,X<X9X9X8X8X8X8X<X8X8X7X;X4X-X-X}.{.[.~.L.L.z.z.z.I.U.^.^.^.b.^ ^ r.V.B.`.XXC.O.Q U m z u < < B                     ",
"    eX+X&X&X>X8X9X9X9X9X8X8X<X8X:X6X;X;X-X-X+X}.[.(.~.~.~.L.Y.^.Y.Y.c.c.t.m..XZ././.N.Z.Z.e.Y U P x t < w q.                    ",
"    xX+XP.P.;X8X9X9X8X<X1X<X<X8X;X:X;X4X*X}. X{.{.{.(.~.~.~.(.(.(.OXm.a.r.v.eX#X#XoX/.A.Z.b.Y U m a t 8 2.                      ",
"    mX*X&X>X,X9X9X9X1X8X,X,X,X,X:X-X-X-X}.].{.{.{.'.).~.(.[.{.[.+X4X%./ w.r.s.#X#XoXA.N.Z.b.W P z u t 2.                        ",
"    tX&X>X,X;X9X9X8X8X8X<X<X<X7X:X-X-X-X}.{.{.{.{.'.~.~.(.[.(.{.+X%Xt.^ ^ e.C.C.#XXXM.N.N.e.P x u u {                           ",
"    tX&X>X>X,X<X8X8X8X8X<X:X;X:X:X-X>X}.].].'.{.{.'.'.(.[.[.[.{.(.v.w.s.s.r./.XX`.A.M.N.N.*.a u p 1.                            ",
"    cX3X&X>X:X:X7X8X8X7X7X7X7X;X-X-X}. X{.{.'.~.(.~.(.(.(.^.(.OXC.e.r.c.V.M.B._.A.N.M.M.M.~ a p 1.                              ",
"      zX|.}.>X;X:X:X:X:X:X;X-X-X-X}.}.{.'.{.[.~.~.~.(.^.P.L.L.{. X X{.oX_.V.V./.B.M.B.N.*.p k 3.                                ",
"      cXK.L.&X;X:X-X:X:X;X-X;X X}.}.}.].{.{.[.~.~.~.L.L.L.L.c.{.$X X5X5X X_././.M.B.N.e.] ) q.                                  ",
"      cX.Xj.(.-X-X-X-X-X;X X}. X X{.{.{.[.'.~.~.L.L.U.^.z.c.u.).5X5X5X5X#X_./././.V.i.$.&.                                      ",
"        rX[.P.'.-X-X-X X}.}.}.}.}.'.'.{.~.~.~.P.L.L.z.z.c.f.e.z. X$X$X$X X_.)./.c.f.u.<.                                        ",
"        NXQ.|.'.}.-X}.}.}.{.{.{.{.[.(.~.~.L.Y.L.U.U.x.z.g.y.y.y.c./.).).^.V.c.i.d.;.!.                                          ",
"          yX&X'.'.].].'.{.{.{.'.(.(.(.Y.L.U.c.z.x.x.j.f.i.i.u.i.u.u.i.i.i.y.y.u.;.d.!.                                          ",
"          iX&X'.'.'.'.'.~.~.(.(.(.Y.U.K.z.c.x.z.j.j.j.d.i.u.d.f.j.i.u.u.;.u.u.u.u.h.                                            ",
"            =X'.'.P.R.P.~.P.~.L.L.U.K.x.x.g.g.d.f.d.d.u.u.i.f.j.x.f.d.u.u.u.u.u.u.f.!.                                          ",
"            zX'.R.P.T.T.L.K.K.K.K.K.K.g.f.f.d.u.u.u.u.u.u.u.f.g.x.x.d.i.u.u.u.u.u.d.k.                                          ",
"              rXR.P.P.K.K.K.K.K.z.g.g.d.h.u.;.;.;.;.y.;.u.i.f.g.x.x.z.f.d.d.u.u.i.d.g.!.                                        ",
"                rXQ.W.m.x.!.g.j.k.n.n.S.] &.$.-.-.-.;.u.d.g.j.k.k.x.z.j.d.i.u.d.d.f.f.g.qX                                      ",
"                    bXpXq.gXgXH.hXaXhXpX  <.;.;.;.;.u.d.g.g.g.z.k.x.z.g.z.g.g.z.g.g.g.g.n.                                      "
};
