/* XPM */
static char *_3e1168511c74e6794153d00bd33de0dQ0fc7yD799WBhDuB[] = {
/* columns rows colors chars-per-pixel */
"64 64 220 2 ",
"   c None",
".  c #0D0000",
"X  c #060101",
"o  c #140001",
"O  c #1C0101",
"+  c #240201",
"@  c #2B0302",
"#  c #2E0A02",
"$  c #320402",
"%  c #3A0503",
"&  c #330C02",
"*  c #3B0C03",
"=  c #361103",
"-  c #3C1203",
";  c #3E1902",
":  c #440502",
">  c #440C02",
",  c #4B0B02",
"<  c #4B0502",
"1  c #510802",
"2  c #431303",
"3  c #4B1303",
"4  c #441B02",
"5  c #4D1C03",
"6  c #531402",
"7  c #5A1402",
"8  c #531C03",
"9  c #5B1D03",
"0  c #631D02",
"q  c #6B1C02",
"w  c #691308",
"e  c #711D03",
"r  c #482106",
"t  c #542203",
"y  c #5B2403",
"u  c #5E2A03",
"i  c #5E3204",
"p  c #632302",
"a  c #6C2402",
"s  c #632D03",
"d  c #6D2B03",
"f  c #742503",
"g  c #7B2503",
"h  c #742B03",
"j  c #7B2C03",
"k  c #653205",
"l  c #6B3504",
"z  c #6D3B03",
"x  c #743302",
"c  c #7C3103",
"v  c #743B07",
"b  c #733F0B",
"n  c #7C3A02",
"m  c #6E420E",
"M  c #74440D",
"N  c #79440B",
"B  c #7C4B0B",
"V  c #764507",
"C  c #7B5310",
"Z  c #852D03",
"A  c #992604",
"S  c #843303",
"D  c #8C3602",
"F  c #843C02",
"G  c #8B3C03",
"H  c #923402",
"J  c #943B01",
"K  c #9B3E02",
"L  c #A32603",
"P  c #AD3B03",
"I  c #A63603",
"U  c #B43B02",
"Y  c #C13B02",
"T  c #874103",
"R  c #8B4203",
"E  c #804E0B",
"W  c #944304",
"Q  c #9B4402",
"!  c #944A05",
"~  c #9D4B04",
"^  c #954A08",
"/  c #84550D",
"(  c #8A540A",
")  c #8B5A0D",
"_  c #9C5105",
"`  c #9E5209",
"'  c #925A09",
"]  c #824E11",
"[  c #835413",
"{  c #84561A",
"}  c #845918",
"|  c #8A5D18",
" . c #985814",
".. c #A34402",
"X. c #AA4401",
"o. c #A34C03",
"O. c #AC4E02",
"+. c #B64403",
"@. c #B94403",
"#. c #B24A04",
"$. c #BC4C02",
"%. c #A45305",
"&. c #AB5404",
"*. c #A65A05",
"=. c #AC5B05",
"-. c #A55408",
";. c #AB5A08",
":. c #A55808",
">. c #B25502",
",. c #BB5403",
"<. c #B35C04",
"1. c #BA5D03",
"2. c #B25E08",
"3. c #94630C",
"4. c #9D700E",
"5. c #936213",
"6. c #94631D",
"7. c #98631B",
"8. c #9E721E",
"9. c #AC630A",
"0. c #AA630A",
"q. c #B56205",
"w. c #BB6304",
"e. c #B66B04",
"r. c #BD6A05",
"t. c #B56209",
"y. c #B96408",
"u. c #B36909",
"i. c #BD6B09",
"p. c #BD7207",
"a. c #BD730B",
"s. c #BD7A0B",
"d. c #BA6E1E",
"f. c #A67513",
"g. c #A4751D",
"h. c #B06E14",
"j. c #895823",
"k. c #975D2C",
"l. c #8D6220",
"z. c #956322",
"x. c #976824",
"c. c #9B7427",
"v. c #A57A2B",
"b. c #A77928",
"n. c #A87A36",
"m. c #C44A04",
"M. c #C25404",
"N. c #C35C04",
"B. c #CA5A03",
"V. c #C26502",
"C. c #CA6505",
"Z. c #C36C04",
"A. c #CB6A05",
"S. c #C26E09",
"D. c #C0630B",
"F. c #D66908",
"G. c #C57404",
"H. c #CA7404",
"J. c #C37C03",
"K. c #CC7B04",
"L. c #C4730A",
"P. c #CA740A",
"I. c #C57A0B",
"U. c #CC7B0A",
"Y. c #D17C04",
"T. c #DB7D03",
"R. c #D17D0A",
"E. c #DB7303",
"W. c #DD7A13",
"Q. c #BE8415",
"!. c #AC802E",
"~. c #AA8434",
"^. c #B58E35",
"/. c #BA9132",
"(. c #CD8105",
"). c #CC830A",
"_. c #CA870A",
"`. c #D48403",
"'. c #D58804",
"]. c #DA8C06",
"[. c #D4840B",
"{. c #DA840B",
"}. c #D48B0D",
"|. c #DA8C0D",
" X c #DD8207",
".X c #DD9202",
"XX c #DE920D",
"oX c #DB960A",
"OX c #D98713",
"+X c #DF9210",
"@X c #CE8917",
"#X c #E18C06",
"$X c #E19B06",
"%X c #E1950C",
"&X c #E39B0D",
"*X c #E49806",
"=X c #E69D11",
"-X c #E59919",
";X c #E49711",
":X c #E78F19",
">X c #DFA309",
",X c #DDA01C",
"<X c #E4A306",
"1X c #E4A30B",
"2X c #EAAA0C",
"3X c #E9A808",
"4X c #EDB00B",
"5X c #E7A211",
"6X c #EBA512",
"7X c #E6A71A",
"8X c #EFB21B",
"9X c #D1932B",
"0X c #DCA936",
"qX c #E7A927",
"wX c #EAB227",
"eX c #F0BD2D",
"rX c #EBB43C",
"tX c #BA9542",
"yX c #CBA748",
"uX c #C29460",
/* pixels */
"                                                                                                                                ",
"                                                    ~.v.b.b.                                                                    ",
"                                            yXc.{ B z N C [ } | j.l.x.v.                                                        ",
"                                        v.} { V s y u u t t t u k k i m c.yX                                                    ",
"                                    tXb.N k k s t t 4 2 2 5 t 5 5 2 2 * r C 8.~.                                                ",
"                                  v.B V s i t 5 > 2 * $ $ % * * 2 2 * * @ 4 l } ^.                                              ",
"                                6.B s t 8 t 5 5 r 4 - $ & * * - * * * 2 & 2 5 u M c./.                                          ",
"                            x.] V u 8 2 t t 4 t t 4 * - 4 - - - * = * 2 * 2 & * t i M 5.                                        ",
"                            [ l u 5 4 2 5 4 2 5 4 = 4 4 2 - - - - - = = - - $ $ % 5 y l {                                       ",
"                          g.k y 9 5 2 & $ $ * = & - 4 4 4 ; ; - - - & & & # @ @ $ 5 t u s M j.~.                                ",
"                          | 8 5 8 2 $ @ # @ $ $ $ - - = = ; ; ; & @ @ + $ @ @ + $ 2 t 8 y u l [ v.                              ",
"                        [ t 2 2 ; @ @ # = ; = @ @ @ @ @ # & ; = & @ & & # @ @ + $ - 4 4 8 t t s E ^.                            ",
"                      c.u 2 2 * $ + @ & ; r ; & + + + + O @ @ # & = = & # & @ + & ; = * 2 5 8 8 l g.                            ",
"                    ^.m 8 3 2 $ + O + @ = ; ; # + + + O + + + + # = # # # @ @ + & - & $ - 2 3 2 t V g.                          ",
"                    j.y 8 2 @ + O O + # = & = = # @ + + + + O O o o + + @ @ @ @ @ # @ $ * * 3 3 8 k 3.                          ",
"                  v.s 8 > $ + O O O + + @ + @ # # @ + O + + # = # = # + + O O + + + + @ $ * > 2 3 y )                           ",
"                  x.6 3 $ + O o O O + + O O O + + O O O @ @ # # $ = & @ @ + @ @ @ $ @ @ $ * * > 6 y [                           ",
"                  M 3 % @ O o O O + + O O o O O O o O O + + + + @ & = @ @ @ @ @ @ @ @ @ $ * * * > 6 V                           ",
"                ^.9 , $ + o o O + O O O o O O o o O o O O O O O + # $ @ @ @ @ + @ + @ + @ * - % > 8 (                           ",
"                6.3 : @ O O O + O o o o o o o o o o o o . X X . O + + @ + + + @ + @ @ @ $ * * > 3 7 5.                          ",
"                / , > @ O + + O o o o o o o o o o o o o o o . . . o O # @ + @ @ @ $ $ % > > > 6 6 t 5.                          ",
"                ) , > $ + @ + O o o o o o o o o o o . o . . o o o O # ; * * % % % 3 8 9 3 3 3 9 9 y 5.                          ",
"                / > > $ @ $ + O o O O + + O o o o X o o . . o o o + $ > 3 8 6 6 6 p x x p 9 9 y 9 y 5.                          ",
"                ) : > % % $ @ + + @ $ % $ + o o . . . . . o o o O @ $ 3 9 u p 0 f R ! ! S q 0 p y d 6.                          ",
"                ) < > > % > 3 3 9 s d p 8 % o . . . . . . o o O @ % : 7 p a a c W %.-.-.! j a 0 p d z.                          ",
"                3., : > % 6 s x T ! ^ T d * . . . . . o o o O + $ $ < 7 q j F Q -.2.t.=.&.W S p 9 h z.                          ",
"                3.6 > , , 9 v R ^ ^ T d * o o o o o o o O O + @ $ : 7 f Z J o.;.t.t.y.q.2.%.W h a l z.                          ",
"                4.9 , : , y n ! ` S 0 6 3 > + O o O O O O + $ % : w j W o.&.<.t.r.q.r.y.y.<.%.R h x |                           ",
"                  l 1 , , p n ! ` ` ! W W S 7 & @ + @ $ $ % < 7 h R o.&.2.2.y.r.i.i.i.L.r.w.=.! h x 7.                          ",
"                  N 6 6 , 9 F _ ` -.%.%.` ~ R c 0 7 1 < 1 7 e Z Q &.=.2.t.r.i.r.i.S.L.L.L.r.q.-.G c 7.                          ",
"                  E 9 7 6 p G _ -.-.-.-.-.-.-.~ W S j j g S ^ -.;.2.t.i.i.S.S.L.L.I.U.I.I.I.p.e.*.F b.                          ",
"                  5.9 7 9 h G _ :.:.*.-.*.;.;.&.-.o.^ Q Q ..-.&.2.y.y.y.i.i.i.i.i.S.S.I.).).U.J.e.R s.5X8X                      ",
"                  f.a p d T W -.0.*.;.-.-.-.;.;.-.-.&.%.o.&.&.<.2.2.2.t.2.<.%.~ Q ^ o.-.u.L.).).u.%.K.#XW.-X                    ",
"                  f.v p n _ %.0.q.0.%.` %.-.o.-.-.-.o.%.&.&.&.=.<.<.&.O.Q D g q f c J W ~ =._.}.u.e.Y.A.Y W.                    ",
"                  _.( a R 9.u.u.*.! S j h j v S D J W Q o.&.&.>.&.&.o.K D Z e g Z J o.;.q.e.J.}.r.P.T. Xm.W.                    ",
"                @XI.=.x T u.a.0.G j j j f q w e f Z D J ..O.&.&.#.O...Q H Z 7 > 2 9 j W =.L.}.}.L.N. X#XB.:X                    ",
"                H.V.V.~ F u.a.=.! ! ! ! n h a a j G W Q o.&.>.>.&.#.O.K g > o o = k p j o.L.@XoXZ.@.B.E.F.                      ",
"                $.P V.1.~ 9.a.u.=.%.R h 3 + . O 8 j G ~ %.>.>.1.w.y.&.K w , o X 5 ( ^ ! 2.I.oX+XY.B.B.E.OX                      ",
"              _.$.+.C.V.O.;.a.p.y.~ q , t o X O v h S o.=.q.w.Z.U.P.y.&.H S j h D ~ 2.L.U.}.oXoX|.`.E.T.qX                      ",
"                M.+.A.,.I ;.L.p.y.%.S j f 6 * 8 j S K o.>.w.G.U.[.[.P.D.2...I X.&.1.S.U.}.+X+X=X].#X#X=X                        ",
"                S.$.N.+.P ,.I.I.L.y.q.&.Q H D H J K X.=.q.V.U.[.|.OX[.).P.w.>.#.,.w.G.[.XXoX&XoX*X*X=XwX                        ",
"                  A.N.+.$.V.I.I.L.L.r.q.1.&.O.X.X.O.1.w.Z.H.K.}.+XXX|.|.[.`.P.H.H.`.{.XX;X&X1X<X3X4XwX                          ",
"                  U.V.N.$.N.L.U.U.I.G.Z.w.1.1.1.w.D.Z.L.G.K.[.{.|.%XXXXX|.|.XX|.XX%X=X5X5X3X3X.X*X4XeX                          ",
"                      V.C.V.V.U.U.(.K.U.K.R.U.U.U.P.L.H.H.K.[.{.%X%X%X%X%X%X%X%X;X5X6X6X6X2X3X>X[.6X                            ",
"                      H.G.Y.H.J.).K.[.[.{.}.[.{.R.U.H.H.H.R.{.|.%X=X&X%X%X].#X%X&X=X6X6X6X2X3X>XrX                              ",
"                        Y.Y.H.K.).).[.|.OX|.OX[.Y.P.G.A.Y.R.|.+X;X=X&X%XXX{.`.'.XX%X=X=X6X6X4X1X                                ",
"                          Y.G.H.(.[.[.{.}.OX[.OXY.P.Z.G.H.R.{.{.|.+XXX%X%X'.Y.Y.`.].%X&X1X3X3X7X                                ",
"                              J._.).[.[.[.{.[.R.K.A.V.P.P.A.H.H.Y.R.R.[.{.Y.Y.H.H.Y.`.].*X<X<XqX                                ",
"                                _.).(.R.[.Y.Y.Y.A.V.w.V.w.1.1.V.V.V.>.,.H.R.R.P.A.G.H.`..X.XoXwX                                ",
"                                (.(.(.R.Y.H.G.Z.w.w.w.q.>.#.>.<.1.1.y.A.R.R.U.P.V.V.V.K.`..X$XwX                                ",
"                                J.K.K.H.A.Z.V.w.q.1.q.w.2.<.>.>.>.w.Z.P.R.R.P.D.1.<.1.A.Y.].oX                                  ",
"                                J.J.K.G.Z.r.1.>.>.<.q.1.2.,.>.>.,.1.D.D.P.P.S.#.K O.w.G.Y.'.,X                                  ",
"                                  J.G.G.V.w.<.O...&.<.2.>.&.>.>.>.,.1.,.D.,.#...X.O.V.H.Y.}.qX                                  ",
"                                  s.G.G.r.q.>...H J ..o.o.......X.P I I P #.D.S.Z.w.V.H.`.9X                                    ",
"                                    p.Z.r.q.<.&.....I J A A A L L L U m.B.P.R.R.G.G.r.G.@X0X                                    ",
"                                    s.e.e.q.=.=.&.&.=.=.;.#.+.+.+.$.M.C.P.P.R.).U.G.Z.I.0X                                      ",
"                                    0.9.q.=.q.=.;.=.2.2.2.2.2.>.,.>.1.w.Z.P.U.U.H.J.G.9X                                        ",
"                                    ` *.=.=.=.=.<.2.2.t.2.2.2.>.>.<.<.w.Z.P.L.H.G.G.J.0.n.                                      ",
"                                    ` &.%.%.&.=.;.=.9.2.q.2.>.>.>.>.1.w.D.G.P.G.G.J.(.s.k.                                      ",
"                                    ` %.o.%.%.o.%.=.=.=.t.1.1.<.1.1.w.w.Z.L.P.G.G.G.(.'.9.n.                                    ",
"                                     ._ o.%.o.o.~ o.%.=.=.t.2.2.t.q.y.w.r.S.Z.Z.Z.G.K.'.i.j.                                    ",
"                                      _ ~ o.o.o.Q Q Q o.&.;.2.;.>.>.1.q.w.r.r.V.G.K.(.`.i.j.                                    ",
"                                        ! ~ o.Q Q Q K J Q o.&.=.=.=.>.q.<.q.r.G.G.(.`.(.y.k.                                    ",
"                                          _ _ Q Q Q J J J J K K Q o.....O.w.Z.K.(.`.`.U.d.uX                                    "
};
