/* XPM */
static char *e016faeaf99c4c1b846ca0dd6f9bd6caTQLcR85HOrpwHByH[] = {
/* columns rows colors chars-per-pixel */
"70 80 245 2 ",
"   c None",
".  c #060101",
"X  c #1C0101",
"o  c #160102",
"O  c #240101",
"+  c #2C0102",
"@  c #340202",
"#  c #3B0402",
"$  c #3D0A02",
"%  c #360A03",
"&  c #3B1204",
"*  c #420302",
"=  c #4B0302",
"-  c #430C02",
";  c #4C0B02",
":  c #5C0101",
">  c #530C03",
",  c #580802",
"<  c #451303",
"1  c #4B1403",
"2  c #4C1A03",
"3  c #471806",
"4  c #531403",
"5  c #531B03",
"6  c #5B1C02",
"7  c #5B1602",
"8  c #6C0202",
"9  c #630603",
"0  c #790803",
"q  c #631D02",
"w  c #671603",
"e  c #761804",
"r  c #552203",
"t  c #5C2202",
"y  c #5B2707",
"u  c #4F2103",
"i  c #642302",
"p  c #6A2402",
"a  c #642A03",
"s  c #6B2B02",
"d  c #66290B",
"f  c #732C03",
"g  c #792504",
"h  c #6C3303",
"j  c #6F3508",
"k  c #733403",
"l  c #7C3503",
"z  c #733B04",
"x  c #7D3B03",
"c  c #753809",
"v  c #753811",
"b  c #794309",
"n  c #7E4F1B",
"m  c #861902",
"M  c #931D03",
"N  c #842A03",
"B  c #982A04",
"V  c #843402",
"C  c #833B04",
"Z  c #8B3B03",
"A  c #8A3505",
"S  c #933C03",
"D  c #9B3803",
"F  c #A72904",
"G  c #A83803",
"H  c #B53E04",
"J  c #B32F02",
"K  c #C93902",
"L  c #C02904",
"P  c #8A4303",
"I  c #864707",
"U  c #944203",
"Y  c #9B4203",
"T  c #9A4C03",
"R  c #954A05",
"E  c #945202",
"W  c #9D5303",
"Q  c #995903",
"!  c #854B16",
"~  c #8B5615",
"^  c #945719",
"/  c #A34D02",
"(  c #A94704",
")  c #BE4B02",
"_  c #B84605",
"`  c #A55203",
"'  c #AA5503",
"]  c #AD5B03",
"[  c #A65907",
"{  c #B35D03",
"}  c #BC5C04",
"|  c #B75706",
" . c #A85D15",
".. c #AC6204",
"X. c #B46304",
"o. c #BA6504",
"O. c #BD6B04",
"+. c #BC6B0A",
"@. c #B66608",
"#. c #BC7305",
"$. c #AF6F1A",
"%. c #955928",
"&. c #8C5522",
"*. c #96672A",
"=. c #986A33",
"-. c #9D7338",
";. c #A67A37",
":. c #B07127",
">. c #9D6A1D",
",. c #C84703",
"<. c #D44D02",
"1. c #D44602",
"2. c #CA5C03",
"3. c #C65804",
"4. c #D45203",
"5. c #DC5402",
"6. c #DA5B04",
"7. c #E25C03",
"8. c #E15C09",
"9. c #C26402",
"0. c #CB6405",
"q. c #C36C03",
"w. c #CA6D04",
"e. c #C26C0A",
"r. c #CB6B0A",
"t. c #C9640A",
"y. c #D36404",
"u. c #DB6405",
"i. c #DC6B05",
"p. c #D46C0A",
"a. c #D86A09",
"s. c #C47205",
"d. c #CC7404",
"f. c #CD7B04",
"g. c #C5740B",
"h. c #CB750A",
"j. c #CC7B0B",
"k. c #C47B08",
"l. c #D27505",
"z. c #D37B04",
"x. c #DB7A04",
"c. c #D4740C",
"v. c #D37D0B",
"b. c #DA7C0C",
"n. c #DB7408",
"m. c #D57C12",
"M. c #CE7411",
"N. c #E46C03",
"B. c #E46307",
"V. c #E37607",
"C. c #E67A13",
"Z. c #E96C16",
"A. c #A77643",
"S. c #AD823B",
"D. c #B5853B",
"F. c #BB913B",
"G. c #CD8308",
"H. c #D58303",
"J. c #DB8404",
"K. c #DD8B04",
"L. c #D4820C",
"P. c #DA850C",
"I. c #D48B0C",
"U. c #DD8B0B",
"Y. c #D58B02",
"T. c #DC9203",
"R. c #DD930D",
"E. c #D89709",
"W. c #D98A13",
"Q. c #DA9614",
"!. c #E18D05",
"~. c #E18D0C",
"^. c #E88707",
"/. c #E49305",
"(. c #EB9405",
"). c #E49B04",
"_. c #EA9C05",
"`. c #E4930B",
"'. c #E9950D",
"]. c #E59A0C",
"[. c #EA9C0C",
"{. c #F19A0A",
"}. c #E48912",
"|. c #E49412",
" X c #E39A12",
".X c #EB9D11",
"XX c #E79615",
"oX c #F39D13",
"OX c #F59B13",
"+X c #ECA305",
"@X c #E6A10C",
"#X c #EDA20C",
"$X c #ECAA09",
"%X c #F2AB05",
"&X c #F1A40D",
"*X c #F4AB0D",
"=X c #F5A709",
"-X c #F6B30B",
";X c #F9B40C",
":X c #F7BA0B",
">X c #FABA0D",
",X c #F6B606",
"<X c #EDA212",
"1X c #EAA715",
"2X c #F3A512",
"3X c #F5AB13",
"4X c #F9AD13",
"5X c #F5AC19",
"6X c #F9AF1B",
"7X c #F5B313",
"8X c #FAB414",
"9X c #FABB14",
"0X c #F6B41A",
"qX c #FAB41B",
"wX c #FABC19",
"eX c #F6B912",
"rX c #EFB210",
"tX c #C88F26",
"yX c #E9A829",
"uX c #F9B722",
"iX c #EDB32F",
"pX c #DFA31E",
"aX c #FCC40C",
"sX c #FBC215",
"dX c #FAC31C",
"fX c #FAC71A",
"gX c #FACA24",
"hX c #F9C828",
"jX c #FBC835",
"kX c #B78746",
"lX c #B58D49",
"zX c #C5974D",
"xX c #C79956",
"cX c #C08241",
"vX c #CBA345",
"bX c #C9A558",
"nX c #D5A958",
"mX c #D6AE50",
"MX c #CAA362",
"NX c #DCB766",
"BX c #E0AB50",
"VX c #F5CB47",
"CX c #E8C675",
"ZX c #EFCD6D",
"AX c #F3D187",
/* pixels */
"                                                  S.=.! b h a s z z I D.NX                                                                  ",
"                                            bXD.! j b h h b z h z z z I ~ S.bX                                                              ",
"                                          S.z s s a t y a a t t 6 6 t s k b =.S.NXlXS.lXNX                                                  ",
"                                      bX*.h y y t t t y y t 5 5 5 5 t a h h c z b h c z b S.nX                                              ",
"                                  bX*.z t a a 5 4 5 r t r 1 < < < 4 t 6 t t t 6 t s s a 4 5 ~ NX                                            ",
"                              nX~ h h 5 t i 5 - < 1 2 $ @ @ < 2 2 1 1 < 2 5 4 1 4 4 t y 5 3 2 %.                                            ",
"                            bXb h a 1 2 r < # $ - - @ @ % - < 1 - - < 1 - - # # $ - 1 5 5 d y y lX                                          ",
"                          bXb s a 5 ; 4 & + @ % - $ $ $ $ < < 2 2 2 5 2 2 1 1 3 < - $ * ; - - 1 &.MX                                        ",
"                        xXj t a t 1 4 3 @ $ $ 3 - $ $ $ $ & 3 y r 3 5 1 2 2 2 < $ & - < - $ $ - y b -.AX                                    ",
"                      MXv 2 t t 3 2 5 % < < < 3 # # % @ @ + % & & % % @ # @ $ - * # @ @ @ + O + $ u d ;.CX                                  ",
"                      n t y t 1 5 r < 3 < < u 3 1 < + + % @ + + + + O + @ # @ $ * @ # - - @ @ + + 2 r 2 S.mX                                ",
"                    -.5 5 h y r r 3 u u u r 3 3 < @ % < u $ @ # % O + * = = * > > ; > 7 5 t 6 < - 2 r @ r ~ zX                              ",
"                  lXt # r 5 3 2 - < < 2 u 3 < < & - < 2 2 $ & @ @ * > > ; = > > 7 p f f f d i 6 1 1 r # - a >.kX                            ",
"                  v $ $ - @ @ - $ # % # % & 3 < < 3 $ $ 5 4 - * 5 7 7 w w w g N Z S R ` R V d 4 - ; 2 @ - 1 a ~ nX                          ",
"                ;.< @ 3 @ + @ # @ @ @ @ @ @ % $ % % @ $ - - - 4 7 w e N N T ' | ' [ @.+.+.W f ; - ; - @ # # 5 ! lX                          ",
"                b # # $ + + @ @ # @ $ < @ O + @ @ @ @ + @ @ * > w A ` { o.o.+.@.{ { ' [ [ Z 7 = - * # @ @ # 4 s D.AX                        ",
"              xX4 @ 1 @ + + @ * - 5 y $ + O + @ + O X O @ # , e T +.j.m.G.h.q.} | ( Y D S N f e w 6 ; @ # # > 6 ;.CX                        ",
"              kX* - * @ @ $ ; 4 d d * + + @ # + o o O + # , A  .W.XXXXXX.X`.U.W.P.l.w.q.9.o.{ / P l i * # # > 6 ;.CX                        ",
"              =.* 4 # # = 6 i p w , # # * = @ O X O @ * w U g.pXyX5X1X5X5X<X.X<X<X|.U.U.P.v.M.e.@.T f * * ; ; 6 =.CX                        ",
"              *.; ; * ; p I P l e 7 , , > = # # * = , e ` j.1X6XuX5X6XqX5X1X5X2X<X<X].XX~.P.W.G.j.{ k ; - ; ; i &.CX                        ",
"              =.7 ; > g P [ ` U / [ Y l g N V g N g S e.I. XuXuXuXuX6X0X4X5X6X3X<X<X<X X X`.R.P.L.+.C q 4 ; 7 q ! ZX                        ",
"              *.7 = f Z [ @.X.g.M.m.v.h.g.g.g.+.o.e.L.|.<X5X6XuXuXuXqX7X7X4X5X3X5X<X<X<X.X X|.P.v.@.S Z p 4 6 6 *.CX                        ",
"              ~ d 7 C R { g.j.j.m.L.U.}.XXXX|.|.XX'.[.<X3X6XuXuXuXuXqX7X7XqX5X5X3X<X#X[.<X.X[.U.d.o.] [ C 6 6 6 ;.AX                        ",
"              I s q C ` @.g.j.j.L.I.U.`..X.X.X<X<X<X<X<X3X6XqXqXuXuXqX5X6X5X5X2X.X X`.R.~.R. X|.I.j.g.@.T i q > &.                          ",
"              k s p V W +.g.j.L.L.P.U.|..X.X.X<X<X<X2X5X5X5X7XqXqX6X0X5X2X#X.X`.J.q.| ] { o.s.G.Q.W.L.+.] l i > j NX                        ",
"            vXs s f l W @.g.k.j.v.I.U.`.`..X.X.X<X<X<X<X<X2X&X3X3X*X<X#X[./.H.w.} | ( G ( ' { X.O.I.I.k.X.R f 6 s bX                        ",
"            D.s s p l W @.g.g.j.L.I.}.U.|.`.`./.`.].].].#X#X#X&X&X&X_._./.!.l.w.3.{ 9.q.f.j.f.O.{ O.G.j.#.R x a f lX                        ",
"            F.s i p l T @.g.j.L.G.L.L.v.f.h.q.f.P.J.J././.].#X#X&XoX/./.!.J.z.z.d.H.P.~.`.`.`.P.d.O.O.f.#.W P P l S.                        ",
"            F.s i p k T X.g.j.j.e.X.` ( S D G ` 9.d.d.J.K./.[.oX&X.X/.!.!.K.J.J.U.~.'..XoX1X.X'.U.f.9.k.g.@.W E E =.                        ",
"            vXs q i f U ] g.g.] S S S D Y / ( | } q.w.f.J.K./.[.[.[././.K.K.!.~.~.XX.X2X5X2X1X.X].R.f.d.L.G.X.Q E ^                         ",
"            mXs 6 q s T ..#. .Y / { q.h.d.f.s.d.d.l.d.f.z.J./.[.[.[./.!.K.K.!.U.U.U.|.|.}.}.|.XX]. X`.H.R.Q.G.Q E E CX                      ",
"            vXh q q p Z [ @./ / O.j.P.R.`.}.P.L.z.l.z.l.z.J./.(.&X2X2X(.`.!.~.J.J.P.U.W.|.W.L.P.R.].<XR.Q.1XE...E E NX                      ",
"            vXl i w p C ' ' Y ] j.I.}.XX[.XX}.W.v.z.d.z.z.J.`.#X*X4X4X&X(./.K.H.l.d.o.' ! l C  .m.U.<X<X1X1X@X#.E Q nX                      ",
"            mXb f f p C ` ' ' O.G.U.XX|.~.W.L.M.h.d.h.d.z.~.].#X7XqX8X3X#X_.'.l.(  .A.%.+ O o # g X.`.5X1XrX1X#.Q Q nX                      ",
"              I k l x W ] ] X.h.L.L.U.P.L.L.W.m.g.| | d.H./..X*X8X8X8X4X$X@X@Xh.} tXzXn O O 3 g V ( Y.<X0X0XrX#...Q zX                      ",
"              ;.x x P ..O.@.s.j.L.v.h.j.e.[ ^ A a q e h.H.`.&X*X4X8X8X8X7X*X#X(.!.v.v.O.@.{ } g.f.T.@X7X0X0XrXG.....zX                      ",
"              F.C P E #.j.g.G.L.j.d.+.S g ^ 5 o O o y L.K.&X3X8X8X8X8X8X8XqX4X#X/.J.x.H.J.J.~.].[.#X7XqXwX0X0XE.X.X.xX                      ",
"              F.b P Q I.Q.L.I.I.h.Y w w W $.5 X 3 b G.K.<X5X*X3X8X8X9X8X8X9X8X8X*X2X[.(.!.!._.<X5X9X8XwXwX9XwX X#.s.mX                      ",
"                z P Q I.R.I.T.L.( N A D ' { ' o.j.L.W..X2X&X7X8X9X9XwXwX8X;X8X8X8X8X8X8X8X8X8X9XwXsXdXdXwX0XwX1XH.T.eXgXjX                  ",
"                I P E G. XR.Q.I.z.v.r.v.z.z.v.L.U.`..X2X.X&X7XwXwXwXgXwXwX8X;X8X8X9XwXsXwXsXgXfXfXgXdXdX9XwXwX3X).-X9X[.[.hX                ",
"                ~ P P G.E.E.@X X`.`.`.`.`.`.`..XOX2X2X[.[.2X-X8X9XwXwXqX9XqX9X7X4X8X9XfXgXgXgXgXgXgXdXdXdX9XwX7X$X3X(.x.6.^.jX              ",
"                $.P P #. X@X@X#X2X<X2X&X2X3X4X4X4X4X&X[.oX4X2X2X4X2X4X4X3X3X8XqX*X*X7XdXgXgXgXgXgXgXdXdXwXwXwXrX+X+X=X;X^.N.jX              ",
"                  R P ..Q.@X@X2X7X7X0XwXqXwX9X9X8X4X[.[.2X#X[..X[.[.oX[.W.+.J.*X&X=X&X;X9XdXgXgXgXgXdXfXsXsX9X7X).&X7X9X%XN.jX              ",
"                  >.E ..].@X@X1X7X8X9X9XdXdXwX9X8X*X).(.`.x.X.@.^././.c.g e ,.^.).+X&X%X>XdXgXfXdXdXfXsXdX9XwX0X/.y.=XwX>X^.gX              ",
"                  tX[ X.R.1X@X#X3X9X9XwXwXsXwX9X8X#X/.!.J.H 9 g 0.J.J.J.!.~.(./.&X*X*X+X-X9X9XsXdXfXsXsX9X9XwXeX&X<.(.;X>X^.sX              ",
"                  +Xf.s.R.@X@X#X*X8X9XwXwXwX9X8X*X_.).x.l.l.d.z.J.J.K.'.#X2X2X4X4X4X*X=X+X;X>X9XsXsXsXsXsXsXsX8X8X^.(.=X;X(.hX              ",
"                +X`./.H.I.].#X#X*X7X8X8X9X9X9X8X*X(.(.!.!.~.`.`./.`.].[.3X3X4X4X4X7X4X*X_.%X;X;X>XsXwXsX9X9XwXeX;X=X{.,X,X%XVX              ",
"              7X6.,.n.J.H.`.[.#X#X*X;X8X8X8X8X4X=X]._..X.X(..X[.]..X.X2X5X7X4X4X4X4X4X4X=X_.=X;X>X>X9X>X9XwXwX>X7X;X,X,X>XaXZX              ",
"              #XK 2.x.l.z.`.[.#X#X*X3X*X*X7X4X2X{._.[.[.[.[.2X[.oX2X2X2X4X6X4X4X4X4X4X2X*X_.+X*X8X8X>X>XeXwX9X>X%X>X>XaX,XjX                ",
"              $X<.^./.V.2.J.[.[.#X1X*X*X*X4X4X*X_._.[.[.[.oX.XoX2X2X4X4X4X6X4X5X2X2X2X2X&X[.(.=X3X8X8XeXeXeX>X:X:XaXaX:X>XVX                ",
"              &Xu.(.oXx.F r.].@X#X#X#X=X*X2X*X_.(._.{.[..XXXoXoXoXOXOXOXOXOX}.OXOX{.2XoX'._.!.{.&X4X8X;X:X:X:X,X:XaXaXaXgX                  ",
"              %Xu.(.&Xi.J r.[..X[..X#X&X&X&XoX_./.`.(.'.'.'.XX}.}.V.V.N.i.u.B.a.n.V.}.'.'.!.!.(.=X4X-X-X-X:X:X,X-XaXaXgX                    ",
"              &XN.^._.n.,.i.`..X[.[.#X&X[.&X[.(.!.!.!.~.!.}.V.a.6.2.1.,.,.,._ G H 4.0.P.}.U.!.(.#X2X*X-X;X;X,X$XiX7XhX                      ",
"              uX(.V.{.^.2.x.~.].`.[.[.#X&X#X[./.K.J.P.U.P.y.3._ G F B N e g * @ = M _ 2.b.~.J.!..X&X3X-X,X;X,XiX                            ",
"                7X(.{.(.x.J.J.`.`.[.[..X[.[.[.`.J.z.v.v.0.) B = # + @ + + O O X X # e H t.m.^.~.[.&X*X-X,X,X%XVX                            ",
"                  5X(.{.!.(.!./.`.[._.(.[._.XX(.J.z.c.r.,.G * X o o o X X X O O O # # m ,.c.P.J.[.&X*X*X-X%XrX                              ",
"                  iX<X_.[.[.(./././._.]._.'.'.~.J.z.h.3.H e O X . . . X @ * = * = : = = G t.U.P.XX&X*X%X%X%XiX                              ",
"                      1X+X_.(.J./.`.`._._.`.'.`.U.d.h.3.J * + @ @ @ @ * = : : : : 8 : * e t.P.P.'.[.$X=X%X$XVX                              ",
"                        1X(.!.x.T.T././.`.'.'.'.~.l.r.| B # # = = : 8 8 8 e 0 0 8 8 9 = 9 _ m.P.'.[.$X$X%X$X                                ",
"                          pXQ.  Q.T././.(.`.`.`.~.v.r.3.B = : 9 8 m m N B B B B m 0 0 9 9 ( m.}./.oX$X%X$X1X                                ",
"                                  E.E././.`.!.`.~.L.r.2.M : 8 m M D ( | O.e.} | ( D B 0 8 _ P.U.U.[.+X%X@XyX                                ",
"                                    E.T.K.!.`.~.}.L.r.9.M 8 0 M H } r.M.v.P.r.M.3.3.,.F M 3.}.U.!._.+X+X1XNX                                ",
"                                    Q.Y.K.T.`.`.U.P.h.0.F m m J _ t.p.m.m.}.p.t.t.2.2.) | 0.}.`./._.+X_.iX                                  ",
"                                      E.Y.K.U.U.U.L.z.d.| M.| _ 3.2.a.c.a.C.b.p.r.y.a.0.w.i.'.]./.+X+X).BX                                  ",
"                                      tXI.Y.I.I.U.L.v.l.l.Q.W.t.2.y.a.a.c.C.Z.i.m.y.a.W.a.V..X[.(.#X+X).mX                                  ",
"                                        tXI.H.H.P.L.L.z.n.P.Q.c.6.a.i.n.n.Z.a.u.6.4.}.yXN.C..XoX[.[.+XE.nX                                  ",
"                                          #.G.G.L.L.L.H.x.i.}. Xn.n.C.C.i.u.4.4.5.K Z.m.N.^..X[.@X+X).T.bX                                  ",
"                                            d.G.L.L.L.L.L.N.V.yX6Xi.6.8.5.<.1.1.K J u.8.N.'.[.[._._.T.Y.xX                                  ",
"                                            X.G.j.L.L.L.L.x.N.V.'.u.1.K K K K K K 4.6.N.V.{..X].@XT.I.k.nX                                  ",
"                                            ] s.f.v.L.I.L.L.i.B.N.C.B.,.K 4.5.8.6.8.6.N.C.'.`.].).Y.H.M.                                    ",
"                                            { O.s.k.j.v.L.L.v.u.7.6.8.8.B.Z.B.B.8.7.7.N.!.~.`./.Y.H.z.zX                                    ",
"                                            X.O.X.s.h.j.j.L.j.i.6.<.5.7.7.Z.8.5.5.7.u.x.P.~./._.f.f.$.                                      ",
"                                            X.o.X.X.O.s.j.j.j.h.h.2.<.<.<.<.<.4.6.y.l.z.L./._.H.s.| xX                                      ",
"                                            / } X.{ { O.s.h.h.h.w.w.0.2.2.2.2.0.0.d.z.H./.).].o.X.tX                                        ",
"                                            V ' ] { ] { X.+.j.g.e.q.q.9.9.9.9.q.d.z.J.!._.).e.` kX                                          ",
"                                            ! A ` ] ' ' ' ] +.M.h.g.e.q.0.d.d.z.v.J.!./.).G.%.xX                                            ",
"                                              c S ` ' ' ` ` ` O.j.j.v.v.L.L.P.P.U./././.L.%.                                                ",
"                                                g S T / ` / / / { k.l.L.J.J.K././.K.K.s.%.                                                  ",
"                                                  C V S U Y Y Y S S { q.f.H.L.J.f.+.:.;.                                                    ",
"                                                    ! I N N N V N e w w f C A &.-.kX                                                        "
};
