/* XPM */
static char *_b00d571f24a4d33d3da96b30b0feb24y5UHNlzQvryWHuQp[] = {
/* columns rows colors chars-per-pixel */
"78 80 252 2 ",
"   c None",
".  c #0E0100",
"X  c #150101",
"o  c #1C0101",
"O  c #240101",
"+  c #2B0202",
"@  c #2D0704",
"#  c #330303",
"$  c #3B0403",
"%  c #350903",
"&  c #3C0B04",
"*  c #340509",
"=  c #3B0409",
"-  c #350909",
";  c #3D0C08",
":  c #3D1203",
">  c #430503",
",  c #4B0502",
"<  c #430B04",
"1  c #4B0C04",
"2  c #440C0A",
"3  c #49080C",
"4  c #540C03",
"5  c #5B0D04",
"6  c #510908",
"7  c #441204",
"8  c #4B1304",
"9  c #4C1A03",
"0  c #4C1309",
"q  c #4D1A0A",
"w  c #451108",
"e  c #541304",
"r  c #5B1403",
"t  c #531C05",
"y  c #5C1B04",
"u  c #531409",
"i  c #53190B",
"p  c #5B1C09",
"a  c #5A120D",
"s  c #5C1B11",
"d  c #631406",
"f  c #631C04",
"g  c #6A1C04",
"h  c #661809",
"j  c #731D05",
"k  c #5C2105",
"l  c #592309",
"z  c #56280E",
"x  c #632305",
"c  c #6B2403",
"v  c #6D2905",
"b  c #62220A",
"n  c #6B2409",
"m  c #6B290B",
"M  c #662B06",
"N  c #732503",
"B  c #7C2503",
"V  c #742B03",
"C  c #7C2B03",
"Z  c #732C0B",
"A  c #78280A",
"S  c #69350B",
"D  c #7B3304",
"F  c #7C3309",
"G  c #783607",
"H  c #692B11",
"J  c #673817",
"K  c #783915",
"L  c #7E4608",
"P  c #79471C",
"I  c #6C4422",
"U  c #725D48",
"Y  c #A61902",
"T  c #822C05",
"R  c #852A06",
"E  c #843404",
"W  c #8B3403",
"Q  c #833B04",
"!  c #8B3C03",
"~  c #843D09",
"^  c #89370C",
"/  c #933C04",
"(  c #953807",
")  c #8C2F13",
"_  c #B3330A",
"`  c #9E1E06",
"'  c #864205",
"]  c #8B4205",
"[  c #89460A",
"{  c #934304",
"}  c #9C4304",
"|  c #964A05",
" . c #9B4B04",
".. c #93430A",
"X. c #9B4A0A",
"o. c #854818",
"O. c #8A561A",
"+. c #955914",
"@. c #964F0B",
"#. c #A44A03",
"$. c #BA4A0B",
"%. c #A55304",
"&. c #AB5404",
"*. c #AB5908",
"=. c #B45C03",
"-. c #B65806",
";. c #AB5B18",
":. c #AC4F17",
">. c #BB6303",
",. c #BD6903",
"<. c #B76607",
"1. c #A76A15",
"2. c #BE6713",
"3. c #B47916",
"4. c #895827",
"5. c #8B542B",
"6. c #996726",
"7. c #8A6637",
"8. c #986834",
"9. c #A56A2A",
"0. c #A77629",
"q. c #B27729",
"w. c #A67836",
"e. c #AE6E2F",
"r. c #9F660B",
"t. c #CC5907",
"y. c #CD520E",
"u. c #C26402",
"i. c #C46C02",
"p. c #C36D0A",
"a. c #CA6905",
"s. c #D96A07",
"d. c #C67103",
"f. c #CB7404",
"g. c #CD7904",
"h. c #C5720C",
"j. c #CB750A",
"k. c #CD7A0A",
"l. c #C47A08",
"z. c #D47405",
"x. c #D27C05",
"c. c #D27D09",
"v. c #D97305",
"b. c #C47B13",
"n. c #D97919",
"m. c #D16914",
"M. c #E46D06",
"N. c #E47405",
"B. c #E3740A",
"V. c #EE7B0C",
"C. c #E87708",
"Z. c #EB7A11",
"A. c #EF7911",
"S. c #C67C26",
"D. c #E67521",
"F. c #9B7947",
"G. c #8F6940",
"H. c #A87F44",
"J. c #B9852A",
"K. c #B98839",
"L. c #AC873A",
"P. c #D58204",
"I. c #DA8504",
"U. c #DC8B05",
"Y. c #D5820B",
"T. c #DB850A",
"R. c #DD8A0B",
"E. c #D68908",
"W. c #DC9104",
"Q. c #DE940A",
"!. c #DA8512",
"~. c #D0850E",
"^. c #E18D07",
"/. c #E2830B",
"(. c #ED850B",
"). c #E28D0A",
"_. c #EA8609",
"`. c #F1830D",
"'. c #F28C0C",
"]. c #F7890D",
"[. c #E49305",
"{. c #E49A04",
"}. c #EA9B05",
"|. c #E5930B",
" X c #E9950B",
".X c #EC9B0B",
"XX c #E79909",
"oX c #F19E0C",
"OX c #F4960D",
"+X c #E78913",
"@X c #F68912",
"#X c #E59412",
"$X c #EB9913",
"%X c #FA9513",
"&X c #F99B12",
"*X c #F69716",
"=X c #EDA304",
"-X c #EEA20C",
";X c #EDA907",
":X c #F3AC05",
">X c #F2A40D",
",X c #F5AB0D",
"<X c #F8AE0F",
"1X c #F6A309",
"2X c #FBBB05",
"3X c #F7B20C",
"4X c #F9B30D",
"5X c #FBBA0B",
"6X c #FAB606",
"7X c #EDA213",
"8X c #F3A312",
"9X c #FAA115",
"0X c #F6AB11",
"qX c #F9AD12",
"wX c #FAA219",
"eX c #FAB412",
"rX c #FABA13",
"tX c #F6B610",
"yX c #C78826",
"uX c #C4963A",
"iX c #CD9331",
"pX c #E99927",
"aX c #D2A43A",
"sX c #F0AF2C",
"dX c #FAC212",
"fX c #F3C220",
"gX c #A88449",
"hX c #A98456",
"jX c #B8965A",
"kX c #B68D45",
"lX c #B79C65",
"zX c #C68D46",
"xX c #CB9B46",
"cX c #C79654",
"vX c #D3A646",
"bX c #CBA658",
"nX c #D5AE54",
"mX c #E5B954",
"MX c #E8B44A",
"NX c #C29D64",
"BX c #D0B06B",
"VX c #E0B770",
"CX c #F5C849",
"ZX c #F4CA58",
"AX c #FAD457",
"SX c #EFC753",
"DX c #E8C566",
"FX c #F8DB74",
"GX c #F0D26D",
"HX c #C6B097",
"JX c #EFD48E",
"KX c #FCE899",
/* pixels */
"                                                                                KXJXJX    bXcXjXhXF.                                                        ",
"                                                                    BXhXhXG.F.5.+.[ +.4.J 0 ; = 2 > q z 7.F.bXGX                                            ",
"                                                        jXjXlXF.7.J 3 > 3 s s i 8 8 , # * = < , 7 < 0 q q 1 q z P w.BX                                      ",
"                                                gXF.S x l 7 w 8 & > $ $ & < + @ # + + & ; & $ > $ w < < $ # # # ; i S hXDX                                  ",
"                                            NX5.x b h < # = < < > > > 1 > # # # # # # + + O + % < & # # # # $ 7 w 1 1 u J bXDX                              ",
"                                        JXgXS e , q & # < 7 9 8 8 8 w 8 $ > < > $ $ # + + + + # = # = * + $ $ # $ $ & ; 2 l L.vXbX                          ",
"                                      JX4.M 8 < = # # 7 7 9 : = # # # # # # # $ & & < % $ # + # @ + O O # # # + O o O @ % e b b S xXaX                      ",
"                                      gXx 8 7 # # @ 7 8 7 # + * @ # @ % % % : : w % % # + % : ; % & & % @ + + O O O + # < 7 $ w q P 3.vX                    ",
"                                  lXI q < < < $ < 8 : # - + + @ + @ % & & # + # + + + + + ; # % O @ O O O O o o O O O * @ X X # 0 y L q.                    ",
"                                hXH 3 , > & $ < 8 % @ * * + O o @ @ + + O + + O O O O + + O O O o o * O * o o o o o O O X o O # % % t 6.mX                  ",
"                            jXJ 8 $ w $ $ & < < % @ + + + O + @ + + o o O O O O O + O @ + @ O O O O O O X o o o o X o o o @ + o O + % S J.xXDX              ",
"                          F.l 0 $ 7 < # $ ; % # + + O + + # - @ O O O @ O o O O + O O + + O o o X X o O X o o X o o o X X o X X O O @ t w.xXK.aXmX          ",
"                        7.1 > # # 1 & $ # + + + + + + # & & # O O O + O o O O O O O O + + o o O @ @ O O O O O * o * o o o X o o o O + = P 1.3.uXmX          ",
"                      F.w = < $ $ $ # # + O + + O + & % + + + O O + O O + O O O + O O O O O O + - @ O o o O o o o o o X o o O o X o # = 7 O.@.0.J.mX        ",
"                  KXlX8 $ 2 $ = # @ % O o O O + + - # @ + O + # + + O O O O O O o o o O O O O O X o o o o o o o X X X o o o o o o @ + # % M 6.uXq.vX        ",
"                  BXe > q & + % + @ @ O o o O + % O + # O # % % + O O O o o O O o o O O O o o o o o o O o O O o o O O O O O o O o + O # @ # 9 K +.uX        ",
"                VXP w q 0 + @ @ + @ @ O o o O + + + @ + # 9 ; # + O + + O o O o o o O + O X o X o o o o o O O O + O O O o o X o O O + + O + < x [ 1.vX      ",
"                4.2 z q * + O + + * O o o O + + + + + + : 9 $ # + o + O O o o o O O + O o o o o o o X o O + + O O + O O o o X o o O + O + + # 3 K 1.3.      ",
"              NXq 8 f & + O O O % + O o X o O # + + + + 7 9 % # O O + O O O O O O O + o o O O o X o o o + O O + + O O O o o o o X o O O + + + $ 0 D 3.J.    ",
"              7., p t # + o o o O O o X X o O @ # # + * < 9 $ # + + - + O @ O + O + + O O O o X o o @ O O O o O + O o o o o o o o O O O + * + # $ 2 L r.    ",
"            jXl , k , % O O o o O o X X X o O @ - @ + # & 7 ; # $ # & + + # @ # O O @ + + + o o o O + + O o O O O O o o o o o o o o O O + + O + # = 0 ' K.  ",
"          VXL k 8 t # # + o o O O o X X o O O O * & % # $ w 7 7 & $ % # @ % # # O O % + + O O O + - @ O O O O O O O o O O O O O o O O O + O O + # = ; f 6.  ",
"          hX9 8 e 8 $ + + o X O o o X o o O @ O * % : w & % & 8 % # # : % w # + O @ # @ + O O + & # + O O o O O O O o o o O o O O O O O + + + # # # # e 4.  ",
"        kX8 # 7 8 < $ # O O o + o o X o @ + @ - @ % 7 7 8 $ ; # + @ + - & ; # * + ; = O + + + # & @ + O O O O O + O O o o O O O O O o O + * + # # # $ 4 P   ",
"        gX< $ e 1 & # # + o O + * O o o @ # + @ * ; + & w & = + + # % $ $ & 7 7 & ; # @ # # # & 8 # + @ O + + @ + O o O O O O O O O O + O # + # # + = 8 o.  ",
"        gX2 $ u < $ # $ + O O + # = + O + # # # : : O o O @ & O # - % & $ ; 9 7 < 7 & % # # % 9 7 # # + + @ # : # O O o O + + O + + + O O # + # # O # 3 o.  ",
"        7.; $ 8 $ 7 # $ + + + = < , 1 # # # % ; : O X X X O + O # # - @ = & % # & 7 q 7 @ # 8 9 % ; % # # # 7 7 + O O O + O + + + + # @ + + * # # + # > 4.  ",
"        I = $ < 1 9 # # + + + & 9 t 8 t 8 < # % @ o . X X o O * % + O O % & O + ; < & ; + % 9 8 < & # < # $ q $ # + + + O + + + # @ # % + O + # # # + 3 4.  ",
"      hX1 = $ $ , k < # # O + + 8 p b y x k 8 + O X . X . X O * @ + O @ 7 w + O = + + + % < 9 < $ # + $ $ 7 q # # + + + + + + + + + # # O + # # $ # # 1 gX  ",
"      6.6 # = # 0 x t $ < @ O + $ > r y y M e + X . . X X X O + + + o # % ; + + + O o + 7 t q $ % + * $ % l 9 : # # @ + # # - + + # + # + % # + $ + # e w.  ",
"      S 1 # + + 1 N m v f a s 6 > , , , y y e # X . . X X O @ @ O O O # + # # % @ O o O $ t 8 1 % # ; $ < t 7 ; = % # # # + # # @ @ + + + # # + $ # $ u L.  ",
"    jXM # @ O O q ........F g j g g V c f , , # X X . X O - O O O O @ # + = - - # O X O + l < > % & < $ < q 1 $ & & # # # @ # # + + # # # % # * + # = , uX  ",
"    bX+.* O o o & ! 2.*.%.%.@.( ....| ..D d , = o X X o + % + O + o + # + $ 2 & * O o O & p 1 0 2 < $ $ 1 < 1 $ & < # + # # @ + O + = O + # + + # # = 8 uX  ",
"    nXJ.0 + o o = j | *.2.<.<.<.<.<.%. ./ N 5 > + O O O + $ O + + O # * + # < * + O o + < p 1 l < 1 $ $ 1 < 1 < < < $ # # # + O o + + + @ + + + # # $ z vX  ",
"      nXS i O o $ g j ( <.h.h.h.h.2.*.%.{ W g 6 $ # O # # < + + 2 O # + + = 7 # @ @ # # 8 y i b , i > $ 8 , w , 7 < & + + # # O O O + + + O + @ = # # J mX  ",
"      DXw.K ; @ r *.2.p.h.c.k.k.j.h.<.%.X.! N d , $ = 1 , > $ # i + # $ + & t # : < 8 t t y r b q p 1 1 8 , < < < < # + + @ # O O + * + + O + + + + # o.    ",
"        nXe.7.d X.f.k.k.k.k.g.k.f.h.p.=.#.( R A 5 5 , 4 4 6 0 1 t > = > # q r $ t p f x b p y p i 1 i 8 e , 7 8 8 $ # + + # + + + @ + + + + + O + # & 6.    ",
"          nXe.#.,.R.!.k.k.P.Y.g.k.k.j.2.#.} / E j d 5 > 6 r u 1 l , < 8 $ e r > 6 m n v g p k e y > e 4 1 7 , t 1 $ # O + + + + # @ + + + + + O + $ 0 K.    ",
"            aXP.W.Q.!.E.P.k.Y.Y.k.k.k.p.-.#.} / R A 5 , 4 r a 4 y 4 x k e e y y r n N ^ m y x f y , e e , , 3 y , < # + # # + # & @ + + + + + O # = k       ",
"            vXW.{.{.!.E.P.Y.Y.Y.Y.P.c.j.u.-.#.} / T d 6 5 h 4 g 5 a c v M d r n f Z G O.K c c c y e y y 1 4 4 y 1 > # * $ $ # # # + O + + # + + # = o.      ",
"            mXU.U.[.W.U.Y.R.!.R.R.E.Y.f.i.>.-.&.#.( Z 5 d g a G f V v D G v v N p G [ +.[ f m x h v M y e u 8 b e 1 > < & # # < $ + + + # # + + # * 6.      ",
"            ZX,.&.z.c.P.Y.R.R.!.R.!.U.Y.f.i.>.-.<.#...C j B h F V G Z G ' D C D D G ' @.[ V v x f m M f y f e x e e e 7 < $ $ $ # + + + # + # + # * 6.      ",
"            GXq.j ( &.>.i.k.R.#X|.|.R.!.c.k.i.>.>.-.=.X.W B A ~ F ' G D ' ~ ' D D D L ~ Q D c v f H c y r x e m e r e e e > > $ # + + + # # + # = = 6.      ",
"              MX;./ #.&.=.>.~.#X#XXX#XR.R.T.Y.f.>.i.h.<.&.! ^ ^ ^ ~ G D [ D ~ ~ D ~ ~ F D D V v Z H c f r c y y r p r e e > > $ # + O + + + # $ + 8 9.      ",
"              MXE.l.g.l.,.-.&.k.|.#X$X|.|.|.R.!.c.f.k.l.,.=.| | E ] E D ' D D ] ' D ' D G D V N n n m f f x f f r y e r 4 4 8 $ $ # + O + $ # + = L iX      ",
"              CX{.W.E.E.k.u.-.-.g.#X|.#X|.XX$XXX#XR.!.!.~.h.*.| ! { Q Q ] ] D ] ' ' D D D D D V N h Z g c c c n f f r e 4 1 1 > $ # + O + = # + 3 0.        ",
"              CX;XQ.P.~.!.~.h.>.i.c.).#X$X.X-X.X.X#X#X!.R.!.h. .{  .] ! ] ] G ' [ Q D V D D D v V c Z N c V c v x g r 4 4 1 1 , > $ # # + $ # $ H yX        ",
"              sX;X;XW.Y.k.l.k.j.d.f.c.|.XX.X7X7X7X$X$XQ.#XR.l.*.|  .{ ! ! ] Q ' ] ' D D D Q V F C V c v v v D c c n f e e e , , > $ # # # # $ > 7.          ",
"            CXtX;XS.e.) p.b.j.c.c.Y.I.W.XX-X-X>X$X8X.XXX#XR.k.<.|  .| { ! ! W ! ] E E ! ! ^ E D V C C v D V V v N V c r r 4 4 1 > > $ # # # * I             ",
"          AXdXrXqXsXS.:.) A ;.p.f.Y.R.R.[..X-X-X8X8X.X$X#XR.f.<. . .{ { { ....! { ] ] Q ] ! C T T B C C C E C C V V g f r 4 4 4 > > $ $ $ # < e.            ",
"        AXfX5X2X4X<X$Xj.( 5 3 A #.k.Q.Q.XX.X-X>X8X8X7XXX|.R.f.,.%.| { { { { ../ | | | ] ] ..T R R B C C R T C T N v g f r r 4 4 > > $ # # = P               ",
"      AXsX2X2X4XeXqX-XR.#.5.n W =.g.Q.Q.-X-X-X>X8X8X-X$X|.U.g.>.%.%. . .{ | ../ | { { X.W ! T T T R B B j B T B B N V c d r 4 4 , , > $ $ i w.              ",
"    CXdXdX2X2X5XeXeX8X|.p.#.X.y.E.#X7X7X-X-X,X8X>X-X-X.X|.R.c.,.=.&.&.%.%. ./  .&.%. .&. .} ( W W W ^ W W R R R C C V v N f 4 r , , > > 1 9.                ",
"  AXdXdXdXdX2X4XeX0X0XXX/.R.U.#X$X7X0X0X,X,X,X,X8X>X-X.XXXR.x.d.i.,.>.>.>.=.&.=.>.>.>.i.i.m.m.n.!.Z.n.y.#./ W W E D V V N m 4 5 , , > , 8.                  ",
"  AXdX2X2X6X6X3X3XqXqX8X-X$X7X0X0XeX0XeX0X0X,X,X,X>X-X.X[.|.Y.c.g.d.i.d.i.i.i.a.h.a.c.+X+X*X&X9X&X*X*X*Xn.-.#.( W W D V c g 4 4 , , 3 O.aX                  ",
"  CX2X2X2X2X6X6X,XqXqX0X0XqXqXeXeXqXeXeX0X3X0X,X0X>X-X.X$X|.R.I.x.g.g.k.g.f.g.x.c.T.).#X#X*X+XD.`.%X%X*X%XV.-.#.{ ! Q C N f 4 4 , , t                       ",
"  ZX:X4X2X2X6X,X,X3XeXeXeXeXeXeXrXeXeXeXeX<XqX,X0X>XoXoX X X^.U.P.P.v.P.c.c.c.c.T.+X).+X/.y.Y Y t.M.V.].@X@XZ.&./ ! E C V c r 5 6 3 4.                      ",
"    MXR.eX6X:X:X,X,XeXrXeXeXeXrXeXeXeX4XeX<XqX,X8X>X>XoX X#X X).^.^.^.x.P.P.!./.R./.R.T.n.$.y.y.s.C.C.M.A.@X@Xt./ W T E C g d 5 6 K                         ",
"      MX!.=X=X}.:XeXrXrXrXrXeXrXrXeX3XeX<X<X,X>X>X>X>X.XoX$X'.|.).).^.^.U.R.).+XR.T.P.v.m._ pX*XV.`.].`.N.A.].A./ W E D B j 5 5 r uX                        ",
"        sX).P.I.:XtXrXrXrXrX3X3X4X4X3X3X<X<X8X,X8X>XoXoX X X X[.|.).^.^.).).).R.).$Xn.-.s.y.m.pX&XOX%X%XV.V.A.A./ W E E B d 5 5 9.                          ",
"        >X=X=X;X,XrXrXrX5X5XeX3X4X4X3X<X,X0X1X-X>X-X.X.X}. X X[.|.).).^.).|.|. X$XwX2.` $.y.s.m.%X%X%X@XC.V.A.A...T E N g d 5 8.                            ",
"      ZX=X:X:X,X3XeXrXrXrXrXrX3X3X<X3XqX<X,X,X>XoX.X.X X X X X^.^.|.).|.|.|.). X$X8X$._ _ _ m.M.N.%X%X`.M.A.V.M.) C B j g d o.                              ",
"      CX=X=X:X6XeXeXrXeXeXeXeXeX3X3X<XqX,X>X1X>X.X.X[.[. X X X[.^.|.|.).|.|. X X'.Z._ y.t.y.t.%XV.`.@XV.s.A.C.Z.) N g h d o.                                ",
"      MX=X=X:X:X<X,X0XtXeXtXeX3X<X3X<X,X1X>X1X=XOX.X}.[.[.[.|.^.).^.)._.).|.|.#Xs._ y.s.M.M.t.@X%X(.`.N.s.A.M.y.B j g d 5.                                  ",
"        pX7X;X;X,X,X<XqXeXqXqXqXqX<XqX1X>X>X.X.XOX}. X|.[. X_.^.R.).).).).^.|.$Xs.t.s.v.N.N.M.N.'.V.V.M.N.C.M.( j j h 8.                                    ",
"        FXQ.{.{.:X,X<XqXqXqXqX0X1X,X,X8X>X>XoX}..X[.[. X[.^.).U./.^.R.U.I./._.%XoXOXOX&X&X`.v.N.C.(.N.N.V.A.$.j h Z G.                                      ",
"        FX!.x.^.=X:X,X<X<X,X,X0X>X8X1XoX-X.XOX}. X[. X|.^.^.).^./.I.I.I.P.v./.<X&X1X9XwXoXOX'._.].B.s.`.C.t.( R o.zX                                        ",
"        FXpXv.a.U.:X>X>X1X9X1X1X8X8XoXoXOX X.X X X|.|.|.^.^.U.I.T.I.I.I.x.a.n.1X9X9X9X9X&X'.`.(.C.B.`.C.z.=. .9.                                            ",
"          mX X/.P.}.:X>X.X>X>X1X1XoX.X.X}. X}. X|.^. X^.^.^.I.I.T.P.x.x.z.u.z.&XwX9X9X9X&X%X'.'.]._.v.z.>.<.J.                                              ",
"            sX[.[.W.7X-X>XoXoXoX.X.XOX X X[.|.[.^.^.^.^.U.T.T.I.x.P.x.v.a.-.u./.OX&X&X%X&X'.'.(.Z.z.i.,.,.yX                                                ",
"            ZXQ.}.[..X.X.X.XoX.X}.}. X|.|. X_.).^.^.^.T.I./.x.T.c.c.z.d.i.u.u.u.z./.(.+XC.x.z.a.u.i.i.,.yX                                                  ",
"              sX}.{.[.}.}.}.[. X|. X|. X[.|.).R./.x.T.c.c.c.c.c.z.f.d.z.u.i.a.i.i.u.i.i.i.u.u.a.i.,.i.h.                                                    ",
"              MX=X{.{.[.{.[.{.[.[.).).).).R.R.T.I.T.x.x.c.c.g.k.j.h.d.d.d.a.d.f.z.i.i.i.,.u.i.i.i.i.i.b.                                                    ",
"              SX=X{.W.W.U.W.U.W.).^.U.U.I.T.T.P.c.x.x.g.f.f.f.f.i.f.d.i.d.d.f.c.j.f.d.i.i.i.i.i.,.d.i.l.iX                                                  ",
"                7X{.[.W.U.U.U.U.I.U.I.P.I.P.P.x.x.f.j.f.d.d.d.d.i.i.i.i.a.f.z.k.c.z.d.d.i.i.i.i.d.i.d.f.~.                                                  ",
"                ZX{.[.W.U.I.P.P.P.P.P.P.P.P.P.g.j.f.f.i.i.i.,.,.u.i.i.i.d.f.g.k.c.k.x.d.i.i.i.i.i.i.d.f.l.                                                  ",
"                  SX|.^.U.I.P.P.P.g.x.g.x.f.f.f.h.p.p.u.>.>.>.>.>.>.,.i.d.f.f.c.Y.c.g.j.d.d.d.i.i.i.d.z.f.b.uX                                              ",
"                    ZXaXE.Y.c.z.g.g.g.g.f.f.l.b.S./ ;.=.>.=.=.=.>.>.i.d.f.g.k.x.c.k.c.x.j.f.d.a.d.d.d.f.g.f.iX                                              ",
"                          VXkXr.zXxXuXuXbXkXcX  cX  1.=.>.>.>.>.,.d.f.f.g.g.c.k.c.k.g.c.z.g.f.x.g.f.f.f.x.x.l.                                              ",
"                            HXU U         hXNX      @.,.,.,.,.,.f.k.g.c.Y.c.c.g.c.c.x.c.f.x.x.T.x.I.I.P.P.x.x.1.w.                                          "
};
