/* XPM */
static char *e48db2df38b6447da85b54d8e50fe722ilJvaAVOxdk692XB[] = {
/* columns rows colors chars-per-pixel */
"76 80 229 2 ",
"   c None",
".  c #0C0100",
"X  c #030200",
"o  c #140001",
"O  c #1B0101",
"+  c #240101",
"@  c #2B0202",
"#  c #2E0902",
"$  c #330402",
"%  c #3A0502",
"&  c #340A02",
"*  c #3B0A02",
"=  c #3B1104",
"-  c #420502",
";  c #430C02",
":  c #4B0D02",
">  c #530F01",
",  c #451102",
"<  c #4C1302",
"1  c #4D1902",
"2  c #49180A",
"3  c #531402",
"4  c #5B1502",
"5  c #541A03",
"6  c #5C1B02",
"7  c #511E08",
"8  c #621C02",
"9  c #6A1D02",
"0  c #641702",
"q  c #761D00",
"w  c #5D2202",
"e  c #5B2508",
"r  c #632302",
"t  c #6B2402",
"y  c #6C2A02",
"u  c #622B08",
"i  c #742401",
"p  c #792601",
"a  c #732C02",
"s  c #7C2B02",
"d  c #6A320C",
"f  c #6A3309",
"g  c #753102",
"h  c #7B3402",
"j  c #7E3803",
"k  c #773A0D",
"l  c #6D3511",
"z  c #6E3C16",
"x  c #733D1A",
"c  c #7C4818",
"v  c #744A21",
"b  c #861101",
"n  c #941901",
"m  c #951601",
"M  c #A51D02",
"N  c #812E02",
"B  c #862401",
"V  c #962803",
"C  c #823302",
"Z  c #8B3501",
"A  c #843A02",
"S  c #8C3B02",
"D  c #863608",
"F  c #933C02",
"G  c #9B3D01",
"H  c #993601",
"J  c #AB2200",
"K  c #A52902",
"L  c #AB2C02",
"P  c #A72402",
"I  c #B22903",
"U  c #A93802",
"Y  c #BC3303",
"T  c #B43A01",
"R  c #BD3D02",
"E  c #8B4102",
"W  c #944302",
"Q  c #9B4302",
"!  c #9B4902",
"~  c #834B1A",
"^  c #8B551C",
"/  c #94581D",
"(  c #A24501",
")  c #A44B03",
"_  c #AB4D02",
"`  c #AA4708",
"'  c #BB4302",
"]  c #B54704",
"[  c #A55102",
"{  c #AC5303",
"}  c #AE5900",
"|  c #B35403",
" . c #B65B03",
".. c #BC5D02",
"X. c #B95507",
"o. c #A55E1F",
"O. c #B66203",
"+. c #BC6102",
"@. c #B5650E",
"#. c #BC660C",
"$. c #B86D17",
"%. c #BE7312",
"&. c #885428",
"*. c #945E26",
"=. c #87552D",
"-. c #9A662E",
";. c #9B672D",
":. c #9A6737",
">. c #8F6330",
",. c #A16927",
"<. c #B56B23",
"1. c #A87228",
"2. c #B67629",
"3. c #AB793B",
"4. c #A87638",
"5. c #B87D35",
"6. c #C24402",
"7. c #C54B03",
"8. c #CA4D02",
"9. c #CB4602",
"0. c #C95605",
"q. c #C35D03",
"w. c #CC5C03",
"e. c #C45707",
"r. c #D35503",
"t. c #D95302",
"y. c #D45E04",
"u. c #DE5B02",
"i. c #C36302",
"p. c #C46805",
"a. c #CB6B04",
"s. c #C56509",
"d. c #C56909",
"f. c #CA6D0A",
"g. c #CB6405",
"h. c #D46104",
"j. c #D06F05",
"k. c #D86907",
"l. c #CE7403",
"z. c #CE720A",
"x. c #C77203",
"c. c #D47404",
"v. c #DB7305",
"b. c #D57B03",
"n. c #DB7C04",
"m. c #D4750A",
"M. c #D67A0A",
"N. c #DB7D0A",
"B. c #D8770B",
"V. c #C97612",
"C. c #CB6F14",
"Z. c #E36601",
"A. c #E46C02",
"S. c #E66F09",
"D. c #E57204",
"F. c #E57D05",
"G. c #EC7904",
"H. c #E4730B",
"J. c #E97708",
"K. c #EC7B09",
"L. c #CE782A",
"P. c #E87C25",
"I. c #A57440",
"U. c #AE7B44",
"Y. c #B07C47",
"T. c #BB852E",
"R. c #DC8203",
"E. c #DE8209",
"W. c #DA8504",
"Q. c #D98614",
"!. c #E28405",
"~. c #EB8404",
"^. c #E68A06",
"/. c #E18309",
"(. c #E58C0A",
"). c #E88D09",
"_. c #EB8A05",
"`. c #F28504",
"'. c #F58908",
"]. c #EB9204",
"[. c #EB930C",
"{. c #F59607",
"}. c #E18613",
"|. c #F58912",
" X c #ED9510",
".X c #E89918",
"XX c #FCAE0C",
"oX c #F8A107",
"OX c #C8822D",
"+X c #D78827",
"@X c #DB9528",
"#X c #DB9739",
"$X c #D9863D",
"%X c #F39527",
"&X c #E89630",
"*X c #F5A538",
"=X c #F8B930",
"-X c #FCC139",
";X c #AE8248",
":X c #B48344",
">X c #B4874A",
",X c #BD8D49",
"<X c #BC894A",
"1X c #B98953",
"2X c #BD955C",
"3X c #C38D4C",
"4X c #C7964D",
"5X c #C99856",
"6X c #D39B53",
"7X c #E49344",
"8X c #D6A65C",
"9X c #CFA054",
"0X c #E8A349",
"qX c #EAA752",
"wX c #ECB258",
"eX c #F5B656",
"rX c #F6B741",
"tX c #DAA864",
"yX c #DDB36A",
"uX c #DCB373",
"iX c #C7A16B",
"pX c #E4B66A",
"aX c #E5BF76",
"sX c #FDCA57",
"dX c #E9C276",
"fX c #E9C57A",
"gX c #F1C87F",
"hX c #F7D586",
"jX c #EECB82",
/* pixels */
"                                                                  dXdXhX                                                                                ",
"                                                          8X4.k w e z &.I.5XuXaXyXtXuX                                                                  ",
"                                                pX5X1X4.-.c u 1 , ; ; ; < 6 u d ^ ^ -.U.T.5X8X5X,X<X3X5XuX    gXfX                                      ",
"                                            6XU.z < 1 2 < ; ; * $ & & & * ; ; ; , e 5 e 7 e l l d l =.:.U.5X                                            ",
"                                        5X:.l 2 * & $ % * * & $ @ $ @ $ # % * ; , < 7 e 2 ; ; 2 ; ; 2 : < e c 1XtX                                      ",
"                                    pX4.6 2 % $ $ $ $ $ @ @ @ @ $ & $ = % & & & $ ; , 1 5 , 2 % $ $ $ * ; < 5 6 ~ 8XdX                                  ",
"                                  yX>.u ; % @ $ @ $ @ @ & & & & & & & # @ @ @ + + $ $ & % % & @ + @ + @ & ; < < 5 c 8XfX                                ",
"                                3X:.6 % $ # @ @ + + + @ + @ & # # @ + @ + @ @ @ + + + # & # # # @ + + + @ $ , , 2 7 k 8XhX                              ",
"                            jX<Xx 7 - $ + + @ @ + @ O + @ @ @ @ O O + + + O O O O O O + @ + + # & # # + O + @ * $ = ; v jX                              ",
"                          fX8X^ 7 - $ @ @ @ @ @ + + + + O + O + O O O O O o O O o o o O o O + # & = & @ + O + # $ % * ; ;X                              ",
"                          8X/ 3 % $ @ @ @ + + O + + O O o O o O O O O O O o o o o o o o o O + # # # # @ O O + + $ @ % * 7 uX                            ",
"                        tX*.< $ $ @ @ + + O O O O O O o o O + O O O O O O o o o o o o o o O O + + # @ @ + O O O @ @ $ * $ v hX                          ",
"                      pX1.5 % @ # + + + + O o O + O o . o O O O O O o o o o o o o o o o o O + O O O O # + O O O + O @ % * 2 2X                          ",
"                      6Xf % $ @ @ + O O O O O O O o o o o o O O O o o o o O O o o . o o o o O O O O O O O O O O O + + @ * : z jX                        ",
"                    pX;.> $ + + + O O + O O o o o . o o o O o O o o o o o o o . o o o o o o O o o o o O O O O O O O + + $ : 3 2X                        ",
"                    5Xr $ @ + + + O O o O o o o o . . o O O o o o o o o o . X . o . o o o o o o o o o O O o o o O O O + @ % 2 v                         ",
"                    ;.- @ + + + O O O O o o O o . . . o O o o . . o o o o . . o o . . o . . o o o o o o o o o O o O O + @ + & 6 1X                      ",
"                  6Xf % @ @ + + O O o O O o O o o o o o o o o . . . o o . . . . o . . . . . o o o o o o o o o o o o o O + @ @ & >.                      ",
"                  4X3 $ @ @ + + O O O O o o o o o o o o o o o o . . o . . . . . . . . X . . . o . o o o o o o O O o o O O + + @ 5 iX                    ",
"                  3.* @ + + + O O O O O o o o o o o o o O o o . . . . . . . . . . . . X X . . . . . o o o o o O o O O O + + + @ = >.                    ",
"                  ^ & + + + o O O o O o o o o o X o o o o . . . . . . X X . . . . . . . . X . . . . o . o o o O o O o O + + + + % l                     ",
"                8Xe & + + O O O O O O O O o o o . o o . o o . . . . . . . . . . . . . . . X X . . o o o o o o O O O O O O + + + $ < 1X                  ",
"                4X< $ + + + O O o O o O O o o o o o o . . o . . . . . X . . . . . . . . . . X . . . . o o o o O O o O O + + + @ $ ; I.                  ",
"                :X; $ + + + + + + O O + O O o o o o o . o o o o O o o . . . . . . . . . . . . . . X . o o o o o o O O O + + @ @ $ ; &.                  ",
"                4.; $ + + + + O + O O O O O o o o o . . o O o o o O o o . . o o o o . . . . . o . . . o o o o o o O + + + + + @ $ - x                   ",
"                *.% $ @ + + + + + O O + O O O O o o o . o O O o O o o o o . o . o o o o . . . o o o o o o o O O O + @ + @ @ @ @ & - r                   ",
"                ~ % @ @ + + + + + + + + + O O O O o o O o O o O O o o o o o o o o o o o o o o o o o o o o O O + O + $ # & @ $ $ $ % 3                   ",
"                ~ % @ @ + + + + + O # + + O o O O O O O o o O O o o o O o o o o o o o O o o o o o o O O o O O + + + # $ & $ $ % $ ; 3 :X                ",
"                u $ @ + + + + + O + + # + O O O O + O + O O O O o o o o o o O + O O O O o o o O o O O O O O + + + @ @ & @ & % % $ % 3 >X                ",
"              T.r $ @ + + + + + + + O + + + + + + + @ @ @ # + O O O o O O O + # # + @ + O O o + + O O O + + + @ @ @ & & & * & % % % 3 3.                ",
"                u @ + + + + + + @ + + O O + + + # + @ # # + O O O O O O O O + @ # # & & + # + + @ @ + + + $ & + @ & & & & & * % % % 3 U.                ",
"                d $ + + + + + @ + + + # + O + O O + + # + @ + + + O O @ + + # @ & & # & @ @ + # & & @ + + @ $ $ & $ & & $ $ $ % % % : :.                ",
"                d $ + + + @ + + @ + + + O # + + + + + + + @ + + + + @ + + O @ # & $ = # @ & # @ & & $ @ + $ $ $ & $ & $ @ $ % $ % % : :.                ",
"                c $ $ + $ @ $ @ @ + + + + + @ + O O + + @ + + + + + + + + # + + @ & & # $ & & @ @ $ & $ @ $ $ $ * & $ $ $ $ % % % % : Y.                ",
"                / $ @ @ $ $ $ & # + + @ + O + + + O @ + $ # + & + + + @ @ + + @ @ & & @ = = % # $ = & $ @ $ $ $ & $ $ $ % * - - : : 3 ;X                ",
"                / % @ $ $ $ & $ $ @ # # + + + @ + + + @ @ @ + & @ @ + @ @ + + @ @ @ & $ = $ $ = & & $ $ $ $ $ % % % % % & , , , 3 3 3 >X                ",
"                ,.; $ $ % % $ $ $ $ @ & # + + + O + @ # @ + + @ @ @ + @ + + + @ + @ $ @ * & & = = $ % $ % % * & & * , , , , < 5 6 3 6 <X                ",
"                <.; - % % ; % % $ $ @ & & + @ + + + + O + + + + @ @ + @ + @ @ @ + $ @ @ * $ & = & * * * * * , ; : , 1 < 3 3 3 3 3 4 r 8X                ",
"                ,.: - - ; ; % & & & $ & $ @ @ @ @ + + + + + O O + @ @ + @ @ @ @ @ @ + & $ % * , * % ; < , < 5 : , 3 7 1 5 5 3 4 4 5 r                   ",
"                  3 : : ; : * * & & $ # @ @ @ @ + + + + + + + + @ @ @ @ @ @ @ @ @ @ $ % % & & * % ; 2 < < 5 5 5 5 5 5 6 w w r 6 4 0 l                   ",
"                  6 > > : : : , % * % $ @ @ @ @ + + + + + + + + O + @ + @ @ @ $ @ & % & % % * , ; < , 5 5 5 w u 4 6 w w r r t 9 r 8 =.                  ",
"                5.8 3 : : : ; ; ; % $ & @ @ @ @ $ @ @ @ + + + + + + + + @ @ $ $ % $ * * ; & , , 1 5 3 5 w w r r w r r w t u y t t 9 :.                  ",
"                  f 3 : : : : , * & % $ $ @ $ $ $ + @ @ @ @ + + + + @ + @ $ $ & * & * , * ; < , 5 < < 6 w r r r r y r y g a h a a t :.                  ",
"                  ~ 3 3 : < , , ; * * % $ $ $ $ $ @ % @ $ + @ + + + @ + @ @ # $ * * * , ; ; < < 6 5 5 r r r r y y a a g h h C C s i Y.                  ",
"              L.L.*.8 4 3 3 < < * , ; * $ % & % $ % $ @ @ @ @ @ @ + + @ @ @ @ $ & * , 5 < , 1 5 5 4 6 r r r y r g g g g g h h S C k                     ",
"          @XB.w.T V 9 9 6 4 3 < : , , ; % ; * ; % % $ @ $ @ @ @ @ + @ @ @ @ $ * % ; < < 3 < w w r w w r u y y y g g j h j A C A C :.                    ",
"           Xk.R L V q t 9 6 4 5 3 < < < : , , ; % $ $ $ $ @ @ @ @ @ @ @ @ @ $ * * ; < 3 < 5 w r r r r r y g g g j h h E S S S S Z U.                    ",
"        &X[.y.Y I P B t t r 6 4 5 5 5 1 3 3 < , ; % $ $ $ $ $ $ @ + @ @ $ $ % - ; , < , 3 5 r r y y y y g g g A A h D W W G Q ) o.                      ",
"        .X{.v.I J L V i t r 8 6 6 8 w 5 3 5 3 3 3 : * % % % $ $ @ @ @ $ $ $ % - ; , < < 5 5 r r y y g y g g j A A A E W W Q _ X.6X7X&X*XsX              ",
"        .X{.~.R J L U s 9 8 8 8 6 r r 6 6 6 6 6 5 , , ; ; ; ; % $ $ $ % - ; ; - 3 < 3 3 6 w r r y y g g j j j A S E W W Q ( X.e.L.r.u.'.=X              ",
"        .X X).7.J T ' U q 8 8 6 6 6 r w r r w w 6 4 3 3 3 3 : : - - - - : : 3 > 3 3 6 w r 4 r y y y g j A j A S E E W ! ( | 0.h.u.t.u.`.XXsX            ",
"        @X]. Xh.I 7.e.T q 0 8 6 8 w r r 6 r r 6 r w 6 6 6 4 > : : : : : : > 3 3 > 3 6 r r r y r y a j j j A A A A W ! ! _ q.k.D.Z.t.t.`.XX-X            ",
"          (.].A.Y 8.0.] V 9 4 6 6 6 8 r 6 8 r 6 r r 8 6 6 6 4 3 4 > > 3 3 > 3 6 4 3 6 r r y a y g g h h h A A C C W Q ) e.k.F.F.D.t.u.{.XXsX            ",
"          @X_.!.7.8.7.' U B 9 4 0 4 r 6 6 6 r r u t r 6 8 8 6 3 4 > 3 3 > 3 3 4 6 6 8 r t y g y g g h h C C C N s F G _ h.J.|.K.D.t.G.{.XX=X            ",
"            }.~.y.9.7.R T H p 9 4 > 6 6 6 4 6 r y y t r t t 8 8 8 > 4 > > 4 6 8 t t 9 t t a i a a h s s a s N N N S ) q.h.K.|.|.D.u.`.{.{.              ",
"            +X_.D.0.6.6.' ` H p 9 4 4 4 6 6 0 r t y t t y y t 8 0 6 0 0 4 0 8 9 t y y s h a a t p h s s p N N N Z Q X.0.y.D.|.|.A.A.{.{.rX              ",
"              Q.!.k.7.6.' U Q W N 9 8 0 4 6 8 9 9 t t t i t t 9 8 8 8 9 9 9 9 u a a a h C s s s p s N s s N C S Q | s.k.k.A.K.'.Z.`.{.*X                ",
"              +X!.D.0.6.R K H ) W s t 0 4 0 0 0 t t p s p p p p q 9 9 q q i p p s N N N A C s s s s p s p N S ! X.q.k.H.S.S.G.S.G.'.%X                  ",
"                Q.D.h.6.K n B ) ) S N i 9 9 i i p p C C s N s s p q p s N N D N C S S S W S A C N N s s N S ) X.s.w.h.H.K.D.A.D.`.|.eX                  ",
"                  C.w.' K m b ` [ ) Q C p p s N N Z W S C Z N N s N s D Z S Z Z F W Q Q W ! F S Z Z F F Q _  .s.f.e.w.H.J.A.A.G.`.rX                    ",
"                    C.' K n b ( } { ) W Z Z Z F Q ) ) ! W W F Z Z Z Z F Z F Q ! ! [ [ [ [ ) ( G G ( ) _ X.s.C.f.s.U R r.Z.Z.G.G.%X                      ",
"                    L.e.U P V ` } { { _ G H G Q ) { X.| [ { Q ( G H H G U ! ) { }  . . .O. .{ { ] {  .#.f.V.z.d.X.n L 6.t.u.D.G.eX                      ",
"                      OX  <.2.<. . . .| ` _ ) ) {  .#. .X. .| | _ ) ) _ _ X.+.+.#.p.d.p.p.i.+.+.q.+.p.z.m.m.m.a.` m M Y 9.t.Z.0X                        ",
"                              2.O.+. . . .{ { X. .s.d.d.i.s.s.....| | |  .i.p.d.z.z.z.z.z.f.a.a.d.x.z.m.m.m.m.a.' m I Y 9.t.P.                          ",
"                              2.@.O.+.+. . .....i.s.a.f.m.z.f.p.i.+.q.+.i.i.a.z.M.M.M.M.V.b.m.c.l.m.M.M.M.b.m.c.i.] ' 6.9.w.0X                          ",
"                              5.@.+.+. .....+.i.g.a.j.m.B.B.B.c.f.a.a.a.a.j.c.m.E.E.E.E.E.E.M.M.M.M.M.M.M.N.b.b.p.V.qX$X7XqX                            ",
"                                $.O.i.+.+.+.i.i.a.f.m.B.N.N.B.B.c.m.m.c.c.v.n.E.E.(.Q.E.E.E.n.E.E.M.M.M.b.b.n.b.W.#X                                    ",
"                                <.+.q.+.i.q.i.p.a.c.B.N.N.n.N.N.v.N.n.n.b.n.E.E.E.(./.W.E.E.E.E.E.W.M.W.n.W.W.W.W.qX                                    ",
"                                2.O.+.i.q.i.i.a.j.m.N.N.F.}.N.F.n.N.F.N.E./.E.(.(.(.}.(.Q.(./.E.W.E.E.R.W.R.R.W.Q.                                      ",
"                                  @. .q.q.i.i.a.j.m.N.N.E.N.E.E.n.E.E./././.(.W.(.(.(.(.(.(././.N.E.n.F.n.n.W.W.#X                                      ",
"                                  $. ...q.q.i.a.j.v.n.E.F././././.E.E././.(.(.(.(.(.(.(.(.(.E./.F.E.n.!.R.R.R.W.wX                                      ",
"                                  <. . .q.i.a.a.j.v.N.N././././.!.!.!.R.^.^.(.(.(.[.(.(.(.E./.W.n.E.R.R.n.W.W.@X                                        ",
"                                  1. ...i.i.a.a.v.v.n././.^.^.^./.^.^.!./.^.(.).].(.).(.^.!.!.R.R.!.n.n.b.Q.Q.qX                                        ",
"                                  4.@.q.i.g.a.c.c.N.n./././.(.(.(.^.^.^.^.^.(.(.(.(.[.).^.!.!.!.!.n.n.b.b.Q.#X                                          ",
"                                  5.@.i.g.a.c.c.B.N./././.(.(.).^.^.^.^.^.^.].].(.(.^.).^.^.R.!.!.R.F.b.l.Q.wX                                          ",
"                                    %.i.a.j.c.c.n.N.N./.(.(.). X[.).^.].^.[.).[.].[.[.[.^.^.^.W.!.F.n.v.l.0X                                            ",
"                                    d.x.c.c.c.n././././.).).[.).[.[.(.(.(.[.[.[.[.[.[.[.(.(.(.^.!.R.n.c.#X                                              ",
"                                  2.x.c.c.c.v.n.n././.(./.).[.[.].].[.[.].)..X.X[.[.[.[.[.[.(.^.!.!.b.+X                                                ",
"                                2.V.c.b.b.n.n././.!./.^.(.(. X[. X X[. X[.[.[.oX X[.[.[.[.[.[.].^.!.E.wX                                                ",
"                              1X%.b.n.n.n.N.F./.!./.^.(.).(. X X X X X X X[.[.[. XoX X[.[.[.[.[.].^.&X                                                  "
};
