/* XPM */
static char *ed56e67ace9b49a0ae5eaf3baadb1d81J9mTLsVB3YlKUk9K[] = {
/* columns rows colors chars-per-pixel */
"78 80 252 2 ",
"   c None",
".  c #0E0100",
"X  c #150101",
"o  c #1C0101",
"O  c #240101",
"+  c #2B0202",
"@  c #2D0704",
"#  c #330303",
"$  c #3B0403",
"%  c #350903",
"&  c #3C0B04",
"*  c #340509",
"=  c #3B0409",
"-  c #350909",
";  c #3D0C08",
":  c #3D1203",
">  c #430503",
",  c #4B0502",
"<  c #430B04",
"1  c #4B0C04",
"2  c #440C0A",
"3  c #49080C",
"4  c #540C03",
"5  c #5B0D04",
"6  c #510908",
"7  c #441204",
"8  c #4B1304",
"9  c #4C1A03",
"0  c #4C1309",
"q  c #4D1A0A",
"w  c #451108",
"e  c #541304",
"r  c #5B1403",
"t  c #531C05",
"y  c #5C1B04",
"u  c #531409",
"i  c #53190B",
"p  c #5B1C09",
"a  c #5A120D",
"s  c #5C1B11",
"d  c #631406",
"f  c #631C04",
"g  c #6A1C04",
"h  c #661809",
"j  c #731D05",
"k  c #5C2105",
"l  c #592309",
"z  c #56280E",
"x  c #632305",
"c  c #6B2403",
"v  c #6D2905",
"b  c #62220A",
"n  c #6B2409",
"m  c #6B290B",
"M  c #662B06",
"N  c #732503",
"B  c #7C2503",
"V  c #742B03",
"C  c #7C2B03",
"Z  c #732C0B",
"A  c #78280A",
"S  c #69350B",
"D  c #7B3304",
"F  c #7C3309",
"G  c #783607",
"H  c #692B11",
"J  c #673817",
"K  c #783915",
"L  c #7E4608",
"P  c #79471C",
"I  c #6C4422",
"U  c #725D48",
"Y  c #A61902",
"T  c #822C05",
"R  c #852A06",
"E  c #843404",
"W  c #8B3403",
"Q  c #833B04",
"!  c #8B3C03",
"~  c #843D09",
"^  c #89370C",
"/  c #933C04",
"(  c #953807",
")  c #8C2F13",
"_  c #B3330A",
"`  c #9E1E06",
"'  c #864205",
"]  c #8B4205",
"[  c #89460A",
"{  c #934304",
"}  c #9C4304",
"|  c #964A05",
" . c #9B4B04",
".. c #93430A",
"X. c #9B4A0A",
"o. c #854818",
"O. c #8A561A",
"+. c #955914",
"@. c #964F0B",
"#. c #A44A03",
"$. c #BA4A0B",
"%. c #A55304",
"&. c #AB5404",
"*. c #AB5908",
"=. c #B45C03",
"-. c #B65806",
";. c #AB5B18",
":. c #AC4F17",
">. c #BB6303",
",. c #BD6903",
"<. c #B76607",
"1. c #A76A15",
"2. c #BE6713",
"3. c #B47916",
"4. c #895827",
"5. c #8B542B",
"6. c #996726",
"7. c #8A6637",
"8. c #986834",
"9. c #A56A2A",
"0. c #A77629",
"q. c #B27729",
"w. c #A67836",
"e. c #AE6E2F",
"r. c #9F660B",
"t. c #CC5907",
"y. c #CD520E",
"u. c #C26402",
"i. c #C46C02",
"p. c #C36D0A",
"a. c #CA6905",
"s. c #D96A07",
"d. c #C67103",
"f. c #CB7404",
"g. c #CD7904",
"h. c #C5720C",
"j. c #CB750A",
"k. c #CD7A0A",
"l. c #C47A08",
"z. c #D47405",
"x. c #D27C05",
"c. c #D27D09",
"v. c #D97305",
"b. c #C47B13",
"n. c #D97919",
"m. c #D16914",
"M. c #E46D06",
"N. c #E47405",
"B. c #E3740A",
"V. c #EE7B0C",
"C. c #E87708",
"Z. c #EB7A11",
"A. c #EF7911",
"S. c #C67C26",
"D. c #E67521",
"F. c #9B7947",
"G. c #8F6940",
"H. c #A87F44",
"J. c #B9852A",
"K. c #B98839",
"L. c #AC873A",
"P. c #D58204",
"I. c #DA8504",
"U. c #DC8B05",
"Y. c #D5820B",
"T. c #DB850A",
"R. c #DD8A0B",
"E. c #D68908",
"W. c #DC9104",
"Q. c #DE940A",
"!. c #DA8512",
"~. c #D0850E",
"^. c #E18D07",
"/. c #E2830B",
"(. c #ED850B",
"). c #E28D0A",
"_. c #EA8609",
"`. c #F1830D",
"'. c #F28C0C",
"]. c #F7890D",
"[. c #E49305",
"{. c #E49A04",
"}. c #EA9B05",
"|. c #E5930B",
" X c #E9950B",
".X c #EC9B0B",
"XX c #E79909",
"oX c #F19E0C",
"OX c #F4960D",
"+X c #E78913",
"@X c #F68912",
"#X c #E59412",
"$X c #EB9913",
"%X c #FA9513",
"&X c #F99B12",
"*X c #F69716",
"=X c #EDA304",
"-X c #EEA20C",
";X c #EDA907",
":X c #F3AC05",
">X c #F2A40D",
",X c #F5AB0D",
"<X c #F8AE0F",
"1X c #F6A309",
"2X c #FBBB05",
"3X c #F7B20C",
"4X c #F9B30D",
"5X c #FBBA0B",
"6X c #FAB606",
"7X c #EDA213",
"8X c #F3A312",
"9X c #FAA115",
"0X c #F6AB11",
"qX c #F9AD12",
"wX c #FAA219",
"eX c #FAB412",
"rX c #FABA13",
"tX c #F6B610",
"yX c #C78826",
"uX c #C4963A",
"iX c #CD9331",
"pX c #E99927",
"aX c #D2A43A",
"sX c #F0AF2C",
"dX c #FAC212",
"fX c #F3C220",
"gX c #A88449",
"hX c #A98456",
"jX c #B8965A",
"kX c #B68D45",
"lX c #B79C65",
"zX c #C68D46",
"xX c #CB9B46",
"cX c #C79654",
"vX c #D3A646",
"bX c #CBA658",
"nX c #D5AE54",
"mX c #E5B954",
"MX c #E8B44A",
"NX c #C29D64",
"BX c #D0B06B",
"VX c #E0B770",
"CX c #F5C849",
"ZX c #F4CA58",
"AX c #FAD457",
"SX c #EFC753",
"DX c #E8C566",
"FX c #F8DB74",
"GX c #F0D26D",
"HX c #C6B097",
"JX c #EFD48E",
"KX c #FCE899",
/* pixels */
"                                                        gXhXjXcXbX    JXJXKX                                                                                ",
"                                            GXbXgX7.z 0 > 3 = = 0 J 4.+.@.+.4.F.G.hXhXBX                                                                    ",
"                                      BXw.P z q 2 8 q q > < < < ; # # < 0 0 i i i 3 > 4 J G.F.lXjXlX                                                        ",
"                                  VXhXJ t & % # * $ < 7 < & > & & ; - + + @ @ # < & $ $ > = 2 1 8 t x S F.hX                                                ",
"                              DXbXS e 1 8 7 < $ $ # # # & 2 # + O + + # $ $ # # $ > < < < > < < & $ < l f b 4.bX                                            ",
"                          bXvXL.k 2 : & $ $ # = $ + * # # # * + + + + # $ * > & & > 8 2 7 8 8 q 7 > # & 9 2 e M gXJX                                        ",
"                      aXxXS h b e % O + o O O * # # + O + @ + + # $ $ < & & $ # # # * $ * $ = : q 7 7 $ $ $ ; 8 c 4.JX                                      ",
"                    xX3.o.u 7 & 7 2 * O O O O * + + % & & & : & % + @ % & 7 : & % % # + # + # + # 7 8 7 + # * < 7 M gX                                      ",
"                    q.L k 0 # X X * * O O O * X o o O o + + % # ; + + + + + + + # % : - + + + + + % # ; 7 < $ & < < t I lX                                  ",
"                  mX6.t & % $ o o X o O o o X X O O @ @ o O O O O + + O O O + + + O O + + @ O O + # * @ & 9 7 $ & > < 1 H F.                                ",
"              DXxXL.S % + O O O * X o o X X O O o o o o O O O + @ + + + + O O O O O O o + + % O O + + + + # < < ; $ $ 2 > 8 I jX                            ",
"          DXaXK.xXw.l + O O X X o o o X o o o o o o @ o X X o o O O + O O O O O O O + O O O @ - + + + + + @ # $ & ; # < < = 0 i F.                          ",
"          mXuX3.1.P = + o o o o X o X o O O O O O O + @ @ O O o o + + O + O O O O o O + O O O * ; & # + + + + + # % $ < w $ $ ; 1 7.                        ",
"        mXJ.0.@.@.8 * $ O X O O o X o o o o o O O o o O + @ + O O O O O O O O O + + O O + O O + + + % & + O + O O O # # # $ $ > = 1 F.                      ",
"        vX3.kX6.z & @ @ @ o o o o O o o o o o o o o o o o X O O O O O o O o O O O O O O O @ + + + O + % % + + O o o O # # % # $ 2 ; 9 lXKX                  ",
"        uX+.K t # # * O @ o o o o O O o o o o O O o O o o o o o O O O o o o O O o o O O O + # & + + + + + % + O O o O @ @ + # + & q $ e BX                  ",
"      vX1.o.x < + O + + + O X o o o O O O + O + O o o o o o X o o O + O o o o O o O O + O + $ ; 9 # + + + + + O O o O @ % + @ @ @ 0 u 2 4.VX                ",
"      J.r.K 1 # + + O O O o o o X o O O + O O O + O o X X o o o o o O + O O o o o O O + o + # # 9 : + + + + + + O o o O @ + + O O # u 9 2 4.                ",
"    J.1.D 0 $ + + + O O o X o o o o o O O O O O O @ O o X X o o o o o + @ O O o O O O + O + # $ 9 7 * + + # @ O o X o O + + O o O + & p w 0 BX              ",
"    r.L 1 & # + * + O O O o o o o o O o O + + O O O O O O o o o O O O @ + o + + + + + * + + # # 9 < # + + @ @ O o X X o O + O o O O $ t l < 7.              ",
"  K.[ 7 = # + o @ @ O O O o o o O o o o O O + O o O + # O O o o O + + @ O O # # # + + & # # $ & 9 & # + # * @ O o X X X o O o o O O $ < k < z kX            ",
"  6.p = * $ + O O + O O O o O O O o O o O O O O O o O + % + O O O @ + * @ O * # % + # % & & 7 7 7 # # & % % O O O o X X o O O o O O # $ t 8 k K BX          ",
"  4.e $ # # # + O + O O O o O o o o o O O O O o O O O O # % + O O + + # + O + * ; % : # # % 8 & & < : 7 % * @ O O O o X o o O X o + + $ 9 e 8 t hX          ",
"  P 4 $ # $ * + * + O O O O O O O o o o O + O O O O O + # : * + + + O # : @ * # : ; % + % + # = # 7 7 7 % @ * + + @ o X o o @ o O + + $ < 8 1 # e kX        ",
"  P u * O $ + + + + O O O O O O O O O o + + @ + + O + + # 8 ; # $ # + # ; & 7 7 & * $ & * + O ; & w : % ; % + + * * o o O # + O O + $ # < 1 e $ 7 gX        ",
"  o.> # + # # + # O + + + O + + + O o O O + : # # + + % # 7 9 % # + % & 7 7 : 9 & $ & # % # O & @ O o X : : # # * O + + # # + O O + # # & < i $ 2 gX        ",
"  O.> $ + $ $ + + @ + + + # + + + O O O O # 7 7 # $ # % & $ 9 7 # + 7 8 7 & * % ; $ + % @ # O + O X X X + % ; & @ * # < 2 < $ + O + $ # < $ 8 > 2 7.        ",
"  4.3 + + # $ + + + # # # + + + + + + @ + + % q $ # ; # $ < 9 9 & + & < < : + O & % O O + & # O o X X X o @ % # & 1 t e t 9 $ + + + # # 9 < < $ * I         ",
"  H.4 + # * * # + O # # + # + + + + + + + # $ q 7 % ; # # $ > 9 7 % + + # $ + O 7 7 + O + # @ O X X X . X o * 2 k x y g y < + + O @ * < y , = $ # 1 hX      ",
"  w.e $ # $ + # % + % + # + + - * + + + # # & q k & ; + + # & t t w + o O + + + ; & * o O + @ + o X . . X X @ e m y y r , $ + O @ ; $ y M 0 # $ * 6 8.      ",
"  w.u $ # $ + # # + # + + @ # % + * + # & $ ; < t & & & + % 2 8 t # O o O # # % # + # O O + + O + X X . X X # e k r , , , > 1 h a h v m N 2 + + # 2 M       ",
"  xX1 = # + @ # % + # + + + + % # # # $ & & # 2 t 7 $ < & $ > < l # O X O @ * ; * + * @ O O o + * o X . . X # > 1 f c V g n n g F ../ | ..i O O + $ M jX    ",
"  iXt * # $ + + # + O # + + O # # * + # < & > 1 < 1 $ & < 1 1 2 l & O X O # ; 2 * + # + o O O + & O O X X o = , d E ..| | { ..X.*.%.;.<.[ & o o + * O.bX    ",
"  vXz $ # # + O + # + + O O O + # # # $ < < < 2 , 1 $ $ 2 2 k 1 y < @ O O @ * : $ + # # O # + O $ + O o O O > r c / X.%.*.<.<.<.-.<.*.} g = o o + w J.nX    ",
"  mXJ # # $ @ + O + + + + o O # # + + & < 2 < 1 < 1 > , i < z p y 8 # + + @ # < $ + # + O ; + + $ $ * + $ $ , g E { %.*.2.h.h.j.j.<.( N g = O O q S nX      ",
"    P # + + + + + O @ # + O O + # + + # < < < > < e 8 1 p 1 h y y t i e & 7 # t < + * # @ u $ $ > 2 , $ = , h N / } %.<.h.j.j.k.k.j.p.2.&.r + ; K 0.GX      ",
"    6.$ @ + O + + + + @ @ + O + + + + + < 1 8 1 < 4 8 y 1 i p y p f x f p t = r 0 # = $ > p < 0 8 4 6 , 4 5 C W / } -.p.j.j.k.c.k.k.g.k.j.X.h 5.9.nX        ",
"    K.0 $ # O + + + + + + % @ + + # + # $ 1 t < 1 1 1 e > y e k p x v n H 4 2 e e $ 8 1 , l , a e 6 , 5 h j W ( } #.2.j.k.k.g.c.k.k.k.!.T.h.#.q.nX          ",
"      l $ # O + + + + + + % # + # # + # & 1 y 6 , , e e 1 y y c p n ~ Z x r y y e e b f 6 y 4 4 y 5 , 5 B R ..( #.-.h.k.c.g.Y.Y.P.P.Y.!.W.W.P.aX            ",
"      o.* $ + + # + + O + # $ $ $ $ # # > 8 y , 4 1 p y e y c c g ~ O.G V d c d y v v c r 4 g 5 h 5 6 d E / } #.-.,.j.k.P.Y.Y.Y.Y.Y.R.Q.W.{.U.MX            ",
"      6.* # + + # # + O # $ & $ # $ & , 1 6 b e r e y c M h f n f [ +.[ G y Z N N G Z v V f Z a g g 5 A ! %.&.-.>.i.g.c.T.!.T.E.T.T.R.W.Q.E.R.mX            ",
"      6.* $ # + + # + + + # $ $ $ < 8 1 e e b e y y f M H f c v Z [ +.' ' V V D G ' G Z L N G f j j C { #.-.-.>.i.f.x.T.R.R.!.R.R.T.P.P.f.*.>.ZX            ",
"      6.* $ $ + # # + O + # $ $ > e e e r e M y f r y v H f N v V Q ' G ' G Q ~ Q Q G G ~ F ~ A R T #.*.<.-.>.i.g.c.T.R.|.|.#X#Xx.i.=.&.( j q.GX            ",
"      9.0 + $ # + + + O + # $ > , e e y y r y r c y f x H Z c V F G G ' Q D Q ' D ] D G ~ ^ [ ^ / &.<.p.p.a.j.c.T.R.#X#X#X$X#Xb.=.-.&.%./ ;.MX              ",
"      iXL $ + $ * + + + $ $ & 8 8 e e r p y f k x g f v x N V V D ~ ' Q D ' ] D Q ] D Q ] E [  .*.,.k.c.f.Y.T.Q.Q.|.|.#X#X|.j.-.&.,.g.g.f.U.MX              ",
"        0.3 + # $ + + + # $ > 1 , 4 4 e h f m c n c g Z h v V G V D D D D ] [ D ' ] E Q { ! | *.j.Y.~.!.T.#X$XXXXX|.#X$X#Xf.-.-.>.~.E.E.U.{.AX              ",
"        yXH $ # # + # + $ $ , 1 4 4 4 f x g c c v v c A N V V V D D V D ' ] ' D ] ! ! ]  .{  .h.!.!.R.#X$X$X.X.X.X#X#X).x.i.=.a.~.~.P.E.Q.;XCX              ",
"          4.3 $ $ # # $ $ > < , e 4 e y c c c G Z N N c V V F V D D D D ' ' ] D ] ] Q {  . .=.l.T.Q.#X#X$X7X8X7X.XXX|.x.g.d.j.~.l.l.~.Q.;X:XfX              ",
"            P * # $ $ $ $ > , 4 4 r r g V V N V V D N V C N E E ! ! Q Q Q ! ! ! { ] ] |  .| <.g.R.#XXX$X8X7X-X7X-XXXU.P.Y.~.k.f.n.2.) e.S.>X4XCX            ",
"            w.> # # $ $ > > 4 4 5 r f g V V C C T D C T B T T T ! ] E ] ] ..! / { ] { {  . .<.g.R.#X$X.X8X7X>X.XXXXX|.R.Y.g.,.;.C ) :.S.pXqXeXrXAX          ",
"              P = $ $ $ > , 4 4 r r g c N N C C T B C B j T T E { ! ]  .{ | / ..{ { { {  .%.>.g.T.|..X7X8X8X>X-X.XXX|.E.j.#.A 3 5 ( l.$X4X4X5X5XfXAX        ",
"              w.i = $ $ , , , 4 r f x Z N B B T B B B B R T T T / Q  .{ { | { (  .{ | | %.%.>.g.E.#X.X-X>X>X>X-X>X}.-XQ.k.-./ b 5.X.U.-XqXeX5X2XdXsXAX      ",
"                9.2 $ > > > 5 5 g m v V F C R R T R W ( ( W ^ ( } } &.%.%.&.X.{  .%.%.&.&.=.>.x.R.XX.X7X>X8X>X8X-X-X7X7X|.E.2.#.#.2.[.0XqXeX4X2XdXdXdXCX    ",
"                  6.1 > , , 4 5 n c V V C T W W / #.-.n.n.Z.n.m.m.i.p.>.>.=.=.&.=.>.=.=.i.i.d.P.R.|..X-X>X>X,X,X0X0X0X0X7X$X|.R.R.U.}.8X0X4X5X2X2XdXdXdXAX  ",
"                  aXO.3 , 6 4 4 g c V V ^ W ..#.-.Z.*X*X&XwX9X*X*X+X/.c.f.i.p.i.i.i.d.d.f.z.x.T.|.|.-X-X>X>X,X,X0X0XqXqXeXwX0X8X.X-X8X0XeX4X3X6X2X2X2X2XCX  ",
"                      t , , 4 4 f V D Q ! { #.-.V.%X*X%X%X`.D.+X*X$X$X).T.c.z.g.f.g.k.x.x.x.x.^.|.XX.X-X>X0X0X0X,XtXqXeXeXeXqXqX0X0XqXqX0X,X3X6X2X2X2X2XCX  ",
"                      O.3 6 5 d c N C E ! / %.Z.].].].V.M.y.Y Y y.c.#XR.R.!.n.Y.x.x.x.x.x.T.^.^. X.X.X>X>XqX0X,X0XtXeXeXeXeXrXeXeXeXqXeX,X,X3X6X2X2X6X6XAX  ",
"                        P 6 5 5 g B E E W / t.@X@XV.N.C.M.M.y.y.y.v.C.T.R.R.T.T.x.x.T.^.R._.). X#X XoXoX>X>X,XqX3XeX4XeXeXeXrXeXrXrXrXeX3X:X:X:X6XqX|.MX    ",
"                        uXr 5 5 g B E E W / Z.@X`.B.`.@X].`.*XpX) D.v.x.R.R.).R.T.^.^.^.^.).[.|. XoX.X>X>X8X,X0X0X4XeXeX4XrXeXeXrXrXrXrXeX;X}.=X=X!.nX      ",
"                          9.5 5 g V C E W / Z.A.V.V.].%X%X%XwXy.y.m.t.n.#XW.).+X).^.^.^.).|.|.|. X X.X>X-X8X>X,X0X3X<X4X5X4X3X4XrXrXrXrXeX,XT.P.^.sX        ",
"                            8.d d j N E R ( V.A.V.V.].%X&X%Xs.m.t.$.Y :.wX.X$X|.|.).^.). X^. X X X XoX.XoX>X>X>X,X,X<X3X3X3X3XrX5XrX5XrXrX:X=X=X}.,X        ",
"                              o.d g j B R ( A.A.A.M.V.%X%XN.B.m._ _ _ $.0X$X|.|.). X X)._.^.^. X X X X.X.XoX-X>X,X<X<X<X3X4X3XeXrXrXrXrXeX<X<X:X-X=XSX      ",
"                                o.a g j j R A.A.M.s.V.].`.V.@Xt.y.t.t.y.+X X#X X|.|.).|.).^.[. X X X[.}..XoX>X>X>X,XqXqX,XeXtXeXeXeXeXeXeX4X6X:X=X:XCX      ",
"                                  5.r h g A y.M.A.M.C.`.V.%X@Xt.M.M.M._ _ m.$X).|.|.^.^.^.).^. X[.[.[.[.}.oX=X>X>X1X,X4X,X3X3XeXeXeXeX4X<X<X:X:X=X=XMX      ",
"                                    8.d j j ( M.B.M.M.V.V.`.N.M.N.N.v.s.t.M.$X|.^.).).).)./.^.|.^.[. X X XoXoXoX>X>X,XqXqXqXqXqXqXqXqX<X<X,X:X=X;XpX        ",
"                                      8.H h A $.A.A.M.N.(.(.N.v.'.&X&X XoXoXOX+X/.U.T.R.^./.U.).^.^.|. X X X X}.oX>X>X>X,X>XqXqXqXqXqX,X<X:X}.{.!.FX        ",
"                                        zXo.T ( t.C.V.v.C.]._.'.OX&X9XwX&X&X1X/.v./.I.I.^.T.^.).^.^.XXXX X X}.oXoXoX=X1X>X9X,X,X<X,X,X,X:X}.).x.!.FX        ",
"                                            9.X.-.s.C.`.B.C.(.(.'.&X9X9X&X9X9XT.u.x.x.I.c.I.I.^.^.^.).|.^. X}.OX XoXoXoX>X1X1X>X1X9X>X,X:X^.a.v.pXFX        ",
"                                              yX<.>.f.N.(.@X'.'.%X&X9X9XwXwX&Xz.u.z.x.I.x.I.I.T.T.^.^.).[. X X X X XoXoXoXoX>X1X>X>X,X-X}.x./. XSX          ",
"                                                yX,.,.i.z.C._.'.'.%X&X&X&X*X/.u.t.i.z.x.I.x.I.T.T.^.^.^.^.^.[.[. X X X X}..XoXoX.X-X-X-X[.[.^.sX            ",
"                                                  yX,.,.i.i.a.z.v./._.+X/.z.u.u.>.i.f.z.x.c.Y.I.T.T./.^.I.^. X^.|. X X X X}..X.X.X.X-X}.Q.XXQ.ZX            ",
"                                                    h.u.i.,.u.a.u.u.i.i.u.u.i.i.i.i.a.f.j.z.c.c.x.x.c.x.T.R.).^.).^. X|. X|.[. X}.}.{.Q.=XXXsX              ",
"                                                    b.i.i.,.i.i.i.i.i.i.i.g.f.a.i.i.i.d.j.j.k.k.x.x.x.x.T.T.T.T.+X^.).).[.).[.|.[.{.[.{.{.=XsX              ",
"                                                  iXl.d.i.d.i.i.i.i.i.i.f.z.z.j.f.f.i.i.d.d.f.d.g.z.g.x.x.c.I.I.T.T.U.U.U.U.U.[.[.U.U.W.{.XXSX              ",
"                                                  ~.d.d.i.,.i.i.i.i.i.i.k.c.k.g.j.i.i.i.i.i.i.d.d.d.f.j.g.g.x.x.P.P.I.T.U.U.U.U.U.U.[.W.{.7X                ",
"                                                  ~.d.d.i.i.i.i.i.i.f.g.c.c.k.f.f.d.i.u.i.i.,.,.i.i.i.d.f.f.x.x.P.P.P.P.P.P.E.U.P.U.[.[.XXAX                ",
"                                              uX~.f.f.d.d.i.i.i.a.f.k.k.c.Y.Y.g.g.d.i.u.>.u.>.>.>.>.>.2.h.d.f.g.g.g.g.g.P.P.P.P.E.U.^.[.mX                  ",
"                                              iXd.z.f.d.d.d.d.d.a.f.g.c.k.x.k.g.g.d.d.i.>.>.>.>.=.=.>.:.! S.b.l.l.d.f.g.g.g.x.n.Y.E.aXSX                    ",
"                                              ,.g.g.z.g.g.z.g.f.g.g.x.k.k.x.c.k.g.g.g.g.d.>.>.>.>.>.>.1.  cX  NXkXxXxXuXxXxX1.w.VX                          ",
"                                          w.1.P.P.P.x.P.P.x.x.x.x.g.c.x.k.Y.g.c.c.c.c.g.g.h.,.i.,.,.,. .      NXhX        U U HX                            "
};
