/* XPM */
static char *_6a15e2776b64156ba03db68868c3edcg9HPW3tiR8zGlvfI[] = {
/* columns rows colors chars-per-pixel */
"64 64 243 2 ",
"   c None",
".  c #0E0100",
"X  c #140001",
"o  c #1D0101",
"O  c #240101",
"+  c #2C0202",
"@  c #330303",
"#  c #3B0403",
"$  c #350903",
"%  c #3C0A04",
"&  c #380808",
"*  c #3C1002",
"=  c #430403",
"-  c #4A0503",
";  c #430B04",
":  c #4B0C03",
">  c #4A0E09",
",  c #530D04",
"<  c #5B0E03",
"1  c #520503",
"2  c #451204",
"3  c #4C1304",
"4  c #4B1904",
"5  c #4B1309",
"6  c #491B0A",
"7  c #531404",
"8  c #5C1503",
"9  c #531A05",
"0  c #5B1B05",
"q  c #541C0A",
"w  c #5B1B09",
"e  c #561409",
"r  c #491D11",
"t  c #631503",
"y  c #641C05",
"u  c #6C1C05",
"i  c #621D0A",
"p  c #681A08",
"a  c #721F08",
"s  c #5D230A",
"d  c #58260A",
"f  c #582913",
"g  c #5F3215",
"h  c #642205",
"j  c #6C2404",
"k  c #6C250B",
"l  c #692909",
"z  c #732403",
"x  c #7B2603",
"c  c #732B04",
"v  c #7B2C04",
"b  c #762C09",
"n  c #69330C",
"m  c #7B3304",
"M  c #7E3905",
"N  c #783508",
"B  c #663616",
"V  c #773614",
"C  c #6E2D10",
"Z  c #5E3521",
"A  c #663E20",
"S  c #75491B",
"D  c #7E4A19",
"F  c #6F4116",
"G  c #664124",
"H  c #7D4B23",
"J  c #785527",
"K  c #7B5734",
"L  c #6F5131",
"P  c #822C04",
"I  c #872C04",
"U  c #833404",
"Y  c #8B3304",
"T  c #833B04",
"R  c #8B3C04",
"E  c #823B0A",
"W  c #893909",
"Q  c #923C05",
"!  c #943808",
"~  c #973A13",
"^  c #BB3C08",
"/  c #AB2D06",
"(  c #874205",
")  c #884209",
"_  c #934404",
"`  c #9B4304",
"'  c #9B4B05",
"]  c #984809",
"[  c #96550B",
"{  c #844814",
"}  c #944E14",
"|  c #8C5617",
" . c #915A12",
".. c #A24D04",
"X. c #A64A05",
"o. c #A45406",
"O. c #AB5405",
"+. c #AD5A05",
"@. c #AE5B09",
"#. c #AA570B",
"$. c #B55D03",
"%. c #B85B07",
"&. c #AD5B16",
"*. c #B05111",
"=. c #98631B",
"-. c #B66102",
";. c #BB6404",
":. c #BE6B0B",
">. c #BC6607",
",. c #AD771D",
"<. c #B36B14",
"1. c #834D21",
"2. c #885827",
"3. c #8A5831",
"4. c #89652E",
"5. c #976838",
"6. c #9A7538",
"7. c #8F6632",
"8. c #AA7A2A",
"9. c #B17D27",
"0. c #A97734",
"q. c #AD7635",
"w. c #C34806",
"e. c #CA5C0C",
"r. c #D45C09",
"t. c #C25711",
"y. c #C26503",
"u. c #C46C02",
"i. c #CB6D03",
"p. c #C46D0A",
"a. c #C96309",
"s. c #D66608",
"d. c #C67104",
"f. c #CB7404",
"g. c #CE7905",
"h. c #C6720B",
"j. c #CC7509",
"k. c #CC7A0B",
"l. c #C77C0C",
"z. c #D27C05",
"x. c #D27D09",
"c. c #D97706",
"v. c #CB6512",
"b. c #D36714",
"n. c #C67914",
"m. c #D87717",
"M. c #E46D07",
"N. c #EB750B",
"B. c #EC7C0B",
"V. c #E57608",
"C. c #E57D11",
"Z. c #F27F12",
"A. c #F17F0A",
"S. c #C57A22",
"D. c #906C43",
"F. c #947544",
"G. c #A27943",
"H. c #BC8B39",
"J. c #B8872F",
"K. c #D58304",
"L. c #DA8505",
"P. c #DD8B05",
"I. c #D5820A",
"U. c #DA850A",
"Y. c #DD8A0C",
"T. c #D48808",
"R. c #DE9304",
"E. c #DE930C",
"W. c #D98814",
"Q. c #D9911B",
"!. c #CB8319",
"~. c #E18D07",
"^. c #E3860B",
"/. c #EE830A",
"(. c #E28D0A",
"). c #EC8B0E",
"_. c #F28B0D",
"`. c #F1820C",
"'. c #E49405",
"]. c #EA9D07",
"[. c #E5920B",
"{. c #E9950A",
"}. c #EC9B0B",
"|. c #E59908",
" X c #F39A0E",
".X c #E78714",
"XX c #F38511",
"oX c #F68D12",
"OX c #E49311",
"+X c #EB9A13",
"@X c #E89614",
"#X c #F99413",
"$X c #F99E13",
"%X c #F59715",
"&X c #EDA304",
"*X c #EDA10C",
"=X c #EBA50B",
"-X c #F2A40D",
";X c #F5AB0D",
":X c #F8AD0F",
">X c #F2AA05",
",X c #F7B30C",
"<X c #F9B30E",
"1X c #FBBA0B",
"2X c #FAB905",
"3X c #EBA213",
"4X c #F2A312",
"5X c #FAA115",
"6X c #F6AB11",
"7X c #F9AE11",
"8X c #FAB412",
"9X c #F9BA12",
"0X c #F7B71D",
"qX c #C6983B",
"wX c #C58929",
"eX c #E59D2B",
"rX c #E6A938",
"tX c #F1B837",
"yX c #EBB439",
"uX c #FDC00B",
"iX c #F8C328",
"pX c #B7864F",
"aX c #BC9248",
"sX c #B7965B",
"dX c #AB8650",
"fX c #B99D60",
"gX c #C89846",
"hX c #C18E54",
"jX c #D4A949",
"kX c #DEB659",
"lX c #CEAA52",
"zX c #EAB749",
"xX c #F2BB46",
"cX c #EBB752",
"vX c #E5AF48",
"bX c #DEB86A",
"nX c #CFB36F",
"mX c #F5C448",
"MX c #F9D14F",
"NX c #F3C955",
"BX c #F3CC59",
"VX c #D8C37C",
"CX c #FAD967",
/* pixels */
"                              nXF.J d # = ; 3 ; ; ; ; & @ @ = # ; > = = : G K F.5.D.G.sX                                        ",
"                          bXdXK e : 2 @ @ # # % ; @ @ @ @ @ @ @ @ & # ; = # = # # ; w H 2.dX                                    ",
"                        gX6.d ; % % $ & @ @ @ @ @ @ + + + @ @ % = # = : > 3 3 5 2 # 2 5 5 B G.nX                                ",
"                  qXgXF n s % + O O + @ @ @ + + @ + @ @ # % % % @ @ @ & @ @ % % 2 > % @ & ; s 3.VX                              ",
"                  J.{ 6 * % * @ O O O + O $ $ $ $ % * + & + % * * $ $ $ @ + + + $ 2 2 % @ % 2 w F.                              ",
"                H.{ 9 ; + X O + O O o o o O O O O + + $ + + + + + + $ $ $ + + + + $ $ ; 2 = % ; 3 G dX                          ",
"              gX8.d $ + + O o o o o o o O o O O O O + + + + O O O O O O + + + O + + + @ ; ; # # ; > Z K                         ",
"          jXqXqX2.$ O O X o o o o o o o o o o o o o O O O O O O O O O O O O + & + + + + + $ % % @ ; # 4 A dX                    ",
"        kXqX,.=.g + O o o o o X o O O O O O + + O O O O O + O + O O o O + O O @ % $ + + + + + @ # % % # ; f D.                  ",
"        wXJ. .F # @ O o O o o o o o o o o o O O + O O O O O O O O O + O O O O + + + $ @ + O O O @ # @ @ % & A sX                ",
"        J.0.D 4 @ + + o o o o o o o o o o O o o o O O O O o o o O O o O O + @ @ + + + @ $ O O o O @ & @ @ ; = L nX              ",
"      wX=.n ; + + + + o o o o O O O O O O X o o o X X O O O o o o o O O + O @ % * + + + $ + O o o $ + @ + & 5 = 7.nX            ",
"      ,.| w @ + O + + X o o X O + O + + O O X o o o o o O + O o o o O O O + @ % 4 $ + + + + O o o + $ O O + ; 4 r 7.            ",
"    9. .s # @ + + O o X o o o o O O O O O + O X X o O o o + O O O O O + + O + % 4 $ + + + + O X o O + O O O @ 4 q f fX          ",
"  gX[ l & @ O @ O O O o o o o O O O O O O O O O o o o O O + + O $ + + + @ + @ % 2 $ + @ @ + o X X O O O o O + ; w 5 4.          ",
"  0.n % @ @ O + + O O o o O o o o O O O O O + $ O o O + + $ O + @ $ + + $ % % ; 2 % @ @ $ O O o X X o O o O + # 9 3 g dX        ",
"  2.7 @ @ @ + + + O O O O o O o o O O O O O O @ $ O O O + @ + O @ & $ % @ % 2 ; % % * $ + O O o o X o O X O + @ 2 3 7 3.sX      ",
"  1., @ @ @ + @ + O O o O O o o O O O O O O + + % @ + + + @ & @ $ % & $ @ + $ % % 6 2 & & & + + o X o + o O + @ ; : : r 6.      ",
"  H > + @ @ + + O O O O O O O o o O @ + + + + + 2 * @ @ + @ % * 2 * @ % $ + + & % % $ * + + + @ O O + + O O + # % : 3 # 4.      ",
"  1.= + + @ + + O + + + + O + O O + % $ + + @ @ ; 4 @ @ $ 2 2 % 2 2 @ % & @ O & + O o $ * & @ + + @ & @ + O @ @ # ; 3 # K       ",
"  1.= @ @ @ @ + + $ + @ + + O + O + @ 2 # @ % % ; 4 2 @ % 2 > & + & @ + + $ + O o X X o $ % @ # 2 3 3 ; + + + @ ; ; ; # G       ",
"  6.: + @ @ + + + @ @ + + + + + + @ @ 6 2 @ @ @ # 2 2 % $ @ @ @ O * % + O $ @ O X X X X + & 3 s 0 0 9 % + + @ & 4 : = # 6 D.    ",
"  0.7 @ @ @ @ + + @ @ + + @ + + + @ % 6 9 % & + @ ; 4 4 @ o + + + & % + O + @ O o X . . o % s h 0 8 ; @ + @ = 2 s 7 @ # = K     ",
"  0.> @ @ @ @ @ @ + + + @ @ @ @ @ % % ; 9 % ; @ @ ; 9 2 + o O + @ & @ $ O O O + o X . . o # 0 0 , : - : e w l c b 7 + + % l     ",
"  H.2 @ @ @ + @ @ @ + + + @ @ @ # % % ; 4 ; # ; # = 3 2 O o O & & $ + @ + O O + @ o X X o # 1 h b N b b v W ' [ ] d O O & l sX  ",
"  qXq @ @ + + + + + + O + + @ + # ; ; ; - ; # ; > 9 7 4 + o + & * & + @ O + + + & O o o + = 8 U ] ..#.o.@.@.@.@._ 2 o o + =.lX  ",
"  kXg @ @ + + O + + O O + @ @ + # ; ; : ; 3 # 5 > s 9 7 % + + + % % + @ + @ + + & @ + + @ , x R o.@.:.p.p.p.@.! u = O + d H.kX  ",
"  jXB + @ + + + + + + O + + + + @ ; ; ; - 3 - 9 3 h 9 0 e 5 * & > ; @ @ @ 2 & # = = # # - p U ` o.;.h.j.k.k.p.>.#.l & q 2.lX    ",
"    2.@ @ O + + + + + + + + + + @ ; 7 : > 3 7 3 e w w i h h w 2 3 7 # % # 7 ; 5 > , : < t P Q ` @.p.j.k.g.k.g.k.j.o.C 5.aX      ",
"    8.; @ + + + + + @ $ + + @ + # ; 7 : - : 7 - 9 0 0 i b j k , 7 e ; 9 : 0 , e < > , a x Q Q X.p.j.k.g.I.k.x.I.Y.g.<.qX        ",
"    q.f @ + + + + + + @ @ @ @ @ @ ; 8 > - 7 8 7 8 h j k { N h 0 y 8 h h 0 8 8 < t 1 < v ! Q X.$.h.k.x.I.I.I.K.W.[.R.Q.vX        ",
"    J.S @ + + @ + + + @ % @ # # = : 0 7 7 7 s h h h h N } ) c h z h c c j y C 8 u < u Y X.O.%.u.j.x.I.Y.U.Y.T.P.R.R.Q.cX        ",
"      S @ @ @ + + + @ @ # # ; : 7 7 s 8 s 8 h C h h l M [ ( M m b m M N N b N i z z Y ' %.%.y.f.I.U.Y.Y.Y.Y.T.I.k.-.S.BX        ",
"      S @ @ + @ + + + @ # = : 7 7 7 h 0 h 8 h C h j c m ) M M M T T ( m M M W b I _ @.;.;.;.j.x.U.(.[.OXW.k.y.$.` W wX          ",
"      | 2 @ @ @ + O + @ # - 7 7 8 8 8 0 h t y k c z m N N M T M E M ( m E W W _ o.-.h.p.f.x.Y.Y.E.[.OXOXj.%.$.$.O.<.vX          ",
"      9.n @ @ # + + @ # ; 7 , 7 8 i y h j h j k j c m m T M M ( M T ( M W R ) #.:.k.I.x.W.[.[.[.OX+XY.j.%.-.l.K.K.E.xX          ",
"        { % @ @ + @ @ = ; : , , 8 h j j j j c k c c m m m m ( ( T ( R T _ _ ' :.I.W.Y.OX+X}.}.}.@X(.z.;.y.l.I.K.E.=XmX          ",
"        7.f # @ @ @ # = - , , 8 y j j c b j j z c b m m m m T ( T ( R ( _ ' +.k.Y.OX@X+X}.3X}.OX(.I.f.h.l.k.k.I.E.;XtX          ",
"          1.% @ @ # # - : , 8 t j c j c c v c v x N U T T U R ( R R R _ ' ' -.g.(.OX}.3X4X-X*X}.P.T.I.k.h.n.&.&.wX3X0XmX        ",
"          q.f @ # # = = 1 , 8 y j c v v U P v x P P U _ R _ _ _ R _ _ _ _ [ -.g.(.[.+X4X4X*X].}.[.U.k.-.} b ~ S.eX8X8XiX        ",
"            2.2 @ = = - 1 8 8 h j z x P P x x P P P I R _ _ _ _ Q _ _ _ _ o.-.g.P.OX*X4X4X-X=X].OXU.p.Q i V @.E.;X,X1X1XiXBX    ",
"              S # = = - , t j j c v x P x I I I Y Y ! ` ..' ....` ] ..o.O.O.;.K.P.+X*X*X4X*X-X=X=X|.T.>.] ..p.}.7X<X1X2X1XiXMX  ",
"                H = - - < y j z v U I Y Q X.v.m.m.n.v.a.u.>.%.$.+.+.$.-.;.u.i.z.(.|.*X-X4X;X;X;X:X6X+XOXW.x.P.4X7X<X<X1XuXuXiXCX",
"                9.f - 1 , 8 j v m Y Q X.y..X#X$X$X4X%XoX^.U.f.h.i.u.d.i.i.g.z.Y.[.}.*X-X-X;X6X7X7X6X8X5X6X X3X6X7X,X,X2X2XuXuXMX",
"                  D : 1 , t c v T Q ' a.XX#XoXXXN.b.m..X@X(.U.x.g.g.g.x.z.z.L.~.[.}.-X-X6X6X;X7X7X7X8X0X8X7X7X7X<X:X,X2X2X2X1XMX",
"                    B , < y z P U Y O.C.XXZ.B.V.r.^ ^ b.^.^..XU.U.z.z.L.L.Y.~.[.{.}.-X-X6X;X:X8X8X9X8X8X8X8X8X8X<X>X>X,X2X>XyXCX",
"                    8.8 < t x m U Q t.`.`.N.A./.Z..Xm.t.c.x.Y.Y.Y.Y.L.L.~.(.~.[.+X}. X-X-X-X7X<X8X<X8X9X8X9X9X9X8X>X=X>X+XeX    ",
"                      2.t t z v U Y s.Z.Z.A.#X#X#XeXv.r.e.m.[.E.(.(.(.~.~.(.[.{.{.}.-X*X6X-X6X:X<X<X1X<X<X9X9X9X9X;XY.P.+XxX    ",
"                        3.t p z P Y b.Z.B.B.#X#XoXm.r.w./ %.$X+X).[.[.~.[.(.[.{.{.}.]. X-X-X;X;X:X,X<X,X1X1X9X9X9X:X>X&X&XmX    ",
"                          { p u a P r.N.N.M.XXoXB.V.e.^ w.%.%X@X'.[.[.[.(.(.'.{.{.{.}.]. X-X-X:X:X,X,X<X8X9X8X9X8X8X;X>X&XtX    ",
"                            1.p u a t.N.N.M.A.`.XXXXr.s.s.w.b.(.[.[.(.[.[.~.'.[.'.'.'.].].-X-X;X:X:X<X,X8X8X8X8X:X:X>X>X>XtX    ",
"                              1.p u ~ s.N.M.N.B._.V.M.V.s.r.e.C.{.(.(.(.(.~.~.(.~.'.{.}.]. X-X-X-X7X7X7X7X7X8X:X:X,X>X>X3XcX    ",
"                                3.k a *.M.A.M.B.B.V.V._. X{.{. X_.(.^.P.^.(.~.~.~.'.{.{.{.]. X-X-X;X-X:X7X:X:X:X:X>X].|.vX      ",
"                                  q.~ _ a.V.V.V././._.#X5X$X$X$X).x.z.L.L.U.L.~.~.[.{.[.{.]. X&X-X-X6X;X-X:X:X:X>X&XU.x.cX      ",
"                                      =.$.i.V.A.B./._. X5X5X5X5X).y.c.K.L.L.L.~.~.~.'.[.{.{.{.}. X X-X-X-X-X-X-X-XY.c..XcX      ",
"                                        :.u.f.z./.)._.$X$X$X$X$Xc.y.f.c.z.L.K.L.^.~.~.~.'.{.{.{.{.}.]. X X-X-X-X].P.[.rX        ",
"                                          n.>.d.i.c.c.^.).).^.c.u.y.i.f.z.c.I.L.L.Y.P.L.(.(.(.{.{.{.{.}.}.}.&X=X'.|.+XBX        ",
"                                          wXd.;.u.i.a.y.i.i.u.i.i.u.u.f.f.j.x.x.z.I.U.L.^.(.(.(.'.{.{.[.'.}.].'.'.].yX          ",
"                                            l.u.u.u.u.u.u.u.f.f.f.i.u.u.f.h.j.k.g.z.z.I.L.U.Y.(.(.(.'.'.[.'.'.'.|.&XtX          ",
"                                          !.d.i.;.u.u.u.u.i.j.j.f.f.i.u.i.u.f.f.f.f.z.z.x.L.U.L.L.~.P.P.P.P.P.R.'.=X            ",
"                                          l.d.d.u.u.u.u.u.j.x.x.g.f.i.u.u.i.u.>.u.d.f.f.g.g.K.K.K.K.P.K.T.P.P.R.'.zX            ",
"                                        !.f.f.i.i.u.i.d.f.g.x.x.g.f.d.u.;.;.;.;.;.y.:.d.f.g.g.K.z.z.K.K.K.K.P.R.rX              ",
"                                      wXf.f.f.d.u.i.d.f.k.z.g.I.g.k.f.d.u.-.;.-.-.-.&...9.n.n.n.k.k.k.g.m.Q.Q.rX                ",
"                                      l.z.g.f.g.g.g.g.g.z.z.k.g.g.g.k.g.f.u.;.;.;.;.&.  hXhXpXgXgXgXgXq.pXbX                    "
};
