/* XPM */
static char *d429b0b45f4c487acc55cfc165038187i1HiJPrexTLqeV9D[] = {
/* columns rows colors chars-per-pixel */
"58 64 196 2 ",
"   c None",
".  c #070A04",
"X  c #181E07",
"o  c #1B220E",
"O  c #222A0F",
"+  c #232B10",
"@  c #2E391A",
"#  c #2B3716",
"$  c #333D1A",
"%  c #333D13",
"&  c #373936",
"*  c #39451C",
"=  c #374B1C",
"-  c #35511F",
";  c #3B4E22",
":  c #374426",
">  c #365322",
",  c #3E5425",
"<  c #365A24",
"1  c #3B5B29",
"2  c #3A5D26",
"3  c #3F443A",
"4  c #3C6226",
"5  c #3D6229",
"6  c #3E6928",
"7  c #414F1F",
"8  c #45531C",
"9  c #455523",
"0  c #4C5D26",
"q  c #49542B",
"w  c #435D2A",
"e  c #485A28",
"r  c #444B33",
"t  c #42463C",
"y  c #444C3C",
"u  c #4E5B3B",
"i  c #4A5537",
"p  c #535E3C",
"a  c #505D37",
"s  c #466126",
"d  c #4B6127",
"f  c #44632A",
"g  c #4B642A",
"h  c #416B2B",
"j  c #4D6C2C",
"k  c #536425",
"l  c #536529",
"z  c #536C2B",
"x  c #5A6C2B",
"c  c #58672B",
"v  c #45722F",
"b  c #4B742E",
"n  c #53732D",
"m  c #5D722B",
"M  c #55792E",
"N  c #466E31",
"B  c #4B6A30",
"V  c #5C6C33",
"C  c #5D6C3A",
"Z  c #56643A",
"A  c #4A7330",
"S  c #4B7C32",
"D  c #527431",
"F  c #5F7231",
"G  c #557932",
"H  c #597E31",
"J  c #5F7039",
"K  c #61742B",
"L  c #657B2D",
"P  c #6A7F2F",
"I  c #616F3B",
"U  c #627533",
"Y  c #667A33",
"T  c #697E32",
"R  c #62713D",
"E  c #454543",
"W  c #454943",
"Q  c #494B43",
"!  c #4C4D4C",
"~  c #4B5144",
"^  c #4F534D",
"/  c #445240",
"(  c #505646",
")  c #545C43",
"_  c #52554D",
"`  c #545C4B",
"'  c #4A4F51",
"]  c #535452",
"[  c #575955",
"{  c #585A55",
"}  c #5B5B5A",
"|  c #5A6444",
" . c #5D654D",
".. c #576244",
"X. c #5D6352",
"o. c #5E615B",
"O. c #646E4D",
"+. c #6B7C45",
"@. c #677549",
"#. c #646C54",
"$. c #63675B",
"%. c #6A7555",
"&. c #727F5A",
"*. c #5E6062",
"=. c #616363",
"-. c #6A6C66",
";. c #6B7367",
":. c #747869",
">. c #767676",
",. c #797979",
"<. c #5B812F",
"1. c #4E8533",
"2. c #518633",
"3. c #5D8333",
"4. c #558933",
"5. c #5B8D35",
"6. c #5F9136",
"7. c #6C832E",
"8. c #77952E",
"9. c #78962E",
"0. c #628534",
"q. c #6D8433",
"w. c #638B35",
"e. c #6F8932",
"r. c #6E833B",
"t. c #718733",
"y. c #738B35",
"u. c #748C39",
"i. c #669236",
"p. c #699437",
"a. c #6C9A37",
"s. c #669338",
"d. c #6A9538",
"f. c #6D9A38",
"g. c #6C9A38",
"h. c #769134",
"j. c #7A9335",
"k. c #729D37",
"l. c #7E9936",
"z. c #7A9339",
"x. c #7E9A3A",
"c. c #769E3A",
"v. c #7CA53B",
"b. c #78A339",
"n. c #6E804C",
"m. c #6E8540",
"M. c #738547",
"N. c #7E954D",
"B. c #7B8A58",
"V. c #7E8379",
"C. c #819C37",
"Z. c #829D3A",
"A. c #84A337",
"S. c #89A937",
"D. c #86A33B",
"F. c #89A63C",
"G. c #85AC3C",
"H. c #8CAB3C",
"J. c #90AE3E",
"K. c #8DB13D",
"L. c #93B43E",
"P. c #97B93E",
"I. c #98B93F",
"U. c #839957",
"Y. c #8CAB41",
"T. c #87A343",
"R. c #91AF40",
"E. c #8FB241",
"W. c #95B441",
"Q. c #97B940",
"!. c #99B940",
"~. c #859668",
"^. c #909A7F",
"/. c #7E8582",
"(. c #879789",
"). c #919790",
"_. c #9EA68E",
"`. c #97A297",
"'. c #8E9FA0",
"]. c #9BAAA3",
"[. c #ABB1A8",
"{. c #ACB7B9",
"}. c #B3BAB7",
"|. c #BBBFC2",
" X c #BFC9CC",
".X c #CBCCCC",
"XX c #C5CAC8",
"oX c #DBDCDC",
"OX c #D2D3D3",
"+X c #CDD2D5",
"@X c #D8E4E9",
"#X c #E5E9EC",
"$X c #EAEFF2",
"%X c #F3F4F4",
"&X c #FDFDFE",
"*X c #F3F7F8",
/* pixels */
"                                              [                                                                     ",
"                              } ` t   _ ~ y x.D.t.Q       { ]                                                       ",
"                              j a.s.; V Z.v.k.c.G.D.R X.Y Y.H.R X.3                                                 ",
"                          } u w.a.a.p.d.D g H a.f.v.K.Y.b.a.b.K.Y.D.}                                               ",
"                    y b z n g.a.3.w.a.a.a.s.w d.A 0.f.f.f.w.n f.a.c.E                                               ",
"              3 n j w.a.a.g.f.w.S A a.a.a.a.9 w.w.p.f.a.f.f.a.f.g.D.) 3 ] Q                                         ",
"              z f.f.a.a.a.a.f.g.3.3.a.a.a.a.d.g f.a.f.f.f.f.a.3.f z m x x.L.y.}                                     ",
"            ] j f.f.a.a.H i.p.G g.a.a.a.a.a.g.D w.v A p.f.f.a.s a.a.f.v.f.f.K.F `                                   ",
"            i g.a.a.a.w.S S i.D a.a.a.a.a.a.g.w.H 1.1.3.a.a.d.d a.a.a.f.f.a.b.G.G.Z y                               ",
"            ` g.a.a.a.f.<.p.a.a.a.a.a.a.a.a.a.a.p.G G a.a.a.g.j w.a.a.a.a.a.a.a.v.K.Z.]                             ",
"            w i.a.a.a.f.g.g.a.a.a.a.a.a.a.a.a.a.g.g.a.a.a.g.a.i.a.a.a.a.a.a.g.3.a.f.G.~                             ",
"        ^ w a.f.a.a.a.a.g.p.f w.a.a.a.a.a.a.a.a.A 0.a.a.w.A 3.g.a.a.a.a.g.g.p.N H f.v.t.[                           ",
"      =.6 6.a.2.w.a.a.f.g.g.3.p.a.a.a.a.a.a.a.a.3.w.a.a.3.S G a.a.a.a.a.a.a.a.w.p.g.k.K.m U | | =.                  ",
"      ! S 1.i.G w.a.a.f.p.a.f.f.a.a.a.a.a.a.a.g.g.a.a.a.g.w.p.a.a.a.a.a.a.g.a.a.a.g.f.f.3.z.G.L.z.]                 ",
"        6 1.1.6.6.p.g.f.n 0.f.a.a.g.a.a.p.w.a.s.a.a.a.j i.g.a.a.a.a.a.a.a.A 3.a.a.a.a.g.i.j a.a.K.`                 ",
"        4 1.1.1.1.2.p.g.g.j w.a.p.j s.a.f g g s.a.a.a.w.p.a.a.a.a.a.p.g.a.3.i.a.a.a.a.p.w 3.g a.c.r                 ",
"        ~ v 1.1.1.1.2.6.a.s.# M s $ 0 d 0 3.f.f.a.a.a.a.a.a.a.a.g.D D g.a.a.a.a.a.a.w.j <.a.p.f.v.W.U               ",
"          & / 3 A 2.1.1.1.1.; x.F.j.F.I.C.f g.f.a.g.a.a.a.a.a.a.g.w.s.p.a.a.a.a.a.f.w.w.f.f.i.z n d c W             ",
"                y S 1.2.1.1.> Y.!.J.j.!.K.> 4.6.i.p.a.g.a.a.a.a.a.a.i.w a.a.g.G 3.a.f.a.w.w.w i.s.d.G.E.q.[         ",
"              %.;.& < h h 5 h j.I.P.z.I.P.0 1.1.2.4.5.w.a.a.a.a.a.a.a.a.a.a.s.A b a.f.f.3.<.n f.a.g.g.g.K.Z.C       ",
"            @.W.t.Z.h.[ >.,.^ K I.I.T.P.I.q.A 1.1.1.S @ n w.p.a.a.a.a.a.a.a.g.w.i.k.s.g.a.a.d.a.k.G A p.g.G.L.F     ",
"            z.!.t.I.W.Y u.:.  i !.P.D.Q.I.F.4 1.1.1.< F.l L 9 i.a.a.a.a.a.a.a.a.a.w.1 a.a.a.a.a.g.G j p.a.a.f.7.    ",
"            r.W.u.I.Z.F.P.m.  } J.P.L.Q.P.Q.> 1.1.S V H.Z.Q.9 f 0.g.a.i.a.g.a.a.a.a.d.k.a.a.a.a.g.a.g.a.a.a.a.H.Z   ",
"            I h.r.W.T t.R.&.    l.P.P.P.P.P.T A 1.> H.H.Q.y.6 4.a.g.g.d a.a.a.a.a.a.a.g.a.a.a.a.a.a.g.a.a.a.a.b.j.  ",
"            M.I.F.q K W.T >.    q.P.P.P.P.I.F.> h q.P.P.W.; 1.1.4.5.n # w.a.a.a.a.a.a.a.p.a.3.D a.g.a.s.j p.g.a.q.  ",
"            #.J.D.L.D.J.I.@.    I I.P.P.P.I.!.m c P.P.P.h.h 1.1.v ; z.Y.$ w M a.a.g.a.H N i.g.d.i.H p.g.3.a.g.g.c.o.",
"              Z.I.!.!.!.R.:.     .!.P.P.P.P.L.x.l.T.* L c S v - T R.F.y.F.R.x w.a.i.a.0.b i.k.g.G 2.G g.a.a.a.a.q.  ",
"            $.Q.!.u.O.#.;.      ( P.P.P.I.z.h.D.F.y.Y . q k t.J.Q.W.E.I.!.Y.0 > 0.M w.a.a.g.g.g.w.G s.a.a.a.a.a.G.t ",
"            #.I.I.%.            u P.P.P.N.m.8.8.8.D.u.Y L.W.P.I.P.P.!.L.Y > S 1.b - w.a.a.a.a.a.g.s.g.a.a.a.a.a.D.] ",
"            O.P.Q.o.            h.P.P.J.XX{.y.8.8.9.j.J.J.O + z.I.!.Z.7 f 5 ; l y.q.M a.a.a.a.a.g.D w.a.a.a.a.a.M   ",
"            X.P.L.*.          u W.I.I.N.*X*X].8.9.8.y.H.D.Y t.u.Q.T O 0 T Z.W.P.I.z.M a.a.a.p.G i.a.a.a.a.a.a.3.]   ",
"              R.P.#.        ! x.W.L.I.~.&X&X$X(.8.8.K q.z.Z.u.J.I.R.!.I.I.W.H.l.u.x g p.a.a.d.D p.a.a.a.a.p.a.g     ",
"              y.!.u.        Z T.].(.!.B.&X&X&XOXm 8.d h.8.8.D.z.I.P.P.P.E.F.H.Q.Q.!.t.M a.a.g.f.g.a.a.i.w.w g g     ",
"              X.J.P.@.    Q z.`.@X{.W.l.OX&X&X%X XZ 7.h.8.8.8.h.P.P.P.P.P.P.!.!.!.!.x.s a.a.a.a.g.a.g.i.H p.g.w.[   ",
"                O.R.P.+.} Z ~.*X&X{.J.Q.n..X#XoX`.;.}.;.].`.(.+.P.P.P.P.P.P.I.Q.z.d > 5 , w 3.p.a.a.a.a.a.a.a.n     ",
"                   .Z.I.k F.Y._.}.,.Z.I.P.C.e.C.P.^.&X%X&X&X$XU.P.P.P.P.P.D.L : 6 1.1.1.4.s.<.3.a.a.G 3.g.p.s.,     ",
"                      @.x Q.I.P.I.L.t.I.P.P.P.P.P.M.%X&X&X&X[.J.P.P.I.Z.V ]   ^ 1 5 v 1.1.1.5.w.D p.w.p.p.4 ^       ",
"                      t S.P.P.P.P.P.Z.F.P.P.P.P.P.H.(.oXoX`.F.I.P.Q.Y {         Y R.y.6 S 1.1.1.S 1.2.4.5 ~         ",
"                      Y P.P.P.P.P.I.I.z.F.I.P.P.P.P.J.z.C.L.I.I.P.l.&       ] W D.Q.Z.h.q.h 1.1.1.1.1.1 *.          ",
"                    Q H.P.P.P.P.I.I.I.I.j.l.P.P.P.P.P.P.J.~.'.D.P.8       $.R.K.Z.q.y.P.P.; 6 - h S 1               ",
"                    T P.P.P.P.P.P.P.P.P.P.F.y.j.D.D.Z.T (.@X@XU.z.         .Q.H.x.U W.!.u.H.q.  ! E                 ",
"                  [ G.Q.P.P.P.P.P.P.P.P.P.I.I.P.H.D.F.F..X&X|.C.*           Z.P.Y.0 l.t.F.P.r.                      ",
"                  Z S.P.P.P.P.I.P.P.P.P.P.P.P.P.I.P.P.P.U.oX[.t.            #.H.!.z.R.u.Y.Z.$.                      ",
"                  ) S.K.P.P.P.P.P.P.P.P.P.P.P.P.P.P.I.P.I.Z.F.%             O.P.!.!.!.D.~                           ",
"                  ! l.S.H.Q.P.P.P.P.P.P.P.P.P.P.P.P.P.P.P.I.t.Q           #.F.P.L.I %.-.                            ",
"                    ) D.S.S.P.P.P.P.P.P.P.P.P.P.P.P.P.P.P.J.c j.%.$._ $.M.R.P.L.+.                                  ",
"                      a D.S.S.L.I.P.P.P.P.P.P.P.P.P.P.P.P.L R J.I.I.P.I.!.I.J.@.                                    ",
"                        i z.S.S.S.L.P.P.P.P.P.I.P.P.P.I.J.O   ;.+.j.D.D.z.%.$.                                      ",
"                          t c C.D.S.J.L.P.P.P.P.P.P.P.I.m                                                           ",
"  ) Y T C _               0 L t L A.S.S.S.L.P.P.P.P.I.S.o                                                           ",
"a K.I.P.P.W.q.3         y F.K   ` 9 L A.S.S.S.F.H.L.H.0                                                             ",
"W x A.L.P.P.Q.S.p       L H.[   7.L E ~ K z.D.S.S.D.x                                                               ",
"    # K A.P.P.P.R.C   : L.Y   ..L.q       } ^ | ..{                                                                 ",
"        $ L S.P.P.J.( 7.D.{ =.l.z.                                                                                  ",
"            * 7.D.P.C.L.R   C W.q                                                                                   ",
"                7 e.S.A.} } C.t.                                                                                    ",
"                  . 9 9 =.C W.e  .^ $.                                                                              ",
"                        ^ y.K.P.P.P.Z.T r                                                                           ",
"                          o k l.K.P.P.P.W.q.^                                                                       ",
"                              O x l.L.P.P.P.Z._                                                                     ",
"                                  # m A.L.P.P.y.                                                                    ",
"                                      $ L D.P.Q.y                                                                   ",
"                                          * 7.D.`                                                                   ",
"                                              ~ =.                                                                  "
};
