/* XPM */
static char *_c68ae45c75448fe89debba51bbe0ed6h3fldPP08dy8RFu7[] = {
/* columns rows colors chars-per-pixel */
"58 64 210 2 ",
"   c None",
".  c #070A04",
"X  c #111506",
"o  c #171D09",
"O  c #1B220B",
"+  c #252C17",
"@  c #2B3414",
"#  c #293C1C",
"$  c #323C16",
"%  c #343E19",
"&  c #22290C",
"*  c #393B34",
"=  c #363735",
"-  c #383E2B",
";  c #3D4A1D",
":  c #39441C",
">  c #364B22",
",  c #365323",
"<  c #3E5423",
"1  c #375B24",
"2  c #3E5A25",
"3  c #395B29",
"4  c #365228",
"5  c #3E4637",
"6  c #3D5732",
"7  c #3D6428",
"8  c #3C6428",
"9  c #404728",
"0  c #435523",
"q  c #4B5C24",
"w  c #4A572C",
"e  c #435C2A",
"r  c #455926",
"t  c #505E29",
"y  c #41463E",
"u  c #454B3E",
"i  c #484F3A",
"p  c #495535",
"a  c #455C31",
"s  c #4A543F",
"d  c #4C5A39",
"f  c #485536",
"g  c #515D38",
"h  c #45622A",
"j  c #4A632B",
"k  c #426A2B",
"l  c #4D6C2C",
"z  c #456227",
"x  c #526325",
"c  c #536329",
"v  c #546C2B",
"b  c #5A6C2C",
"n  c #45722E",
"m  c #4D712D",
"M  c #4B7B2E",
"N  c #52722D",
"B  c #5D722C",
"V  c #55792F",
"C  c #486F31",
"Z  c #586632",
"A  c #5B6C34",
"S  c #56623B",
"D  c #5D6B3B",
"F  c #556332",
"G  c #477530",
"H  c #4D7331",
"J  c #4B7C32",
"K  c #527632",
"L  c #5E7034",
"P  c #567A31",
"I  c #597E32",
"U  c #62752D",
"Y  c #647B2C",
"T  c #6A7C2F",
"R  c #606F3C",
"E  c #627732",
"W  c #667A33",
"Q  c #697D33",
"!  c #66773C",
"~  c #444645",
"^  c #474944",
"/  c #4B4C4A",
"(  c #4A4C45",
")  c #4B5143",
"_  c #4E524D",
"`  c #545B45",
"'  c #52554C",
"]  c #555B4C",
"[  c #555B49",
"{  c #545554",
"}  c #565952",
"|  c #5A5D56",
" . c #5D5E5C",
".. c #576144",
"X. c #5A6543",
"o. c #5D6944",
"O. c #5C6649",
"+. c #5F615C",
"@. c #626D48",
"#. c #6C7C44",
"$. c #66714D",
"%. c #687748",
"&. c #656B5B",
"*. c #696E5F",
"=. c #626A54",
"-. c #6C7559",
";. c #656565",
":. c #676964",
">. c #6A6C67",
",. c #6D7069",
"<. c #706F70",
"1. c #59812F",
"2. c #4E8533",
"3. c #518533",
"4. c #5D8433",
"5. c #5C8D35",
"6. c #548935",
"7. c #5F9135",
"8. c #6B822E",
"9. c #6F882D",
"0. c #738F2F",
"q. c #77952E",
"w. c #78962F",
"e. c #7A9A2F",
"r. c #608634",
"t. c #6D8333",
"y. c #638C35",
"u. c #6F8833",
"i. c #668F38",
"p. c #718636",
"a. c #738C35",
"s. c #71853E",
"d. c #748B3B",
"f. c #788E38",
"g. c #659236",
"h. c #699537",
"j. c #6C9A37",
"k. c #659439",
"l. c #6A9538",
"z. c #6D9A38",
"x. c #769233",
"c. c #7A9435",
"v. c #719D37",
"b. c #7E9A36",
"n. c #7B9439",
"m. c #7F9939",
"M. c #759839",
"N. c #77A139",
"B. c #7DA53A",
"V. c #7DA83A",
"C. c #76A137",
"Z. c #6D8044",
"A. c #718544",
"S. c #768A44",
"D. c #798D48",
"F. c #778B5D",
"G. c #758854",
"H. c #7D9448",
"J. c #7F8B69",
"K. c #7D8478",
"L. c #819E37",
"P. c #829D3B",
"I. c #84A336",
"U. c #89AA37",
"Y. c #85A23C",
"T. c #89A53B",
"R. c #83AB3C",
"E. c #8CAB3B",
"W. c #90AE3E",
"Q. c #8DB13C",
"!. c #94B43E",
"~. c #97B93E",
"^. c #98B93F",
"/. c #98B73F",
"(. c #839D4D",
"). c #89A442",
"_. c #8CA940",
"`. c #87A249",
"'. c #91AF41",
"]. c #94B440",
"[. c #98B741",
"{. c #96B840",
"}. c #98B940",
"|. c #83967E",
" X c #899C6A",
".X c #93A27C",
"XX c #838484",
"oX c #8A9586",
"OX c #8F9E96",
"+X c #9CA19A",
"@X c #A3A79C",
"#X c #979EA0",
"$X c #9DA9AB",
"%X c #AAB0A2",
"&X c #A0AEB0",
"*X c #AFB8BB",
"=X c #B8BBB5",
"-X c #B6BBB8",
";X c #BCC6CA",
":X c #B5C2C2",
">X c #C1CACF",
",X c #C5C5C4",
"<X c #C1CAD0",
"1X c #C7D3D7",
"2X c #E1E3E3",
"3X c #EAEEEE",
"4X c #E1EAEE",
"5X c #F7F9F9",
"6X c #FDFEFE",
"7X c #F4F4F4",
/* pixels */
"                                                                                ] '                                 ",
"                                                             .` (         :.D a.!.E.B t...                          ",
"                                                          ) Y.!.Y.p u.c b W.Q.R.v.j.V.R.B.D >.                      ",
"                                                / /     =.f.V.j.z.R.Y.l _.v.v.z.j.h.j.j.j.V.E )                     ",
"                                          +.' W E.n.S B B d.h.r.y.v.N I z.g.P l.j.j.j.j.z.j.N.E.E                   ",
"                                    ;.R Q a.].Q.C.v.R.R.N.4.e r.g.y.v j.j.P J 5.j.j.K y.z.j.z.j.l./                 ",
"                                    Q Q.V.R.j.z.l.z.z.j.j.z.z h.j.r.I v.z.l.r.j.j.z.I h.z.j.j.j.z.y                 ",
"                          S u.`   = M.j.j.j.z.y.C i.z.j.j.j.P 4.j.g.z y.j.j.j.j.j.z.z.z.j.j.j.j.z.4.=               ",
"                      * O.Y.B.l.Q b R.j.j.j.j.g.P h.j.j.j.j.P y.l.e l.j.j.j.j.j.j.r.K h.j.j.j.j.z.r.m l             ",
"                    +.P.Q.R.j.z.v r.z.z.j.j.j.j.j.j.j.j.j.l.y.j.j.j.j.j.j.j.h.4.j.H J 4.v.j.j.j.l.0 k.h.a           ",
"                    R R.h.y.j.4.4.j.j.j.j.j.j.j.z.y.g.j.j.j.z.j.j.j.j.j.j.j.y.r.j.k.4.z.P l.j.j.z.j z.j.i./         ",
"                    t.v.g.4.j.r.V j.j.j.j.j.j.j.z.l I j.j.j.I y.j.P 4.j.j.j.z.j.z.z.z.z.r.h.j.j.r.r.j.j.N           ",
"                { D E.j.j.j.j.j.v z 4.j.j.j.j.j.z.j.z.z.j.4.2.V j.y.h.z.j.y.H y.z.j.j.j.l.j.j.j.z.z.z.z.7 :.        ",
"            } t.Y.'.B.z.j.j.j.j.z.l.r.j.j.j.j.j.z.j.j.j.j.j.I g.j.z.j.j.j.y.n 4.z.j.j.y.k y.j.j.z.k.K z.P /         ",
"          +.m.E.N.l.h.j.z.j.j.j.j.j.j.j.j.j.j.j.i.k.j.l.j.j.j.j.j.j.j.j.j.j.j.j.j.j.j.z.r.l.z.j.j.h.P k.n {         ",
"          .._.z.z.P V j.i.P y.j.z.k.m P j.j.j.l.K K 5.l j.j.j.j.j.j.j.j.j.y.y.h.j.j.j.j.z.v.z.j.j.z.g.3.J ~         ",
"          p N.4.I z.l.j.m 6.H z.z.y.G H z.j.j.j.k.k.j.h.j.j.j.j.j.j.j.j.j.y.l j y.j.j.j.j.j.k.m l.e 3.2.2._         ",
"        X.P.B l N r h 4.K J K z.j.j.y.k.j.j.j.j.j.j.j.j.j.j.h.h.j.j.V m j I n W r g.y.k.z.4.j y.k.2.2.2.G ^         ",
"        9 N h.j.h.l.l.r.g.g.l.z.j.j.j.g.z.j.j.j.j.j.j.j.j.j.4.N 4.l Y ).; 2.< !.Y.0 Q 0 0 2 5.2.2.2.2.3 ^           ",
"    { l 4.j.j.j.j.j.j.j.z.j.h.m g.j.h.h g.j.j.j.j.j.j.j.j.j.j.l T b ].]., n t.^.n.E.~.m.8 2.2.2.2.2.J '             ",
"    j j.j.j.j.j.j.j.j.j.j.j.l.V h.j.j.j.j.j.j.j.j.j.i.y.P z.j.e T.n.}.E.1 , E.].n.}.^.Y J 2.2.G v b c f.:.          ",
"    j z.h.H 4.j.j.j.j.j.j.j.j.j.z.j.j.j.j.j.j.z.l.4.t : 5.5.3., W.P.^.P.2 b [.Y.!./.].0 2.k B c /./.x.~.Z.          ",
"    { y.r.J K j.j.j.j.j.j.j.j.j.j.l.j.j.j.j.y.4.j > !.b M 2.3.< /.W.^.c.# L.].E.~.^.T.3 k u.~.n.Q.{.f./.S.          ",
"    s j.j.y.l.z.j.j.j.j.j.j.j.l.4.4.j.j.j.k.k.j Q x.!.P.1 2.2.c ~.~.~.p.0 ].].~.~.^.u./ / d.Q.u.m.^.W c.O.          ",
"    f z.j.z.I 4.z.z.z.z.j.j.j.4.z l.z.z.g.2.2.2.< '.E.].q J G t.}.~.}.a.P.~.~.~./.~.o.    ` p.{.Z p.Y.].$.          ",
"  ) l.z.j.z.4.y.z.z.j.j.j.j.j.4.2 4.7.5.2.2.2.2.8 m.{.{.T., 1 T.Q.f.E.].~.~.~.~.^.W.)     Q {.m.f.u./.!.:.          ",
"  m j.j.g.P g.j.z.z.j.j.j.j.j.r.U U , n 2.2.2.2.2.c }.~.T.t W !.; ; E.{.~.~.~.~.~.T. .    n.~.].{.].~.!             ",
"  j j.j.4.J 4.z.4.H z.j.j.l.V q E.{.Q.u.0 8 J 2.2., Q.m.o . t.W.: p.f.f.f./.~.~.^.x.      ,.Z.f.c./.^.Z.            ",
"d z.j.j.j.4.j.z.y.4.j.j.j.g.+ b _.}./.~.].P.b , 7 1 P.P.t.! n.^.E.c.I.e.b.t.{.{.~.c.            ;.E.{.d.            ",
"m j.j.j.j.j.j.j.j.z.j.j.j.l.c !.c.f.].}.^.^.{.].L.u.m.f.E.E.n.f.n.B.q.e.F.;XH.~.~.!.$             P.~.f.            ",
") 4.j.j.j.j.j.j.j.l.g.l V r b.^././.Y.T.].~.~.~././.p.T.w.w.q.0.q c.q.G.1X6X@X}.~.~.t.            n.~.d.            ",
"  a j.j.j.j.j.j.j.y.P k.V > t.W.^.~.^.~./.~.~.~./.!.c.q.w.w.q.q.Y 9.t.*X5X6X-X}.!./.E.&           Y.}.%.            ",
"  _ K y.j.j.l.z.j.z.z.l.5.3.G 1 U E./.~.~.~.~.~.~._.u.q.q.x.q.a.9.p *X2X6X6X@X[.oX$XH.B         =./.'.,.            ",
"    ;.V j.g.4.z.k.l.k.6.2.2.k 6  .^ R T.}.}.~.~.~.].oX:X;X>X>XXX;X=.-X6X6X2XS./.$X3X$XM.X     :.T.^.s.              ",
"      e z.4.I k.2.2.2.2.2.2.5         +.L E.{.~.~.~..X6X6X6X6X6X5XD.I.J.oXA.].W.$X6X5X Xq   *.P.^.n.                ",
"      7 7.7.5.2.2.2.2.2.2., <.#.n.o.      | Q ].~.~.E.=X6X6X6X6X,XT.~.^./.^.^.n.K.=X%X`.b.c W./.S.:.                ",
"      3 2.2.2.2.2.7 7 7 # 8.Q T.^.).XX        Z ].~.~.Y.@X2X3X,XS.~.~.~.~.~./.t./.~.~.~.].c P.-.                    ",
"      | 1 J 2.2.G {   >.O.}./.t.a.a.u.#.      / P.~.~.^.].c.p.L.~.~.~.~.~.~.n.E.~.~.~.~.^.9.~                       ",
"          _ 3 4 y     m.L.P.}._.n.]./.!.+.      Z ~.(.OX(.~.{.~.~.~.^.~.~.n.T.^.~.~.~.~.^.!.@                       ",
"                      m.[.n.P.P.w n.].P.        ^ E.oX4X<XG.E.~.~.{.].b.a.E.~.~.~.~.~.~./.^.Y                       ",
"                      X._.T.f.L.f.^.].=.          E F.2X5X+Xx.f.n.f.n.E.~.~.~.~.~.~.~.~.~.~.E.O                     ",
"                        | A }.^.E.~.u.            ^ H.2X,X`.~.~.~.~.}.~.~.~.~.~.~.~.~.~.~.~.~.x                     ",
"                            %.s.E.~.E.&.            t.(._.^.^.^.~.~.~.~.~.~.~.~.~.~.~.~.~.~.!.9.                    ",
"                                %./.^.T.&.          i ].^.^.~.~.~.~.~.~.~.~.~.~.~.~.~.~.~.~.U.p.                    ",
"                                  #./.~.E.A.-.-.-.p.t.c.~.~.~.~.~.~.~.~.~.~.~.~.~.~.~.~.!.U.U.A                     ",
"                                    @.T.}.}.^.[.}.{.c.w ~.~.~.~.~.~.~.~.~.~.~.~.~.~./.!.U.U.c.'                     ",
"                                        @.d.n.f.#.*.  / b.~.~.~.~.~.~.~.~.~.~.~.~.!.E.U.U.M.`                       ",
"                                                        L ~.~.~.~.~.~.~.~.~.~.~.Q.U.U.E.Q }                         ",
"                                                        ^ E.~.~.~.~.~.^./.!.U.U.U.T.a.d                             ",
"                                                          U !.~.~.!.!.W.U.E.U.I.9.0 5                               ",
"                                                           .M.E.U.U.U.U.U.L.Y s  .Y Y                 ( } {         ",
"                                                            ' Y w.n.a.Y X.* B g   R _.-         * @.m.E.]._.t. .    ",
"                                                                } {         T L.+.} W.U       d T./.~.~.~.!.P.f     ",
"                                                                            p !.X.  Q T.*   D /.~.~.^.E.e.b @       ",
"                                                                              c.c.  ] !.Z D !.~.~.E.x.x +           ",
"                                                                              t /.]   a.Y.Q.~.E.u.0 o               ",
"                                                                              { I.p.  ..!.I.T ; .                   ",
"                                                                      / o.W t.u.b.E.) ~ x %                         ",
"                                                                  u p.E.~.^.^.~.Q.b.p                               ",
"                                                                Z W.^.^.~.^.U.a.q O                                 ",
"                                                              X.!.~.~.!.U.9.0 X                                     ",
"                                                              m.~.!.I.Y :                                           ",
"                                                            / E.b.B $                                               ",
"                                                              f +                                                   "
};
