/* XPM */
static char *_a3539e0d1b9444e9bc62511e662e7dbuZrZ3c473ReQAzRw[] = {
/* columns rows colors chars-per-pixel */
"61 64 205 2 ",
"   c None",
".  c #030302",
"X  c #11130D",
"o  c #151D12",
"O  c #242D0F",
"+  c #293E1C",
"@  c #2A3518",
"#  c #2A2B2B",
"$  c #2C3625",
"%  c #323A2A",
"&  c #2F2F30",
"*  c #343534",
"=  c #3A3E33",
"-  c #3C3C3B",
";  c #2E4B1E",
":  c #39461B",
">  c #304E1F",
",  c #38491E",
"<  c #2F4420",
"1  c #2F4C21",
"2  c #354121",
"3  c #3A4424",
"4  c #344C20",
"5  c #3B4C24",
"6  c #3C442E",
"7  c #364B29",
"8  c #3D5423",
"9  c #3B5C26",
"0  c #375827",
"q  c #3E4B32",
"w  c #3E413D",
"e  c #3D4435",
"r  c #3D642A",
"t  c #3F692B",
"y  c #404C1F",
"u  c #41501E",
"i  c #404C24",
"p  c #404F28",
"a  c #445524",
"s  c #435C26",
"d  c #4D5E23",
"f  c #435C29",
"g  c #4F5E2B",
"h  c #46562A",
"j  c #515E2B",
"k  c #444C34",
"l  c #42463B",
"z  c #454C3A",
"x  c #404536",
"c  c #4B5634",
"v  c #4D553B",
"b  c #515B3D",
"n  c #4E6023",
"m  c #44642B",
"M  c #4A6429",
"N  c #436C2D",
"B  c #4D6C2C",
"V  c #476526",
"C  c #536426",
"Z  c #54642A",
"A  c #546C2A",
"S  c #5A6C2B",
"D  c #46732E",
"F  c #4C742E",
"G  c #52732D",
"H  c #5E712B",
"J  c #567B2E",
"K  c #587D2E",
"L  c #4B6E31",
"P  c #426730",
"I  c #556433",
"U  c #596A33",
"Y  c #57613C",
"T  c #5A6839",
"R  c #4C7231",
"E  c #4B7C32",
"W  c #497733",
"Q  c #527532",
"!  c #567A31",
"~  c #5A7D32",
"^  c #5F7138",
"/  c #63752E",
"(  c #667B2D",
")  c #687E2F",
"_  c #627332",
"`  c #677B32",
"'  c #6A7D33",
"]  c #6A7C3C",
"[  c #63753A",
"{  c #434342",
"}  c #464942",
"|  c #484B45",
" . c #4C4C4B",
".. c #4D5345",
"X. c #535B45",
"o. c #53584A",
"O. c #504F51",
"+. c #4F5654",
"@. c #545554",
"#. c #585C54",
"$. c #5B5C5B",
"%. c #575A55",
"&. c #605F5F",
"*. c #586146",
"=. c #647146",
"-. c #63655E",
";. c #6D7858",
":. c #6F7172",
">. c #787F77",
",. c #4C842F",
"<. c #4E8533",
"1. c #508434",
"2. c #5D8333",
"3. c #548934",
"4. c #5C8D34",
"5. c #598A38",
"6. c #5E9035",
"7. c #6B822F",
"8. c #77952D",
"9. c #78962E",
"0. c #7B9A2E",
"q. c #608634",
"w. c #6D8333",
"e. c #648C35",
"r. c #6B8B34",
"t. c #6D8439",
"y. c #658E38",
"u. c #708535",
"i. c #738B34",
"p. c #798F36",
"a. c #748C39",
"s. c #758A39",
"d. c #669236",
"f. c #6A9536",
"g. c #6C9A37",
"h. c #6A9539",
"j. c #6D9A38",
"k. c #679539",
"l. c #759231",
"z. c #7A9535",
"x. c #729B37",
"c. c #7B9834",
"v. c #7B943A",
"b. c #719D39",
"n. c #7F9A39",
"m. c #76A239",
"M. c #7BA539",
"N. c #7AA539",
"B. c #6F864D",
"V. c #778B4D",
"C. c #7E9840",
"Z. c #728556",
"A. c #7C9450",
"S. c #7F906B",
"D. c #7D8A71",
"F. c #7E9278",
"G. c #829E37",
"H. c #829D3B",
"J. c #89A937",
"K. c #86A23B",
"L. c #89A63D",
"P. c #84AA3C",
"I. c #8CAB3C",
"U. c #91AE3E",
"Y. c #8EB23E",
"T. c #8EB23C",
"R. c #92B33D",
"E. c #99B73F",
"W. c #97B93E",
"Q. c #98B93F",
"!. c #86A244",
"~. c #8BA640",
"^. c #8DAC42",
"/. c #85AB41",
"(. c #93AF41",
"). c #8CB141",
"_. c #94B441",
"`. c #98B741",
"'. c #97B941",
"]. c #98B941",
"[. c #828E69",
"{. c #889868",
"}. c #818F7E",
"|. c #868B8D",
" X c #879385",
".X c #909986",
"XX c #949F94",
"oX c #939797",
"OX c #A4AB9E",
"+X c #99AAA6",
"@X c #A8ABA8",
"#X c #AEB7BC",
"$X c #BFBFBF",
"%X c #B2B3B3",
"&X c #C9D5DD",
"*X c #DADEDD",
"=X c #D2DDE4",
"-X c #DADEE0",
";X c #D6E2E8",
":X c #E6E6E5",
">X c #E6ECED",
",X c #EDF1F2",
"<X c #F3F4F4",
"1X c #F7FAFA",
"2X c #FEFEFE",
/* pixels */
"                                            e g |                                                                         ",
"                                      U H.l.K.T.t.      S l./ w o.- * w                                                   ",
"                                    k Y.M.P.m.g.x.v 3 u Y.M.Y.Y.R.I.].^.6         ..*.{                                   ",
"                          v j b e Y I.g.d.~ g.g.f.` Z I.g.g.g.b.g.m.j.m.c.I * C w._._.K.{                                 ",
"                      O.t._.T._.'.Y.m.j.g.e.g.q.M h.j.b.j.g.g.g.j.2.j.j.M._.K.A P.g.x.M.Z X.*                             ",
"                    | $ /.g.g.g.b.j.j.j.g.g.g.B d.j.g.g.g.g.g.g.q.E ~ j.j.j.j.~ V d.q.b.).Y._ 6 d Y = = -                 ",
"                  | v.^.g.e.j.2.m j.g.g.g.g.g.~ ~ g.g.g.g.g.g.g.j.2.g.g.g.g.j.j.a e.2.g.k.s r._.Y.Y._.'._.c               ",
"              z p @ g V s B G h.e.j.g.g.g.g.g.j.A V g.g.g.g.g.g.j.j.g.g.g.j.j.~ G g.g.~ M 2.j.j.g.j.x.g.j.c.A |           ",
"            s j.h.h.j.g.g.k.8 M k.k.L R e.j.j.g.h.4.g.g.g.g.g.g.j.k.j.g.g.g.g.! 2.g.j.a g.j.g.2.J j.g.g.g.N.T.i.          ",
"            G j.j.j.g.g.g.g.h.y.B K 1.1.~ j.j.j.g.g.g.g.g.g.g.g.2.P d.g.g.g.2.~ g.d.2.8 g.g.j.R W e.g.g.g.g.g.N.6         ",
"          | G j.~ ! h.g.g.g.j.j.~ h.R R e.g.g.2.R q.g.g.g.j.g.g.k.2.g.j.g.g.g.g.g.e.~ y.e.g.g.d.2.g.g.g.g.g.g.m.H.O.      ",
"          p x.g.N E r.j.g.g.g.g.g.j.g.j.j.g.g.F 1.! g.g.g.g.j.j.g.g.g.g.g.y.j.g.g.g.j.j.g.g.g.g.g.g.j.2.m b.j.g.b.Z       ",
"      { s q.g.g.2.2.j.g.g.g.g.g.g.g.g.2.k.g.g.h.2.g.g.g.g.g.2.e.g.g.g.g.2.D Q g.g.j.g.g.g.g.g.g.g.g.g.f.2.g.g.g.b.Y.c     ",
"    - 2.g.g.x.g.k.k.g.g.g.g.g.g.g.g.h.m K g.g.j.h.g.g.g.g.j.m ! d.e.g.g.e.R 2.j.! B g.g.g.g.d.e.g.h.e.j.j.j.g.g.g.g.H     ",
"   .% g.g.g.j.x.Q L g.g.g.g.g.g.g.g.g.k.j.g.g.F ! g.g.g.g.g.j.g.~ 2.g.g.j.j.g.g.k.d.j.g.g.g.2.2.j.R W 2.j.g.g.g.g.g.s     ",
"w ~ j.g.g.f.R 2.h.k.g.g.g.j.g.g.g.g.g.g.x.g.g.e.h.g.g.g.g.g.g.g.g.g.g.g.g.g.g.g.j.g.g.g.h.h.g.g.j.! N e.g.g.g.g.g.g.l     ",
"7 g.g.g.g.4.W F g.g.g.g.g.g.g.g.g.g.g.h.g.g.g.g.g.g.g.g.g.g.g.g.g.g.g.g.g.g.g.g.g.g.g.g.P N g.j.j.g.j.h.k.j.g.g.j.g.M     ",
"} q.g.g.j.j.e.f.b.e.q.g.g.g.g.g.g.h.4.M g.g.g.g.g.g.g.g.g.g.g.g.g.g.g.j.g.g.g.g.g.g.g.g.~ G j.j.j.g.g.~ ~ g.g.g.f.~ f 5   ",
"{ q.g.g.g.g.x.j.j.Q L j.g.g.g.g.g.F V e.j.g.g.g.j.h.j.j.j.g.g.g.j.j.j.J f.j.g.g.g.g.g.j.j.j.g.g.g.g.g.g.g.g.g.g.2.B j.q.{ ",
"- 2.g.g.g.g.g.g.g.g.j.g.g.g.g.g.g.8 s k.j.g.g.d.j.! ~ 2.G 5 9 K 2.g.j.f A y.2.M h.g.k.M q.j.g.g.g.f.R e.g.g.j.2.V k.j.k.l ",
"  x q.g.g.g.g.g.g.g.g.j.g.j.~ s 8 w.t.9 4.4.<.<.3.5.2 t.Z _.; ! j.j.k.8 v.: ' H., 7 y.J B j.j.j.g.f.Q e.j.j.g.g.g.g.g.j.6 ",
"  | k.g.g.g.g.g.k.2.r.d.g.g.s i L.Q.Q.( r <.<.<.<.<.8 `.i.`.< ,.<.<.m w.R.t.Q._.5 <.D d S G j.j.g.g.j.j.g.g.g.g.g.g.k.s @.",
"  q j.k.G h.g.j.g.e.K 8 G B Z _.H `.'.W.H m <.<.<.<.p ].L.'.2 <.<.<., W.v.'.`.( N F a R.I.8 g.g.g.g.g.j.g.g.g.2.Q g.6.}   ",
"w 1.g.d.R h.k.j.g.x.g.f.+ u.E.Q.R.u.'.W.W.A N ,.<.<.a W.W.].; <.<.1 K.R._.Q.L.; N j _.Q.K.g a B g.g.j.x.y.g.j.e.2.g.D {   ",
"..<.<.4.6.3.<.3.6.6.4.<.<.3 I.Q.W.I.H.`.Q.`.S m <.<.a W.Q.W.a <.r ' Q.Q.Q.Q.C 0 Z E.W.c.v.`.`.C B F 0 M ~ y.2.4.4.<.1     ",
"- r <.<.<.<.<.<.<.<.<.<.<.E 8 U.W.E.^._.Q.].'.H r <.A W.U.H./ 4 S `.`.E.Q.H.o S R.`.n.^.`.`.E.d N W y.4.y.2.D <.<.E w     ",
"  * D <.<.<.W 1.<.<.<.<.9 > $ u `.W.E.Y.W.W.Q.`.u.+ u.I.i . X v.`.K.z.R.Q.j u.E.E.~.W.Q.].Q.A N <.<.<.<.<.<.<.<.<.t w     ",
"    $ t D 0 { 1 t W t 1 %.    $.S E.W.W.W.W.W.W.Q.I.v.s.s.` i _.w.. @ v.Q.I.`.Q.W.W.W.W.Q.` t <.E <.<.<.<.<.<.D t 6       ",
"        -.      +.k ) b T ' o.    ` `.W.W.W.W.W.Q.u.L.I.T.K.v.`.c.` v.K.Q.W.W.W.W.W.W.W.l.$ D 9 / A s ` f F 4 $.          ",
"              ] i.i.`.K.L.Q.c.    | z.Q.W.W.W.W.G.H.9.9.8.9.v.I.H.v.I.K.a.W.W.W.W.W.W.H.*    .s.`.R.z.W.c.w.w.            ",
"              L.].i.Q.I.w.K.!.      l L.Q.W.W.'.' l.9.9.8.9.c.w.t.c.8.8.n.H.W.W.W.W.U.6       c.L.i.K.W.i.E._.{           ",
"              H.Q.t.W.`.) K.w.b       v E.W.W.'.oX+XB.l.9.8.8.u z.9.c.l.t.B.W.W.W.W.I       k w.K.u.I.W.t.'.^.            ",
"              U L._ w.' a L.`.`.v       r.W.W.'.$X1X>X#XF.r.8.S 9.8.Z.+X;X@X].W.W.z.w     %.`.'.I.Z _ u.H !.^             ",
"                _ `.'.t.(.K.W.R.l       C W.W.'.OX2X2X2X,X:.XX3  X+.>X2X2X@X'.W.W.(        .L.'.K._.t.`.`.w.              ",
"                #.U.`.L.W.'.K.X.        C W.W.W.V.<X2X2X2X1X-Xj *X<X2X2X2X[.Q.W.W.(         X.n.`.Q.~.E.R.X.              ",
"                  ..p.W.W.[             C W.W.W.(..X1X2X2X<XD._. X1X2X2X$XK.W.`.W.7.            I '.'.z.X.                ",
"                    =.Q.Q.]             C W.F. X`.I.;.@X@X=._.W.L.D.%XoXz.W.D. XR.(             =.W.W.]                   ",
"                    l `.Q.i.            C z.&X=XA.E.].(.R.W.`.'.E.W.L._.E.C.&X;XV.(             w.W.W.X.                  ",
"                      i.`._.#.          C [.*X<X|.~.'.'.W.W.W.W.E.W.W.W.^.D.>X:X X(           O.^.Q.n.                    ",
"                      z R.`.c.l         C .X2X,XXXH K.'.W.W.W.W.W.W.W.^.U  X:X2XOX(           a.Q.`.*.                    ",
"                        U `.Q.H.c       C L.{.H.E.W.c.i.^.'.W.W.W.I.a.z.'.'.H.{.!.(       X.z.Q.E.[                       ",
"                          T _.`.`.K.u./ Z Q.E.`.W.W.'.`.H.i.a.v.i.n.'.`.W.W.W.W.W.( S w.H.E.Q._.[                         ",
"                            z ] H.R.`.(.C W.W.W.W.W.W.W.Q.W.W.W.W.W.Q.W.W.W.W.Q.Q.( ^.`.R.K.u...                          ",
"                                  - %.-.n W.W.W.W.W.W.W.W.W.W.W.W.W.W.W.W.W.W.W.Q.) #.#.-                                 ",
"                                        C W.W.W.W.W.E.W.W.W.W.W.W.W.W.W.W.W.W.W.W.(                                       ",
"                                        C W.W.W.W.W.W.W.W.W.W.W.W.W.W.W.W.W.W.W.W.(                                       ",
"                                        n W.W.W.W.W.W.W.W.W.W.W.W.W.W.W.W.W.W.W.W.(                                       ",
"                                        C W.W.W.W.W.W.W.W.W.W.W.W.W.W.W.W.W.W.W.W.(                                       ",
"                                        d R.W.W.W.W.W.W.E.W.W.W.W.W.W.W.W.W.W.W.R.H                                       ",
"                                        z K.I.W.W.W.W.W.W.E.W.W.W.W.W.W.W.W.W.R.L.c                                       ",
"                                         .w.J.J.I.I.R.R.R.W.R.E.W.R.R.R.I.J.J.J.l.|                                       ",
"                                          | ( K.J.J.J.J.J.J.J.J.J.J.J.J.J.J.L.w.=                                         ",
"                                              l A 7.z.H.K.K.J.L.K.J.G.z.r.S z                                             ",
"                                                     .# , O & O : - { l                                                   ",
"                                                      l l.u   n l.-                                                       ",
"                                                      - U./   / I.-                                                       ",
"                                                      - I.H   / (.-                                                       ",
"                                                      * I./   S I.*                                                       ",
"                                      * | - * | -     * U./   H I.*     -  .& w w -                                       ",
"                                  { / K._.`.`.R.H.) p # I.H   H (.# k ` H.R.`.`.E.L./ {                                   ",
"                                ..K.W.W.W.W.W.Q.Q.W.E.i.R.H   H I.i.`.Q.W.W.W.W.W.W.W.H.{                                 ",
"                                / R.R.T.R.T.R.R.R.R.T.R.R.H |.H R.R.R.R.R.T.R.R.R.R.R.R./                                 ",
"                                3 n n C u C d d C C u C d 2   3 d n d n n d d d n d n d 3                                 ",
"                                                                                                                          "
};
