/* XPM */
static char *result[] = {
/* columns rows colors chars-per-pixel */
"64 64 209 2 ",
"   c #323B16",
".  c #373F20",
"X  c #2B441E",
"o  c #37451C",
"O  c #2D4620",
"+  c #354C20",
"@  c #3E4921",
"#  c #345622",
"$  c #3B5424",
"%  c #3A5C23",
"&  c #3A5A29",
"*  c #3C6327",
"=  c #444C2A",
"-  c #455423",
";  c #455C26",
":  c #495B26",
">  c #475938",
",  c #515B33",
"<  c #4C6126",
"1  c #44612A",
"2  c #49642A",
"3  c #436D2D",
"4  c #4C6B2C",
"5  c #546527",
"6  c #536528",
"7  c #556B2C",
"8  c #5B6E2B",
"9  c #45732E",
"0  c #4B722E",
"q  c #52742E",
"w  c #5D722C",
"e  c #567A2E",
"r  c #4B6934",
"t  c #5C6C33",
"y  c #576538",
"u  c #4C7331",
"i  c #477930",
"p  c #4A7B31",
"a  c #527531",
"s  c #557A32",
"d  c #597E32",
"f  c #647A2D",
"g  c #657B33",
"h  c #6A7D34",
"j  c #657639",
"k  c #525646",
"l  c #5A6547",
"z  c #5F6554",
"x  c #616D43",
"c  c #646D4C",
"v  c #6A7A42",
"b  c #6A7649",
"n  c #646D56",
"m  c #6D7651",
"M  c #6E7855",
"N  c #727B5A",
"B  c #767D59",
"V  c #767A65",
"C  c #7A7D62",
"Z  c #5D802F",
"A  c #4E8433",
"S  c #518634",
"D  c #5D8333",
"F  c #558A34",
"G  c #5B8D36",
"H  c #6B832E",
"J  c #708A2F",
"K  c #78962E",
"L  c #7C9D2F",
"P  c #608633",
"I  c #6D8433",
"U  c #638C35",
"Y  c #6E8A33",
"T  c #69863C",
"R  c #708634",
"E  c #738B34",
"W  c #758B3A",
"Q  c #778C3B",
"!  c #659236",
"~  c #699537",
"^  c #6C9A37",
"/  c #679139",
"(  c #6A9538",
")  c #6C9A38",
"_  c #769133",
"`  c #7A9435",
"'  c #7E9A35",
"]  c #7B9439",
"[  c #739D38",
"{  c #76A03A",
"}  c #7BA33A",
"|  c #7AA538",
" . c #758848",
".. c #7F9A40",
"X. c #7B8953",
"o. c #7A865D",
"O. c #7E8D5C",
"+. c #7D8364",
"@. c #788F61",
"#. c #7E826D",
"$. c #7D897A",
"%. c #819E35",
"&. c #819C3A",
"*. c #84A335",
"=. c #85A23B",
"-. c #89A53C",
";. c #83AA3C",
":. c #8CAB3B",
">. c #91AF3F",
",. c #8CB13D",
"<. c #93B43E",
"1. c #99B73F",
"2. c #97B93E",
"3. c #98B93F",
"4. c #839958",
"5. c #86A342",
"6. c #8CA643",
"7. c #8FB240",
"8. c #95B541",
"9. c #98B741",
"0. c #97B940",
"q. c #98B940",
"w. c #848C66",
"e. c #81836C",
"r. c #88936F",
"t. c #868972",
"y. c #8A8C74",
"u. c #868978",
"i. c #8A9773",
"p. c #8C947D",
"a. c #92947C",
"s. c #959979",
"d. c #8E9885",
"f. c #939482",
"g. c #9C9E83",
"h. c #999B86",
"j. c #8E9C9B",
"k. c #9DA387",
"l. c #91A194",
"z. c #9BA393",
"x. c #A4A385",
"c. c #A5A48A",
"v. c #A8A98A",
"b. c #A6A892",
"n. c #AFB096",
"m. c #B3B395",
"M. c #B5B49A",
"N. c #B8B79C",
"B. c #BBBB9C",
"V. c #9FA5A8",
"C. c #A2ADAB",
"Z. c #ADAEAB",
"A. c #B0AFA0",
"S. c #B5B5A3",
"D. c #BCBCA3",
"F. c #BABAA8",
"G. c #ABB5B6",
"H. c #BABBBA",
"J. c #BFC0A7",
"K. c #BDC1BE",
"L. c #C5C39F",
"P. c #C5C5A4",
"I. c #C8C7A7",
"U. c #CBCAA5",
"Y. c #C3C3AB",
"T. c #D4D3AC",
"R. c #C7C6B0",
"E. c #CDCDB4",
"W. c #CCCCB9",
"Q. c #D7D5B2",
"!. c #DAD9B4",
"~. c #D4D4BC",
"^. c #DBDCBA",
"/. c #E1DFBA",
"(. c #E4E3B5",
"). c #E3E3BB",
"_. c #E9E6BC",
"`. c #ECEABC",
"'. c #F1EDBE",
"]. c #D5D5C1",
"[. c #DBDBC3",
"{. c #DFDECA",
"}. c #C0CAD0",
"|. c #C4D3DC",
" X c #D4D4D4",
".X c #E8E6C7",
"XX c #ECECC4",
"oX c #E6E6CD",
"OX c #F6F5C5",
"+X c #F9F6C5",
"@X c #F5F5CB",
"#X c #F9F6CB",
"$X c #F7F9CD",
"%X c #FDFDCE",
"&X c #E6E6D3",
"*X c #ECEBD4",
"=X c #F5F4D3",
"-X c #FAF7D1",
";X c #FDFDD3",
":X c #F1F1D8",
">X c #FEFEDB",
",X c #DDE2E4",
"<X c #E4E5E6",
"1X c #EAEBEB",
"2X c #FFFFE3",
"3X c #FFFFE8",
"4X c #EBF0F2",
"5X c gray97",
"6X c #FDFEFE",
/* pixels */
"2X2X2X-X#X#X=X#X#X;X>X>X>X>X%X;X>X%X;X>X>X>X2X2X2X2X@X#X-X2X2X2X>X;X;X2X2X2X2X>X>X>X2X2X2X>X>X>X2X2X3X2X2X2X2X>X>X>X;X;X>X2X2X2X",
"2X2X2X-X+X+X#X+X+X-X>X>X>X;X%X;X%X%X%X>X>X>X>X2X2X>X+X+X%X2X2X2X;X%X%X2X2X2X>X>X>X2X2X2X2X>X>X>X2X2X2X2X2X2X>X>X>X>X%X;X;X2X2X2X",
"2X2X2X-X+X+X#X+X+X-X>X>X>X;X%X%X>X%X;X>X>X>X>X2X2X>X+X+X-X2X2X2X;X%X;X2X2X>X2X>X>X>X2X2X2X>X>X>X2X2X3X2X2X2X>X>X>X>X%X%X>X2X2X2X",
"2X3X2X3X2X2X3X2X2X2X2X2X2X;X;X>X>X>X>X>X#X%X>X>X>X>X;X;X>X-X-X-X2X2X2X>X>X>X>X>X;X>X%X;X>X#X-X;X2X>X2X2X2X>X>X;X>X>X>X>X2X2X2X3X",
"2X2X2X2X2X2X3X2X2X3X2X2X2X%X%X;X>X>X>X-X+XOX;X%X%X>XXXM.M.!.+X#X2X2X2X>X%X%X>X%X;X%X+X+X-X+X+X#X>X>X>X2X>X>X>X%X%X>X>X>X>X2X2X2X",
"2X2X2X2X2X2X3X2X2X3X2X2X2X;X%X;X>X>X;X%XP.n M B.e.+.b 5.:.R v.XX:Xb.y.B.#X%X>X%X;X#X+X+X#X+X+X+X>X>X>X>X>X>X>X#X%X>X;X;X>X2X2X2X",
">X>X>X>X>X>X>X-X>X>X>X>X>X;X;X;X2X>X2X.Xr ( ^ 2 8 _ } ^ ) :.=.j j } ,.*.l m !.>X>X>X;X>X>X>X>X>X>X>X>X2X>X2X>X;X;X;X>X>X>X2X2X2X",
";X;X;X#XOX+X=X+XOX=X%X;X;X+XOXOXE.N.M.y P ^ ^ ^ ^ D 2 e ^ ~ { ;.} ) ~ | ;.,.t.>X>X>X>X>X>X>X>X>X;X%X%X>X2X2X>XOX+X;X;X%X>X>X>X>X",
";X%X;X#X+XOX#XOXOX%X%X%X>XL.k.e.Z ! D ^ ) s s ^ ^ ^ ( 2 ) & ( ) ) ) q ) ^ ' #.=X>X>X>X>X>X>X>X>X;X%X%X2X2X2X>X@X+X-X%X%X;X>X>X>X",
">X>X>X>X;X-X>X%X%X>X>X>XE.q ~ U ^ ^ ^ ^ ^ 4 u ) ^ ^ ~ 2 P ) ) ) ) ) ^ ^ U P I k V j f.@X>X>X>X2X;X>X;X2X>X>X>X-X-X>X-X;X>X;X;X>X",
"2X2X2X>X>X>X>X%X%X>X2X2XM.P ^ ^ ^ ) ) ) ( ( ( ) ^ ^ ^ ) 0 / D ! ^ ^ ^ D q ! e ' | ;.:.t.).>X>X>X%X%X;X#XOXOX>X2X2X>X#X+X%X+XOX+X",
"2X2X2X>X>X>X>X%X%X>X2X:Xy ~ ^ ^ ^ 0 u ) * / ) ) ^ ^ ) ) D a S u ^ ^ ^ 4 ^ ^ ^ ^ ^ ^ ;.-.j D.=X>X;X%X#X=X+X@X>X2X2X>XOX+X#X+X+X+X",
"2X>X2X2X>X>X>X>X;X2X2X{.0 ^ ^ ^ ^ d a ^ ~ ^ ^ ^ ^ ^ ) ^ ^ d u s ^ ^ ^ D e ^ ^ ^ ^ ^ ) { ,.=.M :X>X%X>X;X%X#X>X2X2X>X#X#X-X%X#X-X",
">X%X;X2X2X2X2X;X;X>X2XW.; ) ^ ^ ^ ) ) ^ ) ^ ^ ^ ^ ^ ^ ^ ^ ^ ( ^ ^ ^ ^ U U ^ ^ ^ ^ ^ ) ( ^ { ' P.+X+X+X;X;X;X>X;X;X>X;X%X>X%X%X>X",
"%X%X;X2X2X2X>X%X;X;XS.l ) ^ ^ ^ ^ ^ ^ d U ) ^ ^ ^ ^ ^ ^ ~ s ( ^ ^ D d ^ ^ ^ ^ ^ ^ ^ ~ 3 D ^ } +._.OX+X>X%X%X;X%X%X>X%X%X;X%X%X;X",
">X;X%X2X2X2X>X;X;XS.9 ! ^ D ^ ^ ^ ^ ^ D U ^ ^ ^ ^ ^ ^ ^ ~ 0 ^ ^ ^ u 9 ( ^ ^ ^ ^ ^ ^ ^ D ^ ^ } -.= e.a.B.%X%X;X%X%X>X%X%X>X;X%X>X",
"2X2X2X>X@X#X>X>X>Xf.A F ! 4 ^ ^ ^ ^ ^ ^ ^ ^ ^ ^ ^ ^ ^ ^ ^ ) ^ ^ ^ ! G ^ ^ ^ ^ ^ ^ ^ ^ ^ ^ ^ ^ { 8 :.<.=.f.2X-X@X#X>X>X>X>X2X2X3X",
"2X2X2X-X+X+X>X>X>XS.9 A F G ! ^ ^ D D ) ^ ^ ^ ^ ^ ~ ! ^ ~ ^ ^ U s ^ ^ ^ ^ ^ ^ ^ ^ a D ^ ^ ^ ^ ^ 0 ! ^ } I *X>XOX+X-X>X>X>X2X2X2X",
"2X2X>X-XOXOX-X>X>XE.3 A A A A G ^ ^ D 0 ) ) q ! ^ ; 4 4 ^ ^ ^ ~ U ^ ^ ^ ^ ^ ~ ^ ^ D ! ^ ^ ^ ^ D ; P D ^ g S.;X+XOX-X>X>X2X2X2X2X",
">X>X>X2X2X2X2X-X-X=Xn p A A A S F ~ ^ + 7 2 o 5 7 : U ^ ^ ^ ^ ^ ^ ^ ^ ^ ~ D r ) ^ ^ ^ ^ ^ ~ D ; ) ^ ^ ) 7.] F.#X-X>X3X3X2X>X>X>X",
";X%X%X2X2X2X-X#X+X#X`.x.t.k A A A A A & ] :.=.&.3.] 0 ^ ^ ^ ^ ^ ^ ^ ^ ^ ^ ~ / U ) ^ ^ ^ ) ) ! ~ ^ ^ q 4 < w l N.XX>X2X2X2X%X%X;X",
";X;X%X2X2X2X>X+XOX%X+X+X%XQ.> p A A A 3 _ 3.1.E q.,.# S G G ^ ~ ^ ^ ^ ^ ^ ^ ^ 4 ^ ^ ) u D ) ^ ~ s q P ) ) { ,.=.B [.2X2X2X%X%X>X",
">X>X>X2X2X2X>X#X@X-X;X;Xb. .u.. # & > r 8 3.3.] 3.3.: S A A G a ! ^ ^ ^ ^ ^ ^ ^ ^ ^ / u d ^ ^ ( P e ( ) ) / ) | :.E c.2X2X>X>X>X",
">X>X>X>X;X>X;XOXOX%X%X).' 8.R 1.v k.!.S., 9.3.-.q.2.H p A A A $ 7 4 e ~ ^ ^ ^ ^ ^ ^ ^ ) ^ U U ^ ^ ^ ^ ^ D p D ) ) ;.I oX2X>X>X>X",
">X>X>X>X>X>X;X+X+X-X;XI.>.:.&.q.Q 8. ..Xs.>.3.:.9.3.=.* A A i g &._ R % ~ ) ^ ^ ^ ^ ^ ^ ^ U D ^ ^ ^ ^ ^ ! s ~ ^ ) ) ~ F.2X>X>X>X",
">X>X>X>X>X;X>X-X-X>X;X^.h g >.8.w 2.=.~.~.` 3.2.2.2.9.$ A A # >.&.2.7 u P ) ^ d ^ ) ^ ) ^ ) ) ^ ^ ^ ^ ^ ^ ^ ^ ^ ^ [ ,.h *X>X;X>X",
">X>X>X-XOXOX>X2X2X>X+XT.-.8.R t 6.R o.:X:Xh 2.2.2.2.q.h p 3 E 3.9.=.% A G ) ) + ) ) ^ ^ ^ ^ ^ ^ ^ ^ d ^ ^ ^ ) U ^ ^ [ _ ].#XOX#X",
">X>X>X-XOX+X2X2X2X>X+X_.Q 9.` ] ] 9.o.>X2XN 2.2.2.2.3.>.o < 2.3.q.6 A A S 3 - E ; D ~ ^ ^ ^ ^ D D ^ D ^ ( ^ ) u U ) ^ Y ~.+X+X#X",
">X>X>X;X#X%X2X2X3X2X#X#Xc.8.<.3.0.3.] oX2Xa.8.2.2.3.2.2.] 8.` I 6.# S 9 $ R <.] I E : ~ ^ ) ^ 4 q ^ ^ ~ 4 u ) ) ^ ^ ) Y ].-X-X-X",
";X;X;X;X;X%X2X2X2X>X+X+Xi.0.8.W W O.B.;X;Xv.<.2.2.2.=._ ] _ W   o X - R >.<.-.<.0.8.w $ U s ) ^ ( ) ) ( u s ) ) ^ ) ^ } S.2X2X3X",
"%X%X%X;X%X%X>X2X2X>XOX#X .3.-.I.$X%X%X>X%Xg.<.2.2.] E ' _ *.=.g g 8.q.3.2.3.9.3.' - 9 S D $ ~ ^ ^ ^ ^ ^ ) ) ^ ^ ^ ^ ^ =.b.2X2X2X",
">X%X;X>X%X;X2X2X2X2X@XXXW 1._ XX>X%X;X>XXXj 2.2.>.K.l.K K K ' ` 1.I o I 0.q.:.8 & 3 & ; H 6 / ^ ^ ^ ^ ^ P s ^ ^ ^ ^ ^ d W.2X2X3X",
"2X2X3X-X#X#X2X3X2X2X;X;XX.q.W -X%X#X#X>Xf.:.2.2...5X4Xp.K K K E 2.R g g 2.=.  @ w ` :.9.3.g U ^ ^ ^ D P ^ ) ^ ^ ^ ^ P a.-X;X;X>X",
"3X2X2X-X+XOX>X2X2X>X%X%Xs.q.] ).@X+X#X).T 0.2.2.i.6X6X,X@.K K 8 Q ] ` &.2.:.>.8.8.9.:.&.E < d ^ ^ ^ D D ^ ^ ^ ^ ~ ( 4 T.#X;X%X;X",
"2X2X2X-XOX#X>X2X2X>X;X;XU.:.8.s.#X+X#Xy.=.l.j.8.@.6X6X6XG.H H f K K L ] 8.2.3.2.8.:.7.9.9.9.6 ~ ^ ^ ) ) ^ ^ ~ U 1 4 4 U.%X;X%X;X",
"3X2X2X>X>X>X2X2X2X3X>X>X;Xw.9.-.A.2X].h z.,X}.:.]  X6X6X1XG.- E K K K _ :.2.2.2.3.3.8.q.q.2.8 e ) ^ ^ ^ ^ ^ ^ D / ^ P B.>X>X>X>X",
"2X2X2X>X>X>X>X2X2X2X>X>X>X(.X.1.-.a.V &.<X6XK.-.0. .H. XH.O.V.V.G.G.C.$.<.2.2.2.2.2.2.-.f $ 3 * 2 2 D ~ ^ ) ^ ^ ^ ^ q ^.;X>X;X>X",
"2X2X2X>X>X>X2X2X2X2X>X>X>X+X_.y.-.` E 1.4.k.r._ 0.2.:.*.>.2.K.6X6X6X6Xz.2.2.2.2.8._ y O p A A A F ! U ( ^ D a ^ ! D c @X>X>X>X>X",
">X-X>X2X>X>X3X2X2X2X>X>X>X-X%X$XR.- 8.2.2.2.q.R 2.2.2.2.2.8.p.5X6X6XH.6.2.2.2.R y.~.-Xn.$ 7 3 A A A G 1 G ! ~ G * N.OX-X>X>X>X>X",
"#X+XOX>X>X>X2X2X2X>X%X%X;X@X+XOXI.` 2.2.2.2.2.,.] 2.2.2.2.2.:.u.Z.p.:.2.2.0.b [.2X2X%XI.-.0.R 1 3 A A A A A A > m.-X+XOX#X%X%X;X",
"#X#X+X>X>X>X>X2X2X>X%X%X>X+X+XOXm <.2.2.2.2.2.2.:.] 2.2.2.2.2.0.0.8.5.:.2.%.P.2X2X[.X.v Q -.E q.E i A p A A y T.>X;X+X+X#X%X%X;X",
">X-X;X>X>X>X2X>X2X>X%X;X>X-X-XM.' 2.2.2.2.2.2.2.2.,.E *.2.2.3.0.=.l.|.d.2.B >X2X>Xh.2.3.9.h <.3.E f z u.& l ].;X>X;X#X#X;X>X>X>X",
">X>X>X;X%X%X>X%X%X;XOXOX%X>X-Xc 0.2.2.2.2.2.2.2.2.2.2.:.] ] ` E $.1X1X$._ U.>X%X%XB.<.-.h t 9.] -.0.b.>X=X>X>X%X%X%XOX+X#X>X>X>X",
">X>X>X;X%X%X>X%X%X%X+X+X@X>X^.I <.2.2.2.2.2.2.2.2.2.2.2.2.3.2.0.5. X5X4.w.%X;X;X;X=XX.0.8.R _ R 8...[.>X>X>X>X%X%X>X+X+X#X>X;X>X",
"2X>X2X>X>X;X>X>X>X>X#X;X;X>XE.Y :.2.2.2.2.2.2.2.2.2.2.2.2.3.2.2.8.5.i.R !.>X>X>X>X>Xc.,.2.<.3._ +.~.3X2X>X>X>X>X>X>X#X;X>X>X2X2X",
"2X2X2X>X>X;X>X%X%X;X%X%X;X+X`.j *.:.2.2.2.2.2.2.3.2.2.2.2.2.2.2.0.0.8.C +X+X;X;X;XD.&.2.9.T X.n.>X>X>X>X>X>X>X>X>X>X;X%X>X2X2X2X",
"2X2X2X2X;X>X>X%X%X;X%X%X;X#X+Xc.L :.:.2.2.2.2.2.2.2.2.2.2.2.2.2.2.2.H R i.B.E.P.s.-.2.2.X._.+X#X>X>X>X>X>X;X>X>X;X>X%X%X>X2X2X2X",
"2X2X2X>X>X>X>X%X;X>X;X;X>X@X@XOXa.K ;.:.<.2.2.2.2.2.2.2.2.2.2.2.2.,.= :.1.<.>.>.2.3.,.w..X#X#X@X>X>X>X>X>X>X2X>X>X>X;X;X>X2X2X2X",
"3X2X2X2X>X>X>X2X>X3X2X2X2X>X>X>X2Xz.h :.:.:.<.2.2.2.2.2.2.2.2.2.2.h .XW.r.] -.:.] X.D.-X>X%X%X>X%X#X#X>X;X;X>X%X;X>X>X>X>X#X+X%X",
"2X2X2X>X>X>X2X2X*X&X2X2X2X>X>X>X2X2XS.- ` *.:.:.<.2.2.2.3.2.2.2.:.v.>X2X2X:X~.U./.%X>X>X>X%X%X;X@XOXOX;X%X;X%X%X%X>X;X>X>XOX+X#X",
"2X2X2X2X>X>XW.N I E v h.&X>X>X>X3X2Xt.J k x ' :.*.,.,.2.3.2.3.2.j @X>X2X2X2X>X+X+X;X>X>X>X>X;X;X#X#X+X;X%X%X;X%X%X>X>X>X>X+XOX@X",
"2X2X2X2X2X2X, >.3.3.2.8.I b.-X>X2X~._ E E.t.: 5 %.*.:.*.:.:.:._ S.>X>X2X2X>X>X;X>X2X2X2X2X%X#X-X-X#X%X>X>X>X>X>X>X>X%X#X-X2X2X2X",
"2X2X2X>X>X>XJ.y _ ,.2.2.0.=.t.@X2X+.<.#.~.H H B.m.b H ' *.*.I f.=X>X>X>X>X>X>X%X%X>X2X2X2X+X+X#X#X+X+X>X>X>X>X%X;X#X+X+X-X2X2X2X",
"2X2X2X>X>X>X;X`.v.t ` <.0.2.:.y.Y.] E ~.#.<.o.%X%X#X!.N.c.A.].3X>X>X>X>X;X>X;X%X%X>X2X2X2XOX+X#X#X+X+X>X>X>X>X%X%X>X+XOX-X2X2X2X",
">X-X>X2X>X2X>X@X%X.Xc.8 ' <.2.%.6 <.y.W.` _ ~.>X;X>X>X;X>X-X>X-X;X-X;X>X>X>X>X;X>X>X>X>X2X;X;X>X;X;X;X2X>X>X>X%X>X>X;X;X>X3X3X3X",
"@XOXOX2X2X2X>X+X+X#X+X(.s.8 *.<.,.I ^.N <.t.>X%X%X>X;X>X>XOXOX#X#X+X+X;X%X%X>X%X%X>X>X>X>X%X%X;X;X%X%X>X>X>X>X%X%X>X>X>X2X2X2X2X",
"#XOXOX2X2X2X>X+XOX%XOXOX%XoXa.8 &.y.P.] E M..X$X%X>X>X>X>X+X+X#X#X+X+X;X%X;X;X%X;X>X>X>X>X%X%X;X;X%X;X>X>X>X>X%X%X>X>X>X>X2X2X2X",
"-X#X-X2X>X>X>X;X;X-X;X;X>X2X2X{.h.D.6 8.' ] Y v s.~.>X>X>X>X-X;X-X;X;X>X>X>X>X>X>X>X>X2X2X>X;X>X>X;X;X>X>X>X>X>X>X>X>X>X2X2X3X3X",
"#X+XOX#XOXOX;X%X%X;X%X%X>X2X2X2X$X'.B h :.2.2.2.8.] t.XX>X>X>X>X;X%X%X2X2X2X>X%X%X>X2X>X>X+X+X+X+XOX+X#X'.+X;X>X>X>X>X;X>X2X2X2X",
"#X+X#X@X+XOX;X%X%X>X%X%X;X2X2X2X#X+X+XI.m H :.2.2.2.>.v {.>X>X>X>X%X;X2X2X2X>X%X;X>X2X2X2XOX+X#X+XOX+X#X+X+X;X>X>X>X>X>X>X2X2X2X",
"-X#X#X;X-X#X>X>X;X>X;X;X>X2X2X2X%X#X%X-X@XL.c E :.2.2.2.N -X>X>X>X>X>X3X3X3X>X>X;X>X2X2X2X#X#X$X#X#X;X-X#X#X>X>X>X2X>X>X2X2X2X2X",
";X;X;X2X2X2X-X@X+X#X+X+X-X%X%X;X>X%X%X#X+X#X-XB.x E :.2.%.P.+X#X>X>X>X2X2X2X-X+X+X#X+X+X%X+X+X#X>X>X>X;X+X+X>X>X>X2X2X2X2X#XOX@X",
";X%X%X2X2X2X;XOX+X#XOXOX#X%X%X;X%X%X%X#X+X#X>X;X=XM.t ` =.m.+X#X>X;X>X2X2X2X>X+X+X#X#X+X#X+X+X#X>X>X>X-X+X+X>X>X>X>X2X2X2X+XOX+X",
">X;X;X2X2X2X>X#X@X%X#X#X>X;X;X;X;X>X;X;X#X#X>X>X>X>X`.x.n Q.@X%X>X>X>X2X2X2X>X@X#X#X#X#X-X#X#X-X>X>X>X-X@X#X;X>X>X2X2X2X2X#X#X#X"
};
