/* XPM */
static char *result[] = {
/* columns rows colors chars-per-pixel */
"64 64 202 2 ",
"   c #562A26",
".  c #592A26",
"X  c #562B29",
"o  c #592B29",
"O  c #5D312C",
"+  c #672E2E",
"@  c #732C2F",
"#  c #62322D",
"$  c #68362E",
"%  c #653632",
"&  c #6A3732",
"*  c #663933",
"=  c #6D3C36",
"-  c #6E3D38",
";  c #7E3036",
":  c #713D35",
">  c #713D39",
",  c #5F4039",
"<  c #754236",
"1  c #7C4436",
"2  c #764139",
"3  c #7D4539",
"4  c #794E45",
"5  c #72524F",
"6  c #7A625D",
"7  c #912E39",
"8  c #86393A",
"9  c #804536",
"0  c #80453A",
"q  c #844B3C",
"w  c #8A4D3D",
"e  c #91523F",
"r  c #BE2D44",
"t  c #A93344",
"y  c #BA3447",
"u  c #C12D45",
"i  c #C82D46",
"p  c #C43048",
"a  c #CB334C",
"s  c #CF3A54",
"d  c #D53853",
"f  c #DD3C59",
"g  c #E43E5D",
"h  c #824C40",
"j  c #894E42",
"k  c #8C5143",
"l  c #875A4D",
"z  c #935544",
"x  c #975845",
"c  c #9B5B45",
"v  c #94574A",
"b  c #9C5D49",
"n  c #855A51",
"m  c #A35F46",
"M  c #A25F4A",
"N  c #89614E",
"B  c #9D614C",
"V  c #8C6359",
"C  c #966A59",
"Z  c #A16047",
"A  c #A7634C",
"S  c #A9644C",
"D  c #B3694F",
"F  c #A96551",
"G  c #AC6A52",
"H  c #AA6E5B",
"J  c #B46B53",
"K  c #BA6D55",
"L  c #BB6E58",
"P  c #AF755F",
"I  c #B57356",
"U  c #BA7057",
"Y  c #B97359",
"T  c #BE795B",
"R  c #896C66",
"E  c #906962",
"W  c #987B6E",
"Q  c #B46265",
"!  c #AF7D6C",
"~  c #B97F6B",
"^  c #E3425E",
"/  c #C4775B",
"(  c #CA765C",
")  c #CD7B5D",
"_  c #D27D5E",
"`  c #E64A64",
"'  c #E6566B",
"]  c #C67662",
"[  c #C67F61",
"{  c #CC7B60",
"}  c #E66D76",
"|  c #978578",
" . c #B68874",
".. c #A89073",
"X. c #CC825E",
"o. c #D5835E",
"O. c #DC845E",
"+. c #DD885F",
"@. c #C48267",
"#. c #CE8465",
"$. c #D48363",
"%. c #DC8662",
"&. c #D48A65",
"*. c #DD8A64",
"=. c #D38768",
"-. c #D5896A",
";. c #DB8D6B",
":. c #DB916E",
">. c #C48E76",
",. c #DE9571",
"<. c #DE9972",
"1. c #E18A64",
"2. c #E08C69",
"3. c #E5946B",
"4. c #E9956C",
"5. c #E99A6D",
"6. c #E49571",
"7. c #E59A73",
"8. c #E99D72",
"9. c #E59E78",
"0. c #E89C7E",
"q. c #EAA176",
"w. c #ECA47A",
"e. c #EEAB7D",
"r. c #F0A77D",
"t. c #F1AC7D",
"y. c #A48981",
"u. c #AA9182",
"i. c #BF9D82",
"p. c #AA9B90",
"a. c #B8A18B",
"s. c #C38D84",
"d. c #C59689",
"f. c #E19B81",
"g. c #EB9A9D",
"h. c #C9A588",
"j. c #CAA693",
"k. c #CCA99D",
"l. c #D0A193",
"z. c #C0B69B",
"x. c #E4A98B",
"c. c #F2AD81",
"v. c #ECB08E",
"b. c #F5B486",
"n. c #F9B486",
"m. c #F5B58A",
"M. c #F9B689",
"N. c #F5B888",
"B. c #F9B88B",
"V. c #E4AF9A",
"C. c #F2B990",
"Z. c #F9BB92",
"A. c #D4AFA8",
"S. c #C7B9A7",
"D. c #D8BAA7",
"F. c #E3B4A6",
"G. c #F6C195",
"H. c #D6CBA6",
"J. c #DBC3AC",
"K. c #CEC3B2",
"L. c #D8D1BC",
"P. c #ECC4A8",
"I. c #F7C9A6",
"U. c #F1D4AB",
"Y. c #E7CAB6",
"T. c #F1CDB2",
"R. c #E8D4B7",
"E. c #E5DCBD",
"W. c #F5D3B4",
"Q. c #F5D6B9",
"!. c #F9DEBD",
"~. c #FAE2BD",
"^. c #F4EABB",
"/. c #DDD5C2",
"(. c #E0CEC3",
"). c #EFDAC5",
"_. c #F0D1C4",
"`. c #F5D1CA",
"'. c #ECE4C8",
"]. c #F3E9C6",
"[. c #F9EAC2",
"{. c #F4E3CD",
"}. c #F5EDCC",
"|. c #FBEDCA",
" X c #F7F5C5",
".X c #F9F6C5",
"XX c #F9F8C7",
"oX c #F7F5CA",
"OX c #F9F6CB",
"+X c #FDFDCE",
"@X c #EEEAD1",
"#X c #F3EBD3",
"$X c #FBEFD6",
"%X c #F6F1D0",
"&X c #FAF6D1",
"*X c #FDFDD3",
"=X c #F6F2DA",
"-X c #FBF7DC",
";X c #FEFEDB",
":X c #FAE9EC",
">X c #FFFFE3",
",X c #FFFFE8",
/* pixels */
">X>X>X&XoX.X&XOXOX*X;X;X>X*X*X*X*X*X*X;X;X;X>X>X>X>XoXOX&X,X>X>X;X*X*X>X>X>X>X;X;X>X>X>X>X;X;XD.,X>X,X>X>X,X>X;X;X>X*X*X;X>X>X>X",
">X>X>X&X.X.X&X.X.X&X*X;X;X*X+X*X*X*X+X;X;X;X>X>X>X;X.X.X&X>X>X>X*X+X+X>X>X>X;X;X*X;X>X>X>X;X;XR.).>X>X>X>X>X;X;X;X;X+X+X*X>X>X>X",
">X>X>X&X.X.XOX.X.X&X;X;X;X*X+X+X*X*X*X;X*X;X>X>X>X-X.X.X&X>X>X>X*X+X*X>X>X>X>X*X;X>X>X>X>X;X;X%Xl.>X,X,X>X>X;X;X*X;X+X+X;X>X>X>X",
",X>X>X,X>X>X,X>X>X>X>X>X,X*X*X*X;X;X;X;X&XOX;X*X;X;X+X*X*X&X&X&X>X>X>X;X*X;X;X;X*X;X&XOX;XOX&X&Xs.>X;X>X;X>X;X*X*X>X;X;X>X>X,X,X",
">X>X>X>X>X>X,X>X>X,X>X>X>X*X+X+X;X;X*XOX.X X*X+X+X*X+X+X*X.X XOX>X>X>XoXOXoX&X+X*X*X.X XOX.X.XoXs.;X;X;X;X;X;X+X*X;X;X*X;X>X>X>X",
">X>X>X>X>X>X>X>X>X,X>X>X>X*X+X*X;X;X;X&X.X X*X*X*X*X*X+X*X.X XoX/.p.R 6 , 5 6 | z.E. X.X&X.XOX].d.*X;X;X*X;X*X+X+X;X*X;X;X>X>X>X",
";X;X;X;X-X;X-X;X-X;X;X;X;X&X*X*X>X;X;X;XOXOX*X&X*X;X*X;X;X%XJ.H z & X o o         . 6 A.F._.&Xl.D.*X;X>X>X>X;X*X*X;X;X*X;X>X>X>X",
"*X*X*XOX.X.XOX.X X&X+X*X*X.X.XOX;X*X;X&X.XXX&X.X.X+X+XOXD.P Z A M : o X   o o X o + y r r r g.Q =X+X*X>X>X>X-X.X X*X*X*X*X;X;X;X",
"*X+X*XOX.X XOX.X X+X+X+X*XXXXXXX;X;X;X&X X XOX X.X*X]. .A Z x 1 #     . . X . .   t i u u f g ^ g.Q.+X>X>X>X*X X X&X+X+X*X;X;X;X",
";X;X;X;X&X&X;X+XOX;X;X;X;X&X&X*X;X;X;X;X*X&X*XOXOX'.G S c O X   < c c : . X o o   s r u a ^ g g ` ' _.>X-X-X>X-X*X*X*X*X*X*X*X;X",
">X>X>X>X;X;X;X+X*X;X>X>X>X;X;X;X;X;X;X;X*X;X&X XU.P A S 3 o * x S S A S O O > o o s r r p g g g ' `.} XX X X-X>X>X;XOX.XOX.X.XOX",
">X>X>X;X*X;X;X*X+X;X>X>X>X;X;X;X;X;X;X;X*X;X*X^.P A S S Z B S S S S A z $ - - & X y u r u g g g } :X' OX X X;X>X>X-X.X.XOX.X.XoX",
">X>X>X>X;X>X;X*X*X>X>X>X>X>X;X>X>X;X;X>X;X;X-Xi.Z A A S A A S A A x : % - - = > O @ s r r u f g g ` s K.OX&X;X>X>X;XOX+X&XOX+X&X",
"*X*X*X>X>X;X;X*X*X;X>X>X>X>X>X>X>X>X>X;X+X*XE.F S A A A S A S S =   % < - - = = 2 * ; r u r u a g d 8 4 '.*X*X*X*X*X*X+X*X*X*X*X",
"*X+X+X>X>X>X;X+X+X;X>X>X>X>X>X>X>X>X>X*X+X+Xj.A A A A A A A A A < < Z b - - - > - > = + 7 r u r t 8 - = W +X*X+X+X;X+X+X*X+X*X*X",
"*X*X+X>X>X>X>X*X*X;X>X>X,X>X>X>X>X>X>X;X*X XA A S A A S A A A A S D U c = > = = , > - - * # o & > = - = < L.*X+X*X*X*X*X*X*X*X*X",
">X>X>X&XOXOX;X;X;X>X>X>X>X*X*X*XOXXXoX>X>X(.M A A S A S A S A S M b 3 = q M A h = - - > - - = > - - > - - | &XOXOX;X;X;X;X>X>X>X",
">X>X>X&XXX X;X;X;X>X>X>X>X*X+X*XOXXX X-X/.! A A A A A A A A 1 O O - = k L J J A w - - - = = - = - = - > - 4 @X.X.X&X;X;X>X>X>X>X",
">X>X>X&X X X;X*X;X;X>X>X;X+X+X*XOXoXH.E 2 m A A S A A S F <   o $ - : J L L K S M - > = - > > = - - - - > - S..XOX*X;X;X;X>X>X>X",
";X;X;X>X>X>X>X&X&X-X&X&X;X&X*XOX&XoXl 1 0 A A A A A A S A 3 X   % = B K K K K J A = - - - - = - - - - = > : y.&XOX-X,X>X,X;X;X;X",
"*X+X*X>X>X>X-X.X.XOX.X.XOX.X.XoXOX..0 3 3 Z A A A A A S S Z $   $ x L K K K K J x - - - - - - - = - - w S B R OX.X&X>X>X>X+X+X*X",
"*X+X+X>X>X>X&X.X.XOX.X.XOX.X.XoXH.1 1 0 0 A A A S A A A S S Z B F J K K J K J Z 3 - - - - - - v c - - J J D E OX.X-X>X>X>X+X*X*X",
";X;X;X>X>X>X;XOXOX*X*X&X;X>X;X-XV 1 3 3 3 A A A A S A A A S S A S K L K J J b 2 = = - - : - z L K k 2 L J K C &X*X>X>X>X>X;X;X;X",
";X;X;X;X*X*X-X.X.XOX+X+X;X>X>X-XC 3 3 3 1 M S A S A A S A A A S A K K J A q - 2 0 - - - - z J L K m < L U K  .;X;X>X>X>X>X;X;X;X",
";X;X;X;X;X;X*X.X X&X+X+X*X>X>X>Xp.1 1 3 3 x S S A A A A S A A S A J K b = = 2 J J 2 2 - B L L J L Z < L K K d.;X;X;X>X>X>X;X;X;X",
";X;X>X;X*X*X-X;X&X;X*X*X;X>X>X>X].n 1 3 3 w S A A A A A A A A A A S K w = = A L b = = 3 L L K K J z 3 K K K k.;X;X>X>X>X>X;X;X;X",
";X*X;XOX.X.X-X>X>X>X.X.X&XXX.X.XOX@.1 3 1 3 A A S A A S S A A S A A J A k b L M = - 2 2 U K J J b 2 q L K K J. X X;X>X>X>X.X XoX",
";X;X;X&X.X.X>X>X>X;X.X.XOX.X.XXXW.3.T 3 1 3 x S A A A A A A A A A A A K K L A 2 = = - 1 L L J c < - z K K U {.oX X&X>X>X>X.X.XOX",
";X;X;X*XOXOX>X>X,X>XOXOX*X&XXX&XZ.3.:.3 3 3 0 A S S A A A A A A A A S S J D q < : - - h U K G 0 = - F L I >.-XOXoX;X,X,X>X&X&X*X",
"*X*X*X;X*X*X>X>X>X-XXXXXOXoX.X~.B.4.;.3 3 1 1 x S A A A S A S A A A A A S S > = - - = b K K J q - > J L J Y.&XXX X-X>X>X>X>X>X>X",
"*X*X+X*X+X+X;X>X>X-XXX.X&X.XOXI.M.3.&.1 3 0 3 9 B A A A A A S A A S A A A A & < - - 3 K K K K b = c L J ~ &X&X X X*X>X>X>X>X>X>X",
"*X*X*X*X+X*X>X>X>X;XOXOX*XOX[.n.B.5.;.3 3 0 3 3 w A S A A A A A A A A A F A q O & k J K K K K L J K G S R.;X;XXXXX-X>X,X>X,X>X>X",
">X>X>X-XOXOX>X>X>X>X*X*X*X*XW.n.N.5.3.x 3 3 3 3 1 e S S S S S Z A A A A A S S A A F S G J D J G S A A j.*X*X*X*X*X*XXXOX&X*X*X;X",
">X>X>X&X.X.X-X>X>X;X+X+X*X+XI.B.r.3.3.&.q 9 3 3 3 0 j Z A S S S A S A S A A A A A A A A S Z A A S Z k.*X*X*X*X*X*X*X.X.XXX*X+X*X",
">X>X>X&X X.X;X>X>X;X*X+X;X*X).M.5.4.3.3.*.B 1 1 3 3 3 w Z S A A A A A A A A A A A A A A S A A A M h.*X*X+X*X*X*X+X*X.X.XOX*X+X*X",
">X>X>X;X;X;X>X>X>X,X;X;X;X+XP.n.7.3.3.3.4.4.X.c 3 3 3 1 0 c S S A F A A A A A A F S A S A A A G J.>X>X>X>X>X;X*X*X;X*X*X;X;X;X;X",
">X>X>X;X;X;X>X>X>X>X;X;X;X X3.3.b.3.3.3.3.3.2.4./ 3 3 3 3 3 w c A A S A A S A A A A Z S A A c C >X>X>X>X>X>X;X+X*X*X+X+X*X;X*X;X",
">X>X>X>X;X;X>X>X>X>X;X;X;X{.%.$.w.c.3.3.3.3.4.3.3.X.q 1 3 3 3 1 0 x Z A A F S A S S S Z z q 1 V -X>X>X>X>X>X;X*X+X*X+X*X;X;X;X;X",
";X-X&X>X;X;X,X>X>X>X;X;X-XC.8.%.%.c.t.3.3.3.3.3.3.c.3.T q 3 3 3 3 3 3 0 w w z k e q 0 1 0 3 1 W ;X-X*X;X;X;X;X*X*X;X&X*X;X;X;X;X",
"XX.X.X;X;X;X>X>X>X;X+X+X{.c.t.%.%.%.c.w.3.3.3.3.q.B.c.4.Y 1 3 3 3 3 9 0 1 3 1 3 3 3 0 1 3 0 1 a.oX.XoX*X*X*X*X+X*X*X X.XXX+X*X*X",
"OX.X.X;X*X;X>X>X>X;X*X*XI.#.3.%.%.{ _ c.c.4.4.3.M.M.M.3.3.c 3 3 3 3 3 3 1 3 3 1 3 3 q 3 2 1 N OX.X.XOX*X*X+X*X*X*X*X.X.XOX+X+X*X",
";X*X*X>X;X;X>X;X>X;X+XOXm.7.{ %.%.( %.%.r.c.3.b.M.M.M.b.4.;.x 1 3 3 w X.#.w 1 3 3 k k 4 l u.'.;X-X;X&X;X*X;X;X*X*X;XOXXX*X;X;X;X",
";X;X*X*X+X+X*X*X+X+X.X).e.5.) _ ) $.1.%.%.8.M.M.M.M.M.B.e.3.3.U c I ;.3.4.3./ / *.8.%XoX&X>X>X>X>X>X>X;X;X*X*X+X*X*X.X.X+X;X*X;X",
";X;X;X*X+X+X;X+X+X+X.Xm.e.%.*.) ( %.%.%.%.$.3.c.M.M.M.M.M.n.8.5.5.5.e.N.b.q.5.3.0.~.+X*X;X>X>X>X>X>X>X;X;X;X;X*X+X*X.X.XOX;X;X;X",
">X>X;X>X*X*X;X;X;X;X{.w.8.+.O._ ( _ %.%.*.%.) _ q.n.M.M.m.M.B.M.M.B.M.M.B.n.M.b.&X;X*X*X>X>X>X>X>X>X,X>X;X>X;X*X;X;XOX*X;X;X>X>X",
">X>X>X;X*X;X*X*X*X*XG.#.%.%.%.( 1.{ _ %.%.3.( %.%.2.r.B.M.M.M.B.M.M.M.M.M.m.Z.|.;X;X*X+X*X.X.XoX;X;X;X;X;X*X;X;X*X;X*X+X;X>X>X>X",
">X>X>X;X;X*X;X+X+XOXc.7.( %.) $.%.+.{ _ 3.=.w.7.*.%.%.*.r.M.B.M.B.M.n.M.n.Z.OX;X;X;X+X+X*XOX.XOX;X;X*X>X*X;X;X;X;X;X+X+X;X>X>X>X",
">X>X>X>X;X;X;X*X*XW.r.2.o.( ( +.%.%.%.$.{ ;.c.t.c.6.%.%._ ) 7.c.n.M.M.n.Z.|.-X;X;X;X*X+X;XOXOXOX;X;X;X;X;X;X>X;X;X;X*X*X;X>X>X>X",
">X>X>X>X;X;X>X>X-Xm.q.+.%.) ( %.%.%.%.6.=.=.;.e.e.e.c.<.[ %.%.%.%.1.W.$X;X>X-X.X.X;X;X;X;X*X*X*XXXOXOX*X*X*X*X*X+X;X;X;X;XoXOXOX",
">X>X>X;X*X;X>X>X-Xt.;.%.*.( %.( %.%.3.-.q.c.q.#.<.e.t.#.t.e.8.3.1.T.;X>X>X>X-X X.X*X*X*X;X+X+X*XXXoXOX*X+X*X*X+X+X;X*X;X;X.X.XOX",
">X>X>X>X;X;X,X>X>Xv.5.*.{ o.%.%./ _ 6.:.c.t.t.b.q.#.] 7.c.t.e.c.~.*X;X>X>X>X;XOX.X*X;X;X;X*X*X*X+XOX.X*X*X+X*X*X*X;X*X;X;X X.XOX",
">X>X>X>X;X>X-X&XQ.%.e.*.( O.%.%.%.=.] t.e.e.t.t.b.-.q.<.#.#.#.Q.>X;X>X>X;X;X;X*X*X>X>X>X,X&XOX&X&XOXOX>X;X;X;X*X*X;X&X&X-X>X>X>X",
">X>X>X>X*X;X&X.X,.%.*.;.*.%.%.%.3.-.9.#.<.t.e.c.<.:.t.t.t.b.Q.>X;X;X;X;X*X;X;X+X*X;X>X>X>X X.XOXOX.XOX;X;X*X;X+X*X*X.X.XOX>X>X>X",
">X>X>X;X*X;X*X^.%.%.%.%.w.;.%.%.9.-.t.t.<.#.9.q.-.t.t.t.t.W.>X>X;X;X;X;X;X;X;X+X+X;X>X>X>X.X.XOX.X.X.X;X;X;X;X+X*X*X.X.XOX>X>X>X",
"-X&X;X>X>X>X-XOXx.O.*.+.1.t.7.7.#.c.e.t.t.t.9./ -.q.c.b.W.*X-X&X&X*X*X;X*X;X;X*X*X;X;X>X>X*X*X*X*X*X*X>X;X;X;X*X*X;X;X*X;X,X,X,X",
"XX X X>X>X>X;X.X#X;.%.%.%.*.e.:.q.t.t.c.t.t.#.e.t.,.[ F.*X.X.XOXOX.X.X*X*X*X*X+X*X;X;X*X;X+X*X*X*X+X+X;X;X*X;X*X+X;X*X;X>X>X>X>X",
"OX X X>X>X>X;X.X XQ.*.%.%.%.%.%.c.t.t.t.t.:.q.e.t.c.U.;X;X.X.XOXOX.XOX*X+X+X*X+X*X*X;X*X;X*X+X*X*X*X*X;X;X;X*X+X+X;X;X;X;X>X>X>X",
"&XOX&X>X-X;X;X&X*X*X[.:.%.%.%.*.*.8.t.c.7.:.t.t.r.I.;X;X;X-X*X*X&X*X*X;X;X;X;X*X;X;X>X>X>X*X*X;X*X*X*X;X;X;X;X;X;X;X;X;X>X,X,X,X",
"OXXX.XOX X X*X+X+X*X+X[.f.O.%.%.%.%.*.3.=.e.t.t.I.;X*X;X;X;X;X;X*X+X+X>X>X>X;X*X+X;X>X;X>X X.X.XOX.X XOX.X.X*X;X;X;X;X;X;X>X>X>X",
"XX.XXXOX.X.X*X+X*X*X+X+X&XP.;.O.*.%.%.%.%.%.W.!.*X;X;X;X;X*X;X;X*X*X*X>X>X>X;X*X*X;X>X>X>X.X.XOX.X.X XOX.X.X;X*X;X;X;X*X;X>X>X>X",
"&XOXOX*X&XOX;X*X*X*X*X*X;X>X$XP.;.O.O.%.O.P.;X;X;X;X;X;X>X;X*X;X;X*X;X>X>X,X>X*X*X;X>X>X>XOXOXOXOX+XOX&XOXXX;X;X;X>X>X;X>X>X>X>X",
"*X*X*X>X>X>X-X XXXOX.XoX&X*X+X+X}.!.V.f.v.&X;X;X;X;X X.XOXoXOXOX;X;X;X>X>X>X*X.XOXXX.X.XOXOXXXXX;X;X;X&X.X.X-X;X*X>X>X>X>XOX XoX",
"*X*X+X>X>X>X;X X.XOX.X.X*X+X+X*X*X*X*XOX X.X*X*X*X;X.X.XOXXXXXOX;X;X;X>X>X>X-X.X.XOXXX.X&X.XOXoX;X;X;X*X.X.X;X*X;X>X>X>X>X.X.X.X",
"*X*X*X>X>X>X-XOXXX&XOXXX&X*X*X*X*X*X*X&XOXOX;X;X;X-XOXOX&XOXXXOX;X;X;X,X>X>X-XXXXX&XOXXX&XOXXX&X;X;X;X&X XOX;X;X;X>X>X>X>XXXoXOX"
};
