/* XPM */
static char *result[] = {
/* columns rows colors chars-per-pixel */
"64 64 204 2 ",
"   c #050201",
".  c #0B0503",
"X  c #0E0906",
"o  c #0F0B08",
"O  c #160504",
"+  c #120A07",
"@  c #130D0B",
"#  c #1A0C0B",
"$  c #16110E",
"%  c #19110E",
"&  c #1B0F10",
"*  c #161211",
"=  c #1C1413",
"-  c #1E1816",
";  c #1E1A1A",
":  c #230C0B",
">  c #23120E",
",  c #281616",
"<  c #221A16",
"1  c #271718",
"2  c #231C1C",
"3  c #351111",
"4  c #28211E",
"5  c #37221F",
"6  c #2A1E22",
"7  c #351E23",
"8  c #252222",
"9  c #2C2525",
"0  c #2D2A2A",
"q  c #34262A",
"w  c #362929",
"e  c #3E312E",
"r  c #382E32",
"t  c #353233",
"y  c #3C3437",
"u  c #373439",
"i  c #3D393B",
"p  c #490F0E",
"a  c #5B1518",
"s  c #7B0706",
"d  c #76070A",
"f  c #68171A",
"g  c #731016",
"h  c #5F1F20",
"j  c #731D21",
"k  c #452929",
"l  c #58262A",
"z  c #492D32",
"x  c #443639",
"c  c #543435",
"v  c #752527",
"b  c #6D2B32",
"n  c #6E3033",
"m  c #50413D",
"M  c #77403E",
"N  c #463C42",
"B  c #6B3C42",
"V  c #712F6B",
"C  c #494346",
"Z  c #4D4A4B",
"A  c #56484A",
"S  c #564D53",
"D  c #5B5658",
"F  c #684547",
"G  c #744548",
"H  c #734E50",
"J  c #675858",
"K  c #73585B",
"L  c #625D61",
"P  c #696367",
"I  c #766669",
"U  c #726D73",
"Y  c #7B7377",
"T  c #880D14",
"R  c #960E14",
"E  c #871416",
"W  c #AD0105",
"Q  c #A8030A",
"!  c #B40105",
"~  c #BB0203",
"^  c #B8040B",
"/  c #AA0816",
"(  c #B80415",
")  c #A91219",
"_  c #B81218",
"`  c #891C23",
"'  c #921A25",
"]  c #AA182E",
"[  c #BA1925",
"{  c #892327",
"}  c #8C3739",
"|  c #B8272D",
" . c #B23238",
".. c #C30203",
"X. c #CC0204",
"o. c #C3030C",
"O. c #CB030B",
"+. c #CB0B0D",
"@. c #D40103",
"#. c #DB0104",
"$. c #D9040B",
"%. c #C30514",
"&. c #C60817",
"*. c #D50313",
"=. c #DB0C13",
"-. c #D90718",
";. c #C81419",
":. c #D5161A",
">. c #E20105",
",. c #E4020B",
"<. c #EB010D",
"1. c #E50313",
"2. c #EB0213",
"3. c #E7081A",
"4. c #E4121E",
"5. c #D10C21",
"6. c #C81925",
"7. c #D71826",
"8. c #E60D23",
"9. c #E41624",
"0. c #E81927",
"q. c #C92527",
"w. c #D62626",
"e. c #D8222D",
"r. c #C52D34",
"t. c #DA2931",
"y. c #CB393C",
"u. c #D43235",
"i. c #D6373A",
"p. c #E8232D",
"a. c #E42B35",
"s. c #F22C33",
"d. c #E53438",
"f. c #DA403E",
"g. c #872853",
"h. c #BB3E41",
"j. c #D13E44",
"k. c #E63B42",
"l. c #8B4D52",
"z. c #884B54",
"x. c #BC484A",
"c. c #AD5154",
"v. c #895C62",
"b. c #965C66",
"n. c #98696C",
"m. c #866D71",
"M. c #887778",
"N. c #907071",
"B. c #CC4647",
"V. c #D84646",
"C. c #D34C4B",
"Z. c #D2504F",
"A. c #C74D52",
"S. c #CA5958",
"D. c #D55858",
"F. c #E54747",
"G. c #E9524F",
"H. c #E65856",
"J. c #D3625E",
"K. c #EA625E",
"L. c #E65C62",
"P. c #CC6868",
"I. c #D46B69",
"U. c #D07676",
"Y. c #E96864",
"T. c #E77171",
"R. c #E77A76",
"E. c #92837B",
"W. c #E9837E",
"Q. c #343988",
"!. c #4A4F97",
"~. c #6F608B",
"^. c #877D84",
"/. c #977F82",
"(. c #A37D84",
"). c #93878C",
"_. c #AC8D92",
"`. c #A69696",
"'. c #9593A6",
"]. c #B09BA5",
"[. c #B5AAB0",
"{. c #D08F90",
"}. c #EC8885",
"|. c #ED9591",
" X c #F3A19F",
".X c #C29AA3",
"XX c #CAB2B5",
"oX c #F1AFAC",
"OX c #F2C1BC",
"+X c #BABCCE",
"@X c #C3BDC9",
"#X c #F4CAC5",
"$X c #F3D3CF",
"%X c #F7F6C6",
"&X c #F9F6C5",
"*X c #F9F7CB",
"=X c #FDFDCE",
"-X c #F7E1DE",
";X c #FAF7D1",
":X c #FDFDD3",
">X c #FEFEDB",
",X c #D0D1E4",
"<X c #FFFFE3",
"1X c #FFFFE8",
/* pixels */
"<X<X<X;X*X&X;X*X*X;X>X>X>X:X:X:X>X=X:X>X>X>X<X<X<X>X*X*X;X<X<X<X>X:X>X>X<X<X<X>X>X>X<X<X<X>X>X>X<X<X1X<X<X<X<X>X>X>X:X:X>X<X<X<X",
"<X<X<X;X&X&X;X&X&X;X>X>X>X:X=X=X=X=X=X>X>X>X>X<X<X<X&XL C i u t t x Z D <X<X<X>X>X<X<X<X<X>X>X>X<X<X<X<X<X<X>X>X>X>X=X:X:X<X<X<X",
"<X<X<X;X&X&X*X&X&X;X>X>X>X:X:X=X>X=X:X>X>X>X>X<X<X>XD 0 t u u u u t t t i <X>X>X:X>X<X<X<X>X>X>X<X<X1X<X<X<X>X>X>X>X=X=X>X<X<X<X",
"1X<X<X1X<X<X1X<X<X1X<X<X<X:X:X>X>X>X>X>X=X*X>X>X>X>XC t u u u u u t t t i D >X>X>X>X*X:X>X*X;X:X<X>X<X<X<X>X>X:X>X>X>X>X<X<X<X1X",
"<X<X<X<X<X<X1X<X<X1X<X<X<X=X=X:X>X>X>X;X&X%X:X=X=XL i t t t t t 0 t t t t Z :X=X=X:X&X&X=X&X&X*X>X>X>X>X>X>X>X=X=X:X:X>X>X<X<X<X",
"<X<X<X<X<X<X1X<X<X1X<X<X<X:X=X:X>X>X:X=X%X%X:X=X:XP i 0 0 9 0 0 0 0 t t i i >X=X:X;X&X&X*X&X&X*X>X>X>X>X>X>X>X=X=X>X>X>X>X<X<X<X",
">X>X>X>X>X;X<X;X>X>X>X>X>X;X:X:X>X>X<X:X*X;X:X;X;Xi 4 4 8 9 8 ; 8 0 C C u C J >X>X>X;X>X>X>X>X>X>X>X:X<X>X<X>X;X:X>X>X>X>X<X<X<X",
":X=X:X=X&X&X;X&X%X;X=X=X>X&X&X&X>X>X>X;X&X&X%XC 0 ; = $ * ; ; 8 8 8 2 ; ; 8 0 Z >X>X>X>X>X>X>X>X:X=X:X<X<X<X>X&X&X=X=X=X>X>X>X>X",
":X=X:X*X%X%X*X&X%X;X:X=X>X%X%X%X>X>X>X*X%X%XC 4 @ % r u i t ; * = 0 D P w 4 > > t >X>X>X>X>X>X>X:X=X=X<X<X<X>X&X&X;X=X=X:X>X>X>X",
">X>X>X>X;X;X>X=X;X:X:X>X>X;X=X>X>X>X>X>X;X;X< X + + + = = ; ; * = * = 0 y 0 - % = C >X:X<X>X>X>X:X:X>X<X>X>X>X;X;X>X:X;X>X:X:X>X",
"<X<X<X>X>X>X>X=X:X>X<X<X<X>X>X>X>X>X>X>X>Xu o O O + o * ; ; 2 8 8 u u 8 $ @ o $ # 4 ).&X=X:X>X>X:X=X:X*X%X%X>X<X<X>X*X&X*X&X&X&X",
"<X<X<X>X>X>X>X=X=X>X<X<X<X>X>X>X>X>X>XD C k 4 4 C 8 4 8 8 8 6 8 0 t i t q 8 0 0 z m U &X=X>X:X>X:X=X;X;X%X%X>X<X<X>X&X&X*X&X&X%X",
"<X<X<X<X>X<X>X>X>X>X<X<XS J F c z z z k e w 2 - % * * * * @ * * * * $ % < 4 9 0 t C J K m.M.E.Y M.=X:X:X=X*X<X<X<X>X*X=X;X=X*X;X",
">X=X=X<X<X>X>X:X=X>X<Xm m m x 5 , , , 3 < > + + O + . . o o o @ @ - < 6 $ * ; 4 0 w t t m m F K K m.E.`.=X:X>X=X=X>X:X=X>X:X=X>X",
":X=X=X<X<X<X>X=X=X>XJ c k k 5 , : : : : > > @ X + + . . . . .   . . @ - $ - ; 2 2 2 4 9 k z c k c m v.E.`.=X:X=X=X>X=X=X>X=X=X:X",
":X:X=X<X<X<X<X=X:X>Xm k k , 3 : O O O + + @ +   X + + o           . o $ = * = = < - ; 2 k z k k k c m M M.:X:X=X=X>X:X=X:X=X=X>X",
"<X<X<X;X;X%X>X>X>XJ m 5 , > : : O O O     O +     o @ $ @ . . . + % 2 = = = < ; 2 2 2 2 w z 7 7 5 k e z J <X>X%X*X>X>X>X<X<X<X<X",
"<X<XP.A.y.q.:.y.>XP x 4 > , # : O O       . O .   . + $ o     @ @ = < < 2 - $ $ 1 8 6 ; 8 w 7 7 5 5 5 w A <X;XA.V.F.H.>X>X<X<X<X",
"U.y.:.@.@.X.$.e.>XJ q 2 < > > : O O         . .   . + @ o o . @ @ = < - < $ + = 9 9 ; ; 9 q 1 1 1 5 w 0 u <X:X| 8.3.8.2.0.G.<X<X",
"J.;.-.5.7.t.:.6.*XD 9 2 < , > # % . . .     + + . X + @ + o o + + # = $ % $ $ < 2 ; * < 8 6 1 1 4 4 9 0 0 D >X] 7.T.R.T.T.k.H.>X",
"j.( &.o.O.@.@.| m.m 0 2 , , , > $ $ o o X X + + X . + + + + X # $ $ % = $ % < < 2 2 < 1 0 8 ; 5 q 7 w w w A :X .%.8.s.k.k.a.F.>X",
"=Xc.x. .] ! ~ x.m.e e 0 4 < 4 < < - $ $ @ @ % $ + + + * $ + X O = # = < 4 4 4 4 2 2 4 8 0 0 2 1 4 q 0 z x m E. .%.9.j.D.H.:X=X:X",
">X>X>X>X<X( X.c.c.{ j v v v j h j j j f j f f f f a a a a a f a f a a a h l l l n n B F H F F F F F n G n } c.=X*.-.<X<X<X>X>X>X",
">X>X>X>X>X_ X.( | x.~ ^ W ! W W W W W ! ! ~ ! ! W ! ! W W W Q W W ^ ! ! ~ ~ ..~ ( ~ ~ o.( _ ;.;.;.6.w.q.q.J.W.w.-.e.<X<X<X>X>X>X",
">X>X>X>X>X;.@...~ I.| ^ ~ ! ! ! W ~ ~ ~ ~ ~ ~ ~ ! ! ! ! Q W ! ! ! ! ^ ~ ......~ ..O.O.X.o.&.;.:.+.;.:.;.y.OXd.<.9.p.<X<X<X>X>X>X",
">X>X>X>X>X{.A.~ ~ S.P.C.r.[ | | | [ ~ ~ ^ ( ( ^ ~ ! o.^ +.o.o.+.O.O.+.+.+...X.X.;.;.6.&.%.I.R.D.Z.V.D.{.#X$X1.3.k.L.<X<X<X:X>X>X",
">X>X>X;X&X{.x.~ ~ A.Z.S.S.J.S.S.S.Z.y.y.B.B.B.6...~ B.Z.Z.Z.Z.Z.D.D.J.I.T.J.+.X.q.T.I.Z.V.OX$XOX#X#X$X#X#XOX9.0.L.>X<X<X<X&X&X*X",
">X>X>X;X.XA.o.%.B.D.B.C.C.A.C.B.B.B.J.I.D.D.D.C.q.+.X.+.q.u.i.i.V.V.V.f.w.+.+.u.T.|.|.}.W.|. X X XoX XoX XoX Xk.F.>X<X<X<X&X%X*X",
">X>X>X;XI.6.B.P.P.S.B.f.B.B.j.j.y.u.j.C.V.V.j.B.V.V.i.u.w.w.e.e.w.w.w.t.i.V.G.H.K.K.J.D.H.Y.T.W.R.}.}.}.W.}.#X#X}.L.1X<X<X;X;X;X",
":X:X=X>X{.U.P.I.A.A.y.y.y.u.y.j.u.e.7.u.i.y.i.i.u.u.u.u.u.u.t.i.d.i.k.i.f.F.V.F.G.Z.G.F.F.G.K.Y.Y.Y.Y.Y.Y.T. X#X-X-XoX<X<X<X<X1X",
"=X=X=X{.U.P.P.J.A.B.C.u.q.7.q.7.7.7.-.5.7.7.t.e.e.e.e.e.e.7.7.p.t.a.a.d.t.d.d.d.d.d.d.a.a.d.k.F.F.F.F.F.G.Y.U.oXoX#X-X|.1X<X<X1X",
">X=X.XU.I.I.D.C.B.V.y.7.*.*.-.*.*.*.*.*.-.-.-.5.-.7.7.7.e.p.p.t.w.t.w.a.a.a.p.w.9.9.4.4.0.4.0.0.0.9.4.p.s.G.H.L.}.oX|.T.}.<X<X<X",
">XW.U.n.M.x.B.y.r.+.X.@.@.#.@.#.@.@.#.#.#.*.1.-.-.-.3.7.7.9.9.4.0.0.0.9.9.9.4.4.3.3.3.1.1.3.2.2.,.2.2.3.0.0.s.s.F.S.XXOX|.}.>X>X",
"<XP.x.n.N.v.} [ +.@.X.#.X.$.=.:.:.=.=.=.=.$.,.>.>.#.>.,.>.>.>.>.,.<.<.<.<.<.<.<.2.2.1.2.3.3.0.0.0.a.0.8.3.8.8.r.z.v.N.{.H. X=X:X",
"<XU.] M.H n G H } _ 7.6.:.+.$.#.#.#.#.>.>.>.>.>.>.,.,.,.<.,.<.<.<.1.<.<.2.<.<.2.2.2.2.2.2.2.2.3.3.s.s.0.8.6.G H G n Y _.i.|.=X:X",
"1XP. .`.E.H z.b.M.v.} 6.;.7.*.3.=.$.O.O.O.X.o.o.o.o.o.~ ~ ..%.^ +.+.%.%.( %.%.%.&.&.5.;.5.w.7.t.d.s.s.e.z.m.I v.z.m.`._.V.Y.>X>X",
"<XU.c.`.].@X].z.n.E.`.n 6./ p r c r r x y i i y x y x z e l v j j a S A A C Z C Z Z C C Z Z S z p e.0./.`.^.n.b.,X,X[.).K.Y.>X>X",
"<XU. .).+X,X].U l.v.E.K [ / N.v.m.v.b.v.v.v.H z.G l.n n m.J * o o A _.} } } g.l.v.n.(._..XXX]._.N./ 7.[.XXb.z.m.@X@X`.N.G.T.>X>X",
">XW.j.H ~.'.).Y ).n.z.E./ / c K ).[.[.].].`.`./.N.J N.I Y @ @ @ + $ I m.N.K K J Y M.).`.].`.'.P Z ( &._.A.{.'.M.N.).I r.G.W.>X>X",
"%XI.S.~ { P U ).,X[.n b.{ &.a Z C Z C m x i u t r w w S C + * @ o $ 4 i 9 w t i i Z Z D J U U U B *.` h.b.@X+X~.).H ;.3.G.T.=X:X",
"*XU.P.:.@.! ` F '.`.S v l ( 6.n.).].].).U D C C i u t D C o @ * $ $ 9 Y N C x C Z L M.].@XXX[.n.[ %.b } M.[./.' ( <.2.0.G.Y.U.:X",
";XU.S.[ ( -.$.X.^ E b c c E %.c.F H I ).).`.).M.I A m.P Y $ * # $ $ I ).m.J J J P M.M.I K J S E *.E B b.c.&.-.2.2.3.8.7.k.H.U.>X",
"n.U.A.[ ( ( %.O.@.@.X.^ R T / o.R k x Z m i x r w k m m M.S $ % $ S P A x r r x C S J P P A E *.*._ &.1.-.s.8.2.,.1.1.8.i.G.I.>X",
"v.U.x._ ( ( ( ( ~ ..X.=.=.@.X._ +._ ) f z i C Z S C C m x A A m A J C A L P P L D S C b R +.:.L.d.d.F.i.d.3.$.>.>.,.3.8.a.V.P.>X",
"v.P.r./ / ( ( ^ ! ! ! ~ ;.;.w.i.D.D.u.X...^ W R E f a 5 7 7 : : , e z c l h ` R / &.O.$.7.H.T.j.k.i.,.#.#.>.>.$.$.*.&.%.7.V.S.<X",
"v.P.R f z l v R Q W W W ! ! ~ ~ ;.r.B.u.X.X.@.@.@.@.X.X...~ ( &...X.O.O.$.$.#.#.=.@.@.$.=.-.#.@.@.@.#.#.#.#.O./ g l z l ^ a.A.<X",
"G A.d k y y r q k a T Q W ! ~ ! ! ~ ....X.o.] g.g.V g.z.z.l.b.n.N./._._._.].[.XXU.X.@.@.@.@.@.@.@.#.X.^ T f 7 q r N N N g 7.B.E.",
"z. .d y z e u r q 8 = < p d R W W ~ ..~ ..%.g.!.!.Q.D x N S C L M.).).U ^.'.U @X{.X.@.@.@.@.X...Q g , 6 7 r x x y N C N j _ j.U ",
"n  .f k u t t w w 9 2 2 2 , g ) / / ! ! ^ ^ g.!.!.Q.S N N Z S J M.~.^.P '.).^.+X{.! O.@.X.%.( / / q w r u x x x r N N N b $.r.U ",
"n | { x r e e t q 9 2 2 1 5 ] [ [ ( ^ d p 1 ] !.~.V H B G v.v.N.E.(._._._.].]..Xn.: 3 s O.8.0.8.-.` r x y y r y u x N N c.k.r.M.",
"n | [ v z t t t q 9 1 1 2 ' _ [ _ Q p + + $ a d d d d d s s s s T s s s T s d d p # # # p o.9.9.7.5.l y y y x z y N N } d.D.| ;X",
"n  .+._ ) ` v b k 5 9 6 v | [ %.W 3 # % = ; % = o # & & # # # O + O # # O # - 2 1 1 - # @ p ^ 7.9.0.] b c b { ' ] | 7.8.3.$.j.<X",
"n  .[ &...X.@.X.X.o.^ ^ [ r.&.R 3 : < > < < 2 > & = > > = > % > > > - < 1 9 w w q q 6 1 > , p ! 8.9.9.,.,.<.,.,.<.1.8.8.-.e.A.<X",
"c c.y.;.o.+.+.@.@.@.@.@.5.6.! T E T T R R T E T T T E T E E E T E T E T E E { ' { ` ` ` ` j d d ( 9.9.4.3.,.,.,.1.-.9.9.d.h.B <X",
"i 4 h { ] o.X.#.X.X.X.X.X...X.@.@.@.$.+.@.@.@.@.$.@.#.#.#.#.@.@.#.#.#.#.#.#.>.#.#.#.#.#.$.#.>.$.#.:.:.9.3.,.<.1.4.6.[ { c 0 r 1X",
"m ; * - # 3 p v R _ ;.+.@.X.$.&.&.=X=X<X<X<X>X=X=X>X>X>X>X%X%X*X*X&X%X=X=X=X>X=X=X>X>X>X>X:X=X=.*.9.:.8.:.-.>Xf p 1 2 - 9 0 y 1X",
"m ; < * $ $ $ m y =X&X&X*X1X<X<X>X=X=X<X<X<X>X:X=X>X>X:X>X&X&X*X*X&X*X:X=X=X>X=X:X:X>X>X>X:X=X:X:X:X:X>X>X>X>X2 - ; ; ; 0 t u 1X",
";X4 ; $ $ $ $ 4 J >X:X:X>X1X<X<X;X=X:X<X>X>X>X>X>X>X>X>X>X>X;X:X;X=X:X>X>X>X>X:X>X>X<X>X<X>X:X>X>X:X:X>X>X>X>Xz * 6 8 ; 0 u N 1X",
"*XZ 0 - @ = = $ , :X=X=X:X<X<X<X;X%X*X*X%X&X;X>X>X>X>X>X>X>X>X>X>X=X:X<X<X<X>X:X=X>X<X<X>X&X&X&X&X&X%X*X&X&X:X>X& ; 6 ; 0 <X<X<X",
"*X&X&X0 $ $ * :X=X:X=X=X:X<X<X<X*X&X&X*X&X%X:X>X>X>X>X>X>X>X>X>X:X=X=X<X<X<X>X=X:X>X<X>X<X%X&X*X&X&X%X&X&X&X>X>X9 = * 6 >X<X<X<X",
";X*X*X:X*X*X>X;X=X>X>X:X>X<X<X<X:X*X*X;X*X*X>X>X>X>X>X>X<X>X>X>X>X:X>X1X<X1X<X:X:X>X<X<X1X*X*X;X*X=X*X;X*X*X>X>X>X<X>X>X1X>X<X<X",
">X=X=X<X<X<X;X*X&X*X%X%X;X=X=X:X:X=X=X:X*X&X>X>X>X>X%X&X*X%X&X*X>X>X>X<X<X<X:X&X&X*X&X&X*X&X*X*X>X>X>X;X*X&X;X>X>X1X<X<X<X%X&X*X",
":X=X=X<X1X<X>X&X&X*X&X&X=X=X=X:X=X=X=X;X&X&X;X>X:X>X&X&X;X%X&X*X>X>X>X<X<X<X>X&X&X*X&X&X*X&X&X%X>X>X>X;X&X&X:X>X>X>X<X<X<X&X&X*X",
">X:X:X<X<X<X>X*X%X;X*X*X;X:X:X:X>X:X:X:X*X*X>X>X>X>X*X*X;X%X%X=X>X>X>X<X<X1X>X%X*X;X*X*X;X*X%X=X<X>X>X;X%X*X>X>X>X<X<X<X<X*X%X*X"
};
