/* XPM */
static char *_62166483b464f28b73af4be9e26be68JiYAzdd5TMudfBI5[] = {
/* columns rows colors chars-per-pixel */
"64 61 233 2 ",
"   c None",
".  c #0D0100",
"X  c #150101",
"o  c #1B0101",
"O  c #240101",
"+  c #2C0102",
"@  c #2C0803",
"#  c #330202",
"$  c #3B0302",
"%  c #3C0B04",
"&  c #330904",
"*  c #3B1406",
"=  c #430302",
"-  c #4A0402",
";  c #430B03",
":  c #4C0A02",
">  c #530502",
",  c #5B0402",
"<  c #530D02",
"1  c #5A0C02",
"2  c #4D1304",
"3  c #451C04",
"4  c #491907",
"5  c #541203",
"6  c #5C1403",
"7  c #581A06",
"8  c #6A0E02",
"9  c #630C04",
"0  c #631303",
"q  c #6B1302",
"w  c #641B02",
"e  c #6B1C03",
"r  c #711402",
"t  c #731B02",
"y  c #791A02",
"u  c #4E2408",
"i  c #5B2305",
"p  c #5E2C06",
"a  c #57270A",
"s  c #5D3210",
"d  c #632102",
"f  c #6B2203",
"g  c #692A05",
"h  c #742402",
"j  c #7B2303",
"k  c #732903",
"l  c #7D2B03",
"z  c #732508",
"x  c #67380C",
"c  c #7E3303",
"v  c #743B0A",
"b  c #733D12",
"n  c #693D15",
"m  c #7D470A",
"M  c #774516",
"N  c #7F511B",
"B  c #6E4010",
"V  c #841E02",
"C  c #842404",
"Z  c #822C02",
"A  c #942D03",
"S  c #843403",
"D  c #8B3404",
"F  c #843B04",
"G  c #8C3C03",
"H  c #853709",
"J  c #933305",
"K  c #933D02",
"L  c #9C3D03",
"P  c #983503",
"I  c #BA3E07",
"U  c #C72304",
"Y  c #8D4303",
"T  c #874809",
"R  c #924503",
"E  c #9C4502",
"W  c #954903",
"Q  c #9A4C02",
"!  c #9A4A08",
"~  c #8B540C",
"^  c #89540A",
"/  c #9B5002",
"(  c #965708",
")  c #885619",
"_  c #8D5617",
"`  c #A54B03",
"'  c #AC4C02",
"]  c #A34602",
"[  c #B34C01",
"{  c #BD4D02",
"}  c #B84706",
"|  c #A25303",
" . c #AB5403",
".. c #AB5B03",
"X. c #A65A03",
"o. c #B35302",
"O. c #BB5401",
"+. c #B45C03",
"@. c #BC5B03",
"#. c #B45B09",
"$. c #9B670D",
"%. c #986619",
"&. c #AB6508",
"*. c #BC6304",
"=. c #BD6A03",
"-. c #BD6B09",
";. c #B46508",
":. c #B9760B",
">. c #A36917",
",. c #B67D11",
"<. c #AB7710",
"1. c #895723",
"2. c #996827",
"3. c #9B7123",
"4. c #906330",
"5. c #A8782A",
"6. c #A57A33",
"7. c #B77E20",
"8. c #C64604",
"9. c #C25C03",
"0. c #C85906",
"q. c #D45906",
"w. c #D24B14",
"e. c #C56502",
"r. c #C86404",
"t. c #C46B03",
"y. c #CC6C03",
"u. c #C36A0A",
"i. c #C9680B",
"p. c #D26C03",
"a. c #D86808",
"s. c #CE7305",
"d. c #CD7A03",
"f. c #C97509",
"g. c #D37405",
"h. c #D97404",
"j. c #D57B05",
"k. c #DA7D05",
"l. c #D47509",
"z. c #D57A09",
"x. c #DA7D0A",
"c. c #DD7713",
"v. c #D66C10",
"b. c #E76C09",
"n. c #E77B03",
"m. c #ED720C",
"M. c #E8780A",
"N. c #F2740D",
"B. c #F37C0D",
"V. c #EF760F",
"C. c #E07929",
"Z. c #D26C2E",
"A. c #BE871A",
"S. c #B58735",
"D. c #B58833",
"F. c #DC8405",
"G. c #DC8A06",
"H. c #D6830A",
"J. c #DC830B",
"K. c #DE8A0B",
"L. c #D3850A",
"P. c #CC8919",
"I. c #D78812",
"U. c #DA9618",
"Y. c #DC9104",
"T. c #E28405",
"R. c #E48C05",
"E. c #EA8C04",
"W. c #E3850B",
"Q. c #E38B0A",
"!. c #E98E0B",
"~. c #EE840C",
"^. c #F4830D",
"/. c #F48B0E",
"(. c #F9870F",
"). c #E59305",
"_. c #ED9D04",
"`. c #E5930C",
"'. c #EB940B",
"]. c #EC9A0C",
"[. c #E99706",
"{. c #F39C0C",
"}. c #F3980A",
"|. c #EB8B11",
" X c #E58513",
".X c #F38411",
"XX c #F78912",
"oX c #EE9D11",
"OX c #E8991A",
"+X c #F59312",
"@X c #F99311",
"#X c #F29C11",
"$X c #FA9B12",
"%X c #EBA309",
"&X c #F5AA04",
"*X c #F4A30D",
"=X c #F8A40D",
"-X c #F5A90D",
";X c #F9AC0E",
":X c #F6A804",
">X c #FAB206",
",X c #FBBB06",
"<X c #FAB30C",
"1X c #FBB90B",
"2X c #F6B40B",
"3X c #EAA617",
"4X c #F4A511",
"5X c #F9A412",
"6X c #F6AA11",
"7X c #F9AD11",
"8X c #FAB312",
"9X c #FABC13",
"0X c #CD972A",
"qX c #DB9825",
"wX c #C7993B",
"eX c #DE8A2C",
"rX c #E59B20",
"tX c #D3A32C",
"yX c #D9AA3C",
"uX c #E8AB2A",
"iX c #F4B829",
"pX c #F2B738",
"aX c #FBC517",
"sX c #FBC005",
"dX c #FAC82A",
"fX c #F9CE35",
"gX c #B78F43",
"hX c #CCA345",
"jX c #D7AB4A",
"kX c #DAB64B",
"lX c #D5AE56",
"zX c #E3B646",
"xX c #FCD358",
/* pixels */
"                                                            hXlXlX                                                              ",
"                                                lXhX3.1.N M M N b b 1.6.S.S.                                                    ",
"                                          jXS.M 7 4 * & & $ $ $ = ; 2 2 a 7 g 1.S.                                              ",
"                                      5.4.p = $ # $ = = $ $ # # = $ ; ; $ $ $ $ i 2.S.gX                                        ",
"                            kXD.5.1.B 4 # & $ $ $ # + + # # + @ # # # % = % # $ % = 2 n 2.wX                                    ",
"                        jX6.s 4 * & + + # # # # + O o o o O O O O O O O # $ $ + + $ $ ; 6 v 5.jX                                ",
"                      6.g = $ # O + # # $ # # + O O + @ + O O + O O o X O # # + O O # # = ; 7 ~ hX                              ",
"                  wX1.2 = $ # O O # # # # + O o o O O O + O O O O + + o O + # + O O O + # $ $ $ x S.                            ",
"              kX3.a % + + O O O O O O O o o o O O o o O O + + + + + O + o o O + o o o O + + # $ $ p D.                          ",
"              %.% + O o o X o O O O O O o X o o o O O + # $ $ # + + + O O X o o O O o O + + + + # $ d %.hX                      ",
"            3.u # + O o X o O O O O O O o O O o o O O O + $ ; $ + + O O O o X X + + O O + + O O + # = 5 2.                      ",
"          0Xb + O O o o o o o X o X o O o o o o o o O O O + = $ + + O + O O O O # = # + + # + + # # $ ; p 6.                    ",
"        zX2.= O o X X X X X X X o X o o X X X o o o o o o O # & + & + & + + + # : < = # + + # - - $ # = = x hX                  ",
"      yX5.a # O o X . . X o o O o o o O o o X o o o o o o O + # # & & $ $ # # : w w 6 $ + # < 1 9 v 2 $ = = _ kX                ",
"      A.x + o o X . . . X o o o o o o X X o o o o o O O O O # + + # # $ % % = 7 z z 5 = - w c H K H 1 - ; # x yX                ",
"    jX~ ; O X X . . X X X X X o X X o o o o o X o O o O O + + + + O O @ % ; : d f 0 w h H ` #.#.| ! J f w # )                   ",
"    yXm + X . . . . . X X o X X X . X X X o o o o O O O O # # # + O O O + ; 5 w e z ! | #.u.f.l.u.-.;. .S - T                   ",
"    0Xm + X . . X X . X o o o o o o X X X X X O O O + + + + # $ % $ $ O O # : 0 j R &.-.f.c.I.I.I.c.z.f.` S >.                  ",
"  tX<.m + X X X X X o o o o X o o O O o X o o O + + # + + # $ = : 2 5 ; O + = 9 l R X.-.f.I.I.`.`. X`.`.L.d.P.                  ",
"  <.( p O o o X X X o o X o X X o O + + O X o O + + $ $ $ % $ ; 5 5 5 2 = $ - 1 l K  .u.s.I.K.`.`.`.`.OX].%X%X                  ",
"  ,.( 4 o X X . . X X X X o o o o o O # + O o O + # $ = $ : : ; : : ; < 5 < 1 9 Z L  .*.z.H.K.`.`.`.`.oX%X%X%X3X                ",
"  ,.m % X . . . X X X X X o O o o o o + # # + + + # ; : > ; 5 2 - 5 - < 0 e 0 t D ] o.@.z.K.`.K.`.`.`.[.[.R.L.I.                ",
"  7.g # X X . X o o X X X X o o o o o o + $ $ # + # = : 5 2 < 6 < 6 < 0 w t q j J ` #.e.z.J.`.`.OXoX`.G.d.@.` P.                ",
"  $.d O . X X X o o o o X X X O O + O o O # ; ; # $ ; - 5 6 < < < 6 f w e t 8 j K  .#.t.z.J.`.].].].F.=.*.;.e.U.                ",
"  v : O . o o X o o o X X X X o + + + O O # = 2 = $ : > > 7 6 : 1 0 e w 0 t 8 t K o.*.y.j.K.`.#X].`.t.t.L.Y.Y.3XfX              ",
"( g & o X O o X X o X o X X o o O # # + + # = : 5 5 6 d 6 e k w f k f h h y t l ] #.9.y.F.Q.].4X].H.*.H.[.`.%X-XiX              ",
"^ i + O o o O o X X o o o o o O O + + # # = - : 6 w k k k e l k c F c c Z j Z E ..*.r.k.F.`.].oX`.s.f.Q.].Y.].%X2XfX            ",
"  a + o o X X X X X o o O O O + # # # $ = ; - > 6 e c c l k c c T Y Y Y G K E *.f.j.H.Q.'.].OX[.F.j.J.`.G.L.;.H.1X9XdX          ",
"  s O o o o X X o o o o O O + + # # $ = - - - < 0 k F R F c F F R W Y ( W | +.z.K.Q.`.#X4X%X%X].G.G.`.`.s.! ;.%X<X1X,XaXdX      ",
"  ) @ o . X . . X X o o O + + + # $ $ = : - : 6 w k T ( T Y Y R Y / W / / ..:.I.'.oX4X6X6X4X*X[.[.].`.-.H j -.%X;X1X1X,XsXaXfX  ",
"  3.2 o . X X X X o o O + + + + $ = $ $ - < 5 6 f k c R F Y R R Y / Q / X...f.K.#X4X6X5X5X6X*X4X4X%X`.l.t.t.G.*X;X1X,X,X,XsXaXfX",
"    ^ # . X X X X X o O o O O + # $ - = - < w d w k k F F Y Y R Y W / / ..&.:.K.OX4X6X7X7X7X6X6X6X6X*X].].[.].-X7X8X<X>X,XsX,XdX",
"      p o X X X X X o O O O O O # $ : < < 5 6 f w k l S F G G Q R W Q | X.;.=.L.`.3X6X5X8X7X6X7X8X7X7X;X5X7X;X7X8X8X>X<X,X<X-X  ",
"      ~ O o X . . X o O O + + # + $ : 6 6 w 6 w f h l c S F G R Q W Q | X...=.d.G.].4X6X7X7X8X;X8X8X7X8X8X8X9X8X8X8X;X>X>X`.uX  ",
"      $.u o X X . o O o O + + # $ - : 5 6 6 w w e h j Z D G R Q Q / | ..X.&.=.d.G.`.{.-X7X7X8X8X8X9X8X8X9X9X9X9X9X8X&X_.%X3X    ",
"        m @ X X . o o o o O + # = - < 6 1 0 e e t j l S K R Q | | | | ..+.=.=.d.F.`.].*X6X7X<X8X8X8X8X8X9X9X9X9X9X9X-X:X&X8X    ",
"        $.* o X . X o o o o + # = ; < < 6 q e t y h l Z H ! | X...+. .+.=.t.d.F.F.).].*X*X6X;X8X7X8X8X8X1X8X8X9X9X9X>X>X>X>XdX  ",
"        A.b + o X X o o o o O # = - : 1 0 q e y y y y j J ] #.u.u.t.t.t.s.j.L.F.K.).'.{.*X=X-X;X;X7X<X8X;X<X8X1X1X1X;X&X>X>X9X  ",
"          ,.s o o o o O o X O + $ = = 1 q q e y t y V L #.f.z.x.x.z.z.z.j.j.H.F.R.R.[.}.{.=X=X=X;X6X;X;X8X;X<X8X1X<X>X>X>X&X6X  ",
"            $.3 o o o O o o O + # = - 1 0 8 e t r J v.|.+X+X+X+X|.W.W.H.j.j.H.F.W.'.'.}.{.{.{.=X=X=X7X7X;X7X;X<X<X;X:X&X:X].iX  ",
"            P.M O o o o o o O # # $ : 1 0 q t y A c.+X+Xv.} 0.M. X XW.J.H.J.J.T.Q.`.'.}.{.*X{.*X=X=X=X;X7X;X;X;X;X&X_._.#XpX    ",
"              $.4 O X o o o O # $ = - 1 0 q r y i.XXXXV.v.w.a.b.H.k.W.W.J.K.W.T.W.).'.].}.}.{.{.*X*X=X5X=X=X=X;X;X:X'.OXpX      ",
"                ~ ; o o X o O # # = - 1 1 8 r J V.XX.X@X+X@XW.i.l.0.|.oX|.W.W.T.T.W.!.!.'.'.'.}.}.{.*X=X=X=X=X:X=X[.OX          ",
"                0X~ * o X o O + # $ = > 1 q t E V.XXXX@X$X$XM.h.a.} c.4X#X!.T.T.T.T.W.!.!.'.'.'.'.}.{.{.$X=X=X:X_.OX            ",
"                    ^ 3 o o o O + $ = - , 8 r K m..XXX@X$X}.~.M.0.U U I.+X+XW.k.k.k.T.W.W.!.!.!.'.'.[.}.@X$X*X=X'.eX            ",
"                      ~ u X o O O + $ = 1 q r C v.B.B..X@X@X@X.Xq.q.8.8.a.+Xn.g.h.h.k.k.F.W.R.R.E.R.E.'.'.}.{.{.x.Z.            ",
"                        ) x @ o O + # = > 0 r r { V.B.N.B.(.@XXXb.n.~.^.+X+X~.0.p.p.h.k.j.F.F.J.T.R.R.'.'.}.'._.y.w.            ",
"                            ^ u O O # $ - 9 r r C q.N.N.b.N.(.B.b.E.5X$X4X$X+X} 0.p.h.g.k.k.k.n.F.F.R.!.`.'.'.'.v.U C.          ",
"                                s * + $ - > 9 8 8 A w.b.N.m.N.B.^.^./.$X5X$X.X} { r.y.h.g.j.j.k.k.F.F.Q.R.).!.`.Q.8.U           ",
"                                  M * $ $ - - , 9 r A { a.b.N.N.B.B.^.@X+X/.p.{ O.e.y.g.g.g.l.j.j.k.F.T.W.`.Q.).E.T.a.w.        ",
"                                    _ u # & - > , 8 C L [ { q.b.m.m.b.b.a.p.l.y.e.r.y.y.s.s.j.g.j.x.H.J.J.W.Q.Q.!.T.b.q.+X      ",
"                                      2.p # $ - , 8 Z ] ] ' [ [ } { O.8.0.x.J.z.g.y.y.s.s.g.s.l.l.x.k.k.F.J.K.K.R.E.n.n.+X      ",
"                                          x $ , r y D E ' ' [ [ [ { O.9.g.x.J.c.z.v.s.g.s.s.l.l.l.j.k.k.k.T.K.Q.E.E.E.n. X      ",
"                                            b q Z J L ] ' ' ' [ [ @.e.g.z.x.J.J.x.j.g.s.s.s.s.s.l.l.g.k.x.k.T.F.R.R.E.Q.rX      ",
"                                              T K ] ` ` ' ' o.O.9.e.y.l.z.x.k.H.j.l.s.s.f.s.y.s.s.g.g.g.k.k.F.T.F.T.W.3X        ",
"                                              v R ] ` ' o.+.@.e.r.y.y.l.j.z.x.j.l.p.y.y.y.y.y.y.y.t.y.g.h.j.F.F.R.T.3X          ",
"                                            b k | ` P L ' o.@.r.r.y.p.g.j.z.x.z.g.y.r.r.y.e.e.*.*.e.y.s.y.g.j.F.R.).            ",
"                                            i H  .#.@.o.#.9.9.9.0.r.y.s.g.j.h.z.z.z.y.@.@.*.@...+.*.e.t.t.t.j.F.G.3X            ",
"                                          3.4 K +.e.t.y.v.j.k.z.z.l.s.p.y.h.h.g.g.k.j.s.@.o.+.;.;.-.=.t.=.t.d.k.).3X            ",
"                                          gXa K *.s.g.j.k.k.F.F.J.R.G.W.T.F.F.k.g.j.j.j.g.u.-.P.          qXU.rXuX              ",
"                                            4.` s.j.j.F.F.R.R.).[.).).[.).).R.R.G.k.j.j.j.H.I.tX            xXxX                "
};
