/* XPM */
static char *e8eb39097efc47d0e03de0a95a72c0caueKUOpjDGUSTiKNn[] = {
/* columns rows colors chars-per-pixel */
"64 61 233 2 ",
"   c None",
".  c #0D0100",
"X  c #150101",
"o  c #1B0101",
"O  c #240101",
"+  c #2C0102",
"@  c #2C0803",
"#  c #330202",
"$  c #3B0302",
"%  c #3C0B04",
"&  c #330904",
"*  c #3B1406",
"=  c #430302",
"-  c #4A0402",
";  c #430B03",
":  c #4C0A02",
">  c #530502",
",  c #5B0402",
"<  c #530D02",
"1  c #5A0C02",
"2  c #4D1304",
"3  c #451C04",
"4  c #491907",
"5  c #541203",
"6  c #5C1403",
"7  c #581A06",
"8  c #6A0E02",
"9  c #630C04",
"0  c #631303",
"q  c #6B1302",
"w  c #641B02",
"e  c #6B1C03",
"r  c #711402",
"t  c #731B02",
"y  c #791A02",
"u  c #4E2408",
"i  c #5B2305",
"p  c #5E2C06",
"a  c #57270A",
"s  c #5D3210",
"d  c #632102",
"f  c #6B2203",
"g  c #692A05",
"h  c #742402",
"j  c #7B2303",
"k  c #732903",
"l  c #7D2B03",
"z  c #732508",
"x  c #67380C",
"c  c #7E3303",
"v  c #743B0A",
"b  c #733D12",
"n  c #693D15",
"m  c #7D470A",
"M  c #774516",
"N  c #7F511B",
"B  c #6E4010",
"V  c #841E02",
"C  c #842404",
"Z  c #822C02",
"A  c #942D03",
"S  c #843403",
"D  c #8B3404",
"F  c #843B04",
"G  c #8C3C03",
"H  c #853709",
"J  c #933305",
"K  c #933D02",
"L  c #9C3D03",
"P  c #983503",
"I  c #BA3E07",
"U  c #C72304",
"Y  c #8D4303",
"T  c #874809",
"R  c #924503",
"E  c #9C4502",
"W  c #954903",
"Q  c #9A4C02",
"!  c #9A4A08",
"~  c #8B540C",
"^  c #89540A",
"/  c #9B5002",
"(  c #965708",
")  c #885619",
"_  c #8D5617",
"`  c #A54B03",
"'  c #AC4C02",
"]  c #A34602",
"[  c #B34C01",
"{  c #BD4D02",
"}  c #B84706",
"|  c #A25303",
" . c #AB5403",
".. c #AB5B03",
"X. c #A65A03",
"o. c #B35302",
"O. c #BB5401",
"+. c #B45C03",
"@. c #BC5B03",
"#. c #B45B09",
"$. c #9B670D",
"%. c #986619",
"&. c #AB6508",
"*. c #BC6304",
"=. c #BD6A03",
"-. c #BD6B09",
";. c #B46508",
":. c #B9760B",
">. c #A36917",
",. c #B67D11",
"<. c #AB7710",
"1. c #895723",
"2. c #996827",
"3. c #9B7123",
"4. c #906330",
"5. c #A8782A",
"6. c #A57A33",
"7. c #B77E20",
"8. c #C64604",
"9. c #C25C03",
"0. c #C85906",
"q. c #D45906",
"w. c #D24B14",
"e. c #C56502",
"r. c #C86404",
"t. c #C46B03",
"y. c #CC6C03",
"u. c #C36A0A",
"i. c #C9680B",
"p. c #D26C03",
"a. c #D86808",
"s. c #CE7305",
"d. c #CD7A03",
"f. c #C97509",
"g. c #D37405",
"h. c #D97404",
"j. c #D57B05",
"k. c #DA7D05",
"l. c #D47509",
"z. c #D57A09",
"x. c #DA7D0A",
"c. c #DD7713",
"v. c #D66C10",
"b. c #E76C09",
"n. c #E77B03",
"m. c #ED720C",
"M. c #E8780A",
"N. c #F2740D",
"B. c #F37C0D",
"V. c #EF760F",
"C. c #E07929",
"Z. c #D26C2E",
"A. c #BE871A",
"S. c #B58735",
"D. c #B58833",
"F. c #DC8405",
"G. c #DC8A06",
"H. c #D6830A",
"J. c #DC830B",
"K. c #DE8A0B",
"L. c #D3850A",
"P. c #CC8919",
"I. c #D78812",
"U. c #DA9618",
"Y. c #DC9104",
"T. c #E28405",
"R. c #E48C05",
"E. c #EA8C04",
"W. c #E3850B",
"Q. c #E38B0A",
"!. c #E98E0B",
"~. c #EE840C",
"^. c #F4830D",
"/. c #F48B0E",
"(. c #F9870F",
"). c #E59305",
"_. c #ED9D04",
"`. c #E5930C",
"'. c #EB940B",
"]. c #EC9A0C",
"[. c #E99706",
"{. c #F39C0C",
"}. c #F3980A",
"|. c #EB8B11",
" X c #E58513",
".X c #F38411",
"XX c #F78912",
"oX c #EE9D11",
"OX c #E8991A",
"+X c #F59312",
"@X c #F99311",
"#X c #F29C11",
"$X c #FA9B12",
"%X c #EBA309",
"&X c #F5AA04",
"*X c #F4A30D",
"=X c #F8A40D",
"-X c #F5A90D",
";X c #F9AC0E",
":X c #F6A804",
">X c #FAB206",
",X c #FBBB06",
"<X c #FAB30C",
"1X c #FBB90B",
"2X c #F6B40B",
"3X c #EAA617",
"4X c #F4A511",
"5X c #F9A412",
"6X c #F6AA11",
"7X c #F9AD11",
"8X c #FAB312",
"9X c #FABC13",
"0X c #CD972A",
"qX c #DB9825",
"wX c #C7993B",
"eX c #DE8A2C",
"rX c #E59B20",
"tX c #D3A32C",
"yX c #D9AA3C",
"uX c #E8AB2A",
"iX c #F4B829",
"pX c #F2B738",
"aX c #FBC517",
"sX c #FBC005",
"dX c #FAC82A",
"fX c #F9CE35",
"gX c #B78F43",
"hX c #CCA345",
"jX c #D7AB4A",
"kX c #DAB64B",
"lX c #D5AE56",
"zX c #E3B646",
"xX c #FCD358",
/* pixels */
"                                                              lXlXhX                                                            ",
"                                                    S.gX2.1.M b M M M N 1.6.hXlX                                                ",
"                                              S.1.a 7 7 5 2 ; = $ $ & # & % 4 i M 6.jX                                          ",
"                                        wX6.2.i = = $ % ; % = $ $ # # = = $ $ # $ - a 4.6.                                      ",
"                                    wX2.n 2 = % # $ % $ $ # & # # @ # # + # # $ $ # # # 4 B ) 5.wXzX                            ",
"                                jX5.v 7 % % $ + + $ $ # O O O O o O O o o o O + # $ # # + # & * 4 s 6.lX                        ",
"                              hX~ 7 ; = # # + O + # # O X o O + + O + O + + O + + # # # # # + O + $ = g 6.                      ",
"                            S.x = $ $ # O O O O + # + O O + + O O O O + O o O o o + + + $ # # O O # $ = 5 1.wX                  ",
"                          D.g $ # # + + O o o o O O o o + O O + + + + O O o O o o o o o O O O o O O + O + % a 2.zX              ",
"                      wX%.d $ + + + + # O o O O o o o O O O + + # $ $ + O + O o o o o o O O O O O o X o o O @ % %.              ",
"                      5.2 = # + + O + + O O # O o X o O + O + + $ ; $ + + O + o o O o o O O O O O o o o o O # # u 3.            ",
"                    6.a ; $ # # + + + + + # = & O o O O O + + + $ $ # O o O o o o o o O O o o X o o o o o o o O + b 0X          ",
"                  hXn = = # = = - # + + # - < : # + + + @ + # # $ # O o o O o X o X X X o o X o X X o X X X X o o % %.zX        ",
"                kX_ = $ $ 2 v 0 9 : # + $ 5 w w : # $ $ & $ & # + + O o o o o o o o X o o o O o o o o X . X X X O # s 5.yX      ",
"                yXv # - - 1 H G D l w ; $ 1 z h 6 = % % $ # $ @ + + O O O o o o o o o o o X o o o o o X . . X X o o # p A.      ",
"                  N # w z J ! ` &.#.` D h w 0 f d 2 ; & @ O O O @ # + O O o O o X o o o o o X X o X X X X . . . X o O ; ~ yX    ",
"                  T - H  .*.-.u.f.l.-.#.| ! z e w 5 ; @ O O O + # # + O O + O X o o o X X X X X X X X o X . . . . . X + T yX    ",
"                  >.Z ` f.z.x.I.I.I.z.f.-.&.R z 0 : & O O $ $ $ $ # # + + + O O O o X X . X X o o o o o X X . X . . X + M 0X    ",
"                  P.d.G.`. XK.`.|.K.J.f.u...R Z 9 = + + ; 5 2 : = # # + @ # + + O X X X o O O o o X o o O o X X X X X + m <.tX  ",
"                  %X_.].oX`.`.`.`.I.I.l.-. .R j , = $ = : 5 5 5 ; = = # $ $ # O O o o O # + O o X X o X X o X X X X o O i ( <.  ",
"                uX%X%X%X].`.`.`.`.K.J.z.*. .L Z 0 1 < 5 5 - < : ; 2 ; = ; $ # + O o O + # O o X o o o X X X X . . X X X u ~ :.  ",
"                I.j.Y.[.].`.OX`.`.Q.I.z.*.o.] D t 9 e 0 < = < : : 5 = < : = # + + + # # O o O o o o o X X o X X . . . X ; m ,.  ",
"                P.` +.d.G.`.].`.`.K.J.z.u.o.] J j q t w 0 5 6 : 6 : 5 5 : = # + # = $ + o o O o o o o X X X o o . . X X # g 7.  ",
"                U.=.*.*.t.L.oX].oX`.W.j.t.+. .K h 8 t e w f 6 1 5 < 6 5 - ; $ # ; ; # O o O O O o o X X o o o X X X X X O w $.  ",
"              fX3XY.Y.G.t.t.`.*X4X`.K.z.y.*.o.K t 8 t 0 w e 6 6 > 6 w : < : $ ; : ; # O O + + + o o X X o X o o o o o . o ; m   ",
"              iX2X[.[.`.j.*.H.].oX].Q.k.y.9.+.E C t t h h e h g w f w 6 w 6 5 5 < = # + + + # + o o X X X o o X X O o X o & g ( ",
"            fX8X%X].Y.].Q.f.t.`.oX].`.K.j.e.*.#.E Z Z Z c c v c k c f h k h w 5 - - $ $ # + + O O O o o o o X X X O o o O # i ~ ",
"          dX9X<XL.&.z.Y.`.K.j.G.].].].'.`.H.z.f.*.E K G Y W W Y c c h c c c e 0 < - = $ $ $ # + + O O o O X X X o X X o o O a   ",
"      dXaXsX1X<X%X;.! l.Q.`.K.G.`.*X4X4X].`.Q.K.f.;.| W Q W W T F S c F Y F h 0 1 - - : = $ $ # + + O O O X o X X X X o o O s   ",
"  fXaXsX,X1X1X<X%X-.j H u.'.].`.[.*X4X6X5X4XoX`.K.-.../ Q W / Y Y T Y Y ( T k d 5 : : : $ $ # # + + + O o o o X . . o . o @ )   ",
"fXaXsX,X,X,X<X;X4XG.=.t.f.`.*X%X%X6X6X7X7X5X4XoX`.t.&.X.Q Q Q Y W Y Y G W c k f 0 5 < - $ $ = $ + + O O O o o X X X X . o 2 3.  ",
"dX,X,X,X>X<X8X7X6X].[.].*X*X4X6X6X6X6X7X7X4X4XoXI.:.&.../ / W Y R Y Y F F k k w w w < - = - $ # + O O O O o X X X X X . + ~     ",
"  6X>X,X>X>X8X8X7X6X7X7X7X7X8X7X8X7X7X8X7X4X3X`.L.=.&...| Q W R W Y G G S l h w g w < < 1 : $ + + O O o O o X X X X X o p       ",
"  uX`.>X<X;X8X8X9X8X8X8X7X8X8X<X8X7X7X7X7X4X].G.d.=.....| Q W ! W G S S l l h f w 6 6 6 5 : = + # + + O O o X . X X X O ~       ",
"    3X%X}.:X1X9X9X9X9X9X8X8X8X8X8X7X;X7X4X#X`.G.d.=.;.....| Q / E R G G c j h e w w 6 6 6 : - $ # + + O o O o . X X o u >.      ",
"    8X&X:X&X9X9X9X9X9X9X8X8X8X8X8X;X7X7X4X{.).F.d.=.*.+. .| | X.| Q W G S l j t t e 0 1 5 < - = # + O o o o X . . X @ M         ",
"  dX<X>X;X>X9X9X9X9X8X<X8X<X8X;X<X7X-X4X*X].).F.L.d.t.=.;. .......| ! K Z j j t t e q 6 < < - = # + o o o o X . X o * $.        ",
"  9X>X>X>X>X<X1X8X8X<X8X8X8X;X;X6X-X=X{.}.[.R.G.F.L.j.d.t.t.t.t.*.+.E J j y y y h t q 0 1 < = $ # O o o o o X X O @ B A.        ",
"  7X&X&X>X>X<X<X<X<X8X;X;X;X7X=X=X=X=X{.].'.).Q.G.H.j.g.l.z.z.z.x.c.f.#.L V y t t q 8 0 1 = = $ + O o o O o o o O p ,.          ",
"  iX_.&X:X:X<X<X8X;X;X7X;X7X=X=X=X{.*X{.}.'.!.Q.F.J.j.j.k.W. X!.'.+X+X+X|.v.J t t t q 0 1 = = # + O o o O o o o 3 $.            ",
"    pXoX{._.&X<X;X;X;X7X7X=X=X=X*X{.{.{.}.'.'.Q.Q.J.F.J.J.W. X XM.q.} v.@X@Xc.A y r q 9 1 : $ # + + o o o X o O m A.            ",
"      pXOX[._.;X;X=X=X=X7X=X=X=X{.{.].}.oX!.Q.W.F.J.J.J.W.W.x.x.h.v.0.a.B.XXXXi.V q r 0 1 - = $ # O o o o o O 4 >.              ",
"          OX'.&X:X=X=X=X=X*X{.}.}.'.[.}.'.!.R.W.T.W.W.!.oX X9.l.a. XXXXX@X.XXXc.J q q 6 1 - = $ + O o X o o ; ~                 ",
"            rX_.=X=X=X{.{.+X}.[.}.'.!.!.!.T.T.T.T.W.!.#X5Xc.} a.a. X$X$X@XXXXXV.L t q 1 > = $ # + O o X o * ~ 0X                ",
"            eX'.*X*X{.{.}.[.'.E.E.!.Q.W.W.n.k.j.k.W.+X/.c.8.U 8.M.~.@X$X@X(.XXm.J t q , - $ $ + + o o o u ^                     ",
"            Z.x.{.}.{.+X'.'.R.R.R.R.Q.F.n.z.j.h.h.W.+Xa.8.8.p.q.~.+X@X@X^.(.B.v.C r 0 , - $ + O o o X 3 ~                       ",
"            w.i._.}.}.'.!.R.Q.T.T.T.F.k.k.h.h.a.0.M.+X+X~.B.n.b./.@XXXB.m.B.m.} r r 0 , = # + O o @ x _                         ",
"          C.U h.'.!.'.'.Q.R.T.T.k.x.j.j.h.p.p.9.[ +X$X5X5X$X/.b.B.^.B.b.N.N.q.C r r 0 - $ + O O u ^                             ",
"          w.8.W.'.'.`.R.W.T.F.k.j.j.j.g.g.g.r.{ } /.$X5X$X/.^.^.B.N.m.N.b.q.A 8 8 9 > - $ + * x                                 ",
"        w.q.T.E.R.R.W.Q.Q.F.k.j.j.g.g.g.p.y.e.O.{ p./.+X@X^.B.B.N.N.b.a.} A r 9 , - - $ # * M                                   ",
"      |.q.n.E.R.Q.Q.K.J.J.k.j.j.l.j.l.s.y.y.r.r.y.h.p.a.b.b.m.m.b.q.8.' L C 8 , > - # $ u _                                     ",
"      .Xb.n.E.).K.Q.J.F.F.J.z.j.g.l.y.s.s.y.y.g.x.J.j.0.{ 8.} [ } [ ' ` ] C 8 , - $ # s 2.                                      ",
"       Xn.E.E.E.`.W.F.k.z.h.l.g.l.s.l.s.s.s.l.z.x.x.J.l.9.O.{ [ [ [ ` ` E D j t > $ x                                           ",
"      OXW.E.R.R.K.T.k.k.j.x.g.l.s.s.s.s.s.g.l.k.J.J.x.z.y.e.@.O.[ [ ' ' ] L J Z q b                                             ",
"        3XG.T.T.F.F.k.k.h.g.g.g.s.s.s.s.l.s.j.z.x.x.k.z.l.y.r.@.O.[ [ ' ` ` ] K T                                               ",
"          3XT.T.F.F.j.g.g.y.t.y.t.y.y.y.y.y.p.l.c.z.z.z.l.y.y.r.u.@.+.o.' ` ] K v                                               ",
"            ).R.F.j.g.y.y.y.t.e.e.*.e.t.r.r.p.g.z.z.k.g.g.g.p.y.e.9.o.] P P ] ` z b                                             ",
"            %XR.F.j.t.u.t.e.*.+.+.@.@.@.@.s.z.j.z.j.j.g.y.r.r.9.9.@.i.O.#.9.#. .H a                                             ",
"            uX).k.d.=.=.t.=.=.;.;...o.*.g.z.z.g.h.h.g.p.p.p.g.z.z.x.l.g.y.t.t.+.K 4 3.                                          ",
"              uXOXU.qX          P.-.t.g.g.j.j.j.k.F.W.G.Q.K.G.T.F.F.k.j.j.d.s.e.K a gX                                          ",
"                xXxX            tXL.H.j.j.j.k.F.T.).).).).).).).).).R.F.F.j.j.s.` 4.                                            "
};
