/* XPM */
static char *_23a725309a6483f9cac58e96bdbf9efvQc2ueAlFcZSNKmG[] = {
/* columns rows colors chars-per-pixel */
"56 64 233 2 ",
"   c None",
".  c #1B0001",
"X  c #240101",
"o  c #2D0202",
"O  c #340302",
"+  c #3C0502",
"@  c #3C0B03",
"#  c #370902",
"$  c #3D1204",
"%  c #430502",
"&  c #4B0302",
"*  c #420C02",
"=  c #4B0B02",
"-  c #540301",
";  c #510D02",
":  c #5C0601",
">  c #431303",
",  c #4B1403",
"<  c #461B04",
"1  c #4C1A03",
"2  c #531403",
"3  c #5B1302",
"4  c #531C03",
"5  c #5C1C03",
"6  c #680502",
"7  c #750702",
"8  c #631B02",
"9  c #691803",
"0  c #781803",
"q  c #5C2302",
"w  c #582708",
"e  c #54280C",
"r  c #632303",
"t  c #6A2403",
"y  c #642B02",
"u  c #6C2C03",
"i  c #642F0F",
"p  c #752C03",
"a  c #792703",
"s  c #6D3304",
"d  c #6B320B",
"f  c #6A3708",
"g  c #743404",
"h  c #7A3302",
"j  c #733A05",
"k  c #7A3A06",
"l  c #6A3914",
"z  c #703D15",
"x  c #7E4A16",
"c  c #7C4C1A",
"v  c #764416",
"b  c #7D5325",
"n  c #774E23",
"m  c #861B03",
"M  c #882A03",
"N  c #922F03",
"B  c #853C03",
"V  c #8A3B04",
"C  c #873707",
"Z  c #993704",
"A  c #A43C04",
"S  c #A63603",
"D  c #B53F04",
"F  c #CB3C03",
"G  c #8C4303",
"H  c #8D4904",
"J  c #88460B",
"K  c #924305",
"L  c #994805",
"P  c #9C5304",
"I  c #985707",
"U  c #864B13",
"Y  c #86551A",
"T  c #925B18",
"R  c #A24B02",
"E  c #AA4D04",
"W  c #A94404",
"Q  c #B84904",
"!  c #A45204",
"~  c #A35C03",
"^  c #AC5B04",
"/  c #AA5C0A",
"(  c #A85708",
")  c #B35D04",
"_  c #B75706",
"`  c #AD6304",
"'  c #AC6307",
"]  c #B46305",
"[  c #BA6505",
"{  c #B56C05",
"}  c #BC6B05",
"|  c #B46309",
" . c #BC6C09",
".. c #BA660A",
"X. c #BE720C",
"o. c #BA7305",
"O. c #B46D19",
"+. c #885D28",
"@. c #925C21",
"#. c #8D632C",
"$. c #946529",
"%. c #966B34",
"&. c #9B7135",
"*. c #9C763A",
"=. c #896030",
"-. c #B87129",
";. c #A67939",
":. c #B17131",
">. c #CE4302",
",. c #D24B03",
"<. c #CA5C04",
"1. c #C45805",
"2. c #D35303",
"3. c #DA5503",
"4. c #DD5C05",
"5. c #D55C05",
"6. c #E25D07",
"7. c #C36304",
"8. c #CD6406",
"9. c #C36C05",
"0. c #CB6C06",
"q. c #CA6B09",
"w. c #C46909",
"e. c #D26305",
"r. c #DB6405",
"t. c #DB6D0B",
"y. c #D66B07",
"u. c #C57205",
"i. c #CB7304",
"p. c #CC7A05",
"a. c #C4730A",
"s. c #CB750A",
"d. c #CC7B0B",
"f. c #C57A08",
"g. c #D27505",
"h. c #D47C05",
"j. c #DB7B04",
"k. c #D3730C",
"l. c #D27D0B",
"z. c #DA7B0C",
"x. c #DB7508",
"c. c #C67914",
"v. c #DC7714",
"b. c #E16707",
"n. c #E3730B",
"m. c #E27C0B",
"M. c #E47904",
"N. c #E07811",
"B. c #C27C2E",
"V. c #A37E41",
"C. c #B88338",
"Z. c #AE833C",
"A. c #CD840B",
"S. c #CD8605",
"D. c #D58305",
"F. c #DA8505",
"G. c #DD8B05",
"H. c #D4830C",
"J. c #DB850B",
"K. c #D58C0C",
"L. c #DD8B0C",
"P. c #D78F01",
"I. c #DD9204",
"U. c #DB930C",
"Y. c #DA9609",
"T. c #CD8C19",
"R. c #D68613",
"E. c #DA9313",
"W. c #E28D05",
"Q. c #E38D0B",
"!. c #E68709",
"~. c #E49306",
"^. c #EB9306",
"/. c #EA9C06",
"(. c #E4930B",
"). c #E9940B",
"_. c #E59B0D",
"`. c #EB9C0C",
"'. c #E59B05",
"]. c #E68C18",
"[. c #E59411",
"{. c #E59B12",
"}. c #EB9D11",
"|. c #EA9917",
" X c #F29B11",
".X c #F29611",
"XX c #ECA205",
"oX c #EDA20D",
"OX c #EDA80C",
"+X c #F1A50C",
"@X c #F4AB0D",
"#X c #F4AA08",
"$X c #F6B30C",
"%X c #F9B50C",
"&X c #F6B90A",
"*X c #F8B80A",
"=X c #EDA213",
"-X c #EAA713",
";X c #F2A512",
":X c #F4AB13",
">X c #F9AD13",
",X c #F5AD19",
"<X c #F5B213",
"1X c #F9B413",
"2X c #FABB14",
"3X c #F5B21A",
"4X c #F9B41C",
"5X c #FABC19",
"6X c #D99A2F",
"7X c #C78837",
"8X c #C98124",
"9X c #DDA02E",
"0X c #E7A628",
"qX c #F7B621",
"wX c #EEB934",
"eX c #F4BA37",
"rX c #F1B127",
"tX c #FCC30D",
"yX c #FBC215",
"uX c #FAC31C",
"iX c #FAC923",
"pX c #FAC827",
"aX c #F9C635",
"sX c #AB8446",
"dX c #B48B4C",
"fX c #B68944",
"gX c #BB9452",
"hX c #B68E4E",
"jX c #C2964F",
"kX c #C9A55C",
"lX c #E3AC40",
"zX c #F7C848",
"xX c #FBCE52",
/* pixels */
"                                        &.#.x f s j j Y Z.kX                                                    ",
"                                  fX&.c j s s j s s s j U $.sX                                                  ",
"                                *.c y r r q q q q 4 4 r y j U $.&.#.%.sXsX                                      ",
"                            *.#.z q 5 4 4 q q 1 , 1 , q q q r y y u y y b sX                                    ",
"                        ;.=.v q q 1 , , , > > @ , , < , , 4 , , 2 5 q 4 q b V.                                  ",
"                      ;.c y 1 1 , @ @ * @ # @ @ > , , 1 , > , * > , , 2 4 e =.                                  ",
"                    &.z y 4 , , @ @ * @ @ @ @ > 1 4 1 1 1 < , > * $ * * * > l %.hX                              ",
"                  %.l r 4 4 1 $ $ $ , * + # # # $ $ $ $ @ * * * @ + + O O o $ i +.gX                            ",
"                V.l q q 4 w < , < 1 1 > @ # @ O o O o o O + + % % % % * * @ # , w =.fX                          ",
"                n w q w 1 1 < 1 1 < < > @ $ < * @ O O + = % & ; 2 5 r r 5 4 > , 1 1 c Z.                        ",
"              +., > > * > @ $ , > > > > $ > < , @ * = 3 3 8 t a h B G B g r , , , @ 4 c ;.                      ",
"            *.e @ @ O O + O O # # # @ @ @ @ * > = 2 8 a M C L R ! ( | / G r = * @ @ @ w $.jX                    ",
"            n $ + O o O + @ > @ o o O O o O # + = t V ( ] ..[ ) _ ( / ! C 8 ; = @ + + = x jX                    ",
"          dXl @ + O O * = 4 1 @ o O O X X X O = p ( c.R.R.R.p.a.w._ E E R V h t 2 + % = v gX                    ",
"          *.i > + * , 5 8 8 = O + + o X X O 2 B O.R.|.|.=X=X[.[.U.H.l.d.0.../ K y % % = z hX                    ",
"          %.e = = 8 k B p t 9 ; ; = % % ; t I a.{.rX3X,X,X,X;X;X}.}.(.L.H.H.f./ h = = ; i dX                    ",
"          %.i ; 8 B P ! ! ( ( K J V B C K | A.{.qXqX4X4X>X>X,X:X-X`.{.{.(.L.H. .V r 2 2 y dX                    ",
"          $.d 5 B ! .. .a.d.l.d.d.d.d.s.H.L.=X,X4XqXqX4X<X4X,X,X;X=X=X=X{.E.H.} P V r 3 l dX                    ",
"          $.d t G ' a.d.l.H.L.[.|.{.{.}.}.=X;X,X4XqXqX4X,X4X,X;X=X{.{.(.(.[.H.a.} ! h 5 l dX                    ",
"          +.p p K ' a.d.H.R.R.).}.}.=X=X=X;X,X,X>X4X4X,X:X;X}.).L.i.9.9.u.A.K.H.d.{ H t 5 ;.                    ",
"          Y u p G ] a.a.d.R.L.(._.}.}.`.=X=X=X+X:X:X:X;XoX/.G.g.[ _ E _ [ [ 9.A.A.a.P k 8 &.                    ",
"          x u u G ' X.d.d.H.J.J.J.J.G.W.(.(._.oXoX;X+X/.~.W.j.i.7.9.i.h.H.d.9.9.f.a.~ G g %.                    ",
"          x t t G ^ X.d.d.a. .[ [ ] [ p.h.F.~.'.`.oX`.~.~.G.F.h.J.L.(.{.}.[.K.i.u.f.{ P H T hX                  ",
"          Y u t B ^  .X.] ! R R R E _ 7.0.p.D.W./. X`.'.W.G.W.L.Q.).}.-X}.}._.L.p.p.p.{ I I gX                  ",
"          Y y t k ( { / ! ^ } a.s.a.0.i.i.p.h.G.~.`.`./.~.G.G.G.L.[.[.).[.[.[.(.U.K.E.A.' I gX                  ",
"          Y t r h ! ^ ! ) s.J.[.(.L.H.l.h.g.h.F.~.`.+X;X).(.W.F.h.l.d.d.c.a.H.[.}._.=XY.{ I fX                  ",
"          T u u h L ! ^ a.H.[.[.[.L.J.g.i.g.h.G.).;X1X>X+X/.(.h.9.-.$.z i j I a.{.-X-X-Xo.I C.                  ",
"          $.k k B ! ) [ d.J.R.J.R.l.d.a.[ 9.h.W.`.>X1X1X@XoX/.h...7X:.e < r B ^ U.-X3X-XS.I C.                  ",
"          ;.J G P }  .a.d.l.d.a.| ( U k p ' D._.;X1X1X1X1X:X+X_.H.l.c.| | } p.G.oX,X3X-XS.{ :.                  ",
"          C.U H ` A.A.A.l.a./ K K z < < j  .(.oX@X1X1X1X2X1X1X+X_.~.F.F.G._.`.-X<X5X5X<XY.o.7X                  ",
"            U H { K.K.K.p.! C V / I J I X.U.}.;X:X1X2X5X2X1X1X>X:X@XOXoXoX;X1X5X5X5X5X5X-XS.9XzXxX              ",
"            U H { Y.E.Y.l.} [ 0.s.s.l.L.[.}.=X+X1X2X5X5X5X5X1X1X1X2X5X5XuXuXiXuXuX5X5XuX-XY.@X;XrXzX            ",
"            T H ' K.{.U.(._.(.(.).[.`. X;X+XoX;X>X1X5X5X5X1X1X1X1X1XuXuXiXiXiXiXuXuXuX5X:XOX+X^.!.|.            ",
"              H ~ S.-X-X-X;X;X;X,X>X1X>X;X`.=X;X+X X;X+X;X}.=X@X@X@X1XuXiXiXiXiXuXuXyX2X$XoX+X@X^.].            ",
"              I I S._.oX@X<X2X2X5X5X2X1X;X/.`.Q.H.L._.).H./ a.Q.oX+X#X2XuXiXiXiXuXyX5X5X<X(.`.1X@X XpX          ",
"              O.{ S.-XoX-X1X5X5XuX5X2X1X`.W.!._ K [ F.G.F.d.D.).+X@X#X@X2XuXuXuXyXyXyX5X<XG.!.@X1X XpX          ",
"              U.p.D.-XXXOX<X2X5X2X2X2X>X/.W.j.p.u.h.F.W.).`.;X:X>X>X+X#X$X2XyXyXyXyX2XyX1X+X^.#X%X;XaX          ",
"            (.J.F.F.U._.OX:X1X1X2X1X%X+X/.).W.W.)._.).).;X>X>X>X>X>X>X+XXX*X2X*XyX*X2X5X2X%X#X#X%XqX            ",
"          -Xe.<.j.h.U.oXoX+X@X1X1X>X>X+X/.}.}.`.`.}.=X;X;X>X>X>X>X>X>X+XXX@X%X2X2X2X2X2X1X$X*X*X1XaX            ",
"          /.r.j.!.g.D._.=X+X+X:X>X>X+X/./.`.`.=X X X;X;X>X>X>X;X+X+X+X+X/./.@X1X&X2X2X2X&X&XtX*X5XxX            ",
"          +XM.^.W.<.i._._.=X+X+X+X+X`././.`.).}. X X X.X.X.X.X]..X X}.`.^./.+X@X1X1X*X2X&X&XtXyXaX              ",
"          #XM.^.!.<.y.(.`.`.`.+X+X+X/.~.^.(.Q.).Q.N.v.t.y.r.e.e.r.z.!.).Q.W./.>X@X%X*X*X<X<XyXiX                ",
"          ;X!.!.^.e.g.(.`.`.`.oX`.`.^.W.W.L.Q.x.8.1.Q D D S Z M Z Q y.J.L.W.`.;X#X$X*X$XqXwXeX                  ",
"             X^.^.!.x.W._._./.`.`.`.).G.h.z.k._ S a 9 8 ; ; @ X = 0 A q.z.Q.).+X@X#X&X<XwX                      ",
"              ;X/.^.W.W.~.)./././.).(.F.g.q.1.Z ; X . . . X o o O & 0 Q k.R.(.`.@X$X&X3X                        ",
"                =X`./.^.W.~._.).`.).(.J.g.q.Q 0 O X . X o % & & - - - Z q.Q.(.oXOX#X#XwX                        ",
"                  -X).W.G.~.~.'._.).(.J.s.7.A 8 + % & - : 6 7 6 6 6 - a 7.J.[.`.OX#XOXwX                        ",
"                    {.E.E.U.~.~.^.(.[.Q.k.w.Z 6 - 6 7 m M N N m m 7 6 9 _ v.L.`.#XXX-X                          ",
"                          E.Y.~.~.(.Q.L.l.7.S 7 7 m Z W _ ...._ A S m m _ J.G.^.XXoX0X                          ",
"                            Y.I.I.W.Q.W.l.q.A 0 m S _ q.k.l.k.q.1.1.W A q.L.(.'.XX{.wX                          ",
"                              Y.P.G.U.L.l.q._ E W Q <.y.l.N.v.y.q.5.<.7.x.[._./.XX0X                            ",
"                              T.K.G.L.J.l.g.k.H.c.<.5.y.t.N.v.t.y.t.v.t.m.).`./.XX9X                            ",
"                                T.D.H.H.J.l.z.L.L.k.y.t.t.n.t.r.5.t.].v.!.}.}.oXY.9X                            ",
"                                  p.S.H.H.l.h.x.].].N.n.t.r.3.,.>.<.v.N.!.}.`./.I.6X                            ",
"                                  { p.H.H.H.z.x.m.).n.3.,.,.F F F 3.b.n.).).'.'.I.7X                            ",
"                                  ^ o.d.l.H.H.z.x.n.n.4.>.>.3.3.3.6.b.M.)._.'.I.K.7X                            ",
"                                  ( } u.p.p.H.l.j.r.4.4.6.b.b.6.6.6.r.!.(._.I.D.8XjX                            ",
"                                  ( [ [ 9.f.d.d.g.e.5.3.3.6.6.3.3.r.j.F.G.~.D.a.7X                              ",
"                                  ( ] ) ] } u.s.d.s.0.<.2.2.2.<.e.y.h.G.'.K.a.-.                                ",
"                                  L ! ) ^ ) } a.a.q.0.7.7.<.7.0.i.h.G.~.I.c.-.                                  ",
"                                    L ! ^ ) ^ ) a.a.s.q.u.u.g.h.h.G.~.(.T.V.                                    ",
"                                    C J R ! ! ! ^  .s.p.l.h.F.F.G.G.G.c.:.                                      ",
"                                      C V K L L R R ^ } d.D.F.F.D.A.B.-.                                        ",
"                                          V C N V C C C L I / -.:.;.                                            "
};
