/* XPM */
static char *result[] = {
/* columns rows colors chars-per-pixel */
"64 64 245 2 ",
"   c #0E0201",
".  c #140102",
"X  c #1C0101",
"o  c #240101",
"O  c #2C0202",
"+  c #2E0705",
"@  c #330303",
"#  c #3B0403",
"$  c #360904",
"%  c #3C0A04",
"&  c #3B060A",
"*  c #3B0C08",
"=  c #3E1003",
"-  c #420402",
";  c #4A0502",
":  c #430C04",
">  c #4B0C04",
",  c #480E09",
"<  c #530503",
"1  c #540D04",
"2  c #5A0D02",
"3  c #441204",
"4  c #4C1304",
"5  c #481607",
"6  c #4C1A04",
"7  c #541404",
"8  c #5B1403",
"9  c #541A05",
"0  c #5C1B05",
"q  c #531209",
"w  c #5A1D0A",
"e  c #651907",
"r  c #621C04",
"t  c #6B1B04",
"y  c #701F03",
"u  c #59250A",
"i  c #4B2411",
"p  c #532615",
"a  c #652205",
"s  c #6C2404",
"d  c #6E2A05",
"f  c #69270A",
"g  c #6C2609",
"h  c #732405",
"j  c #782606",
"k  c #732A04",
"l  c #7B2B03",
"z  c #6B3209",
"x  c #7C3404",
"c  c #7D3A04",
"v  c #773509",
"b  c #7B350A",
"n  c #702F17",
"m  c #6B3815",
"M  c #733817",
"N  c #593124",
"B  c #663823",
"V  c #764004",
"C  c #77471A",
"Z  c #6E4A31",
"A  c #7A5838",
"S  c #7E6345",
"D  c #822A04",
"F  c #8A2F02",
"G  c #843304",
"H  c #8C3304",
"J  c #833B04",
"K  c #8C3D04",
"L  c #85370A",
"P  c #943C04",
"I  c #993D06",
"U  c #913B16",
"Y  c #B63607",
"T  c #864106",
"R  c #8C4205",
"E  c #86450C",
"W  c #934404",
"Q  c #974506",
"!  c #9C4B05",
"~  c #874816",
"^  c #994D10",
"/  c #A44A05",
"(  c #B44708",
")  c #A35305",
"_  c #AA5507",
"`  c #AD5B04",
"'  c #B35B05",
"]  c #B85B06",
"[  c #A75A19",
"{  c #9D671B",
"}  c #B66104",
"|  c #BB6303",
" . c #BE6902",
".. c #BA660C",
"X. c #B96618",
"o. c #885929",
"O. c #815A39",
"+. c #976D31",
"@. c #AA7427",
"#. c #AF6F31",
"$. c #C54D0C",
"%. c #CC580A",
"&. c #CA5A12",
"*. c #C46704",
"=. c #C46C02",
"-. c #C96C02",
";. c #C26D0A",
":. c #DB6A09",
">. c #C67104",
",. c #CB7404",
"<. c #CD7A04",
"1. c #C6730B",
"2. c #CB750A",
"3. c #CE7A0A",
"4. c #D77806",
"5. c #D27C05",
"6. c #D27D09",
"7. c #CA6F11",
"8. c #D67818",
"9. c #E36A09",
"0. c #E47305",
"q. c #E97609",
"w. c #EC7C0C",
"e. c #E97D13",
"r. c #C47B21",
"t. c #896A49",
"y. c #907351",
"u. c #A47C45",
"i. c #A07F55",
"p. c #B48534",
"a. c #D58203",
"s. c #DA8505",
"d. c #D48806",
"f. c #DD8B05",
"g. c #D5820A",
"h. c #DA850A",
"j. c #DD8A0B",
"k. c #DF9206",
"l. c #DC8712",
"z. c #D8901B",
"x. c #E18D07",
"c. c #E4840B",
"v. c #ED820B",
"b. c #E28E0A",
"n. c #EC8B0D",
"m. c #F2840E",
"M. c #F28B0D",
"N. c #E49305",
"B. c #E59904",
"V. c #E5920B",
"C. c #E9960A",
"Z. c #E79A08",
"A. c #EC9B0C",
"S. c #F29B0D",
"D. c #E88A13",
"F. c #F78912",
"G. c #E99612",
"H. c #F79715",
"J. c #F99C13",
"K. c #ECA205",
"L. c #EEA20C",
"P. c #F3AC05",
"I. c #F2A40D",
"U. c #F5AB0D",
"Y. c #F8AD0F",
"T. c #F9B30E",
"R. c #FAB808",
"E. c #EFA713",
"W. c #F2A213",
"Q. c #FAA114",
"!. c #F6AC12",
"~. c #F9AE12",
"^. c #F0A818",
"/. c #FAB412",
"(. c #F7B911",
"). c #F9BA13",
"_. c #CE882B",
"`. c #E59B2C",
"'. c #E9A528",
"]. c #EAA634",
"[. c #FAC424",
"{. c #9D815D",
"}. c #AF8A55",
"|. c #9D8665",
" X c #A38669",
".X c #A6936F",
"XX c #B99C69",
"oX c #B59C78",
"OX c #BAA677",
"+X c #C38847",
"@X c #CC924B",
"#X c #D89A45",
"$X c #CD9A5B",
"%X c #D39F5A",
"&X c #D0A65D",
"*X c #E8AE45",
"=X c #D6B16C",
"-X c #C5A979",
";X c #D5B875",
":X c #F7C34F",
">X c #F6D16F",
",X c #BBA986",
"<X c #BDB091",
"1X c #C4AD8C",
"2X c #C9B588",
"3X c #D4BE8E",
"4X c #CAB99A",
"5X c #C9BCA3",
"6X c #DAC799",
"7X c #E5C486",
"8X c #F4D688",
"9X c #E2CC98",
"0X c #EDD495",
"qX c #F5D893",
"wX c #F9E59E",
"eX c #CEC2A4",
"rX c #D6C9A2",
"tX c #DDD2A4",
"yX c #DFD8BC",
"uX c #E2CFA4",
"iX c #E7D9A8",
"pX c #E8DCB6",
"aX c #EFE3AA",
"sX c #F6E4AA",
"dX c #EDE1B4",
"fX c #EDE2BC",
"gX c #ECE9BB",
"hX c #F6ECB7",
"jX c #F9F1B9",
"kX c #FBF3BC",
"lX c #EEE7C7",
"zX c #F2ECC3",
"xX c #F4EDC9",
"cX c #F6F5C5",
"vX c #F9F6C5",
"bX c #FDFAC4",
"nX c #F7F3CB",
"mX c #F9F6CB",
"MX c #FDFDCE",
"NX c #F7F3D7",
"BX c #FAF6D3",
"VX c #FDFCD3",
"CX c #FEFEDB",
"ZX c #FFFFE4",
"AX c #FFFFE8",
/* pixels */
"ZXZXZXBXmXmXBXmXmXVXCXCXCXVXVXVXCXMXVXCXCXCXZXZXZXZXmXmXBXZXZXZXCXVXVXZXZXZXZXCXCXCXZXZXZXCXCXCXZXZXZXZXZXZXZXCXCXCXVXVXCXZXZXZX",
"ZXZXZXBXvXvXmXvXvXBXCXCXCXVXMXVXMXMXMXMXnXzXpXeX<X,X2X6XpXiXiXzXgXcXzXNXZXZXCXCXCXZXZXZXZXCXCXCXZXZXZXZXZXZXZXCXCXCXMXMXVXCXZXZX",
"ZXZXZXBXvXvXmXvXvXBXCXCXCXVXMXbXvXiX2X-X.XS u - - - # 6 m V c C O.y.|.,XeXyXfXzXzXBXCXZXZXCXCXCXZXZXAXZXAXZXCXCXCXCXMXMXCXCXZXZX",
"AXZXZXZXZXZXAXZXZXZXZXZXZXVXkXiXXXA u $ @ - : : : - % % # @ $ & % , # - p Z S t.y. X1XpXBXmXMXBXZXCXZXZXCXCXCXVXCXCXCXCXCXCXZXZX",
"ZXZXZXZXZXZXAXZXZXZXZXCXCXkX;XA p , : : # & @ & & & O O O @ @ @ @ # : : * & 3 & : w m A OXaXvXmXCXCXCXCXCXCXCXMXMXCXCXCXCXCXZXZX",
"ZXZXZXZXZXZXZXZXZXZXNXdX1X}.C : & $ @ $ @ O @ + @ O O + @ # % # # # : : 3 5 5 4 % % : : u u.iXvXCXCXCXCXCXCXCXMXMXCXVXVXCXCXZXZX",
"CXCXCXCXCXCXNXCXCXNX3X+.u > 4 * O o X O @ @ + + $ % $ @ $ $ : = $ & @ + @ @ $ = 3 : @ @ : 9 y.iXCXCXCXZXCXZXCXVXVXCXCXCXCXCXZXZX",
"VXMXVXMXcXvXBXvXvXpX#.z , + X @ O o o o X o o + + @ $ @ O O O @ @ $ $ $ + O O @ $ = : : % : 9 t.6XbXVXZXZXZXCXcXvXMXVXMXVXMXCXCX",
"VXMXVXmXbXkXkXjXhX;XC $ @ + o X X X X X X o O o o o o O O o o O o O o O O + o O @ O * 5 - % - : N OXgXBXZXZXCXvXvXBXMXMXCXMXCXCX",
"CXCXCXVXBXvXsX;X&X+.5 O o X X X X X X X X X X X X o o O O O o o o o o o O O + o O O O @ % % $ : : 4 t.eXBXCXNXCXVXCXVXBXCXbXVXCX",
"ZXZXZXCXCXcX=Xp.@.C $ o X X X X X X o X o X O o o o X o o o o o o o o o o o $ $ $ O O O O @ @ % 5 @ - Z ,XjXNXAXZXCXcXvXmXvXvXmX",
"ZXZXZXCXCX0Xp.{ E 6 $ o X o X . X X X o X o o O + o o o o O o o o O o o O o O O @ $ O O O o + @ @ # # @ Z 2XmXZXZXCXvXvXmXkXvXcX",
"ZXZXZXCXVX=X@.+.u $ O + X X X o X X X X X X X X X X o o o X o o o X o o O O @ o O O @ + o o o + @ @ $ & : A 6XCXZXCXmXMXBXbXmXBX",
"CXMXVXZXzXp.L 9 @ O O O X X X X o o o o o X X X X . X o o o X X o X o o o @ % % O O O @ o X X O @ O @ @ 4 - +.gXVXCXMXVXCXbXMXCX",
"VXMXMXBX-X{ n # O O o o X X X X o o o o O o X . X X X X o o o X X X o O o @ $ 6 $ O O O O X X o + + O o % 9 i {.bXCXMXMXCXbXMXVX",
"VXVXVXuX@.z : @ O O o X . X X X o o O o o O o X . X X X o O o o o o O O O @ $ 6 % O O O O X X X O + X o @ 4 9 Z iXCXVXMXVXbXMXCX",
"ZXZXBXXXb , @ o @ O o X X X X X X o o o o o O O X X o o O O o O + O O $ @ @ $ 6 & O @ O o . . X X o X o O : 0 9 .XxXCXCXCXVXZXAX",
"ZXZXhXo.6 & @ O o O o o X o o X X X o o o X O O O o X O O + o + @ @ @ $ @ : : * @ @ & + o o X . X o X X O @ 6 4 m 3XVXVXCXVXZXZX",
"ZXZXlXM - @ @ O O o o o o o X X o X o o o o o O $ + o O O @ O O $ % % @ $ 3 : % : 3 $ + O o X . . o X X O @ : 4 4 t.uXCXZXBXZXZX",
"CXCXfXm # @ @ O @ O o o o o o o X o O O o o O O : @ O + O & $ % % % @ @ + O % $ 5 % % + O + + X X O o o O @ : 4 , # XXZXZXMXCXCX",
"VXMXdXm # O @ @ O O o o o O o o X o + $ O O O @ 3 4 @ $ @ $ * = 5 % % % $ o & $ + O = $ @ @ O o @ @ O o O @ % > , # ,XZXZXbXMXVX",
"VXMXgXM @ O @ O O O O @ O O O o o o + : $ @ @ $ # 6 % @ = 5 3 & $ $ + @ @ O O o . . + $ $ @ @ # , % O O @ @ % # , & .XZXZXbXMXVX",
"CXCXzXO.@ @ # @ O O @ @ @ O O O O O @ * 5 $ % $ : 3 4 @ % # * O + * O o O @ o X . . X + $ 4 7 9 9 4 O O O @ 4 > : # A NXZXMXCXCX",
"CXCXzXy.# @ @ @ O O @ @ O O @ O O O $ : 6 % # @ @ % 6 3 + o O O @ = @ o + @ o . .   . o 4 a u r 7 $ O o # : 0 4 @ & N 4XZXMXCXCX",
"CXCXcX{.- @ @ @ @ O O O + @ O $ @ # $ : 6 3 # $ $ : 6 5 O X O + @ @ @ o o O O X .     o > w 9 ; ; - , q w a f 4 O @ ,  XNXMXCXCX",
"CXCXnXu.# @ @ O $ @ @ O O @ @ O @ $ % # 4 > # : $ ; 6 % o X O & $ + $ O o o O + X . . o ; 1 g k h j j L Q Q ^ q o O $ t.lXMXCXCX",
"CXCXxX}.& @ O O O O O O o O @ @ @ % : - > : # : , 7 7 4 O X O & * @ @ O o O O $ o X X @ > t K ! ) ) ) ` ` ` R : X o 5 p.dXkXcXcX",
"CXCXkX}., @ @ O o O O O X O @ @ @ : : : : > # , , u 7 6 @ O o @ : @ O @ O @ O & @ O O : 0 G ! _ X...1.;.] U g - X * C =XnXkXcXmX",
"CXCXBX-Xi @ O O O O O O O O O O O # : : ; 4 > 7 7 w 0 w 7 4 3 $ 7 @ @ @ % % # , , # - 1 y K ! } 1.3.3.3.1...` u & n u.dXZXvXBXBX",
"VXMXVXtXC @ O O O O O O O O @ O + # 4 4 > > 7 4 q 0 w a a r 9 , 9 , : # 4 4 q 1 q < 2 t G I _ ..2.3.3.3.3.3.6._ ~ u.uXCXZXVXZXZX",
"MXMXMXhXt.& O o O O O O $ O @ O O # > 9 > ; 1 1 9 0 r e v g r 7 8 4 9 7 7 7 1 7 < < y D I / ] 2.6.3.a.6.3.g.j.<.r.9XCXZXZXVXZXZX",
"CXVXVXcXi.* @ O O O O O @ @ @ # @ # > 8 > > 0 9 0 a a v ~ b a e r r d a 2 e 2 e < e H I / _ ;.3.6.g.g.g.d.j.k.k.`.sXZXAXZXVXZXZX",
"ZXZXZXmXoX* @ O O @ O O # $ @ % : > 7 u 7 7 0 g e a f b ^ V d k k k v k d d w y e l W _ ] ] >.g.h.l.j.j.h.f.f.d.#XkXmXmXBXbXVXCX",
"ZXZXZXBX3Xi @ @ @ O O O @ - # 4 1 7 8 a 0 0 a z f s d J ^ T c x c J b v c x h j G ! ` ] *.,.3.l.j.j.z.g.3.>.} ! %XbXcXvXmXbXMXMX",
"ZXZXZXBX6XN O @ O O O O @ # ; 7 9 8 8 0 r 0 r f f g k c v V c J J J c b L L L P ` .. ...,.g.h.V.V.G.j.1.} _ P { 7XMXvXvXmXbXMXCX",
"ZXZXCXCX6XA & @ # O o @ # ; > 1 9 8 r r a r e f g k x c J J J T b T c J K K ^ ' 1.3.2.l.b.V.V.V.G.j.| '  .<.,.z.8XCXCXMXCXMXCXCX",
"ZXZXZXCXVX-X, @ # O O @ # > > 1 7 r r g g s a h s k x x x x J T c T J T W W ..3.l.l.j.V.Z.G.V.G.l.=.| 1.g.d.k.'.wXVXMXMXVXMXCXCX",
"ZXZXZXCXCXpXA # @ @ @ # - ; 1 1 8 r s s k g h k k l k x x c R T J R R W ! )  .l.l.G.E.A.L.L.Z.j.5.>...g.g.d.Z.^.8XCXMXVXCXbXVXCX",
"CXCXCXZXCXBX5Xp @ @ # # ; ; 1 8 r k k h k x k l l b J J J G K K K K R W ! ` g.z.V.A.W.A.L.L.V.d.5.3.3.3.X.[ _.L.:XkXmXBXCXbXCXCX",
"nXvXcXCXCXBXlXt.# @ # - - 1 8 8 r s k l l D l l l D G K J W R R W W W W ! ` <.j.G.A.W.E.E.Z.V.j.g.;.[ x U X.`.!.(.>XjXvXmXbXMXVX",
"nXvXvXCXCXCXCX1Xp # # - ; < 2 8 a h k D D j D D D j H K Q W Q P P W W ! ! ' <.j.Z.A.^.W.L.L.Z.k.2./ t n _ j.U./.R.).>XjXkXkXMXMX",
"BXVXVXCXCXCXZXnXoX: - - ; 2 r g d l D D D D F F F F I Q ) ! ) ! W ! / ) ` | <.f.A.L.W.I.I.I.K.L.j.2._ ^ ;.A.~.T.R.R.).>XjXbXCXCX",
"CXCXCXVXMXMXCXMXdX{., > ; 8 r g k l G H I / &.8.D.8.7.7.;.| | } ` | | | =.>.g.b.Z.L.I.I.U.!.!.!.^.A.j.j.k.L.!.T.R.R.R.R.>XjXCXCX",
"CXCXCXVXMXMXCXMXMX6Xt.; < < r h x G K Q ] e.H.J.H.H.H.G.n.h.2.,.=.>.>.,.,.5.h.V.A.L.I.U.U.U.!.~.~.!.!.W.W.!.U.T.R.R.R.R.[.jXCXCX",
"ZXZXCXZXCXCXCXCXCXmX4XN < 2 t j l K I ] v.F.F.m.:.$.&.D.D.b.h.g.5.<.5.5.s.s.c.C.A.I.W.Y.U.~.~././././.~./.~.Y.U.T.R.R.R.:XkXZXZX",
"ZXZXZXCXCXVXCXMXMXVXjX{.2 2 r l G H Q :.F.e.0.q.9.&.&.&.h.b.l.h.h.5.5.h.j.x.C.C.A.I.I.U.!.U.T././.).).).)./.T.U.P.R./.].wXMXZXZX",
"ZXZXZXCXVXCXVXMXMXVXMX9XZ 2 t l x H I e.m.w.M.M.F.H.8.&.:.g.b.j.b.j.x.x.b.b.C.C.A.I.I.U.U.U./.T.T.)././.).)./.P.B.B.`.sXCXVXZXZX",
"ZXZXZXCXCXCXCXVXVXCXCXBXrXM 2 k l G I w.w.w.F.J.H.D.&.%.( 8.G.V.b.V.x.x.b.V.C.C.C.A.A.W.U.!.Y.T.R.T././.(.)./.U.B.B.].kXCXBXZXZX",
"ZXZXZXCXCXCXZXZXZXZXZXZXNX1XB y y D U e.w.9.w.H.m.9.&.Y Y 1.L.G.V.V.n.b.b.n.C.C.B.A.S.K.I.U.Y.Y.T.T.T.).).)./.Y.U.P.'.sXCXjXMXmX",
"ZXZXZXZXCXCXCXZXZXAXZXZXZXnXoXn t y F 9.w.9.w.F.w.F.%.%.%.%.D.V.b.V.V.b.x.N.V.N.C.Z.B.S.I.I.U.Y.T.!.(././././.T.P.P.^.qXCXjXvXmX",
"ZXZXZXCXCXCXZXZXZXAXZXZXZXCXxX,Xn t y &.q.9.9.w.M.v.9.0.:.$.&.b.V.b.x.x.b.x.V.N.N.B.A.A.I.I.U.U.Y.Y.~././.T.Y.Y.P.K.'.sXCXjXvXmX",
"ZXZXZXZXCXZXCXBXBXCXCXZXZXVXCXBX4XO.t U 9.q.9.w.v.0.0.M.M.c.n.S.c.x.j.x.x.x.b.b.N.M.C.Z.S.I.I.U.U.U.~.~.Y.Y.Y.P.Z.Z.>XBXBXBXZXZX",
"ZXZXZXCXCXCXBXmXcXVXCXCXCXVXMXVXCXpXi.U ] 0.q.0.m.v.M.S.J.J.J.J.c.5.x.s.c.f.b.x.N.C.C.C.S.S.Z.I.I.U.U.U.U.U.U.B.s.g.8XvXmXVXZXZX",
"ZXZXZXCXCXCXVXvXcXVXVXCXCXVXMXVXZXZXAX1X#.-.0.w.q.v.m.S.Q.Q.Q.J.6.-.4.5.6.s.f.f.N.N.n.C.A.C.S.S.S.I.I.I.I.I.P.s.4.].sXvXmXBXZXZX",
"CXBXCXZXZXZXCXmXmXBXBXVXCXZXCXZXCXCXZXNX6X#.=.4.v.M.M.H.J.Q.J.G.*.*.5.5.s.s.s.f.x.x.N.N.C.C.C.A.A.I.I.I.S.I.B.x.D.0XmXCXCXBXZXAX",
"nXcXcXZXCXZXCXcXmXmXvXcXBXZXZXZXVXVXMXAXxX%X .=.-.4.4.c.n.n.c.-.*.*.,.4.6.5.h.c.s.s.x.x.N.V.V.C.C.C.S.C.S.K.B.B.*XkXCXCXZXVXZXZX",
"mXcXcXZXZXZXCXcXvXmXvXvXBXZXZXZXMXMXVXZXZXfXr.=. .=.*.*.-.-.=.-.-.-.-.,.2.6.6.6.g.s.h.j.x.b.N.V.V.C.B.B.K.B.B.E.8XVXCXCXCXVXZXZX",
"BXmXBXZXCXCXBXVXBXCXMXVXCXZXZXZXCXVXVXZXCXfXr.=.=.=.=.=.=.=.,.,.,.-.>.-.>.2.2.5.5.5.5.h.h.c.j.f.b.b.N.N.N.k.k.'.sXZXCXCXCXVXAXAX",
"mXvXvXmXcXmXVXMXMXCXMXMXCXZXZXZXMXcXvXBXcX3X3.=.=. .=.=.=.>.3.3.,.>.=.=.=.=.,.,.,.,.4.5.g.a.s.f.f.f.f.f.f.k.k.*XvXCXCXCXCXBXZXZX",
"mXvXvXmXcXcXVXMXMXVXMXMXCXZXZXZXmXvXvXmXaX@X,.-.=.=.=.=.-.5.6.6.,.,.=.=.=.=. .=.;.>.,.5.5.a.a.a.a.s.s.d.f.k.`.>XBXCXCXCXCXBXZXZX",
"BXMXmXBXnXBXCXCXVXCXVXVXCXZXZXZXBXMXcXdX%X<.,.=.=.=.>.,.<.5.6.6.<.,.>. .| | ' | | X.+X7.<.<.<.<.<.a.a.a.j.].0XVXCXZXCXCXZXMXZXZX",
"VXMXVXZXZXZXNXvXvXmXvXcXmXMXMXMXVXMXcX6X_.<.,.,.,.,.,.,.<.<.6.3.<.<.,.>. .| | | } }.1X-X$X+X%X$X@X_.+X%X7XsXBXCXCXZXZXZXZXkXvXnX",
"VXMXMXZXZXZXCXvXvXmXvXvXVXMXVXMXjXmXtX+X<.5.5.a.4.5.5.<.3.3.g.5.3.6.3.<.3. .|  . .#.tXtX6XXXjXpXpX<X4XpXhXcXCXCXCXCXZXZXZXkXvXnX",
"CXVXVXZXZXZXCXvXmXBXmXmXBXVXVXVXCXVXMXVXvXmXCXCXCXCXmXvXBXmXmXBXCXCXCXAXZXZXCXvXmXMXmXmXBXmXmXmXCXCXCXVXmXvXCXCXCXZXZXZXZXvXmXmX"
};
