/* XPM */
static char *result[] = {
/* columns rows colors chars-per-pixel */
"64 64 245 2 ",
"   c #0D0100",
".  c #150101",
"X  c #1B0101",
"o  c #240101",
"O  c #2B0102",
"+  c #330102",
"@  c #3B0302",
"#  c #350B03",
"$  c #3D0B03",
"%  c #3B1708",
"&  c #430402",
"*  c #4B0502",
"=  c #440902",
"-  c #4C0B02",
";  c #540402",
":  c #5B0602",
">  c #530C02",
",  c #5B0D03",
"<  c #471706",
"1  c #4B1304",
"2  c #541203",
"3  c #5B1302",
"4  c #591A05",
"5  c #650C03",
"6  c #631502",
"7  c #6C1402",
"8  c #641C02",
"9  c #6A1C03",
"0  c #731502",
"q  c #731B02",
"w  c #7A1C01",
"e  c #542C0B",
"r  c #5B280B",
"t  c #652504",
"y  c #6B2203",
"u  c #732402",
"i  c #7B2202",
"p  c #762A03",
"a  c #7B2C02",
"s  c #702F0A",
"d  c #6A370A",
"f  c #7B3104",
"g  c #783A07",
"h  c #622D13",
"j  c #663D1B",
"k  c #563828",
"l  c #72441A",
"z  c #72481B",
"x  c #744C29",
"c  c #795636",
"v  c #7F6135",
"b  c #775943",
"n  c #7C6349",
"m  c #821D04",
"M  c #862603",
"N  c #832C03",
"B  c #843403",
"V  c #8C3402",
"C  c #833B03",
"Z  c #8C3C04",
"A  c #8E350B",
"S  c #893B0A",
"D  c #963C04",
"F  c #AD3906",
"G  c #C8380B",
"H  c #8D4303",
"J  c #8E4607",
"K  c #934402",
"L  c #9B4303",
"P  c #954A03",
"I  c #9A4B03",
"U  c #904A09",
"Y  c #9E5102",
"T  c #985209",
"R  c #834C1A",
"E  c #8B5717",
"W  c #965B19",
"Q  c #A24503",
"!  c #A54C02",
"~  c #AC4C02",
"^  c #AB4805",
"/  c #B44B02",
"(  c #B94B06",
")  c #A35503",
"_  c #A95705",
"`  c #AC5B04",
"'  c #B25402",
"]  c #BA5302",
"[  c #B35C02",
"{  c #BC5D02",
"}  c #B45708",
"|  c #AF5E11",
" . c #9B621C",
".. c #B86706",
"X. c #BC6404",
"o. c #B4660C",
"O. c #8A5A2B",
"+. c #805531",
"@. c #9E6E2F",
"#. c #9E743B",
"$. c #A9722F",
"%. c #C44705",
"&. c #C75606",
"*. c #C35D02",
"=. c #D2520B",
"-. c #C46502",
";. c #C36A02",
":. c #CB6C03",
">. c #C86909",
",. c #DA6707",
"<. c #D36E04",
"1. c #CD7205",
"2. c #C87607",
"3. c #CC7905",
"4. c #CC750A",
"5. c #D37505",
"6. c #D97306",
"7. c #D57A05",
"8. c #DA7D05",
"9. c #D47609",
"0. c #D57B09",
"q. c #DA7D0A",
"w. c #DB6D12",
"e. c #E86C09",
"r. c #E87709",
"t. c #F1760C",
"y. c #F27B0D",
"u. c #F3790F",
"i. c #977552",
"p. c #A37B46",
"a. c #D38204",
"s. c #DC8305",
"d. c #DD8C06",
"f. c #D5830C",
"g. c #DC830B",
"h. c #DD8A0B",
"j. c #DD8E0E",
"k. c #E28505",
"l. c #EB8207",
"z. c #E38B05",
"x. c #E88C03",
"c. c #E2850B",
"v. c #E38C0A",
"b. c #EA8C0C",
"n. c #F3830D",
"m. c #F38D0F",
"M. c #E39005",
"N. c #E99607",
"B. c #EC9B04",
"V. c #E5930C",
"C. c #EB940B",
"Z. c #EC9B0D",
"A. c #F3950D",
"S. c #F9910F",
"D. c #F39C0C",
"F. c #E68812",
"G. c #F58411",
"H. c #F48D11",
"J. c #F98811",
"K. c #E69311",
"L. c #EC9B10",
"P. c #F49412",
"I. c #F99512",
"U. c #F39D12",
"Y. c #F99A12",
"T. c #EBA305",
"R. c #EEA20B",
"E. c #F6A904",
"W. c #F5A30D",
"Q. c #F8A50D",
"!. c #F6AC0B",
"~. c #F9AC0E",
"^. c #FAB406",
"/. c #F9B807",
"(. c #FAB30D",
"). c #FBB90B",
"_. c #E6A31E",
"`. c #F3A311",
"'. c #F8A412",
"]. c #F7A911",
"[. c #F9AD11",
"{. c #FAB311",
"}. c #FABB13",
"|. c #CE8B27",
" X c #EA9831",
".X c #EFB132",
"XX c #FBC20F",
"oX c #FBC934",
"OX c #9F845A",
"+X c #BB8F4B",
"@X c #A88757",
"#X c #B6945A",
"$X c #9C8973",
"%X c #AD946F",
"&X c #B99866",
"*X c #BCA47C",
"=X c #D59849",
"-X c #DC9D4E",
";X c #CC935A",
":X c #EBAE51",
">X c #E18B65",
",X c #DCB66A",
"<X c #CAAF73",
"1X c #EBB970",
"2X c #F5C24B",
"3X c #E9CD7E",
"4X c #F9D070",
"5X c #B7A68A",
"6X c #CCBB8C",
"7X c #D9B986",
"8X c #C4B397",
"9X c #D1BC94",
"0X c #DBC08D",
"qX c #DBC797",
"wX c #F9DC8B",
"eX c #E5CA98",
"rX c #F0CE90",
"tX c #E8D69B",
"yX c #F6E093",
"uX c #D8CDA4",
"iX c #E8D6A5",
"pX c #F0D8A8",
"aX c #E7DCB8",
"sX c #FAE8A7",
"dX c #F3E4AC",
"fX c #EBE1B6",
"gX c #F9EBB6",
"hX c #F4EBBD",
"jX c #F8F0B7",
"kX c #FAF3BD",
"lX c #EDE8C7",
"zX c #F5EDC7",
"xX c #F6F3C3",
"cX c #F9F5C5",
"vX c #FEFBC7",
"bX c #F6F4CB",
"nX c #F9F6CB",
"mX c #FDFCCD",
"MX c #F1ECD2",
"NX c #F7F3D7",
"BX c #FAF6D2",
"VX c #FDFDD3",
"CX c #FEFDDB",
"ZX c #FFFFE3",
"AX c #FFFFE8",
/* pixels */
"ZXZXZXBXbXbXBXnXnXVXCXCXZXVXVXVXVXVXVXCXCXCXZXZXZXCXbXnXBXZXZXZXCXVXVXZXZXZXZXCXCXZXZXZXZXCXCXCXAXZXZXZXZXZXZXCXCXCXVXVXCXZXZXAX",
"ZXZXZXBXcXxXBXcXcXBXCXVXCXmXmXVXVXVXVXCXVXCXCXZXZXZXcXcXBXZXZXZXVXVXmXZXZXZXZXVXVXZXZXZXZXVXCXCXZXZXZXAXZXZXCXCXCXCXmXmXVXZXZXZX",
"CXCXCXnXkXkXcXkXkXnXVXVXVXvXvXvXmXvXvXVXVXVXCXCXCXBXkXkXkXzXzXxXgXkXvXCXCXCXVXVXVXCXVXCXCXVXVXVXCXCXCXCXCXCXVXVXVXVXvXvXVXCXCXZX",
"AXZXAXZXZXZXAXZXZXZXZXZXAXCXVXVXCXCXCXVXnXnXmXnXdXuX6X<X#X@Xp.#.i.*X9XiXaXhXBXVXCXVXBXnXCXnXmXBXZXCXZXZXZXCXCXVXVXZXCXCXZXZXZXAX",
"ZXZXZXZXZXZXAXZXZXZXZXZXZXmXVXmXCXVXCXnXjXrX&Xi.v l e $ $ = = = = 4 r l c n @XqXjXcXcXxXBXcXnXbXCXVXCXZXCXVXCXVXVXVXCXCXCXZXZXZX",
"ZXZXZXZXZXZXZXZXZXZXZXZXZXVXmXVXVXBXlX7X#.h 4 @ + + @ & @ O O @ & = = = & & = h @.<XtXgXnXcXcXnXCXCXCXCXCXCXVXVXmXCXVXVXCXZXZXZX",
"CXCXCXCXCXCXCXCXNXCXCXVXCXxXdXeXqX*XO.4 + $ @ @ + @ + + @ + + + @ + @ $ $ @ + @ & 2 z @XqXcXVXCXCXCXVXZXZXZXCXVXVXCXCXCXCXZXZXZX",
"VXmXVXmXxXcXBXxXcXBXmXvXtX#Xv l e < O O O + + + O o X X o o o o o o o + @ @ + O @ @ * 4 R #XrXnXVXmXVXZXZXZXBXcXcXBXmXVXVXCXCXCX",
"VXmXVXbXcXcXnXcXxXmXjX<Xl - @ + O o + + @ + + O O o O o o o o o o X X o + + O o o + + $ - h E ,XjXvXmXZXZXZXVXnXcXVXmXmXVXCXVXCX",
"CXCXCXCXVXBXCXnXcXiX%Xr & @ + o o + + @ + O O X o o o O O o o O O O o X O + + o o o o @ @ @ & d &XjXVXCXCXNXZXNXVXCXVXBXCXVXCXCX",
"ZXZXZXCXVXCXVXdX&Xx % + O O o o X o O o X X o X X X X o O o o O O o o o X o O o X X o O + + @ @ d +XdXcXbXcXCXZXZXCXbXcXnXcXcXbX",
"ZXZXZXZXCXVXxX#X< O o X X . X o o o o X X . X X X o o O @ @ @ O O O o o X . X o o X o O O O O + $ t @.tXxXnXCXZXZXCXcXcXnXcXcXcX",
"ZXZXZXZXCXgX6Xd @ O o X . X o o o o o o X o X X o o o O + $ & + O O o O X . . o O o o O O o o O + @ 2 #.sXmXVXZXZXZXnXmXVXnXnXVX",
"VXVXVXZXBX1Xx @ o o X X X X X X X X o o o X X X X o o o o @ = + O O o O o o X O @ @ O O O O O + + @ = r *XcXVXVXmXVXVXmXCXVXVXVX",
"VXmXmXZXdX$.< o X . X . X . . . X . X X . . . X X X X X o O @ + O O O O O O O = - * + O O + @ & @ @ & * l ,XvXmXmXVXmXVXVXmXmXVX",
"VXVXVXgX&Xj + o X .     . X X X X X X X X . X X X X X X X O O + # @ @ # + + @ 3 9 4 & O O * , 5 s 1 @ @ & W tXmXVXCXmXVXCXVXVXVX",
"ZXZXNX=Xd + X X . .   . . X X X X X X X X X X X X X o o o O O O # + @ $ $ @ > y u 6 & & 3 p A S S 6 * * + d 0XcXmXVXCXCXCXZXZXAX",
"ZXZXhX .1 O X .     .   . . . . X . X . . X X . X o o X o O + O o o O # $ - 4 y 9 4 u B I _ | _ I A y 8 + O.gXcXnXBXCXCXCXZXZXZX",
"ZXCXdXW + X           . . . . . . . . . . X X X X o o o O O + O o o o o $ 1 8 9 q J T ` >.4.4.>.X...| B * R zXcXcXBXCXCXCXZXZXZX",
"CXmXiXE O .     .   . X X X X X . X .   . . X o o O O O O + @ @ @ @ + X O & 3 9 S | | 4.4.q.g.f.f.f.4.! V  .hXnXnXZXZXAXAXCXCXCX",
"nXtXqXR O X . . . . X X X X . X o o o X . . X o O O + O O @ @ = - 2 1 O O @ ; u Z ) o.4.f.c.K.V.F.F.V.h.3.|.cXcXxXCXZXZXZXmXVXVX",
"mXtX@.s O X X . . . . X . X . . X o + O o X X o O + @ @ @ = @ - 2 2 2 - @ & ; q V ! ..4.f.j.v.K.K.K.K.L.T._.sXvXcXCXZXZXZXmXmXVX",
"BXqX .r X   .     . . . . X X X . X O + O o o o O @ @ = & 1 - - > * - , 3 > 5 w D ! X.4.g.h.j.N.V.K.Z.R.T.T.,XkXBXZXZXZXZXCXCXCX",
"nXeXO.< .       . . X X . X o X X o X O + O O O O @ = > - = 2 - > - * 3 9 6 q a D ' { 9.h.j.V.K.K.K.N.B.d.3.=XkXCXZXZXZXZXCXCXCX",
"xX7Xx @ . . . . X . X . . . X X X X X o + @ @ + O @ = > 2 > 2 2 > 4 3 8 9 7 i V L ' X.5.g.V.V.K.Z.M.d.3.[ ! =XxXVXZXZXZXZXCXCXCX",
"BX&Xt + . . . . . X X . . . X X o o o X o @ = $ @ @ - * 3 2 > > , t 8 9 q 7 7 V ! [ -.5.f.V.Z.Z.Z.d.X...X...:XkXVXZXZXZXAXCXCXCX",
"zXO.- o   . o . X X X X . . X X O + O o o + - - & = - > 2 t > > 6 8 9 6 q 7 7 V ~ { :.7.g.V.L.`.K.2...d.M.M._.yXcXVXZXCXCXnXcXbX",
"aXg @ o . X o . . . X . . X X X o + O + + @ = > 2 3 8 9 6 u y t p y u u q w w L ' { ;.7.v.C.`.Z.7.X.a.Z.V.T.!.2XdXVXZXZXZXcXcXbX",
"lXd O o X X o . . . X X X X o o o O O + @ & * > 3 y p p y p a f C C C B N N L ` X.;.8.c.v.Z.Z.V.;.1.v.C.V.N.R.(.4XnXZXZXZXnXBXVX",
"lXl O X X . . . . . . o o o O O + + @ @ & * * > 6 p C f a a C C H U K Z K L [ 2.0.f.v.Z.Z.Z.Z.d.a.h.V.d.4._ h./.}.oXsXmXZXZXZXZX",
"cXOXO X X X . . X X . X o o O O + + @ & - * - 3 9 f J U C f Z H P P T P I ` 2.h.V.C.`.`.`.R.Z.d.v.C.h.>.D o.W.).).).XX4XsXBXZXZX",
"VX6X< X   .     . . X o o O O O @ @ @ & * * > 3 y p U T H H U H T P P Y ) o.f.L.Z.`.Q.].`.`.Z.Z.Z.C.o.B N ..R.(.).)./.XXoXwXCXZX",
"AXaXb o   . . . . X X o o o O O @ & @ & - > 3 6 y p C H Z H K H P P P Y ` ..d.L.L.'.[.[.].].!.`.`.V.h.3.3.M.`.(.(.^././.XXXXsXmX",
"CXNX&X- . . . . . . X o o o o O + @ * * > > t t 9 p f B Z H K K K I Y ) ....a.K.`.`.[.[.[.[.].`.`.!.W.R.Z.R.].{.(.(.^./././.sXVX",
"NXZXMX+.o . . . . . X O o o O O O & - 2 > 3 8 y y u B B C B K I K I Y _ ` o.2.j.L.`.[.[.[.[.{.{.{.[.[.[.'.[.{.{.{.(.(.).~.:XkXmX",
"ZXAXNX&X# . . .   . X X o O O + + * - 3 3 6 3 y y u a B B V K P P I Y _ ` o.2.a.V.`.].[.[.[.{.{.{.{.{.}.}.}.}.}.(.!.E.E. XyXVXCX",
"ZXZXNXqXd X . .   X X X o O O + @ * > 3 2 6 9 y q i a C Z K I Y I Y ) ` ` ..3.a.z.Z.].[.[.(.{.(.{.{.{.}.}.}.}.XX).Q.B.T.2XnXCXCX",
"ZXZXZXzXp.% . .   . X X X o O + & - > , 3 9 7 q q i N V K I ) ) ` ) _ ......a.a.d.Z.W.Q.].~.{.(.{.{.{.}.}.}.}.XX}.E.^.E.oXgXCXCX",
"NXCXCXCX9Xh o .   . X X X X O + @ - > , 6 7 9 q w i i N K L [ [ ..[ [ X.2.3.a.a.z.Z.Z.W.Q.Q.~.~.{.{.{.(.{.{.}.}.}.^.^.^.(.wXVXCX",
"nXcXbXCXaXp.% o X . X o X X o + & & * 3 6 7 q i w w w M L } ..>.:.1.:.3.3.f.a.d.b.N.B.R.W.Q.~.Q.[.[.(.(.{.{.(.).(.^.E.^.^.4XvXVX",
"nXcXcXCXVXeXz O X X X o X . o O @ & * , 6 7 7 q 0 m D >.F.F.F.c.f.g.q.5.7.s.f.z.v.C.N.D.D.W.Q.Q.~.[.~.~.[.(.^.).(.E.E.E.E.4XnXVX",
"NXVXVXCXCXBX+Xd X X X o X X o + + & * , 7 7 q q M >.I.Y.F.G.m.K.F.c.g.q.8.8.k.v.b.C.N.D.W.D.Q.Q.Q.[.[.[.~.~.~.~.^.E.E.E.:XgXCXCX",
"CXVXCXVXmXmXiX#.# X . X X X O O @ & * , 7 0 0 m } I.I.u.%.F w.r.g.c.c.g.g.g.s.z.v.C.A.D.D.D.D.Q.Q.Q.[.Q.~.~.~.~.D.N.B.1XgXCXCXCX",
"CXCXVXVXvXmXVX<Xj O X X . X O + @ & - , 3 7 0 D u.J.G.G.u.F.w.w.6.q.K.F.h.c.s.z.b.b.C.C.A.D.D.D.D.W.'.'.Q.Q.!.Q.B. X3XgXBXCXVXCX",
"ZXZXZXCXCXVXCXhX+Xj o X . X o O + & * ; , 7 w ^ J.u.S.Y.I.Y.,.6.( >.Y.U.v.c.s.k.c.z.b.C.C.C.C.A.D.D.D.Q.W.Q.Q.E. XpXnXmXCXZXCXZX",
"ZXCXZXZXCXVXCXnXtX6Xx o X X o O + @ & ; : 7 w } u.J.S.Y.Y.S.6.6.=.F F.D.P.b.r.8.8.k.c.b.b.C.C.C.A.B.D.D.W.W.Q.B.rXCXVXVXVXZXZXZX",
"ZXZXZXCXCXVXVXVXVXxXuXc o . X o O + @ ; : 7 0 F y.J.n.S.Y.m.n.,.%.G G &.m.b.8.8.8.8.c.c.k.b.z.x.x.B.C.A.D.D.W.r.eXCXmXmXCXZXZXZX",
"ZXZXZXCXCXCXCXVXVXVXVXqXn % o X o O @ & , 7 7 N w.u.y.y.J.S.S.r.e.,.,.,.m.b.,.6.6.6.8.8.s.k.k.z.b.b.x.A.A.D.Z.:.>XBXVXVXCXZXZXAX",
"ZXZXZXZXVXCXZXZXZXZXZXCXlX5Xn o X O + & ; 7 0 0 ( e.u.e.t.n.S.t.r.P.Y.Y.Y.I.&.&.<.5.6.8.8.8.k.s.d.z.C.b.C.N.N.>.G gXCXCXCXbXnXnX",
"ZXZXZXCXCXCXZXZXZXAXZXZXAXBXfX$X% o + @ ; , 0 5 m =.e.u.t.t.n.y.n.H.Y.'.'.Y.&./ *.<.5.5.8.8.8.8.s.s.b.z.C.V.C.r.G >XnXNXCXcXcXnX",
"ZXZXZXZXCXCXAXZXZXAXZXZXAXCXVXVX8Xk O @ & * : 5 0 M ( w.t.e.e.y.y.n.H.Y.Y.b.&./ *.:.5.5.5.7.0.q.8.s.d.v.b.z.M.b.=.=.1XMXCXkXnXnX",
"ZXZXZXZXCXZXCXBXBXCXCXZXZXVXCXCXZX8Xb O @ & * : 5 0 V ( &.,.t.r.y.y.y.n.r.6.>.*.*.:.:.5.5.5.7.7.8.s.s.c.v.v.v.z.l.,.=.rXBXZXZXAX",
"ZXZXZXCXCXCXBXcXcXBXVXCXCXmXmXVXZXNXaXi.# + & ; 5 5 V Q / / %.&.&.&.&.&.,.0.9.<.:.:.:.5.1.5.5.5.0.f.q.k.c.v.v.z.l.r.e. XBXZXZXZX",
"BXCXZXCXCXVXBXcXcXVXCXCXCXVXVXVXZXZXAXMX%X% & ; 5 m V ! ~ ~ / / ( ( &.&.9.g.q.0.5.<.:.1.9.1.4.7.0.8.8.q.q.h.v.z.x.t.t.-XnXZXZXZX",
"CXBXBXZXZXZXCXnXbXBXBXVXCXZXCXZXCXCXCXAXZX5X4 7 M V D Q ~ ~ / / ] ] -.5.q.f.g.q.9.9.5.1.9.1.3.5.9.6.q.8.k.c.h.z.x.x.k.rXCXAXAXAX",
"bXcXbXZXZXZXCXxXcXBXcXxXBXZXZXZXVXVXnXAXAXMX5XA D L Q ~ ~ ~ ' ] *.:.<.5.q.q.g.q.7.1.5.1.:.5.1.5.5.5.5.8.8.s.z.z.k.z.:XnXCXZXZXZX",
"xXcXcXZXZXZXCXcXcXmXcXcXVXZXZXZXVXVXmXZXZXCXuXx L ! ~ ~ / ' { -.-.:.<.9.0.0.q.9.5.<.:.:.:.1.:.:.:.1.5.7.8.s.s.d.k.:XcXVXCXZXZXZX",
"BXnXnXBXNXCXCXVXbXBXBXVXCXZXZXZXVXVXVXZXZXlX$Xf ) ^ D ^ ' *.-.>.:.:.5.5.0.q.7.5.:.:.:.:.;.-.-.-.;.:.<.5.5.8.s.z.K.dXZXCXZXAXAXAX",
"nXcXcXbXcXcXVXmXmXVXmXmXCXZXZXZXbXcXcXxXhXuXr K } ' ^ ^ ( } ] ] *.<.<.6.8.8.q.9.5.4.{ X.-.{ { *.X.;.;.:.:.7.s.x..XNXCXVXCXZXZXZX",
"nXcXjXnXxXxXVXVXmXVXVXmXVXZXZXZXbXxXxXlXxX@X8 I [ X.;.:.9.9.9.9.>.>.-.:.<.5.5.5.0.5.5.] ' [ | $.o.X.;.X.;.3.s.V.rXCXCXCXZXZXZXZX",
"BXnXnXBXbXnXVXVXVXVXVXVXCXZXZXZXBXnXbXbXzX@X6 ) ;.1.1.7.7.8.s.s.v.s.s.s.q.8.8.7.7.0.7.5.{ ..;XuXeX0X7X7X=Xf.|.1XnXZXCXCXZXZXZXZX",
"mXvXvXCXCXNXNXxXxXxXkXxXxXkXmXnXmXvXmXxXzXeXx [ 1.7.7.s.d.d.z.M.M.M.M.v.M.z.z.s.a.7.7.7.7.3.,XkXVXBXBXnXdXwXyXmXBXCXCXCXCXkXkXbX",
"VXmXVXZXAXZXVXcXcXnXcXcXBXmXmXmXVXmXmXBXcXnXVXVXCXCXxXcXnXnXcXnXCXVXCXZXZXZXVXcXcXnXnXcXnXcXcXnXCXCXCXnXcXcXVXCXVXZXZXZXZXcXcXbX",
"VXVXVXZXZXAXCXbXnXBXnXnXVXVXVXVXVXVXVXVXnXnXCXCXCXVXnXcXBXnXnXBXCXCXCXZXZXAXCXnXnXnXmXnXnXnXnXBXCXCXCXVXbXnXCXCXCXZXZXZXZXnXnXnX"
};
