/* XPM */
static char *result[] = {
/* columns rows colors chars-per-pixel */
"64 64 233 2 ",
"   c #0D0000",
".  c #140001",
"X  c #1C0101",
"o  c #240102",
"O  c #2C0302",
"+  c #240804",
"@  c #2D0A02",
"#  c #320402",
"$  c #3B0502",
"%  c #330B02",
"&  c #3B0C02",
"*  c #351103",
"=  c #3C1303",
"-  c #3F1903",
";  c #430401",
":  c #490403",
">  c #440B02",
",  c #4B0C02",
"<  c #530C02",
"1  c #431303",
"2  c #4B1303",
"3  c #441B02",
"4  c #4C1A02",
"5  c #521302",
"6  c #5B1603",
"7  c #531C03",
"8  c #5C1D02",
"9  c #611504",
"0  c #631B03",
"q  c #6A1C02",
"w  c #721D04",
"e  c #4D2104",
"r  c #542203",
"t  c #5B2403",
"y  c #5D2A02",
"u  c #5E2B0F",
"i  c #632303",
"p  c #6B2403",
"a  c #622D03",
"s  c #6B2B02",
"d  c #732503",
"f  c #742B02",
"g  c #7C2B02",
"h  c #673507",
"j  c #6B3403",
"k  c #7C3303",
"l  c #763805",
"z  c #6C3B17",
"x  c #774509",
"c  c #6F4510",
"v  c #784914",
"b  c #7D5417",
"n  c #7B542C",
"m  c #822D02",
"M  c #9D2604",
"N  c #843303",
"B  c #8B3402",
"V  c #833B03",
"C  c #8C3B03",
"Z  c #953403",
"A  c #943B02",
"S  c #9C3D03",
"D  c #A62A03",
"F  c #A53602",
"G  c #B33C02",
"H  c #834707",
"J  c #8B4304",
"K  c #944303",
"L  c #9B4302",
"P  c #944B05",
"I  c #9D4B04",
"U  c #9A4E09",
"Y  c #9E5105",
"T  c #854E12",
"R  c #855313",
"E  c #845918",
"W  c #9E5213",
"Q  c #A34502",
"!  c #AA4401",
"~  c #A34C03",
"^  c #AA4D02",
"/  c #B74704",
"(  c #B54A03",
")  c #A45405",
"_  c #AB5403",
"`  c #A65A06",
"'  c #AC5B05",
"]  c #A45508",
"[  c #A85708",
"{  c #AA5A09",
"}  c #B35402",
"|  c #BB5404",
" . c #B35C04",
".. c #BA5D03",
"X. c #B85108",
"o. c #B35E08",
"O. c #97641F",
"+. c #AF6304",
"@. c #AE6309",
"#. c #B56305",
"$. c #BC6403",
"%. c #B66B04",
"&. c #BD6A05",
"*. c #B56209",
"=. c #B96509",
"-. c #B66C0B",
";. c #BD6B08",
":. c #BC7406",
">. c #BD730A",
",. c #BC751C",
"<. c #8C5827",
"1. c #855C34",
"2. c #A35A24",
"3. c #926B36",
"4. c #AA702F",
"5. c #A77739",
"6. c #C34903",
"7. c #C15403",
"8. c #C65904",
"9. c #C26503",
"0. c #C36C04",
"q. c #CB6E05",
"w. c #C96608",
"e. c #C26D09",
"r. c #D66906",
"t. c #C57304",
"y. c #CA7404",
"u. c #C67A04",
"i. c #CC7B04",
"p. c #C4740A",
"a. c #CA740A",
"s. c #C67A0B",
"d. c #CC7C0A",
"f. c #D57805",
"g. c #D17C04",
"h. c #D17D0B",
"j. c #C57815",
"k. c #D47F1A",
"l. c #C6782B",
"z. c #D0783A",
"x. c #876745",
"c. c #976743",
"v. c #97724A",
"b. c #967756",
"n. c #9C7C51",
"m. c #A96F42",
"M. c #CD8105",
"N. c #CC820A",
"B. c #CB8509",
"V. c #D38403",
"C. c #D98904",
"Z. c #D4830B",
"A. c #D6890C",
"S. c #DA8C0C",
"D. c #DA9409",
"F. c #DE930C",
"G. c #D78B10",
"H. c #E28607",
"J. c #E49607",
"K. c #E29C05",
"L. c #E1950C",
"P. c #E39B0D",
"I. c #E08F10",
"U. c #E29610",
"Y. c #E69C11",
"T. c #E3A206",
"R. c #E5A409",
"E. c #E8A40D",
"W. c #EAAB09",
"Q. c #EAA412",
"!. c #E7A916",
"~. c #CF8632",
"^. c #E0893D",
"/. c #E7A23C",
"(. c #A98957",
"). c #B59258",
"_. c #AD9163",
"`. c #B59667",
"'. c #AF9773",
"]. c #B99B74",
"[. c #BDA26E",
"{. c #D2954E",
"}. c #E59745",
"|. c #DFA74D",
" X c #EBB14D",
".X c #D19E67",
"XX c #C8A268",
"oX c #C5AB7E",
"OX c #D3AE73",
"+X c #EBB766",
"@X c #ECC677",
"#X c #CEAD86",
"$X c #CBB78D",
"%X c #CDBC95",
"&X c #E2B980",
"*X c #E1BD93",
"=X c #DCC78D",
"-X c #D7C798",
";X c #E5C788",
":X c #E3C698",
">X c #EDD291",
",X c #F3D290",
"<X c #D4C5A3",
"1X c #DBCBA5",
"2X c #D7CAAE",
"3X c #DDD2AA",
"4X c #E7D9A9",
"5X c #F2D8A2",
"6X c #E5DCB4",
"7X c #EADEB4",
"8X c #E7DBB8",
"9X c #EEE2AA",
"0X c #F5E3AA",
"qX c #EBE3B4",
"wX c #EBE4BC",
"eX c #F5E9B4",
"rX c #F2EDBD",
"tX c #F9F2BE",
"yX c #EBE4C3",
"uX c #EFEACA",
"iX c #F3EBC4",
"pX c #F2ECCC",
"aX c #F7F5C4",
"sX c #F9F6C5",
"dX c #F6F4CB",
"fX c #F9F6CB",
"gX c #FDFDCE",
"hX c #F7F3D3",
"jX c #FAF6D2",
"kX c #FDFDD3",
"lX c #FEFEDB",
"zX c #FFFFE3",
"xX c #FFFFE8",
/* pixels */
"zXzXzXjXfXfXjXfXfXjXlXlXlXkXkXkXlXgXkXlXlXlXzXzXzXuX3X-X-X[.].-X6XqX6XyXuXxXzXlXlXzXzXzXxXlXlXlXxXzXzXzXzXzXzXlXlXlXkXkXlXzXzXzX",
"zXzXzXjXsXaXjXsXsXjXlXlXlXkXgXkXgXgXgXlXlXlXjXiX4X(.R v l x b R 3.3.O.3.(.%XyXkXlXlXzXzXzXkXlXlXzXzXzXxXzXzXzXlXlXlXgXgXkXzXzXzX",
"zXzXzXjXaXsXjXaXsXjXlXlXlXgXgXkXlXgXgXlXlXqX`.v.<.x j y a a r r y y y h h c (.=XqXlXzXlXzXlXlXlXzXzXzXxXzXzXlXlXlXlXgXgXlXzXzXzX",
"xXzXzXxXzXzXzXzXzXzXzXzXzXlXkXkXlXlXlXyX=X5.x j j a r e 3 1 1 7 e e 3 4 = - e b 5.-XdXsXlXdXgXjXlXzXlXzXlXlXlXlXlXlXlXlXlXxXzXzX",
"zXzXzXzXzXzXzXzXzXxXzXzXzXkXgXkXlXkXqX).x x a a r 4 1 1 & # # $ & 1 3 1 & & # 3 h E oX9XaXsXsXfXlXlXlXlXlXlXlXgXgXlXlXkXlXzXzXzX",
"zXzXzXzXzXzXzXzXlXxXzXzXzXgXkXgXpX6X_.x a r r r 4 3 3 3 & # % & & * & & & 1 & = r t x 5.OX9XaXdXlXlXlXlXlXlXlXgXgXlXkXlXzXzXzXzX",
"lXlXlXlXlXlXlXlXlXlXlXlXlXkXfX6X#Xb.c a 4 1 r r 4 r r 3 & = 3 = = = & = & = & > & & r a b (.6XhXlXlXlXzXlXzXlXjXjXlXlXlXlXzXzXzX",
"kXgXkXgXaXsXhXaXaXhXgXgXlXsXaX$X1.j y 4 1 4 4 4 3 e e * = 3 3 = & = & = * & = = @ # = 7 r h b.3XdXgXgXzXzXzXlXaXsXgXgXgXlXlXlXlX",
"kXgXkXfXaXsXfXaXaXkXgXgXkXsX3X3.a y r 4 1 % # % * = % = 3 3 3 = 3 - = - & % = % O O # 3 t y a c (.1XaXzXzXxXlXaXsXjXgXgXkXlXkXlX",
"lXlXlXlXkXjXlXgXjXkXlXlXlXjX=Xb 4 7 7 1 # o O @ # # # = 3 * = - - = & O O o O O O o # > r 7 t y a b [.pXlXlXlXhXkXlXkXjXlXlXkXlX",
"zXzXzXlXlXlXlXgXkXlXzXzXzXqXb.r 1 2 1 # O # * = % O O # O O % = - = @ O O @ @ @ O o # = 1 3 r r y y T XXqXaXlXxXzXlXaXsXgXsXaXfX",
"zXzXzXlXlXlXlXgXgXlXzXzXhX_.r 1 1 & @ o O % - 3 - % o o o o o o @ @ @ % % & @ # O o # - - & 1 4 7 r h O.OXaXlXzXzXlXfXaXfXsXsXsX",
"zXzXzXzXlXlXlXlXkXzXzXzX$Xh 4 2 1 O o X o @ = 3 - @ o o o X + o o o * * * @ @ @ O o O 3 * O & 3 4 2 r x [.aXlXzXzXlXfXgXjXgXfXjX",
"lXgXgXzXzXlXzXkXjXlXzXyXx.8 7 1 O o o X o @ * * * @ @ O o o o o X X X X o o o O o O # % O O & & 2 1 4 y (.qXjXkXgXlXkXkXlXgXgXlX",
"kXgXgXzXzXzXlXgXgXlXhX'.u 7 1 # o X X o o O @ o @ % @ @ o X o + @ @ + @ @ o o o o o o o o # % & 1 2 2 t 1.3XgXgXgXlXgXgXkXgXgXkX",
"kXkXgXzXzXzXzXkXkXlX8X1.7 2 # o X . X X o o o X X O O X X X o O % @ % * % O o o O o O O O O # $ & $ 2 t x -XkXgXgXlXgXgXlXgXgXlX",
"zXzXzXjXfXfXlXlXlXlX%Xh 2 $ O X . X X o X o X . X o . . X o o o o + O % & # O # # O O # O O @ & & 1 > 7 h <XjXgXdXkXlXlXlXzXzXxX",
"zXzXzXjXsXsXlXlXlXdX_.7 , O o . . X o X X X X . X X . X X X o X X o + @ @ @ O O o o O O O o # & = $ $ 4 l <XkXdXfXjXlXlXlXzXzXzX",
"zXzXzXjXaXaXlXkXlXpXb.2 & O X X X o X X . . . . . . . . . . .       X @ o o O o o O o o o O # & & $ > 7 v 3XlXsXaXjXlXlXzXzXzXzX",
"lXlXlXzXxXzXzXjXjXyXx., $ O X X o X . . . . . . . X . . . . .       . . o o o o O O O O # # $ $ > 2 5 7 x.8XlXjXjXlXzXxXzXlXlXlX",
"kXgXkXzXzXzXjXaXaX7Xn , > O o o o X . . . . . . . . .       .   . . . X @ & # O # # # > 2 4 , 2 2 7 8 7 b.yXhXsXsXjXzXzXzXgXgXkX",
"kXgXgXzXzXlXlXsXaXwXx.1 > O O O o X . . X X X X . . .   . . .     . . o # > 2 2 2 , , 6 a s i 5 7 8 8 8 b.yXlXaXsXlXzXzXzXgXgXlX",
"lXlXlXlXzXzXhXjXdX8Xn > > O # # o X X o o # o o . .     .     . . . X o # > 7 t 8 8 8 k J J k q 8 i 8 t v.yXzXhXkXzXzXxXzXlXlXlX",
"lXlXlXlXlXlXkXsXgX6Xv : > $ $ $ $ & 2 7 7 , > O .             . . . o # $ 5 i i p f k I Y ] K f p i i s 3.8XlXlXlXzXzXlXzXlXlXlX",
"lXlXlXlXlXlXkXsXfX6Xx ; > > $ 7 t j l J H V s % .           . . X o O $ : 6 q d k C I ' ' ' ] C g i t s <.3XlXlXlXlXzXzXzXlXkXlX",
"lXlXzXlXkXlXlXjXjXyX1., ; , , i f J U P P k 2 X . .   . . . . X o O O ; < 9 d N L ~ o.*.*.=. .~ K f 0 s T 1XlXjXjXxXzXzXzXlXlXlX",
"lXlXlXgXsXaXlXzXzXuXn.5 ; , 2 i l P P V p 2 # O X . . . X X X o O # $ < p N L ~ _  .=.=.=.=.#.' ) C p f T 1XjXgXsXlXzXzXzXsXaXdX",
"lXlXlXfXaXaXzXzXzXjX'.t , ; 5 s H U U C V k k 0 $ X X X X o o # $ : 9 k K ~ [ o.#.$.%.&.;.;.%.=.' P f k T 1XjXsXsXlXzXzXzXsXsXdX",
"lXlXlXkXgXdXzXzXzXlX$Xa < , , p J I ] Y Y I I J f 6 , $ $ ; : : 6 d C I [ o.o.=.;.;.;.;.;.p.p.%.#.) V k <.8XlXfXdXlXxXxXxXjXjXkX",
"kXkXkXkXkXgXzXzXzXzX$Xz 6 , 2 s J Y ] ` ) ] ) ) W K N p 9 9 9 d N L ) o. .=.=.;.;.;.;.p.s.a.s.p.%.#.Y V v.qXjXsXaXlXlXzXzXzXzXxX",
"kXgXgXkXgXgXlXzXzXlX-Xn 8 6 6 f J Y ` ` [ [ ) [ [ ] U A C C C S Q [ o.*.*.;.;.;.e.p.p.s.j.d.N.s.s.t.%.J 4.;X,XeXaXlXzXzXzXzXzXzX",
"kXkXkXlXgXkXzXzXzXlX=Xx i 8 s k P ) ` ` ` ) [ { { { [ ) ~ ~ ~ ] ) o. .*.*.=.=.;.*.o.o.' #.=.>.s.N.M.:.P %.D.E.+XaXlXzXxXzXzXzXxX",
"zXzXxXjXdXdXzXxXzXzX9Xn.i p x J Y { @.{ { { [ [ { ` [ [ ] ) ~ _ _ o. .o.o.} ) Q A m g N C K ) +.s.B.>.` f.f.8.}.sXjXfXfXjXkXkXlX",
"zXzXzXjXsXaXlXzXzXlXtX).j s P @.@.-.@.] K J A P P L I I I ~ ^ _ _ _  ._ ~ Q A m w q g C I ~ ) ) :.A.:.&.f.r.6.z.tXjXsXsXgXgXgXgX",
"zXzXzXjXfXaXlXzXzXdXOXs.C f P -.-.@.P m d w q 9 q w g B A S ^ ^ } _ } ^ Q L Z m d d f N K ) #.;.B.D.u.e.f.J.6.^.tXkXsXsXgXkXgXkX",
"zXzXxXlXlXlXzXzXzX4Xi.y._ k P -.>.` C V C V k d p w g N A A ~ _ _ } ^ ^ ^ L B q > o o 4 0 N ~ t.N.S.i.( r.k.8. XgXlXlXgXlXlXlXlX",
"zXzXzXzXlXlXlXzXzX*X6.7...~ K -.>.` Y Y P V p 7 2 4 q N K I ~ _ } } } } ^ S w >     + v H d L e.G.G.d./ 6.r.r.,XgXkXgXgXlXlXlXlX",
"zXzXzXlXlXlXzXzXhX#XG | 9...) %.>.-.@.Y k 5 * .   + a f B I _  ...=.e.e. .Q w 6 & + e U ~ ' ;.N.G.U.S.g.r.r.}.sXgXlXgXkXkXlXkXlX",
"lXlXlXlXlXlXzXzXlX#XG 8.w...^ =.p.>.#.A 6 6 t + . = l g C ^ ' $.;.a.h.d.e.o.Q S A A L ^ ..s.Z.S.P.F.D.C.H.H.,XfXlXlXgXjXlXlXlXlX",
"dXsXaXlXlXlXzXzXzX:X/ 8.w.! F ..j.p.=.) U C m q 0 p N Z L ) ..&.y.d.A.G.d.a...^ F ^ ( ..e.d.A.F.D.!.D.D.J./.eXgXgXkXaXaXgXgXgXkX",
"dXsXsXlXlXlXzXlXzXiX{./ 8.G / $.p.s.p.;.#.' _ Q L S S Q ) ..$.0.i.Z.S.S.S.Z.d.p.......9.y.A.L.P.K.T.D.W.Q.@XgXgXkXkXaXaXfXgXgXkX",
"jXkXjXlXlXlXzXlXlXlX:Xl.8./ 7.9.s.s.p.t.;.$. .} ( ^ ( } ..;.t.y.d.A.I.L.F.S.A.Z.Z.Z.Z.A.F.P.P.P.T.T.W.W. XeXlXkXkXlXfXgXjXlXlXlX",
"zXlXlXkXgXgXlXgXgXgXrX;Xz.7.7.7.p.d.d.s.t.t.$.9.w.9.e.e.q.p.y.i.Z.S.L.L.F.L.F.F.L.L.L.P.Q.Q.Q.E.E.K.D.W.@XgXlXgXgXkXsXsXfXlXlXlX",
"lXlXlXkXgXgXlXgXkXjXsXsX-Xl.q.q.t.s.i.N.h.d.h.Z.h.h.h.a.a.a.y.d.Z.S.L.L.L.L.J.J.L.L.P.Y.Q.!.Q.Q.W.T.}.+X0XlXlXgXgXkXsXsXfXlXlXlX",
"zXlXzXlXlXkXlXlXlXlXfXgXhX*X~.f.t.N.N.M.V.A.S.G.Z.Z.h.f.y.y.y.h.S.I.U.Y.P.L.I.C.C.S.L.P.Y.Q.Q.Q.W.T.5XjXlXlXlXlXlXlXjXgXlXlXlXzX",
"zXzXzXlXlXkXlXgXgXkXgXgXjXiX&XG.y.i.M.B.Z.S.S.S.G.Z.h.a.p.y.y.h.Z.I.U.Y.Y.L.L.A.V.C.C.J.P.Y.Q.W.W.R.eXlXlXkXlXlXlXlXgXgXlXzXzXzX",
"zXzXzXlXlXlXlXgXgXlXgXgXlXsXqX.Xl.j.Z.Z.Z.Z.Z.G.Z.Z.f.q.0.y.y.f.h.h.S.S.S.F.L.V.f.g.g.C.S.J.P.E.R.!.eXlXlXlXlXlXlXlXgXgXlXzXzXzX",
"xXzXzXlXlXlXlXgXkXlXgXkXlXfXgXiXqX.XB.Z.Z.Z.Z.Z.h.h.t.0.9.t.t.0.q.y.y.f.a.h.h.g.g.y.y.i.g.C.J.K.K.!.aXzXlXlXlXlXlXlXkXkXlXxXzXzX",
"zXzXzXzXlXlXzXlXzXzXzXzXzXlXlXlXxX6XN.M.N.h.g.h.g.y.0.$.$.$...} ..9.9.9.X.X.a.h.g.y.0.0.y.g.C.D.K./.tXkXkXkXlXgXkXlXlXlXlXgXsXfX",
"zXzXzXlXlXlXzXzXzXxXzXzXzXlXlXlXxXpXB.i.h.i.y.y.q.0.9...$...} } } } ....&.q.h.h.d.q.9.9.9.y.V.D.D.@XtXkXgXgXgXgXgXlXkXkXlXaXsXfX",
"zXzXzXzXlXlXxXzXzXxXzXzXzXlXlXlXxXhX.Xi.i.y.0.0.$.....#.$..... .} } } ..9.a.h.h.a.9.} } ..0.i.C.D.>XaXkXgXkXkXgXgXlXlXlXlXaXdXfX",
"zXzXzXzXlXzXlXjXjXlXzXlXzXlXlXlXxXhX*Xt.u.y.0.$...} _  .*.o.o.} } } X...$.e.e.a.9._ S ^ ..0.M.V.|.eXgXlXlXlXlXlXlXlXgXjXhXzXzXzX",
"zXzXzXlXlXlXjXfXsXjXlXlXlXgXgXlXxXlX6X,.t.t.&... .Q F ) '  .o._ _ } } | | X.X.X.( ! ^ ( $.y.i.V.@XaXsXlXlXlXlXgXgXkXsXfXjXzXzXzX",
"zXzXzXlXlXlXkXsXaXgXlXlXlXgXgXkXzXzXyX.Xt.0.$.$. .Q Z Z S L S S F S F F D G / X.e.j.p.&.9.t.i.}.0XaXsXlXlXlXlXgXkXkXsXsXgXzXzXzX",
"lXjXlXzXlXzXlXfXgXjXjXkXlXzXlXlXlXlXlX-X,.&.%.#. .^ Q ^ Q F Z M D D D F G 6.w.a.h.Z.d.0.&.0.~.>XjXkXkXzXlXlXlXgXkXlXkXkXlXzXxXxX",
"dXaXaXzXzXzXlXaXdXfXaXaXjXzXzXzXkXgXgX<X,.%.%.#.' ' _ ' ' ' o.} ( / / | 8.w.w.a.d.N.d.t.t.u.;XgXkXkXgXlXlXlXlXgXgXlXlXlXzXzXzXzX",
"fXaXsXzXzXzXlXsXaXgXaXaXjXzXzXzXkXgXsX2Xm.@.+.+.+.' ' *.*.o.o.o.} } } } $.$.0.a.d.d.i.u.t.~.4XgXgXkXkXlXlXlXkXgXgXlXlXlXlXzXzXzX",
"jXjXfXzXlXlXlXjXjXjXgXgXlXzXzXzXkXjXdX<X4.` _ _ ` ' ' ' o.*.o.o.o.} } } ..$.e.q.p.y.t.t.u.+.(.iXlXjXkXlXlXlXlXlXlXlXlXlXzXzXzXxX",
"fXfXsXfXdXsXgXgXkXlXgXgXlXzXzXzXdXrXaX-X4.) ) ) _ _ ' ' o.o.*.*.o.} } } ..$.;.0.t.t.t.u.B.B.O.-XaXsXtXfXtXaXkXlXlXlXlXlXlXzXzXzX",
"fXsXsXfXaXsXlXgXgXkXgXgXlXzXzXzXrXrXwX1Xm.Q ~ _ ~ ) ) ` { o.' #. . ... .$.$.0.p.p.t.t.t.u.V.-._.rXsXaXgXsXsXlXlXlXlXlXlXzXzXzXzX",
"jXfXgXjXdXgXlXkXkXlXkXgXkXzXzXzXgXaXdXwX#X2.~ ] ~ ~ I ~ ) ' '  .o. . .$.$.=.&.0.0.0.0.t.i.V.e.c.4XgXfXjXfXfXlXlXlXzXlXlXzXzXzXzX",
"kXgXgXzXzXzXhXdXaXfXaXaXfXkXgXkXkXfXgXdXrX].I Q ~ ~ L L L ) _ +.' '  . .o...$.&.&.0.t.u.M.g.p.1.3XjXlXkXfXsXjXlXlXzXzXzXzXaXsXaX",
"kXgXgXzXzXzXlXsXsXgXrXiXgXgXgXkXgXfXkXfXaXqX].Y ~ L L K S A L ~ [ ' ' _ '  .} $.&.0.u.M.V.M.e.c.7XlXlXjXsXsXlXlXlXlXzXzXzXaXsXfX",
"lXkXkXzXzXxXlXsXdXhXrXaXjXkXkXkXkXlXkXjXsXfXuX#XW I L S A A A A S S L Q Q Q ^ $.0.u.M.V.V.i.j.oXhXlXjXjXaXsXlXlXlXzXzXzXzXgXdXfX"
};
